<svg xmlns="http://www.w3.org/2000/svg" version="1.1" xmlns:xlink="http://www.w3.org/1999/xlink" width="512" height="512"><svg width="512" height="512" viewBox="0 0 512 512" fill="none" xmlns="http://www.w3.org/2000/svg">
<rect width="512" height="512" rx="90" fill="#1A237E"></rect>
<path d="M255.663 304.05L255.563 303.95C242.563 290.25 236.163 274.25 236.163 255.95C236.163 246.75 237.763 238.15 241.063 230.15C244.363 222.15 249.163 214.85 255.563 208.25C262.063 201.85 269.363 196.95 277.363 193.65C285.463 190.35 294.063 188.65 303.163 188.65C312.863 188.65 322.063 190.55 330.763 194.45C339.463 198.35 346.963 203.75 353.363 210.85C359.163 217.25 363.563 224.65 366.563 232.85C366.963 234.05 366.063 235.25 364.863 235.25H353.363C352.663 235.25 351.963 234.85 351.663 234.15C349.063 228.05 345.363 222.65 340.663 217.95C335.763 213.05 330.063 209.15 323.563 206.55C317.063 203.95 310.363 202.55 303.163 202.55C293.363 202.55 284.463 204.95 276.363 209.65C268.263 214.35 261.963 220.75 257.263 228.95C252.563 237.05 250.263 246.15 250.263 256.05C250.263 265.95 252.563 274.95 257.263 283.15C261.963 291.35 268.263 297.85 276.463 302.55C284.563 307.25 293.463 309.65 303.263 309.65C310.363 309.65 317.163 308.35 323.663 305.65C330.063 302.95 335.763 299.15 340.763 294.25C345.463 289.55 349.063 284.25 351.763 278.25C352.063 277.55 352.663 277.15 353.463 277.15H364.963C366.263 277.15 367.163 278.45 366.663 279.55C363.663 287.75 359.263 295.05 353.463 301.45C347.063 308.55 339.563 313.95 330.863 317.85C322.163 321.75 312.963 323.65 303.263 323.65C285.163 323.35 269.263 316.95 255.663 304.05Z" fill="white"></path>
<path d="M336.363 337.851L345.563 333.251C346.463 332.751 347.563 333.151 348.063 334.051L388.363 414.251C388.863 415.151 388.463 416.251 387.563 416.751L378.363 421.351C377.463 421.851 376.363 421.451 375.863 420.551L335.563 340.251C335.063 339.351 335.463 338.251 336.363 337.851Z" fill="white"></path>
<path d="M285.863 343.85L296.063 344.95C297.063 345.05 297.763 345.95 297.663 346.95L287.663 436.15C287.563 437.15 286.663 437.85 285.663 437.75L275.463 436.65C274.463 436.55 273.763 435.65 273.863 434.65L283.863 345.45C283.963 344.55 284.863 343.75 285.863 343.85Z" fill="white"></path>
<path d="M240.162 321.452L248.162 328.052C248.962 328.652 249.062 329.851 248.462 330.651L191.462 399.951C190.862 400.751 189.662 400.851 188.862 400.251L180.862 393.651C180.062 393.051 179.962 391.851 180.562 391.051L237.562 321.752C238.262 320.852 239.362 320.752 240.162 321.452Z" fill="white"></path>
<path d="M214.162 277.652L217.262 287.452C217.562 288.452 217.062 289.452 216.062 289.752L130.462 316.752C129.462 317.052 128.462 316.552 128.162 315.552L125.062 305.752C124.762 304.752 125.262 303.752 126.262 303.452L211.862 276.452C212.862 276.152 213.862 276.652 214.162 277.652Z" fill="white"></path>
<path d="M216.262 226.852L213.462 236.752C213.162 237.752 212.162 238.252 211.162 238.052L124.762 213.952C123.762 213.652 123.262 212.652 123.462 211.652L126.262 201.752C126.562 200.752 127.562 200.252 128.562 200.452L214.962 224.552C215.962 224.852 216.562 225.852 216.262 226.852Z" fill="white"></path>
<path d="M245.762 185.351L238.062 192.151C237.262 192.851 236.162 192.751 235.462 191.951L176.162 124.651C175.462 123.851 175.562 122.751 176.362 122.051L184.062 115.251C184.862 114.551 185.962 114.651 186.662 115.451L245.962 182.751C246.562 183.551 246.562 184.651 245.762 185.351Z" fill="white"></path>
<path d="M293.063 166.651L282.863 168.151C281.863 168.251 280.963 167.651 280.763 166.651L267.763 77.851C267.663 76.851 268.263 75.9511 269.263 75.7511L279.463 74.2511C280.463 74.1511 281.363 74.7511 281.563 75.7511L294.563 164.551C294.763 165.551 294.063 166.551 293.063 166.651Z" fill="white"></path>
<path d="M342.962 176.85L333.562 172.55C332.662 172.15 332.262 171.051 332.662 170.151L370.262 88.6507C370.662 87.7507 371.762 87.3508 372.662 87.7508L382.062 92.0507C382.962 92.4507 383.362 93.5507 382.962 94.4507L345.362 175.95C344.962 176.85 343.862 177.25 342.962 176.85Z" fill="white"></path>
<path d="M303.062 293.051C323.497 293.051 340.062 276.485 340.062 256.051C340.062 235.616 323.497 219.051 303.062 219.051C282.628 219.051 266.062 235.616 266.062 256.051C266.062 276.485 282.628 293.051 303.062 293.051Z" fill="#FFCC00"></path>
</svg><style>@media (prefers-color-scheme: light) { :root { filter: none; } }
@media (prefers-color-scheme: dark) { :root { filter: none; } }
</style></svg>