<svg width="90" height="51" viewBox="0 0 90 51" fill="none" xmlns="http://www.w3.org/2000/svg">
<path d="M18.9807 23.135C21.1413 23.135 22.8915 21.3848 22.8915 19.2242C22.8915 17.0635 21.1413 15.3133 18.9807 15.3133C16.82 15.3133 15.0699 17.0635 15.0699 19.2242C15.0699 21.3848 16.82 23.135 18.9807 23.135Z" fill="url(#paint0_linear_1_17)"/>
<path d="M30.9919 26.15H29.888C29.7795 26.15 29.6945 26.065 29.6945 25.9565V12.514C29.6945 12.4055 29.7795 12.3206 29.888 12.3206H30.9919C31.1004 12.3206 31.1853 12.4055 31.1853 12.514V13.9127C31.1853 14.0896 31.3999 14.1722 31.5226 14.0425C32.0392 13.4952 32.6501 13.0541 33.353 12.7192C34.2139 12.3088 35.1338 12.1012 36.1104 12.1012C37.2662 12.1012 38.3064 12.3583 39.2286 12.8725C40.1509 13.3867 40.868 14.0967 41.3869 15.0072C41.9058 15.9153 42.1653 16.9437 42.1653 18.0924V25.9589C42.1653 26.0674 42.0804 26.1523 41.9719 26.1523H40.8821C40.7736 26.1523 40.6887 26.0674 40.6887 25.9589V18.425C40.6887 17.4674 40.4976 16.6159 40.1179 15.8729C39.7358 15.1322 39.198 14.559 38.5045 14.151C37.8087 13.7453 37.0138 13.5401 36.1151 13.5401C35.1621 13.5401 34.3153 13.7806 33.57 14.2595C32.8246 14.7383 32.242 15.4035 31.8221 16.2526C31.4023 17.1018 31.1924 18.0689 31.1924 19.1562V25.9542C31.1924 26.0627 31.1074 26.1476 30.9989 26.1476L30.9919 26.15Z" fill="#291B89"/>
<path d="M48.1373 24.2927C48.1373 24.2927 48.1278 24.2832 48.1231 24.2785C46.7527 22.8302 46.0663 21.139 46.0663 19.2048C46.0663 18.2377 46.2408 17.3273 46.5876 16.4805C46.9343 15.6313 47.4462 14.86 48.1255 14.1665C48.8119 13.4896 49.5808 12.9753 50.4323 12.6239C51.2862 12.2724 52.1967 12.0955 53.1638 12.0955C54.3738 12.0955 55.4895 12.3833 56.5179 12.9565C57.5463 13.5297 58.3837 14.3198 59.03 15.3223C59.6763 16.3248 60.049 17.4405 60.1433 18.6647C60.1598 18.8604 60.1669 19.186 60.1693 19.6388C60.1693 19.7473 60.0844 19.8346 59.9759 19.8346H47.8306C47.7151 19.8346 47.6207 19.9384 47.6372 20.0516C47.7528 20.9149 48.05 21.7027 48.5265 22.4104C49.0407 23.177 49.7058 23.7808 50.5196 24.2148C51.3334 24.6512 52.2179 24.8706 53.1661 24.8706C54.237 24.8706 55.223 24.5922 56.1311 24.0355C57.0015 23.5001 57.6619 22.7878 58.1172 21.8914C58.1502 21.8254 58.2162 21.7829 58.2894 21.7829H59.5253C59.6645 21.7829 59.7612 21.9268 59.7046 22.0518C59.3532 22.8562 58.8767 23.5685 58.2728 24.1865C57.6053 24.8729 56.8293 25.4013 55.9471 25.7739C55.0626 26.1466 54.1403 26.333 53.1709 26.333C51.2603 26.333 49.5855 25.6513 48.142 24.2856V24.2903L48.1373 24.2927ZM58.3601 18.3816C58.4781 18.3816 58.5724 18.2731 58.5512 18.1575C58.4049 17.332 58.0959 16.5819 57.6289 15.9073C57.1194 15.1761 56.4755 14.6005 55.6947 14.1854C54.914 13.7702 54.0695 13.5603 53.1614 13.5603C52.2533 13.5603 51.3711 13.7702 50.5715 14.1854C49.7695 14.6005 49.1091 15.1737 48.5925 15.9073C48.1184 16.5795 47.8047 17.3296 47.6584 18.1575C47.6372 18.2755 47.7316 18.384 47.8495 18.384H58.3601V18.3816Z" fill="#291B89"/>
<path d="M66.9865 26.0031C66.2553 25.7413 65.6467 25.3757 65.1608 24.9039C64.6773 24.4345 64.3541 23.8873 64.189 23.2693C64.1112 22.9862 64.0734 22.682 64.0734 22.3565C64.0734 22.2951 64.0781 22.2126 64.0852 22.1135C64.0923 22.0121 64.1772 21.9342 64.2786 21.9342H65.208C65.3188 21.9342 65.4085 22.031 65.4014 22.1442C65.4014 22.1796 65.3967 22.2079 65.3967 22.2291C65.3967 22.7692 65.5877 23.2504 65.9675 23.6703C66.3473 24.0901 66.8497 24.4133 67.4653 24.6397C68.0833 24.8662 68.7343 24.9794 69.4207 24.9794C70.1567 24.9794 70.8242 24.8685 71.4186 24.6515C72.0153 24.4345 72.48 24.1326 72.8197 23.7528C73.157 23.3731 73.3315 22.9414 73.341 22.4602C73.3245 21.8092 73.0249 21.2785 72.4423 20.8728C71.8597 20.4671 70.8997 20.1204 69.5622 19.8373C68.7815 19.684 68.1517 19.5425 67.6658 19.4127C67.1823 19.283 66.7152 19.1297 66.2718 18.9504C65.5358 18.6343 64.9863 18.2334 64.6277 17.7474C64.1088 17.0516 63.9626 16.1529 64.1914 15.0561C64.1937 15.0443 64.1984 15.0325 64.2032 15.0207C64.6159 13.9027 65.4462 13.0842 66.6846 12.5605C67.4983 12.2185 68.4112 12.0463 69.4207 12.0463C70.4303 12.0463 71.3856 12.2209 72.204 12.5676C73.0225 12.9144 73.6618 13.3955 74.1194 14.0135C74.577 14.6315 74.8081 15.325 74.8081 16.0963C74.8081 16.1506 74.8034 16.2284 74.7963 16.3275C74.7892 16.4265 74.7043 16.5067 74.6029 16.5067H73.4565C73.466 16.4478 73.4707 16.3581 73.4707 16.2355C73.4707 15.7378 73.2938 15.2778 72.9376 14.8533C72.5814 14.4287 72.0955 14.0914 71.4775 13.8437C70.8596 13.596 70.1755 13.471 69.4207 13.471C68.6659 13.471 68.0173 13.5819 67.4228 13.7989C66.8261 14.0159 66.3614 14.3202 66.0217 14.7047C65.6821 15.0891 65.5146 15.5231 65.5146 16.0043C65.5146 16.2449 65.5665 16.469 65.675 16.6789C65.7835 16.8889 65.9345 17.061 66.1326 17.2002C66.3119 17.3276 66.6303 17.4785 67.0832 17.6507C67.4677 17.8041 67.8121 17.9244 68.1116 18.0046C68.4112 18.0847 68.9395 18.2145 69.692 18.3843C70.9067 18.6414 71.8856 18.948 72.6216 19.3042C73.3575 19.6604 73.9 20.0944 74.2491 20.6015C74.7256 21.3021 74.8765 22.2055 74.6949 23.307C74.6949 23.3212 74.6878 23.333 74.6831 23.3471C74.2774 24.5124 73.44 25.3592 72.171 25.8875C71.3573 26.2272 70.4397 26.3946 69.4207 26.3946C68.5315 26.3946 67.7177 26.2649 66.9841 26.0031H66.9818H66.9865Z" fill="#291B89"/>
<path d="M81.6248 26.0031C80.8936 25.7413 80.2851 25.3757 79.7992 24.9039C79.3156 24.4345 78.9925 23.8873 78.8274 23.2693C78.7495 22.9862 78.7118 22.682 78.7118 22.3565C78.7118 22.2951 78.7165 22.2126 78.7236 22.1135C78.7307 22.0121 78.8156 21.9342 78.917 21.9342H79.8464C79.9572 21.9342 80.0468 22.031 80.0398 22.1442C80.0398 22.1796 80.0351 22.2079 80.0351 22.2291C80.0351 22.7692 80.2261 23.2504 80.6059 23.6703C80.9856 24.0901 81.488 24.4133 82.1037 24.6397C82.7217 24.8662 83.3727 24.9794 84.0591 24.9794C84.795 24.9794 85.4625 24.8685 86.0569 24.6515C86.6537 24.4345 87.1184 24.1326 87.458 23.7528C87.7953 23.3731 87.9699 22.9414 87.9793 22.4602C87.9628 21.8092 87.6633 21.2785 87.0807 20.8728C86.498 20.4671 85.538 20.1204 84.2006 19.8373C83.4199 19.684 82.7901 19.5425 82.3065 19.4127C81.823 19.283 81.3559 19.1297 80.9125 18.9504C80.1766 18.6343 79.627 18.2334 79.2685 17.7474C78.7495 17.0516 78.6033 16.1529 78.8321 15.0561C78.8344 15.0443 78.8392 15.0325 78.8439 15.0207C79.2567 13.9027 80.0869 13.0842 81.3253 12.5605C82.1391 12.2185 83.0519 12.0463 84.0614 12.0463C85.071 12.0463 86.0263 12.2209 86.8448 12.5676C87.6633 12.9144 88.3025 13.3955 88.7601 14.0135C89.2177 14.6315 89.4488 15.325 89.4488 16.0963C89.4488 16.1506 89.4441 16.2284 89.437 16.3275C89.43 16.4265 89.3451 16.5067 89.2436 16.5067H88.0973C88.1067 16.4478 88.1114 16.3581 88.1114 16.2355C88.1114 15.7378 87.9345 15.2778 87.5783 14.8533C87.2222 14.4287 86.7363 14.0914 86.1183 13.8437C85.5003 13.596 84.8162 13.471 84.0614 13.471C83.3066 13.471 82.658 13.5819 82.0636 13.7989C81.4668 14.0159 81.0021 14.3202 80.6625 14.7047C80.3228 15.0891 80.1553 15.5231 80.1553 16.0043C80.1553 16.2449 80.2072 16.469 80.3157 16.6789C80.4242 16.8889 80.5752 17.061 80.7733 17.2002C80.9526 17.3276 81.271 17.4785 81.7239 17.6507C82.1084 17.8041 82.4528 17.9244 82.7523 18.0046C83.0519 18.0847 83.5803 18.2145 84.3327 18.3843C85.5475 18.6414 86.5263 18.948 87.2623 19.3042C87.9982 19.6604 88.5407 20.0944 88.8898 20.6015C89.3663 21.3021 89.5172 22.2055 89.3356 23.307C89.3356 23.3212 89.3285 23.333 89.3238 23.3471C88.9181 24.5124 88.0808 25.3592 86.8117 25.8875C85.998 26.2272 85.0804 26.3946 84.0614 26.3946C83.1722 26.3946 82.3584 26.2649 81.6248 26.0031Z" fill="#291B89"/>
<path d="M13.9732 24.2927C13.9732 24.2927 13.9637 24.2832 13.959 24.2785C12.5886 22.8302 11.9022 21.139 11.9022 19.2048C11.9022 18.2377 12.0767 17.3273 12.4235 16.4805C12.7702 15.6313 13.2821 14.86 13.9614 14.1665C14.6478 13.4896 15.4167 12.9753 16.2682 12.6239C17.1221 12.2724 18.0326 12.0955 18.9997 12.0955C20.0281 12.0955 20.9999 12.3007 21.9175 12.7065C22.835 13.1122 23.6299 13.69 24.3022 14.4354C24.9154 15.1147 25.3801 15.8908 25.6985 16.7612C25.7457 16.8862 25.649 17.0183 25.5146 17.0183H24.2951C24.2173 17.0183 24.1489 16.9711 24.1182 16.9027C23.8399 16.2564 23.453 15.6879 22.96 15.1949C22.4364 14.6713 21.8349 14.2703 21.1556 13.9849C20.4739 13.7018 19.7568 13.5603 19.002 13.5603C17.9642 13.5603 17.0207 13.808 16.1668 14.3057C15.3129 14.8034 14.6407 15.4827 14.1477 16.3436C13.6547 17.2046 13.4094 18.1575 13.4094 19.2048C13.4094 20.2521 13.6547 21.2051 14.1477 22.0731C14.6407 22.9387 15.3153 23.6204 16.1739 24.1252C17.0325 24.6276 17.9736 24.8776 19.002 24.8776C19.7568 24.8776 20.4739 24.7361 21.1556 24.453C21.8373 24.17 22.4388 23.7666 22.96 23.243C23.453 22.75 23.8399 22.1863 24.1182 21.5471C24.1489 21.4763 24.2173 21.4315 24.2951 21.4315H25.5146C25.649 21.4315 25.7434 21.5636 25.6962 21.6886C25.3778 22.5519 24.9131 23.3232 24.3022 24.0025C23.6299 24.7479 22.835 25.3234 21.9175 25.7315C20.9999 26.1372 20.0281 26.3424 18.9997 26.3424C17.0891 26.3424 15.4144 25.6607 13.9708 24.295L13.9732 24.2927Z" fill="#291B89"/>
<path d="M23.4769 27.3909L22.5027 27.8815C22.4083 27.9287 22.3682 28.0466 22.4178 28.141L26.6753 36.616C26.7225 36.7104 26.8404 36.7505 26.9348 36.7009L27.9089 36.2103C28.0033 36.1631 28.0434 36.0452 27.9939 35.9508L23.7363 27.4758C23.6891 27.3791 23.5712 27.3414 23.4769 27.3886V27.3909Z" fill="#291B89"/>
<path d="M16.95 28.6899L15.8933 38.1155C15.8815 38.2216 15.957 38.3183 16.0631 38.3301L17.1458 38.4504C17.2519 38.4622 17.3487 38.3867 17.3604 38.2806L18.4172 28.855C18.429 28.7488 18.3535 28.6521 18.2473 28.6403L17.1647 28.52C17.0585 28.5082 16.9618 28.5837 16.95 28.6899Z" fill="#291B89"/>
<path d="M12.0627 26.1652L6.0361 33.4892C5.96769 33.5717 5.97948 33.6944 6.06204 33.7604L6.90412 34.4539C6.98667 34.5223 7.10933 34.5105 7.17537 34.428L13.202 27.104C13.2704 27.0215 13.2586 26.8988 13.176 26.8328L12.334 26.1393C12.2514 26.0709 12.1288 26.0827 12.0627 26.1652Z" fill="#291B89"/>
<path d="M9.34763 21.3875L0.301808 24.2392C0.200382 24.2723 0.14377 24.3808 0.174434 24.4822L0.502297 25.5224C0.535319 25.6238 0.643822 25.6804 0.745248 25.6498L9.79108 22.798C9.8925 22.765 9.94911 22.6565 9.91845 22.5551L9.59058 21.5149C9.55756 21.4134 9.44905 21.3568 9.34763 21.3875Z" fill="#291B89"/>
<path d="M0.299622 13.4917L0.00713916 14.5413C-0.0211659 14.6451 0.0377975 14.7512 0.141583 14.7795L9.2794 17.3246C9.38319 17.3529 9.48933 17.294 9.51763 17.1902L9.81012 16.1405C9.83843 16.0368 9.77946 15.9306 9.67567 15.9023L0.537859 13.3572C0.434074 13.3289 0.327928 13.3879 0.299622 13.4917Z" fill="#291B89"/>
<path d="M6.40174 4.34795L5.58325 5.06972C5.50305 5.14049 5.49597 5.26314 5.56673 5.34334L11.8363 12.4621C11.9071 12.5423 12.0297 12.5493 12.1099 12.4786L12.9284 11.7568C13.0086 11.686 13.0157 11.5634 12.9449 11.4832L6.67535 4.36446C6.60459 4.28426 6.48193 4.27718 6.40174 4.34795Z" fill="#291B89"/>
<path d="M16.504 0.00226354L15.4261 0.160303C15.32 0.176815 15.2468 0.273522 15.2633 0.379666L16.6338 9.76515C16.6503 9.8713 16.747 9.94442 16.8531 9.92791L17.9311 9.76987C18.0372 9.75336 18.1104 9.65665 18.0939 9.55051L16.7234 0.165018C16.7069 0.0588742 16.6102 -0.0142477 16.504 0.00226354Z" fill="#291B89"/>
<path d="M26.0856 1.52723L22.1135 10.1414C22.0687 10.2381 22.1135 10.3537 22.2078 10.3985L23.1985 10.8561C23.2952 10.9009 23.4108 10.8561 23.4556 10.7618L27.4278 2.14757C27.4726 2.05086 27.4278 1.93528 27.3334 1.89047L26.3427 1.43287C26.246 1.38805 26.1305 1.43288 26.0856 1.52723Z" fill="#291B89"/>
<path d="M1.79975 48.6813C1.22893 48.6813 0.785492 48.5044 0.471778 48.153C0.158063 47.8015 0.00238037 47.3038 0.00238037 46.6599C0.00238037 46.0159 0.160422 45.4876 0.478854 45.129C0.797285 44.7681 1.25016 44.5889 1.83985 44.5889C2.02855 44.5889 2.21961 44.6101 2.40831 44.6502C2.59701 44.6903 2.74797 44.7398 2.85411 44.7941L2.67013 45.3012C2.53804 45.2493 2.39416 45.2045 2.23848 45.1691C2.08281 45.1338 1.94364 45.1172 1.82334 45.1172C1.02136 45.1172 0.620373 45.6291 0.620373 46.6528C0.620373 47.1387 0.719441 47.5114 0.915217 47.7708C1.11099 48.0303 1.40112 48.16 1.7856 48.16C2.11582 48.16 2.45313 48.0893 2.79751 47.9477V48.4785C2.53333 48.6153 2.20074 48.6837 1.79975 48.6837V48.6813Z" fill="#291B89"/>
<path d="M7.4819 46.6316C7.4819 47.2755 7.31914 47.7779 6.99599 48.1388C6.67284 48.4997 6.22468 48.6813 5.65151 48.6813C5.29769 48.6813 4.98397 48.5988 4.71036 48.4337C4.43674 48.2685 4.22446 48.0303 4.07586 47.7189C3.92726 47.41 3.85178 47.0467 3.85178 46.6316C3.85178 45.9876 4.01217 45.4852 4.33532 45.1267C4.65611 44.7681 5.10428 44.5889 5.6751 44.5889C6.24592 44.5889 6.66577 44.7729 6.99128 45.1408C7.31679 45.5088 7.47954 46.0065 7.47954 46.6339L7.4819 46.6316ZM4.47448 46.6316C4.47448 47.1363 4.57592 47.5208 4.77641 47.785C4.97926 48.0492 5.27411 48.1813 5.66566 48.1813C6.05721 48.1813 6.35442 48.0492 6.55727 47.7873C6.76012 47.5232 6.86155 47.1387 6.86155 46.6316C6.86155 46.1244 6.76012 45.747 6.55727 45.4876C6.35442 45.2281 6.05485 45.096 5.65858 45.096C5.26231 45.096 4.97218 45.2234 4.77169 45.4805C4.57355 45.7376 4.47213 46.1197 4.47213 46.6292L4.47448 46.6316Z" fill="#291B89"/>
<path d="M11.5743 48.6091V46.0546C11.5743 45.7338 11.5011 45.4932 11.3549 45.3328C11.2087 45.1748 10.9798 45.0946 10.6661 45.0946C10.2534 45.0946 9.94908 45.2054 9.75802 45.4295C9.56696 45.6536 9.47025 46.0216 9.47025 46.5358V48.6091H8.87112V44.6582H9.35703L9.45374 45.1984H9.48204C9.6047 45.0026 9.77689 44.854 9.99861 44.7455C10.2203 44.6394 10.4656 44.5851 10.7369 44.5851C11.2134 44.5851 11.5719 44.7007 11.8101 44.9295C12.0507 45.1583 12.171 45.5262 12.171 46.031V48.6068H11.5719L11.5743 48.6091Z" fill="#291B89"/>
<path d="M16.2896 47.5312C16.2896 47.8992 16.1528 48.1822 15.8792 48.3827C15.6056 48.5808 15.2211 48.6823 14.7258 48.6823C14.2021 48.6823 13.794 48.5997 13.5016 48.4346V47.8803C13.6903 47.977 13.8955 48.0525 14.1125 48.1067C14.3295 48.161 14.5394 48.1893 14.7423 48.1893C15.0536 48.1893 15.2942 48.1398 15.464 48.0407C15.6315 47.9416 15.7164 47.7883 15.7164 47.5855C15.7164 47.4321 15.6504 47.3 15.5159 47.1915C15.3815 47.083 15.122 46.9533 14.7352 46.8047C14.3672 46.6679 14.1054 46.5476 13.9521 46.4462C13.7964 46.3447 13.6808 46.2292 13.6053 46.0994C13.5299 45.9697 13.4921 45.814 13.4921 45.6348C13.4921 45.314 13.6242 45.0592 13.8837 44.8729C14.1455 44.6865 14.504 44.5946 14.9616 44.5946C15.3862 44.5946 15.8037 44.6818 16.2094 44.854L15.9971 45.3399C15.6009 45.1772 15.2423 45.0946 14.9192 45.0946C14.6361 45.0946 14.4215 45.1394 14.2776 45.2267C14.1337 45.3163 14.0606 45.439 14.0606 45.5947C14.0606 45.7008 14.0865 45.7904 14.1408 45.8659C14.195 45.939 14.2823 46.0122 14.4026 46.0782C14.5229 46.1442 14.7541 46.2433 15.0937 46.3707C15.5631 46.5405 15.8792 46.7127 16.0443 46.8873C16.2094 47.0618 16.292 47.2788 16.292 47.5383L16.2896 47.5312Z" fill="#291B89"/>
<path d="M19.1787 48.6813C18.6078 48.6813 18.1644 48.5044 17.8507 48.153C17.537 47.8015 17.3813 47.3038 17.3813 46.6599C17.3813 46.0159 17.5393 45.4876 17.8578 45.129C18.1762 44.7705 18.6291 44.5889 19.2188 44.5889C19.4075 44.5889 19.5985 44.6101 19.7872 44.6502C19.9759 44.6903 20.1269 44.7398 20.233 44.7941L20.049 45.3012C19.917 45.2493 19.7731 45.2045 19.6174 45.1691C19.4617 45.1338 19.3225 45.1172 19.2022 45.1172C18.4003 45.1172 17.9993 45.6291 17.9993 46.6528C17.9993 47.1387 18.0984 47.5114 18.2941 47.7708C18.4899 48.0303 18.78 48.16 19.1645 48.16C19.4947 48.16 19.832 48.0893 20.1764 47.9477V48.4785C19.9122 48.6153 19.5797 48.6837 19.1787 48.6837V48.6813Z" fill="#291B89"/>
<path d="M21.4034 43.5886C21.4034 43.4518 21.4364 43.3504 21.5048 43.2867C21.5732 43.223 21.6558 43.1924 21.7572 43.1924C21.8586 43.1924 21.9365 43.2254 22.0049 43.2891C22.0733 43.3527 22.1086 43.4542 22.1086 43.5886C22.1086 43.7231 22.0733 43.8245 22.0049 43.8906C21.9341 43.9566 21.8515 43.9896 21.7572 43.9896C21.6628 43.9896 21.5732 43.9566 21.5048 43.8906C21.4364 43.8245 21.4034 43.7231 21.4034 43.5886ZM22.052 48.6104H21.4529V44.6595H22.052V48.6104Z" fill="#291B89"/>
<path d="M27.0715 46.6316C27.0715 47.2755 26.9087 47.7779 26.5856 48.1388C26.2625 48.4997 25.8143 48.6813 25.2411 48.6813C24.8873 48.6813 24.5736 48.5988 24.3 48.4337C24.0264 48.2685 23.8141 48.0303 23.6655 47.7189C23.5169 47.41 23.4414 47.0467 23.4414 46.6316C23.4414 45.9876 23.6018 45.4852 23.9249 45.1267C24.2457 44.7681 24.6939 44.5889 25.2647 44.5889C25.8355 44.5889 26.2554 44.7729 26.5809 45.1408C26.9064 45.5088 27.0691 46.0065 27.0691 46.6339L27.0715 46.6316ZM24.0617 46.6316C24.0617 47.1363 24.1632 47.5208 24.3636 47.785C24.5665 48.0492 24.8614 48.1813 25.2529 48.1813C25.6445 48.1813 25.9417 48.0492 26.1445 47.7873C26.3474 47.5232 26.4488 47.1387 26.4488 46.6316C26.4488 46.1244 26.3474 45.747 26.1445 45.4876C25.9417 45.2281 25.6421 45.096 25.2458 45.096C24.8496 45.096 24.5594 45.2234 24.3589 45.4805C24.1608 45.7376 24.0594 46.1197 24.0594 46.6292L24.0617 46.6316Z" fill="#291B89"/>
<path d="M29.0196 44.6589V47.2205C29.0196 47.5436 29.0927 47.7819 29.239 47.9423C29.3852 48.1003 29.614 48.1805 29.9277 48.1805C30.3405 48.1805 30.6424 48.0673 30.8335 47.8408C31.0245 47.6144 31.1189 47.2464 31.1189 46.7346V44.6589H31.718V48.6098H31.225L31.1378 48.0791H31.1047C30.9821 48.2749 30.8123 48.4235 30.5953 48.5249C30.3782 48.6263 30.1306 48.6806 29.8499 48.6806C29.3687 48.6806 29.0102 48.5673 28.7696 48.3385C28.5313 48.1097 28.411 47.7441 28.411 47.2441V44.6612H29.0172L29.0196 44.6589Z" fill="#291B89"/>
<path d="M35.8763 47.5312C35.8763 47.8992 35.7395 48.1822 35.4659 48.3827C35.1923 48.5808 34.8078 48.6823 34.3125 48.6823C33.7888 48.6823 33.3808 48.5997 33.0883 48.4346V47.8803C33.277 47.977 33.4822 48.0525 33.6992 48.1067C33.9162 48.161 34.1261 48.1893 34.329 48.1893C34.6404 48.1893 34.8809 48.1398 35.0508 48.0407C35.2182 47.9416 35.3032 47.7883 35.3032 47.5855C35.3032 47.4321 35.2371 47.3 35.1027 47.1915C34.9682 47.083 34.7088 46.9533 34.3219 46.8047C33.954 46.6679 33.6921 46.5476 33.5388 46.4462C33.3831 46.3447 33.2676 46.2292 33.1921 46.0994C33.1166 45.9697 33.0789 45.814 33.0789 45.6348C33.0789 45.314 33.2109 45.0592 33.4704 44.8729C33.7322 44.6865 34.0908 44.5946 34.5484 44.5946C34.9729 44.5946 35.3904 44.6818 35.7961 44.854L35.5839 45.3399C35.1876 45.1772 34.8291 45.0946 34.5059 45.0946C34.2229 45.0946 34.0082 45.1394 33.8643 45.2267C33.7204 45.3163 33.6473 45.439 33.6473 45.5947C33.6473 45.7008 33.6733 45.7904 33.7275 45.8659C33.7818 45.939 33.869 46.0122 33.9893 46.0782C34.1096 46.1442 34.3408 46.2433 34.6805 46.3707C35.1498 46.5405 35.4659 46.7127 35.631 46.8873C35.7961 47.0618 35.8787 47.2788 35.8787 47.5383L35.8763 47.5312Z" fill="#291B89"/>
<path d="M39.8912 48.6091V46.0546C39.8912 45.7338 39.818 45.4932 39.6718 45.3328C39.5255 45.1748 39.2967 45.0946 38.983 45.0946C38.5703 45.0946 38.266 45.2054 38.0749 45.4295C37.8839 45.6536 37.7871 46.0216 37.7871 46.5358V48.6091H37.188V44.6582H37.6739L37.7706 45.1984H37.7989C37.9216 45.0026 38.0938 44.854 38.3155 44.7455C38.5372 44.6394 38.7825 44.5851 39.0538 44.5851C39.5303 44.5851 39.8888 44.7007 40.127 44.9295C40.3676 45.1583 40.4879 45.5262 40.4879 46.031V48.6068H39.8888L39.8912 48.6091Z" fill="#291B89"/>
<path d="M43.7263 48.6813C43.1413 48.6813 42.6813 48.5044 42.344 48.1482C42.0067 47.7921 41.8369 47.2991 41.8369 46.6669C41.8369 46.0348 41.9926 45.5253 42.3063 45.1503C42.62 44.7752 43.0399 44.5889 43.5682 44.5889C44.0636 44.5889 44.4551 44.7516 44.7429 45.0771C45.0307 45.4026 45.1746 45.8319 45.1746 46.365V46.7424H42.4525C42.4643 47.2071 42.5823 47.5586 42.804 47.7992C43.0257 48.0397 43.3394 48.16 43.7428 48.16C44.1674 48.16 44.5896 48.0704 45.0047 47.8935V48.4266C44.7924 48.5186 44.5919 48.5823 44.4056 48.6224C44.2169 48.6625 43.9905 48.6813 43.7216 48.6813H43.7263ZM43.5635 45.0889C43.2474 45.0889 42.9927 45.1927 42.804 45.3979C42.6153 45.6055 42.5044 45.8909 42.4714 46.2565H44.5377C44.5377 45.8791 44.4528 45.5913 44.2853 45.3885C44.1178 45.188 43.8772 45.0889 43.5635 45.0889Z" fill="#291B89"/>
<path d="M49.0856 47.5312C49.0856 47.8992 48.9488 48.1822 48.6751 48.3827C48.4015 48.5808 48.017 48.6823 47.5217 48.6823C46.9981 48.6823 46.59 48.5997 46.2975 48.4346V47.8803C46.4862 47.977 46.6914 48.0525 46.9084 48.1067C47.1254 48.161 47.3354 48.1893 47.5382 48.1893C47.8496 48.1893 48.0902 48.1398 48.26 48.0407C48.4275 47.9416 48.5124 47.7883 48.5124 47.5855C48.5124 47.4321 48.4463 47.3 48.3119 47.1915C48.1774 47.083 47.918 46.9533 47.5311 46.8047C47.1632 46.6679 46.9014 46.5476 46.748 46.4462C46.5924 46.3447 46.4768 46.2292 46.4013 46.0994C46.3258 45.9697 46.2881 45.814 46.2881 45.6348C46.2881 45.314 46.4202 45.0592 46.6796 44.8729C46.9415 44.6865 47.3 44.5946 47.7576 44.5946C48.1822 44.5946 48.5997 44.6818 49.0054 44.854L48.7931 45.3399C48.3968 45.1772 48.0383 45.0946 47.7151 45.0946C47.4321 45.0946 47.2174 45.1394 47.0735 45.2267C46.9297 45.3163 46.8565 45.439 46.8565 45.5947C46.8565 45.7008 46.8825 45.7904 46.9367 45.8659C46.991 45.939 47.0783 46.0122 47.1986 46.0782C47.3189 46.1442 47.55 46.2433 47.8897 46.3707C48.3591 46.5405 48.6751 46.7127 48.8403 46.8873C49.0054 47.0618 49.0879 47.2788 49.0879 47.5383L49.0856 47.5312Z" fill="#291B89"/>
<path d="M52.9468 47.5312C52.9468 47.8992 52.81 48.1822 52.5364 48.3827C52.2628 48.5808 51.8783 48.6823 51.383 48.6823C50.8593 48.6823 50.4512 48.5997 50.1588 48.4346V47.8803C50.3475 47.977 50.5527 48.0525 50.7697 48.1067C50.9867 48.161 51.1966 48.1893 51.3995 48.1893C51.7108 48.1893 51.9514 48.1398 52.1212 48.0407C52.2887 47.9416 52.3736 47.7883 52.3736 47.5855C52.3736 47.4321 52.3076 47.3 52.1731 47.1915C52.0387 47.083 51.7792 46.9533 51.3924 46.8047C51.0244 46.6679 50.7626 46.5476 50.6093 46.4462C50.4536 46.3447 50.338 46.2292 50.2625 46.0994C50.1871 45.9697 50.1493 45.814 50.1493 45.6348C50.1493 45.314 50.2814 45.0592 50.5409 44.8729C50.8027 44.6865 51.1612 44.5946 51.6188 44.5946C52.0434 44.5946 52.4609 44.6818 52.8666 44.854L52.6543 45.3399C52.258 45.1772 51.8995 45.0946 51.5764 45.0946C51.2933 45.0946 51.0787 45.1394 50.9348 45.2267C50.7909 45.3163 50.7178 45.439 50.7178 45.5947C50.7178 45.7008 50.7437 45.7904 50.798 45.8659C50.8522 45.939 50.9395 46.0122 51.0598 46.0782C51.1801 46.1442 51.4113 46.2433 51.7509 46.3707C52.2203 46.5405 52.5364 46.7127 52.7015 46.8873C52.8666 47.0618 52.9492 47.2788 52.9492 47.5383L52.9468 47.5312Z" fill="#291B89"/>
<path d="M57.7915 48.1869C57.8977 48.1869 57.9991 48.1798 58.0982 48.1633C58.1972 48.1468 58.2751 48.1303 58.3317 48.1138V48.5714C58.268 48.602 58.1713 48.628 58.0463 48.6492C57.9213 48.6705 57.8057 48.6799 57.7066 48.6799C56.9424 48.6799 56.5603 48.2765 56.5603 47.4722V45.1229H55.9942V44.8351L56.5603 44.5874L56.8127 43.743H57.1594V44.6582H58.3057V45.1229H57.1594V47.4486C57.1594 47.6868 57.216 47.8685 57.3292 47.9958C57.4424 48.1232 57.5981 48.1869 57.7939 48.1869H57.7915Z" fill="#291B89"/>
<path d="M61.2639 44.5879C61.4385 44.5879 61.5965 44.6021 61.7357 44.6304L61.6531 45.1847C61.4904 45.1493 61.3465 45.1304 61.2215 45.1304C60.9007 45.1304 60.6294 45.2602 60.4006 45.5196C60.1718 45.7791 60.061 46.1022 60.061 46.4891V48.6072H59.4618V44.6563H59.9548L60.0232 45.3875H60.0515C60.1978 45.1304 60.3747 44.9323 60.5822 44.7931C60.7898 44.654 61.0162 44.5832 61.2639 44.5832V44.5879Z" fill="#291B89"/>
<path d="M62.7639 43.5886C62.7639 43.4518 62.7969 43.3504 62.8653 43.2867C62.9337 43.223 63.0163 43.1924 63.1177 43.1924C63.2191 43.1924 63.297 43.2254 63.3654 43.2891C63.4338 43.3527 63.4692 43.4542 63.4692 43.5886C63.4692 43.7231 63.4338 43.8245 63.3654 43.8906C63.2946 43.9566 63.212 43.9896 63.1177 43.9896C63.0233 43.9896 62.9337 43.9566 62.8653 43.8906C62.7969 43.8245 62.7639 43.7231 62.7639 43.5886ZM63.4125 48.6104H62.8134V44.6595H63.4125V48.6104Z" fill="#291B89"/>
<path d="M65.5827 44.6589V47.2205C65.5827 47.5436 65.6558 47.7819 65.802 47.9423C65.9483 48.1003 66.1771 48.1805 66.4908 48.1805C66.9036 48.1805 67.2055 48.0673 67.3965 47.8408C67.5876 47.6144 67.682 47.2464 67.682 46.7346V44.6589H68.2811V48.6098H67.7881L67.7008 48.0791H67.6678C67.5451 48.2749 67.3753 48.4235 67.1583 48.5249C66.9413 48.6263 66.6936 48.6806 66.4129 48.6806C65.9318 48.6806 65.5732 48.5673 65.3326 48.3385C65.0944 48.1097 64.9741 47.7441 64.9741 47.2441V44.6612H65.5803L65.5827 44.6589Z" fill="#291B89"/>
<path d="M74.9234 48.6101V46.0414C74.9234 45.7277 74.855 45.4918 74.7205 45.3338C74.5861 45.1757 74.3762 45.0979 74.0931 45.0979C73.7204 45.0979 73.4445 45.204 73.2676 45.4187C73.0907 45.6333 73.001 45.9612 73.001 46.407V48.6124H72.4019V46.0438C72.4019 45.7301 72.3335 45.4942 72.199 45.3361C72.0646 45.1781 71.8547 45.1003 71.5693 45.1003C71.1942 45.1003 70.9206 45.2135 70.7461 45.4376C70.5715 45.6616 70.4842 46.0296 70.4842 46.5415V48.6148H69.8851V44.6639H70.371L70.4677 45.2041H70.496C70.6092 45.0106 70.7673 44.862 70.9725 44.7535C71.1777 44.645 71.4089 44.5908 71.6636 44.5908C72.2816 44.5908 72.685 44.8149 72.8737 45.2607H72.902C73.0199 45.0531 73.1897 44.8903 73.4138 44.77C73.6379 44.6497 73.8926 44.5908 74.178 44.5908C74.6238 44.5908 74.9588 44.7064 75.1805 44.9352C75.4022 45.1639 75.5131 45.5319 75.5131 46.0367V48.6124H74.914L74.9234 48.6101Z" fill="#291B89"/>
<path d="M78.9332 48.6799C78.6761 48.6799 78.4402 48.6327 78.2279 48.5384C78.0156 48.444 77.8364 48.2978 77.6925 48.0996H77.65C77.6783 48.3308 77.6925 48.5478 77.6925 48.7554V50.3806H77.0934V44.6582H77.5793L77.6618 45.1984H77.6901C77.8434 44.9814 78.0227 44.8257 78.2279 44.729C78.4331 44.6323 78.6667 44.5851 78.9308 44.5851C79.4545 44.5851 79.8578 44.7644 80.1432 45.1229C80.4286 45.4814 80.5702 45.9838 80.5702 46.6301C80.5702 47.2764 80.4263 47.7836 80.1362 48.1421C79.846 48.5006 79.445 48.6799 78.9308 48.6799H78.9332ZM78.8459 45.0946C78.4426 45.0946 78.1501 45.2054 77.9708 45.4295C77.7916 45.6536 77.6972 46.0074 77.6925 46.4957V46.6301C77.6925 47.1844 77.7845 47.5831 77.9708 47.8213C78.1548 48.0595 78.452 48.1798 78.8601 48.1798C79.2021 48.1798 79.4686 48.0407 79.662 47.7647C79.8555 47.4887 79.9522 47.1066 79.9522 46.6231C79.9522 46.1395 79.8555 45.7527 79.662 45.4885C79.4686 45.2243 79.1974 45.0946 78.8459 45.0946Z" fill="#291B89"/>
<path d="M84.6602 48.6099V46.0554C84.6602 45.7346 84.587 45.494 84.4408 45.3336C84.2946 45.1755 84.0658 45.0953 83.7521 45.0953C83.3369 45.0953 83.0326 45.2086 82.8416 45.435C82.6505 45.6614 82.5538 46.0318 82.5538 46.546V48.6099H81.9547V43.0031H82.5538V44.7014C82.5538 44.9066 82.5444 45.0741 82.5255 45.2086H82.5609C82.6788 45.0199 82.8463 44.8689 83.0633 44.7604C83.2803 44.6519 83.528 44.5976 83.8063 44.5976C84.2898 44.5976 84.6507 44.7132 84.8937 44.942C85.1343 45.1708 85.2569 45.5364 85.2569 46.0365V48.6122H84.6578L84.6602 48.6099Z" fill="#291B89"/>
<path d="M89.3755 47.5312C89.3755 47.8992 89.2387 48.1822 88.9651 48.3827C88.6915 48.5808 88.307 48.6823 87.8117 48.6823C87.288 48.6823 86.8799 48.5997 86.5875 48.4346V47.8803C86.7762 47.977 86.9814 48.0525 87.1984 48.1067C87.4154 48.161 87.6253 48.1893 87.8282 48.1893C88.1395 48.1893 88.3801 48.1398 88.5499 48.0407C88.7174 47.9416 88.8023 47.7883 88.8023 47.5855C88.8023 47.4321 88.7363 47.3 88.6018 47.1915C88.4674 47.083 88.2079 46.9533 87.8211 46.8047C87.4531 46.6679 87.1913 46.5476 87.038 46.4462C86.8823 46.3447 86.7667 46.2292 86.6912 46.0994C86.6158 45.9697 86.578 45.814 86.578 45.6348C86.578 45.314 86.7101 45.0592 86.9696 44.8729C87.2314 44.6865 87.5899 44.5946 88.0475 44.5946C88.4721 44.5946 88.8896 44.6818 89.2953 44.854L89.083 45.3399C88.6868 45.1772 88.3282 45.0946 88.0051 45.0946C87.722 45.0946 87.5074 45.1394 87.3635 45.2267C87.2196 45.3163 87.1465 45.439 87.1465 45.5947C87.1465 45.7008 87.1724 45.7904 87.2267 45.8659C87.2809 45.939 87.3682 46.0122 87.4885 46.0782C87.6088 46.1442 87.84 46.2433 88.1796 46.3707C88.649 46.5405 88.9651 46.7127 89.1302 46.8873C89.2953 47.0618 89.3779 47.2788 89.3779 47.5383L89.3755 47.5312Z" fill="#291B89"/>
<defs>
<linearGradient id="paint0_linear_1_17" x1="13.5626" y1="14.1528" x2="22.29" y2="21.5829" gradientUnits="userSpaceOnUse">
<stop offset="0.42" stop-color="#F8B814"/>
<stop offset="1" stop-color="#F28705"/>
</linearGradient>
</defs>
</svg>
