<svg width="1120" height="313" viewBox="0 0 1120 313" fill="none" xmlns="http://www.w3.org/2000/svg">
<g clip-path="url(#clip0_17_9)">
<rect width="1120" height="313" fill="white"/>
<g clip-path="url(#clip1_17_9)">
<rect width="1197" height="743" transform="translate(0 -430)" fill="url(#paint0_linear_17_9)"/>
<g opacity="0.3">
<g opacity="0.6">
<path d="M326.294 115.737H260.421V329.882H326.294V115.737Z" fill="white"/>
<path d="M315.531 100.382H271.184V190.372H315.531V100.382Z" fill="white"/>
<path d="M305.661 90.6418H281.063V140.558H305.661V90.6418Z" fill="white"/>
<path d="M301.744 116.294H284.98V82.2765H291.028H297.02H301.744V116.294Z" fill="white"/>
<path d="M292.256 101.482H290.438V67.4644H291.095H291.744H292.256V101.482Z" fill="white"/>
<path d="M296.279 89.719H294.461V55.7018H295.117H295.767H296.279V89.719Z" fill="white"/>
<path d="M328.06 115.183H258.673V117.463H328.06V115.183Z" fill="white"/>
<path d="M317.157 99.2821H269.574V101.478H317.157V99.2821Z" fill="white"/>
<path d="M306.695 89.7186H279.274V91.4032H306.695V89.7186Z" fill="white"/>
<path opacity="0.29" d="M277.327 104.03H275.266V113.46H277.327V104.03Z" fill="white"/>
<path opacity="0.29" d="M283.035 104.03H280.972V113.46H283.035V104.03Z" fill="white"/>
<path opacity="0.29" d="M288.738 104.03H286.676V113.46H288.738V104.03Z" fill="white"/>
<path opacity="0.29" d="M294.442 104.03H292.379V113.46H294.442V104.03Z" fill="white"/>
<path opacity="0.29" d="M300.155 104.03H298.093V113.46H300.155V104.03Z" fill="white"/>
<path opacity="0.29" d="M305.855 104.03H303.792V113.46H305.855V104.03Z" fill="white"/>
<path opacity="0.29" d="M311.554 104.03H309.491V113.46H311.554V104.03Z" fill="white"/>
<path d="M271.186 124.271H266.205V135.458H271.186V124.271Z" fill="white"/>
<path opacity="0.29" d="M281.053 124.271H276.072V135.458H281.053V124.271Z" fill="white"/>
<path d="M290.905 124.271H285.924V135.458H290.905V124.271Z" fill="white"/>
<path d="M300.783 124.271H295.802V135.458H300.783V124.271Z" fill="white"/>
<path d="M310.654 124.271H305.673V135.458H310.654V124.271Z" fill="white"/>
<path d="M320.513 124.271H315.532V135.458H320.513V124.271Z" fill="white"/>
<path d="M271.186 141.71H266.205V152.897H271.186V141.71Z" fill="white"/>
<path d="M281.053 141.71H276.072V152.897H281.053V141.71Z" fill="white"/>
<path d="M290.905 141.71H285.924V152.897H290.905V141.71Z" fill="white"/>
<path opacity="0.29" d="M300.783 141.71H295.802V152.897H300.783V141.71Z" fill="white"/>
<path d="M310.654 141.71H305.673V152.897H310.654V141.71Z" fill="white"/>
<path d="M320.513 141.71H315.532V152.897H320.513V141.71Z" fill="white"/>
<path d="M271.186 159.149H266.205V170.336H271.186V159.149Z" fill="white"/>
<path d="M281.053 159.149H276.072V170.336H281.053V159.149Z" fill="white"/>
<path d="M290.905 159.149H285.924V170.336H290.905V159.149Z" fill="white"/>
<path d="M300.783 159.149H295.802V170.336H300.783V159.149Z" fill="white"/>
<path opacity="0.29" d="M310.654 159.149H305.673V170.336H310.654V159.149Z" fill="white"/>
<path opacity="0.29" d="M320.513 159.149H315.532V170.336H320.513V159.149Z" fill="white"/>
<path opacity="0.29" d="M271.186 176.583H266.205V187.77H271.186V176.583Z" fill="white"/>
<path d="M281.053 176.583H276.072V187.77H281.053V176.583Z" fill="white"/>
<path d="M290.905 176.583H285.924V187.77H290.905V176.583Z" fill="white"/>
<path d="M300.783 176.583H295.802V187.77H300.783V176.583Z" fill="white"/>
<path d="M310.654 176.583H305.673V187.77H310.654V176.583Z" fill="white"/>
<path d="M320.513 176.583H315.532V187.77H320.513V176.583Z" fill="white"/>
<path d="M271.186 194.022H266.205V205.209H271.186V194.022Z" fill="white"/>
<path opacity="0.29" d="M281.053 194.022H276.072V205.209H281.053V194.022Z" fill="white"/>
<path d="M290.905 194.022H285.924V205.209H290.905V194.022Z" fill="white"/>
<path opacity="0.29" d="M300.783 194.022H295.802V205.209H300.783V194.022Z" fill="white"/>
<path d="M310.654 194.022H305.673V205.209H310.654V194.022Z" fill="white"/>
<path d="M320.513 194.022H315.532V205.209H320.513V194.022Z" fill="white"/>
<path d="M271.186 211.461H266.205V222.648H271.186V211.461Z" fill="white"/>
<path d="M281.053 211.461H276.072V222.648H281.053V211.461Z" fill="white"/>
<path d="M290.905 211.461H285.924V222.648H290.905V211.461Z" fill="white"/>
<path d="M300.783 211.461H295.802V222.648H300.783V211.461Z" fill="white"/>
<path d="M310.652 211.461H305.671V222.648H310.652V211.461Z" fill="white"/>
<path opacity="0.29" d="M320.513 211.461H315.532V222.648H320.513V211.461Z" fill="white"/>
<path d="M271.186 228.9H266.205V240.088H271.186V228.9Z" fill="white"/>
<path opacity="0.29" d="M281.053 228.9H276.072V240.088H281.053V228.9Z" fill="white"/>
<path opacity="0.29" d="M290.905 228.9H285.924V240.088H290.905V228.9Z" fill="white"/>
<path d="M300.783 228.9H295.802V240.088H300.783V228.9Z" fill="white"/>
<path d="M310.654 228.9H305.673V240.088H310.654V228.9Z" fill="white"/>
<path d="M320.513 228.9H315.532V240.088H320.513V228.9Z" fill="white"/>
<path d="M271.186 246.336H266.205V257.524H271.186V246.336Z" fill="white"/>
<path d="M281.053 246.336H276.072V257.524H281.053V246.336Z" fill="white"/>
<path d="M290.905 246.336H285.924V257.524H290.905V246.336Z" fill="white"/>
<path d="M300.783 246.336H295.802V257.524H300.783V246.336Z" fill="white"/>
<path opacity="0.29" d="M310.654 246.336H305.673V257.524H310.654V246.336Z" fill="white"/>
<path d="M320.513 246.336H315.532V257.524H320.513V246.336Z" fill="white"/>
<path d="M271.186 263.778H266.205V274.966H271.186V263.778Z" fill="white"/>
<path opacity="0.29" d="M281.053 263.778H276.072V274.966H281.053V263.778Z" fill="white"/>
<path d="M290.905 263.778H285.924V274.966H290.905V263.778Z" fill="white"/>
<path d="M300.783 263.778H295.802V274.966H300.783V263.778Z" fill="white"/>
<path d="M310.654 263.778H305.673V274.966H310.654V263.778Z" fill="white"/>
<path d="M320.513 263.778H315.532V274.966H320.513V263.778Z" fill="white"/>
<path d="M271.186 281.215H266.205V292.402H271.186V281.215Z" fill="white"/>
<path d="M281.053 281.215H276.072V292.402H281.053V281.215Z" fill="white"/>
<path d="M290.905 281.215H285.924V292.402H290.905V281.215Z" fill="white"/>
<path opacity="0.29" d="M300.783 281.215H295.802V292.402H300.783V281.215Z" fill="white"/>
<path d="M310.654 281.215H305.673V292.402H310.654V281.215Z" fill="white"/>
<path opacity="0.29" d="M320.513 281.215H315.532V292.402H320.513V281.215Z" fill="white"/>
<path opacity="0.29" d="M271.186 298.654H266.205V309.841H271.186V298.654Z" fill="white"/>
<path d="M281.053 298.654H276.072V309.841H281.053V298.654Z" fill="white"/>
<path opacity="0.29" d="M290.905 298.654H285.924V309.841H290.905V298.654Z" fill="white"/>
<path d="M300.783 298.654H295.802V309.841H300.783V298.654Z" fill="white"/>
<path d="M310.654 298.654H305.673V309.841H310.654V298.654Z" fill="white"/>
<path d="M320.513 298.654H315.532V309.841H320.513V298.654Z" fill="white"/>
<path d="M175.011 134.84H69.1189V315.239H175.011V134.84Z" fill="white"/>
<path d="M178.009 131.742H66.0984V136.841H178.009V131.742Z" fill="white"/>
<path d="M171.443 125.218H72.6704V149.453H171.443V125.218Z" fill="white"/>
<path d="M119.341 115.298H80.2275V141.778H119.341V115.298Z" fill="white"/>
<path d="M102.865 122.761H80.2295V108.822H96.4633L102.865 122.761Z" fill="white"/>
<path d="M91.5414 97.2493H89.3467V128.298H91.5414V97.2493Z" fill="white"/>
<path d="M92.4212 95.6436C92.4212 96.5319 91.5391 97.2523 90.4499 97.2523C89.3623 97.2523 88.4785 96.5319 88.4785 95.6436C88.4785 94.7554 89.3606 94.0336 90.4499 94.0336C91.5391 94.0349 92.4212 94.7554 92.4212 95.6436Z" fill="white"/>
<path d="M1051.9 318.008H958.587L946.942 104.491L1051.9 122.284V318.008Z" fill="white"/>
<path d="M511.687 213.709V150.933H498.817V134.117H494.22V109.454H468.889V91.3294H466.634V109.454H461.672V86.7654H459.418V109.454H443.404V150.933H435.132V213.709H428.041V328.052H516.673V213.709H511.687Z" fill="white"/>
<path d="M736.343 335.035H675.016L698.912 234.737H736.343V335.035Z" fill="white" fill-opacity="0.5"/>
<path d="M635.383 342.918V157.637L580.946 184.03L531.156 157.637V342.918H635.383Z" fill="white" fill-opacity="0.5"/>
<path d="M663.72 187.064V152.164H648.362V138.876H640.144V127.714H637.261V108.581H636.516V127.714H633.631V138.876H625.414V152.164H610.172V187.064H607.004V250.429H583.373V322.661H607.004H630.637H666.771V187.064H663.72Z" fill="white" fill-opacity="0.5"/>
<path d="M799.255 200.485H703.942V201.9H708.255V333.528H794.942V201.9H799.255V200.485Z" fill="white" fill-opacity="0.5"/>
<path opacity="0.33" d="M725.594 212.665H721.603V226.149H725.594V212.665Z" fill="white"/>
<path opacity="0.33" d="M745.453 212.665H741.462V226.149H745.453V212.665Z" fill="white"/>
<path opacity="0.33" d="M765.309 212.665H761.317V226.149H765.309V212.665Z" fill="white"/>
<path opacity="0.33" d="M785.163 212.665H781.172V226.149H785.163V212.665Z" fill="white"/>
<path opacity="0.33" d="M725.594 240.416H721.603V253.901H725.594V240.416Z" fill="white"/>
<path opacity="0.33" d="M745.453 240.416H741.462V253.901H745.453V240.416Z" fill="white"/>
<path opacity="0.33" d="M765.309 240.416H761.317V253.901H765.309V240.416Z" fill="white"/>
<path opacity="0.33" d="M785.163 240.416H781.172V253.901H785.163V240.416Z" fill="white"/>
<path opacity="0.33" d="M725.594 268.861H721.603V282.346H725.594V268.861Z" fill="white"/>
<path opacity="0.33" d="M745.453 268.861H741.462V282.346H745.453V268.861Z" fill="white"/>
<path opacity="0.33" d="M765.309 268.861H761.317V282.346H765.309V268.861Z" fill="white"/>
<path opacity="0.33" d="M785.163 268.861H781.172V282.346H785.163V268.861Z" fill="white"/>
<path d="M364.618 233.271H280.113V342.918H364.618V233.271Z" fill="white" fill-opacity="0.5"/>
<path d="M267.391 289.446H122.056V342.915H267.391V289.446Z" fill="white" fill-opacity="0.5"/>
<path d="M231.861 157.694H199.956V289H231.861V157.694Z" fill="white" fill-opacity="0.5"/>
<path d="M208.664 122.671H207.007V194.077H208.664V122.671Z" fill="white" fill-opacity="0.5"/>
<path d="M214.045 128.083H212.388V199.489H214.045V128.083Z" fill="white" fill-opacity="0.5"/>
<path d="M221.914 149.575H202.413V167.172H221.914V149.575Z" fill="white" fill-opacity="0.5"/>
<path d="M317.232 252.898H261.708V342.916H317.232V252.898Z" fill="white" fill-opacity="0.5"/>
<path d="M482.548 157.637H378.321V342.918H482.548V157.637Z" fill="white" fill-opacity="0.5"/>
<path d="M472.304 151.268H388.557V182.128H472.304V151.268Z" fill="white" fill-opacity="0.5"/>
<path d="M490.63 161.514H370.244V163.68H490.63V161.514Z" fill="white" fill-opacity="0.5"/>
<path d="M408.553 249.346H359.442V342.918H408.553V249.346Z" fill="white" fill-opacity="0.5"/>
<path d="M64.0473 218.475H7.69348V315.6H64.0473V218.475Z" fill="white" fill-opacity="0.5"/>
<path d="M138.215 192.079H25.9237V315.602H138.215V192.079Z" fill="white" fill-opacity="0.5"/>
<path d="M141.123 187.342H19.3793V192.08H141.123V187.342Z" fill="white" fill-opacity="0.5"/>
<path d="M80.2439 174.482H30.895V199.525H80.2439V174.482Z" fill="white" fill-opacity="0.5"/>
<path d="M104.653 201.798H96.3667V217.027H104.653V201.798Z" fill="white" fill-opacity="0.5"/>
<path d="M122.06 201.798H112.943V217.027H122.06V201.798Z" fill="white" fill-opacity="0.5"/>
<path d="M35.8754 278.036H-22.9634V315.601H35.8754V278.036Z" fill="white" fill-opacity="0.5"/>
<path d="M1059.07 301.294H472.315V342.919H1059.07V301.294Z" fill="white" fill-opacity="0.5"/>
<path d="M1119.84 204.481H1029.23V312.906H1119.84V204.481Z" fill="white" fill-opacity="0.5"/>
<path d="M1197.19 276.645H1106.58V342.304H1197.19V276.645Z" fill="white" fill-opacity="0.5"/>
<path d="M806.029 267.007H755.201V322.106H806.029V267.007Z" fill="white" fill-opacity="0.5"/>
<path d="M1138.62 131.381H1074.54V342.917H1138.62V131.381Z" fill="white" fill-opacity="0.5"/>
<path d="M1117.5 107.457H1115.29V164.942H1117.5V107.457Z" fill="white" fill-opacity="0.5"/>
</g>
<g opacity="0.52">
<path d="M12.9395 293.822H9.23645V296.847H12.9395V293.822Z" fill="white"/>
<path d="M20.3868 293.822H16.6838V296.847H20.3868V293.822Z" fill="white"/>
<path d="M12.9395 300.927H9.23645V303.952H12.9395V300.927Z" fill="white"/>
<path d="M20.3868 300.927H16.6838V303.952H20.3868V300.927Z" fill="white"/>
<path d="M12.9395 307.8H9.23645V310.824H12.9395V307.8Z" fill="white"/>
<path d="M28.6554 293.822H24.9524V296.847H28.6554V293.822Z" fill="white"/>
</g>
<path opacity="0.5" d="M282.813 202.975H280.288V214.395H282.813V202.975Z" fill="white"/>
<path opacity="0.5" d="M291.515 202.975H288.989V214.395H291.515V202.975Z" fill="white"/>
<path opacity="0.5" d="M300.225 202.975H297.699V214.395H300.225V202.975Z" fill="white"/>
<path opacity="0.5" d="M308.932 202.975H306.406V214.395H308.932V202.975Z" fill="white"/>
<path opacity="0.5" d="M317.64 202.975H315.114V214.395H317.64V202.975Z" fill="white"/>
<path opacity="0.5" d="M326.342 202.975H323.816V214.395H326.342V202.975Z" fill="white"/>
<path opacity="0.5" d="M335.051 202.975H332.526V214.395H335.051V202.975Z" fill="white"/>
<path opacity="0.5" d="M343.757 202.975H341.231V214.395H343.757V202.975Z" fill="white"/>
<path opacity="0.5" d="M352.458 202.975H349.933V214.395H352.458V202.975Z" fill="white"/>
<path opacity="0.5" d="M361.164 202.975H358.638V214.395H361.164V202.975Z" fill="white"/>
<path opacity="0.5" d="M369.861 202.975H367.335V214.395H369.861V202.975Z" fill="white"/>
<path opacity="0.5" d="M282.815 218.874H280.289V230.293H282.815V218.874Z" fill="white"/>
<path opacity="0.5" d="M291.512 218.874H288.986V230.293H291.512V218.874Z" fill="white"/>
<path opacity="0.5" d="M300.225 218.874H297.699V230.293H300.225V218.874Z" fill="white"/>
<path opacity="0.5" d="M308.932 218.874H306.406V230.293H308.932V218.874Z" fill="white"/>
<path opacity="0.5" d="M317.64 218.874H315.114V230.293H317.64V218.874Z" fill="white"/>
<path opacity="0.5" d="M326.342 218.874H323.816V230.293H326.342V218.874Z" fill="white"/>
<path opacity="0.5" d="M335.051 218.874H332.526V230.293H335.051V218.874Z" fill="white"/>
<path opacity="0.5" d="M343.757 218.874H341.231V230.293H343.757V218.874Z" fill="white"/>
<path opacity="0.5" d="M352.458 218.874H349.933V230.293H352.458V218.874Z" fill="white"/>
<path opacity="0.5" d="M361.164 218.874H358.638V230.293H361.164V218.874Z" fill="white"/>
<path opacity="0.5" d="M369.861 218.874H367.335V230.293H369.861V218.874Z" fill="white"/>
<path opacity="0.5" d="M282.813 234.769H280.288V246.189H282.813V234.769Z" fill="white"/>
<path opacity="0.5" d="M291.515 234.769H288.989V246.189H291.515V234.769Z" fill="white"/>
<path opacity="0.5" d="M300.225 234.769H297.699V246.189H300.225V234.769Z" fill="white"/>
<path opacity="0.5" d="M308.932 234.769H306.406V246.189H308.932V234.769Z" fill="white"/>
<path opacity="0.5" d="M317.64 234.769H315.114V246.189H317.64V234.769Z" fill="white"/>
<path opacity="0.5" d="M326.342 234.769H323.816V246.189H326.342V234.769Z" fill="white"/>
<path opacity="0.5" d="M335.051 234.769H332.526V246.189H335.051V234.769Z" fill="white"/>
<path opacity="0.5" d="M343.757 234.769H341.231V246.189H343.757V234.769Z" fill="white"/>
<path opacity="0.5" d="M352.458 234.766H349.933V246.186H352.458V234.766Z" fill="white"/>
<path opacity="0.5" d="M361.164 234.769H358.638V246.189H361.164V234.769Z" fill="white"/>
<path opacity="0.5" d="M369.861 234.769H367.335V246.189H369.861V234.769Z" fill="white"/>
<path opacity="0.5" d="M308.932 250.667H306.406V262.087H308.932V250.667Z" fill="white"/>
<path opacity="0.5" d="M317.64 250.667H315.114V262.087H317.64V250.667Z" fill="white"/>
<path opacity="0.5" d="M326.342 250.667H323.816V262.087H326.342V250.667Z" fill="white"/>
<path opacity="0.5" d="M335.051 250.667H332.526V262.087H335.051V250.667Z" fill="white"/>
<path opacity="0.5" d="M343.757 250.667H341.231V262.087H343.757V250.667Z" fill="white"/>
<path opacity="0.5" d="M352.458 250.667H349.933V262.087H352.458V250.667Z" fill="white"/>
<path opacity="0.5" d="M361.164 250.667H358.638V262.087H361.164V250.667Z" fill="white"/>
<path opacity="0.5" d="M369.861 250.667H367.335V262.087H369.861V250.667Z" fill="white"/>
<path opacity="0.5" d="M317.64 267.446H315.114V278.865H317.64V267.446Z" fill="white"/>
<path opacity="0.5" d="M326.342 267.446H323.816V278.865H326.342V267.446Z" fill="white"/>
<path opacity="0.5" d="M335.051 267.446H332.526V278.865H335.051V267.446Z" fill="white"/>
<path opacity="0.5" d="M343.757 267.446H341.231V278.865H343.757V267.446Z" fill="white"/>
<path opacity="0.5" d="M352.458 267.446H349.933V278.865H352.458V267.446Z" fill="white"/>
<path opacity="0.5" d="M361.164 267.446H358.638V278.865H361.164V267.446Z" fill="white"/>
<path opacity="0.5" d="M369.861 267.446H367.335V278.865H369.861V267.446Z" fill="white"/>
<path opacity="0.33" d="M454.545 231.321H448.578V243.683H454.545V231.321Z" fill="white"/>
<path opacity="0.33" d="M454.545 254.964H448.578V267.326H454.545V254.964Z" fill="white"/>
<path opacity="0.33" d="M454.545 278.606H448.578V290.969H454.545V278.606Z" fill="white"/>
<path opacity="0.33" d="M454.545 302.249H448.578V314.611H454.545V302.249Z" fill="white"/>
<path opacity="0.33" d="M480.147 231.321H474.179V243.683H480.147V231.321Z" fill="white"/>
<path opacity="0.33" d="M480.147 254.964H474.179V267.326H480.147V254.964Z" fill="white"/>
<path opacity="0.33" d="M480.147 278.606H474.179V290.969H480.147V278.606Z" fill="white"/>
<path opacity="0.33" d="M480.147 302.249H474.179V314.611H480.147V302.249Z" fill="white"/>
<path opacity="0.33" d="M505.73 231.321H499.762V243.683H505.73V231.321Z" fill="white"/>
<path opacity="0.33" d="M505.73 254.964H499.762V267.326H505.73V254.964Z" fill="white"/>
<path opacity="0.33" d="M505.73 278.606H499.762V290.969H505.73V278.606Z" fill="white"/>
<path opacity="0.33" d="M505.73 302.249H499.762V314.611H505.73V302.249Z" fill="white"/>
<path opacity="0.33" d="M531.31 231.321H525.342V243.683H531.31V231.321Z" fill="white"/>
<path opacity="0.33" d="M531.31 254.964H525.342V267.326H531.31V254.964Z" fill="white"/>
<path opacity="0.33" d="M531.31 278.606H525.342V290.969H531.31V278.606Z" fill="white"/>
<path opacity="0.33" d="M531.31 302.249H525.342V314.611H531.31V302.249Z" fill="white"/>
<path opacity="0.4" d="M24.9472 168.528H21.7904V178.445H24.9472V168.528Z" fill="white"/>
<path opacity="0.4" d="M36.0926 168.528H32.9358V178.445H36.0926V168.528Z" fill="white"/>
<path opacity="0.4" d="M49.1316 168.528H45.9749V178.445H49.1316V168.528Z" fill="white"/>
<path opacity="0.4" d="M60.2676 168.528H57.1108V178.445H60.2676V168.528Z" fill="white"/>
<path opacity="0.4" d="M0.192302 168.528H-2.96448V178.445H0.192302V168.528Z" fill="white"/>
<path opacity="0.4" d="M11.3331 168.528H8.17639V178.445H11.3331V168.528Z" fill="white"/>
<path opacity="0.4" d="M24.9472 185.75H21.7904V195.667H24.9472V185.75Z" fill="white"/>
<path opacity="0.4" d="M36.0926 185.75H32.9358V195.667H36.0926V185.75Z" fill="white"/>
<path opacity="0.4" d="M49.1316 185.75H45.9749V195.667H49.1316V185.75Z" fill="white"/>
<path opacity="0.4" d="M60.2676 185.75H57.1108V195.667H60.2676V185.75Z" fill="white"/>
<path opacity="0.4" d="M0.192302 185.75H-2.96448V195.667H0.192302V185.75Z" fill="white"/>
<path opacity="0.4" d="M11.3331 185.75H8.17639V195.667H11.3331V185.75Z" fill="white"/>
<path opacity="0.4" d="M24.9472 202.967H21.7904V212.884H24.9472V202.967Z" fill="white"/>
<path opacity="0.4" d="M36.0926 202.967H32.9358V212.884H36.0926V202.967Z" fill="white"/>
<path opacity="0.4" d="M49.1316 202.967H45.9749V212.884H49.1316V202.967Z" fill="white"/>
<path opacity="0.4" d="M60.2676 202.967H57.1108V212.884H60.2676V202.967Z" fill="white"/>
<path opacity="0.4" d="M0.192302 202.967H-2.96448V212.884H0.192302V202.967Z" fill="white"/>
<path opacity="0.4" d="M11.3331 202.967H8.17639V212.884H11.3331V202.967Z" fill="white"/>
<path opacity="0.33" d="M951.9 247.73H948.186V256.38H951.9V247.73Z" fill="white"/>
<path opacity="0.33" d="M963.541 247.73H959.826V256.38H963.541V247.73Z" fill="white"/>
<path opacity="0.33" d="M951.9 247.73H948.186V256.38H951.9V247.73Z" fill="white"/>
<path opacity="0.33" d="M963.541 247.73H959.826V256.38H963.541V247.73Z" fill="white"/>
<path opacity="0.33" d="M974.543 247.73H970.829V256.38H974.543V247.73Z" fill="white"/>
<path opacity="0.33" d="M986.188 247.73H982.474V256.38H986.188V247.73Z" fill="white"/>
<path opacity="0.33" d="M951.9 263.238H948.186V271.887H951.9V263.238Z" fill="white"/>
<path opacity="0.33" d="M963.541 263.238H959.826V271.887H963.541V263.238Z" fill="white"/>
<path opacity="0.33" d="M951.9 263.238H948.186V271.887H951.9V263.238Z" fill="white"/>
<path opacity="0.33" d="M963.541 263.238H959.826V271.887H963.541V263.238Z" fill="white"/>
<path opacity="0.33" d="M974.543 263.238H970.829V271.887H974.543V263.238Z" fill="white"/>
<path opacity="0.33" d="M986.188 263.238H982.474V271.887H986.188V263.238Z" fill="white"/>
<path opacity="0.33" d="M951.9 279.749H948.186V288.398H951.9V279.749Z" fill="white"/>
<path opacity="0.33" d="M963.541 279.749H959.826V288.398H963.541V279.749Z" fill="white"/>
<path opacity="0.33" d="M951.9 279.749H948.186V288.398H951.9V279.749Z" fill="white"/>
<path opacity="0.33" d="M963.541 279.749H959.826V288.398H963.541V279.749Z" fill="white"/>
<path opacity="0.33" d="M974.546 279.749H970.832V288.398H974.546V279.749Z" fill="white"/>
<path opacity="0.33" d="M986.188 279.749H982.474V288.398H986.188V279.749Z" fill="white"/>
<path opacity="0.33" d="M998.911 247.73H995.197V256.38H998.911V247.73Z" fill="white"/>
<path opacity="0.33" d="M998.911 263.238H995.197V271.887H998.911V263.238Z" fill="white"/>
<path opacity="0.33" d="M1010.55 247.73H1006.84V256.38H1010.55V247.73Z" fill="white"/>
<path opacity="0.33" d="M662.138 306.703H658.147V320.188H662.138V306.703Z" fill="white"/>
<path opacity="0.33" d="M681.995 306.703H678.003V320.188H681.995V306.703Z" fill="white"/>
<path opacity="0.33" d="M701.85 306.703H697.858V320.188H701.85V306.703Z" fill="white"/>
<path opacity="0.33" d="M721.707 306.703H717.715V320.188H721.707V306.703Z" fill="white"/>
<path opacity="0.33" d="M1113.49 293.351H1109.41V301.091H1113.49V293.351Z" fill="white"/>
<path opacity="0.33" d="M1113.48 305.847H1109.41V313.587H1113.48V305.847Z" fill="white"/>
<path opacity="0.33" d="M1123.95 293.351H1119.87V301.091H1123.95V293.351Z" fill="white"/>
</g>
<path d="M1119.55 44.04L1127.52 54.36L1127.9 55.032L1128.29 54.36L1136.21 44.04H1138.99L1129.3 56.568L1138.94 69H1136.16L1128.29 58.728L1127.9 58.104L1127.52 58.728L1119.6 69H1116.86L1126.46 56.568L1116.82 44.04H1119.55Z" fill="white"/>
</g>
</g>
<defs>
<linearGradient id="paint0_linear_17_9" x1="598.5" y1="426.5" x2="598.5" y2="743" gradientUnits="userSpaceOnUse">
<stop stop-color="#7077FE"/>
<stop offset="1" stop-color="#585ED4"/>
</linearGradient>
<clipPath id="clip0_17_9">
<rect width="1120" height="313" fill="white"/>
</clipPath>
<clipPath id="clip1_17_9">
<rect width="1197" height="743" fill="white" transform="translate(0 -430)"/>
</clipPath>
</defs>
</svg>
