<svg width="32" height="32" viewBox="0 0 32 32" fill="none" xmlns="http://www.w3.org/2000/svg">
<rect width="32" height="32" rx="16" fill="#F8B814" fill-opacity="0.1"/>
<path d="M22.1538 21.5383H9.84615C9.35652 21.5383 8.88695 21.3438 8.54073 20.9976C8.19451 20.6514 8 20.1818 8 19.6922V18.4614C8 18.2982 8.06483 18.1417 8.18024 18.0263C8.29565 17.9109 8.45217 17.846 8.61538 17.846C9.10502 17.846 9.57459 17.6515 9.92081 17.3053C10.267 16.9591 10.4615 16.4895 10.4615 15.9999C10.4615 15.5103 10.267 15.0407 9.92081 14.6945C9.57459 14.3482 9.10502 14.1537 8.61538 14.1537C8.45217 14.1537 8.29565 14.0889 8.18024 13.9735C8.06483 13.8581 8 13.7016 8 13.5383V12.3076C8 11.8179 8.19451 11.3484 8.54073 11.0022C8.88695 10.6559 9.35652 10.4614 9.84615 10.4614H22.1538C22.6435 10.4614 23.1131 10.6559 23.4593 11.0022C23.8055 11.3484 24 11.8179 24 12.3076V13.5383C24 13.7016 23.9352 13.8581 23.8198 13.9735C23.7044 14.0889 23.5478 14.1537 23.3846 14.1537C22.895 14.1537 22.4254 14.3482 22.0792 14.6945C21.733 15.0407 21.5385 15.5103 21.5385 15.9999C21.5385 16.4895 21.733 16.9591 22.0792 17.3053C22.4254 17.6515 22.895 17.846 23.3846 17.846C23.5478 17.846 23.7044 17.9109 23.8198 18.0263C23.9352 18.1417 24 18.2982 24 18.4614V19.6922C24 20.1818 23.8055 20.6514 23.4593 20.9976C23.1131 21.3438 22.6435 21.5383 22.1538 21.5383ZM9.23077 19.0153V19.6922C9.23077 19.8554 9.2956 20.0119 9.41101 20.1273C9.52642 20.2427 9.68294 20.3076 9.84615 20.3076H22.1538C22.3171 20.3076 22.4736 20.2427 22.589 20.1273C22.7044 20.0119 22.7692 19.8554 22.7692 19.6922V19.0153C22.0737 18.874 21.4483 18.4967 20.9992 17.9471C20.55 17.3976 20.3046 16.7096 20.3046 15.9999C20.3046 15.2901 20.55 14.6022 20.9992 14.0527C21.4483 13.5031 22.0737 13.1257 22.7692 12.9845V12.3076C22.7692 12.1444 22.7044 11.9878 22.589 11.8724C22.4736 11.757 22.3171 11.6922 22.1538 11.6922H9.84615C9.68294 11.6922 9.52642 11.757 9.41101 11.8724C9.2956 11.9878 9.23077 12.1444 9.23077 12.3076V12.9845C9.92633 13.1257 10.5517 13.5031 11.0008 14.0527C11.45 14.6022 11.6954 15.2901 11.6954 15.9999C11.6954 16.7096 11.45 17.3976 11.0008 17.9471C10.5517 18.4967 9.92633 18.874 9.23077 19.0153Z" fill="#F8B814"/>
<path d="M14.154 12.3076C13.9907 12.3076 13.8342 12.2427 13.7188 12.1273C13.6034 12.0119 13.5386 11.8554 13.5386 11.6922V11.0768C13.5386 10.9136 13.6034 10.7571 13.7188 10.6417C13.8342 10.5263 13.9907 10.4614 14.154 10.4614C14.3172 10.4614 14.4737 10.5263 14.5891 10.6417C14.7045 10.7571 14.7693 10.9136 14.7693 11.0768V11.6922C14.7693 11.8554 14.7045 12.0119 14.5891 12.1273C14.4737 12.2427 14.3172 12.3076 14.154 12.3076Z" fill="#F8B814"/>
<path d="M14.154 21.5385C13.9907 21.5385 13.8342 21.4737 13.7188 21.3583C13.6034 21.2429 13.5386 21.0864 13.5386 20.9232V20.3078C13.5386 20.1446 13.6034 19.988 13.7188 19.8726C13.8342 19.7572 13.9907 19.6924 14.154 19.6924C14.3172 19.6924 14.4737 19.7572 14.5891 19.8726C14.7045 19.988 14.7693 20.1446 14.7693 20.3078V20.9232C14.7693 21.0864 14.7045 21.2429 14.5891 21.3583C14.4737 21.4737 14.3172 21.5385 14.154 21.5385Z" fill="#F8B814"/>
<path d="M14.1538 14.7693C14.0115 14.7685 13.8739 14.7184 13.7643 14.6275C13.6548 14.5366 13.5802 14.4105 13.5532 14.2708C13.5262 14.131 13.5484 13.9863 13.6162 13.8611C13.6839 13.7359 13.7929 13.6381 13.9247 13.5843C14.0564 13.5304 14.2028 13.524 14.3388 13.5659C14.4748 13.6079 14.592 13.6957 14.6706 13.8144C14.7491 13.9331 14.7841 14.0753 14.7695 14.2169C14.755 14.3585 14.6918 14.4906 14.5907 14.5909C14.4728 14.7033 14.3168 14.7671 14.1538 14.7693Z" fill="#F8B814"/>
<path d="M14.1538 16.6153C14.0115 16.6145 13.8739 16.5643 13.7643 16.4734C13.6548 16.3825 13.5802 16.2565 13.5532 16.1167C13.5262 15.977 13.5484 15.8322 13.6162 15.707C13.6839 15.5819 13.7929 15.484 13.9247 15.4302C14.0564 15.3764 14.2028 15.3699 14.3388 15.4119C14.4748 15.4538 14.592 15.5416 14.6706 15.6603C14.7491 15.779 14.7841 15.9213 14.7695 16.0629C14.755 16.2044 14.6918 16.3366 14.5907 16.4368C14.5322 16.4928 14.4632 16.5368 14.3877 16.566C14.3137 16.5976 14.2342 16.6143 14.1538 16.6153Z" fill="#F8B814"/>
<path d="M14.1538 18.4615C14.0115 18.4606 13.8739 18.4105 13.7643 18.3196C13.6548 18.2287 13.5802 18.1027 13.5532 17.9629C13.5262 17.8232 13.5484 17.6784 13.6162 17.5532C13.6839 17.428 13.7929 17.3302 13.9247 17.2764C14.0564 17.2226 14.2028 17.2161 14.3388 17.2581C14.4748 17.3 14.592 17.3878 14.6706 17.5065C14.7491 17.6252 14.7841 17.7675 14.7695 17.909C14.755 18.0506 14.6918 18.1828 14.5907 18.283C14.4728 18.3955 14.3168 18.4592 14.1538 18.4615Z" fill="#F8B814"/>
</svg>
