<svg width="46" height="47" viewBox="0 0 46 47" fill="none" xmlns="http://www.w3.org/2000/svg">
<path d="M45.5 23.0531C45.5001 18.3518 44.0275 13.7686 41.2891 9.94711C38.5508 6.12565 34.6841 3.25794 30.2323 1.74678C25.7805 0.235607 20.9671 0.15689 16.4683 1.52168C11.9694 2.88647 8.01106 5.62621 5.14918 9.35609C2.28731 13.086 0.665666 17.6186 0.512024 22.3174C0.358381 27.0162 1.68045 31.6451 4.29256 35.554C6.90466 39.4629 10.6756 42.4553 15.0757 44.1111C19.4758 45.7669 24.284 46.0028 28.825 44.7856" stroke="#1E1E1E" stroke-linecap="round"/>
<path d="M23 33.0532C28.5228 33.0532 33 28.5761 33 23.0532C33 17.5304 28.5228 13.0532 23 13.0532C17.4772 13.0532 13 17.5304 13 23.0532C13 28.5761 17.4772 33.0532 23 33.0532Z" stroke="#3887FE"/>
<path d="M33 15.5532V26.8032C33 28.4608 33.6585 30.0505 34.8306 31.2226C36.0027 32.3947 37.5924 33.0532 39.25 33.0532C40.9076 33.0532 42.4973 32.3947 43.6694 31.2226C44.8415 30.0505 45.5 28.4608 45.5 26.8032V23.0532" stroke="#1E1E1E" stroke-linecap="round"/>
</svg>
