<svg width="15" height="18" viewBox="0 0 15 18" fill="none" xmlns="http://www.w3.org/2000/svg">
<path fill-rule="evenodd" clip-rule="evenodd" d="M7.60497 0.380371C3.68109 0.380371 0.499969 3.56149 0.499969 7.48537C0.499969 9.74553 1.55612 11.7595 3.1991 13.0599C3.27054 13.3145 3.34005 13.5488 3.40111 13.7466C3.58162 14.3357 4.08281 14.787 4.72687 14.8542C5.2849 14.9122 6.2074 14.9744 7.60497 14.9744C9.00254 14.9744 9.92504 14.9122 10.4831 14.8542C11.1271 14.787 11.6279 14.3357 11.8088 13.7466C11.8699 13.5488 11.9394 13.3145 12.0108 13.0599C13.6538 11.7591 14.71 9.74553 14.71 7.48537C14.71 3.56149 11.5288 0.380371 7.60497 0.380371ZM7.60497 3.83686C8.47076 3.83686 9.30109 4.18079 9.91329 4.79299C10.5255 5.4052 10.8694 6.23553 10.8694 7.10132C10.8694 7.2541 10.9301 7.40063 11.0382 7.50867C11.1462 7.6167 11.2927 7.6774 11.4455 7.6774C11.5983 7.6774 11.7448 7.6167 11.8529 7.50867C11.9609 7.40063 12.0216 7.2541 12.0216 7.10132C12.0216 4.66219 10.0441 2.6847 7.60497 2.6847C7.45218 2.6847 7.30566 2.74539 7.19762 2.85343C7.08958 2.96146 7.02889 3.10799 7.02889 3.26078C7.02889 3.41356 7.08958 3.56009 7.19762 3.66813C7.30566 3.77616 7.45218 3.83686 7.60497 3.83686ZM4.62701 15.809C4.52396 15.7979 4.42163 15.7808 4.32054 15.7579C4.34128 15.8739 4.36138 15.9827 4.38084 16.0843C4.51333 16.7922 5.03603 17.4228 5.82987 17.543C6.26116 17.6083 6.84838 17.6628 7.60497 17.6628C8.3243 17.6628 8.9192 17.6133 9.37623 17.5533C10.2887 17.4335 10.8848 16.6796 10.975 15.8481L10.9873 15.7329C10.8573 15.7688 10.7223 15.7941 10.5825 15.809C9.98649 15.8712 9.03058 15.9346 7.60497 15.9346C6.17936 15.9346 5.22307 15.8712 4.62701 15.809Z" fill="#7F42FA"/>
</svg>
