<svg width="32" height="32" viewBox="0 0 32 32" fill="none" xmlns="http://www.w3.org/2000/svg">
<rect width="32" height="32" rx="16" fill="#F07EFF"/>
<path d="M18.9635 10H13.0368C12.8068 10 12.5928 10.1187 12.4708 10.3133L10.1668 14H21.8335L19.5295 10.3133C19.4694 10.2175 19.3859 10.1385 19.2869 10.0837C19.1879 10.0289 19.0766 10.0001 18.9635 10ZM15.5068 22.124C15.5693 22.1927 15.6455 22.2477 15.7304 22.2853C15.8154 22.3228 15.9073 22.3423 16.0002 22.3423C16.0931 22.3423 16.1849 22.3228 16.2699 22.2853C16.3548 22.2477 16.431 22.1927 16.4935 22.124L22.6668 15.3333H9.3335L15.5068 22.124Z" fill="white"/>
</svg>
