<svg width="60" height="60" viewBox="0 0 60 60" fill="none" xmlns="http://www.w3.org/2000/svg">
<rect x="0.35" y="0.35" width="59.3" height="59.3" rx="9.65" fill="white"/>
<rect x="0.35" y="0.35" width="59.3" height="59.3" rx="9.65" stroke="#848484" stroke-width="0.7"/>
<g clip-path="url(#clip0_103_6586)">
<path d="M30.3619 34.4841L30.3544 34.4767C29.1456 33.1932 28.5337 31.7009 28.5337 29.9847C28.5337 29.1266 28.6904 28.3207 28.9963 27.5745C29.3023 26.8209 29.7575 26.1419 30.3544 25.53C30.9589 24.9331 31.6379 24.4779 32.399 24.1645C33.1527 23.8511 33.9586 23.6944 34.8168 23.6944C35.7271 23.6944 36.5853 23.8735 37.3986 24.2316C38.212 24.5898 38.9134 25.1047 39.5104 25.7613C40.0551 26.3657 40.4655 27.0522 40.7491 27.8208C40.7864 27.9327 40.7043 28.0521 40.5849 28.0521H39.4955C39.4283 28.0521 39.3686 28.0073 39.3388 27.9476C39.0925 27.373 38.7493 26.8731 38.3165 26.4329C37.8538 25.9702 37.324 25.6121 36.7196 25.3658C36.1152 25.1121 35.4809 24.9927 34.8168 24.9927C33.8989 24.9927 33.0632 25.2091 32.3095 25.6494C31.5558 26.0896 30.9589 26.6866 30.5261 27.4551C30.0933 28.2162 29.8694 29.0594 29.8694 29.9847C29.8694 30.9099 30.0858 31.7531 30.5261 32.5217C30.9589 33.2902 31.5558 33.8946 32.317 34.3349C33.0781 34.7751 33.9064 34.999 34.8168 34.999C35.4809 34.999 36.1226 34.8721 36.7196 34.6259C37.324 34.3722 37.8538 34.0215 38.3165 33.5589C38.7493 33.1261 39.0925 32.6261 39.3388 32.059C39.3686 31.9993 39.4283 31.9546 39.4955 31.9546H40.5775C40.6969 31.9546 40.7789 32.074 40.7416 32.1859C40.4581 32.947 40.0477 33.6335 39.5104 34.2304C38.9134 34.8871 38.212 35.4019 37.3986 35.7601C36.5853 36.1182 35.7271 36.2973 34.8168 36.2973C33.1229 36.2973 31.6379 35.6929 30.3619 34.4841Z" fill="#848484"/>
<path d="M37.9058 37.6485L38.7714 37.2157C38.8535 37.1709 38.9579 37.2082 39.0027 37.2903L42.7711 44.7894C42.8158 44.8715 42.7785 44.9759 42.6964 45.0207L41.8308 45.4535C41.7488 45.4982 41.6443 45.4609 41.5995 45.3789L37.8312 37.8798C37.7864 37.7977 37.8237 37.6932 37.9058 37.6485Z" fill="#848484"/>
<path d="M33.1829 38.2158L34.1381 38.3203C34.2351 38.3278 34.3022 38.4173 34.2873 38.5068L33.3545 46.8491C33.3471 46.9461 33.2575 47.0133 33.168 46.9983L32.2128 46.8939C32.1158 46.8864 32.0487 46.7969 32.0636 46.7073L32.9964 38.3651C33.0038 38.2755 33.0859 38.2084 33.1829 38.2158Z" fill="#848484"/>
<path d="M28.9138 36.1115L29.66 36.7233C29.7346 36.783 29.7421 36.895 29.6824 36.9621L24.347 43.4464C24.2873 43.521 24.1754 43.5285 24.1082 43.4688L23.362 42.8569C23.2874 42.7972 23.2799 42.6853 23.3396 42.6181L28.675 36.1413C28.7347 36.0667 28.8391 36.0518 28.9138 36.1115Z" fill="#848484"/>
<path d="M26.4813 32.022L26.7723 32.9398C26.8021 33.0293 26.7499 33.1263 26.6603 33.1562L18.6535 35.6782C18.564 35.7081 18.467 35.6559 18.4371 35.5663L18.1461 34.6485C18.1163 34.559 18.1685 34.462 18.2581 34.4321L26.2649 31.91C26.3544 31.8802 26.4514 31.9324 26.4813 32.022Z" fill="#848484"/>
<path d="M26.6761 27.2693L26.4149 28.202C26.3925 28.2915 26.2955 28.3437 26.206 28.3214L18.1246 26.0679C18.035 26.0455 17.9828 25.9485 18.0052 25.859L18.2663 24.9263C18.2887 24.8367 18.3857 24.7845 18.4753 24.8069L26.5567 27.0603C26.6462 27.0827 26.7059 27.1722 26.6761 27.2693Z" fill="#848484"/>
<path d="M29.438 23.3887L28.7142 24.0229C28.6396 24.0826 28.5351 24.0751 28.4754 24.008L22.9311 17.7103C22.8714 17.6356 22.8789 17.5312 22.946 17.4715L23.6698 16.8372C23.7445 16.7775 23.8489 16.785 23.9086 16.8522L29.453 23.1499C29.5127 23.217 29.5052 23.3215 29.438 23.3887Z" fill="#848484"/>
<path d="M33.862 21.6428L32.9069 21.7846C32.8099 21.7995 32.7278 21.7324 32.7129 21.6428L31.504 13.3379C31.4891 13.2409 31.5563 13.1588 31.6458 13.1439L32.601 13.0021C32.698 12.9872 32.78 13.0543 32.795 13.1439L34.0038 21.4488C34.0188 21.5383 33.9591 21.6279 33.862 21.6428Z" fill="#848484"/>
<path d="M38.5264 22.5906L37.6533 22.1876C37.5638 22.1503 37.5264 22.0459 37.5712 21.9563L41.0859 14.3379C41.1232 14.2483 41.2276 14.211 41.3172 14.2558L42.1902 14.6587C42.2798 14.696 42.3171 14.8005 42.2723 14.89L38.7577 22.5085C38.7129 22.5906 38.6159 22.6279 38.5264 22.5906Z" fill="#848484"/>
<path d="M34.7876 33.4624C36.6998 33.4624 38.25 31.9123 38.25 30.0001C38.25 28.0879 36.6998 26.5378 34.7876 26.5378C32.8754 26.5378 31.3252 28.0879 31.3252 30.0001C31.3252 31.9123 32.8754 33.4624 34.7876 33.4624Z" fill="#848484"/>
</g>
<defs>
<clipPath id="clip0_103_6586">
<rect width="34" height="34" fill="white" transform="translate(13 13)"/>
</clipPath>
</defs>
</svg>
