<svg width="137" height="75" viewBox="0 0 137 75" fill="none" xmlns="http://www.w3.org/2000/svg">
<path d="M51.0157 2.98033L43.3108 19.6903C43.2241 19.8781 43.3108 20.0996 43.4938 20.1863L45.4152 21.0724C45.603 21.1591 45.8245 21.0724 45.9112 20.8894L53.6161 4.1794C53.7028 3.99159 53.6161 3.77008 53.4331 3.6834L51.5117 2.79733C51.3239 2.71065 51.1024 2.79733 51.0157 2.98033ZM32.418 0.0332031L30.3232 0.341399C30.1162 0.370292 29.9765 0.562915 30.0054 0.765168L32.6636 18.9728C32.6925 19.1799 32.8851 19.3195 33.0874 19.2906L35.1821 18.9824C35.3892 18.9535 35.5289 18.7609 35.5 18.5587L32.8418 0.355846C32.8129 0.148777 32.6203 0.00912533 32.418 0.0380187V0.0332031ZM12.8139 8.44599L11.2247 9.8425C11.0706 9.97733 11.0562 10.2181 11.191 10.3722L23.3551 24.1832C23.49 24.3373 23.7307 24.3518 23.8848 24.2169L25.474 22.8204C25.6281 22.6856 25.6425 22.4448 25.5077 22.2907L13.3436 8.4797C13.2087 8.3256 12.968 8.31115 12.8139 8.44599ZM0.972405 26.1913L0.404169 28.2283C0.346382 28.4257 0.466771 28.6328 0.664209 28.6906L18.3951 33.6314C18.5925 33.6892 18.7996 33.5688 18.8574 33.3713L19.4256 31.3343C19.4834 31.1369 19.363 30.9298 19.1656 30.872L1.4347 25.9313C1.23726 25.8735 1.03019 25.9939 0.972405 26.1913ZM18.5299 41.5096L0.972405 47.0427C0.774967 47.1053 0.664209 47.3172 0.726811 47.5146L1.36247 49.5323C1.42507 49.7298 1.63695 49.8405 1.83439 49.7779L19.3919 44.2449C19.5894 44.1823 19.7001 43.9704 19.6375 43.7729L19.0019 41.7552C18.9393 41.5578 18.7274 41.447 18.5299 41.5096ZM23.803 50.7796L12.106 64.9903C11.976 65.1492 11.9952 65.3852 12.159 65.52L13.7914 66.8635C13.9503 66.9936 14.1863 66.9743 14.3211 66.8106L26.0181 52.5999C26.1482 52.4409 26.1289 52.205 25.9652 52.0701L24.3327 50.7266C24.1738 50.5966 23.9378 50.6158 23.803 50.7796ZM33.2848 55.677L31.2382 73.9665C31.2141 74.1736 31.3634 74.3566 31.5705 74.3806L33.6749 74.6166C33.8819 74.6407 34.0649 74.4914 34.089 74.2843L36.1356 55.9948C36.1597 55.7878 36.0104 55.6048 35.8034 55.5807L33.6989 55.3447C33.4919 55.3206 33.3089 55.4699 33.2848 55.677ZM45.9497 53.1536L44.0572 54.1023C43.8742 54.1938 43.7972 54.4201 43.8887 54.6079L52.1522 71.0531C52.2437 71.2361 52.47 71.3131 52.6578 71.2216L54.5503 70.273C54.7333 70.1815 54.8104 69.9551 54.7189 69.7673L46.4554 53.3222C46.3639 53.1392 46.1375 53.0621 45.9497 53.1536Z" fill="#1A237E"/>
<path d="M59.3726 28.8929C59.3726 27.2903 59.7194 25.8649 60.4128 24.6167C61.1062 23.3531 62.0694 22.3746 63.3021 21.6811C64.5503 20.9723 65.9603 20.6179 67.5321 20.6179C69.4584 20.6179 71.1072 21.1264 72.4787 22.1434C73.8501 23.1605 74.767 24.5474 75.2293 26.3041H70.8838C70.5602 25.626 70.0979 25.1098 69.4969 24.7554C68.9113 24.401 68.241 24.2238 67.4859 24.2238C66.2685 24.2238 65.2823 24.6475 64.5272 25.4951C63.7721 26.3426 63.3946 27.4752 63.3946 28.8929C63.3946 30.3106 63.7721 31.4432 64.5272 32.2908C65.2823 33.1383 66.2685 33.5621 67.4859 33.5621C68.241 33.5621 68.9113 33.3849 69.4969 33.0305C70.0979 32.676 70.5602 32.1598 70.8838 31.4818H75.2293C74.767 33.2385 73.8501 34.6254 72.4787 35.6424C71.1072 36.6441 69.4584 37.1449 67.5321 37.1449C65.9603 37.1449 64.5503 36.7981 63.3021 36.1047C62.0694 35.3959 61.1062 34.4173 60.4128 33.1691C59.7194 31.921 59.3726 30.4955 59.3726 28.8929ZM92.1659 37.0293H88.2133L81.6025 27.0206V37.0293H77.6499V20.8028H81.6025L88.2133 30.8577V20.8028H92.1659V37.0293ZM98.9836 23.9695V27.2518H104.277V30.3029H98.9836V33.8626H104.97V37.0293H95.031V20.8028H104.97V23.9695H98.9836ZM113.408 37.1911C112.221 37.1911 111.158 36.9985 110.218 36.6132C109.278 36.228 108.523 35.6578 107.953 34.9027C107.398 34.1477 107.105 33.2385 107.074 32.1752H111.281C111.343 32.7762 111.551 33.2385 111.905 33.5621C112.26 33.8703 112.722 34.0244 113.292 34.0244C113.878 34.0244 114.34 33.8934 114.679 33.6314C115.018 33.3541 115.187 32.9765 115.187 32.4988C115.187 32.0982 115.049 31.7669 114.771 31.5049C114.509 31.2429 114.178 31.0272 113.777 30.8577C113.392 30.6882 112.837 30.4955 112.113 30.2798C111.065 29.9562 110.21 29.6326 109.547 29.309C108.885 28.9854 108.315 28.5077 107.837 27.8759C107.359 27.2441 107.12 26.4197 107.12 25.4026C107.12 23.8924 107.667 22.7136 108.762 21.8661C109.856 21.0031 111.281 20.5716 113.038 20.5716C114.825 20.5716 116.266 21.0031 117.36 21.8661C118.454 22.7136 119.04 23.9002 119.117 25.4257H114.841C114.81 24.9018 114.617 24.4934 114.263 24.2006C113.908 23.8924 113.454 23.7383 112.899 23.7383C112.421 23.7383 112.036 23.8693 111.743 24.1313C111.451 24.3779 111.304 24.74 111.304 25.2177C111.304 25.7416 111.551 26.15 112.044 26.4428C112.537 26.7356 113.307 27.0515 114.355 27.3905C115.403 27.7449 116.251 28.0839 116.898 28.4075C117.561 28.7311 118.131 29.2011 118.608 29.8175C119.086 30.4339 119.325 31.2275 119.325 32.1983C119.325 33.1229 119.086 33.9627 118.608 34.7178C118.146 35.4729 117.468 36.0739 116.574 36.5208C115.681 36.9677 114.625 37.1911 113.408 37.1911ZM127.629 37.1911C126.442 37.1911 125.379 36.9985 124.439 36.6132C123.499 36.228 122.744 35.6578 122.173 34.9027C121.619 34.1477 121.326 33.2385 121.295 32.1752H125.502C125.564 32.7762 125.772 33.2385 126.126 33.5621C126.48 33.8703 126.943 34.0244 127.513 34.0244C128.099 34.0244 128.561 33.8934 128.9 33.6314C129.239 33.3541 129.408 32.9765 129.408 32.4988C129.408 32.0982 129.27 31.7669 128.992 31.5049C128.73 31.2429 128.399 31.0272 127.998 30.8577C127.613 30.6882 127.058 30.4955 126.334 30.2798C125.286 29.9562 124.431 29.6326 123.768 29.309C123.106 28.9854 122.536 28.5077 122.058 27.8759C121.58 27.2441 121.341 26.4197 121.341 25.4026C121.341 23.8924 121.888 22.7136 122.982 21.8661C124.077 21.0031 125.502 20.5716 127.259 20.5716C129.046 20.5716 130.487 21.0031 131.581 21.8661C132.675 22.7136 133.261 23.9002 133.338 25.4257H129.062C129.031 24.9018 128.838 24.4934 128.484 24.2006C128.129 23.8924 127.675 23.7383 127.12 23.7383C126.642 23.7383 126.257 23.8693 125.964 24.1313C125.671 24.3779 125.525 24.74 125.525 25.2177C125.525 25.7416 125.772 26.15 126.265 26.4428C126.758 26.7356 127.528 27.0515 128.576 27.3905C129.624 27.7449 130.472 28.0839 131.119 28.4075C131.781 28.7311 132.352 29.2011 132.829 29.8175C133.307 30.4339 133.546 31.2275 133.546 32.1983C133.546 33.1229 133.307 33.9627 132.829 34.7178C132.367 35.4729 131.689 36.0739 130.795 36.5208C129.901 36.9677 128.846 37.1911 127.629 37.1911Z" fill="#1A237E"/>
<path d="M61.8459 42.1992V55.625H60.0931V42.1992H61.8459ZM69.9764 44.8767C71.2605 44.8767 72.3007 45.2683 73.0969 46.0517C73.893 46.8222 74.2911 47.9394 74.2911 49.4033V55.625H72.5575V49.6537C72.5575 48.6007 72.2943 47.7981 71.7678 47.2459C71.2413 46.6809 70.5222 46.3984 69.6104 46.3984C68.6858 46.3984 67.9474 46.6873 67.3953 47.2652C66.8559 47.8431 66.5862 48.6842 66.5862 49.7885V55.625H64.8334V45.0693H66.5862V46.5717C66.933 46.0324 67.4017 45.6151 67.9924 45.3197C68.5959 45.0243 69.2573 44.8767 69.9764 44.8767ZM80.8913 55.7984C80.0823 55.7984 79.3568 55.6635 78.7147 55.3939C78.0726 55.1113 77.5654 54.7261 77.193 54.2381C76.8206 53.7373 76.6151 53.1659 76.5766 52.5238H78.3872C78.4386 53.0503 78.6826 53.4805 79.1192 53.8143C79.5686 54.1482 80.1529 54.3152 80.872 54.3152C81.5398 54.3152 82.0663 54.1675 82.4516 53.8721C82.8368 53.5768 83.0294 53.2044 83.0294 52.7549C83.0294 52.2926 82.824 51.9523 82.413 51.734C82.0021 51.5029 81.3664 51.2782 80.5061 51.0598C79.7227 50.8544 79.0807 50.6489 78.5798 50.4435C78.0919 50.2252 77.6681 49.9105 77.3085 49.4996C76.9618 49.0758 76.7885 48.5237 76.7885 47.8431C76.7885 47.3037 76.949 46.8093 77.27 46.3599C77.591 45.9104 78.0469 45.5573 78.6376 45.3004C79.2283 45.0308 79.9025 44.8959 80.6602 44.8959C81.8287 44.8959 82.7726 45.1913 83.4917 45.782C84.2108 46.3727 84.5961 47.1817 84.6474 48.209H82.8946C82.8561 47.6569 82.6313 47.2138 82.2204 46.8799C81.8223 46.5461 81.283 46.3791 80.6024 46.3791C79.9731 46.3791 79.4723 46.514 79.0999 46.7836C78.7275 47.0533 78.5413 47.4064 78.5413 47.8431C78.5413 48.1898 78.6505 48.4787 78.8688 48.7099C79.0999 48.9282 79.3824 49.1079 79.7163 49.2492C80.063 49.3776 80.5382 49.5253 81.1417 49.6922C81.8994 49.8977 82.5158 50.1032 82.9909 50.3086C83.466 50.5012 83.8705 50.7966 84.2044 51.1947C84.5511 51.5928 84.7309 52.1129 84.7438 52.7549C84.7438 53.3328 84.5832 53.8529 84.2622 54.3152C83.9412 54.7775 83.4853 55.1434 82.8946 55.4131C82.3167 55.6699 81.649 55.7984 80.8913 55.7984ZM88.9711 47.0148C89.3178 46.4112 89.8314 45.9104 90.512 45.5123C91.2055 45.1014 92.0081 44.8959 92.9198 44.8959C93.8573 44.8959 94.7048 45.1207 95.4624 45.5701C96.2329 46.0196 96.8365 46.6552 97.2731 47.4771C97.7097 48.2861 97.928 49.2299 97.928 50.3086C97.928 51.3745 97.7097 52.3247 97.2731 53.1594C96.8365 53.9941 96.2329 54.6426 95.4624 55.1049C94.7048 55.5672 93.8573 55.7984 92.9198 55.7984C92.0209 55.7984 91.2247 55.5993 90.5313 55.2012C89.8507 54.7903 89.3306 54.2831 88.9711 53.6795V60.6332H87.2182V45.0693H88.9711V47.0148ZM96.1366 50.3086C96.1366 49.5124 95.9761 48.819 95.6551 48.2283C95.334 47.6376 94.8974 47.1881 94.3452 46.8799C93.8059 46.5717 93.2088 46.4176 92.5538 46.4176C91.9118 46.4176 91.3146 46.5782 90.7625 46.8992C90.2231 47.2074 89.7865 47.6633 89.4526 48.2668C89.1316 48.8575 88.9711 49.5446 88.9711 50.3279C88.9711 51.1241 89.1316 51.8239 89.4526 52.4275C89.7865 53.0182 90.2231 53.474 90.7625 53.7951C91.3146 54.1033 91.9118 54.2574 92.5538 54.2574C93.2088 54.2574 93.8059 54.1033 94.3452 53.7951C94.8974 53.474 95.334 53.0182 95.6551 52.4275C95.9761 51.8239 96.1366 51.1176 96.1366 50.3086ZM101.141 43.355C100.807 43.355 100.524 43.2394 100.293 43.0082C100.062 42.7771 99.9463 42.4946 99.9463 42.1607C99.9463 41.8268 100.062 41.5443 100.293 41.3132C100.524 41.082 100.807 40.9664 101.141 40.9664C101.462 40.9664 101.731 41.082 101.95 41.3132C102.181 41.5443 102.296 41.8268 102.296 42.1607C102.296 42.4946 102.181 42.7771 101.95 43.0082C101.731 43.2394 101.462 43.355 101.141 43.355ZM101.988 45.0693V55.625H100.235V45.0693H101.988ZM106.728 46.7836C107.037 46.1801 107.473 45.7114 108.038 45.3775C108.616 45.0436 109.316 44.8767 110.138 44.8767V46.6873H109.676C107.711 46.6873 106.728 47.7532 106.728 49.8849V55.625H104.976V45.0693H106.728V46.7836ZM121.792 49.9426C121.792 50.2765 121.773 50.6297 121.735 51.0021H113.298C113.362 52.0422 113.715 52.8577 114.357 53.4484C115.012 54.0262 115.802 54.3152 116.726 54.3152C117.484 54.3152 118.113 54.1418 118.614 53.7951C119.128 53.4355 119.487 52.9604 119.693 52.3697H121.581C121.298 53.3842 120.733 54.2124 119.885 54.8545C119.038 55.4837 117.985 55.7984 116.726 55.7984C115.725 55.7984 114.826 55.5736 114.03 55.1242C113.246 54.6747 112.63 54.0391 112.181 53.2172C111.731 52.3825 111.506 51.4194 111.506 50.3279C111.506 49.2364 111.725 48.2797 112.161 47.4578C112.598 46.636 113.208 46.0067 113.991 45.5701C114.787 45.1207 115.699 44.8959 116.726 44.8959C117.728 44.8959 118.614 45.1142 119.385 45.5508C120.155 45.9875 120.746 46.591 121.157 47.3615C121.581 48.1191 121.792 48.9795 121.792 49.9426ZM119.982 49.5767C119.982 48.9089 119.834 48.3375 119.539 47.8623C119.243 47.3743 118.839 47.0084 118.325 46.7644C117.824 46.5075 117.266 46.3791 116.649 46.3791C115.763 46.3791 115.006 46.6616 114.376 47.2267C113.76 47.7917 113.407 48.575 113.317 49.5767H119.982ZM123.451 50.3086C123.451 49.2299 123.67 48.2861 124.106 47.4771C124.543 46.6552 125.14 46.0196 125.898 45.5701C126.668 45.1207 127.528 44.8959 128.479 44.8959C129.301 44.8959 130.065 45.0886 130.771 45.4738C131.477 45.8462 132.017 46.3406 132.389 46.957V41.3709H134.161V55.625H132.389V53.641C132.042 54.2702 131.529 54.7903 130.848 55.2012C130.167 55.5993 129.371 55.7984 128.459 55.7984C127.522 55.7984 126.668 55.5672 125.898 55.1049C125.14 54.6426 124.543 53.9941 124.106 53.1594C123.67 52.3247 123.451 51.3745 123.451 50.3086ZM132.389 50.3279C132.389 49.5317 132.228 48.8383 131.907 48.2476C131.586 47.6569 131.15 47.2074 130.598 46.8992C130.058 46.5782 129.461 46.4176 128.806 46.4176C128.151 46.4176 127.554 46.5717 127.015 46.8799C126.475 47.1881 126.045 47.6376 125.724 48.2283C125.403 48.819 125.243 49.5124 125.243 50.3086C125.243 51.1176 125.403 51.8239 125.724 52.4275C126.045 53.0182 126.475 53.474 127.015 53.7951C127.554 54.1033 128.151 54.2574 128.806 54.2574C129.461 54.2574 130.058 54.1033 130.598 53.7951C131.15 53.474 131.586 53.0182 131.907 52.4275C132.228 51.8239 132.389 51.1241 132.389 50.3279Z" fill="#9747FF"/>
<path d="M27.6865 47.2974C27.6865 47.2974 27.6671 47.2781 27.6623 47.2733C24.9864 44.461 23.6436 41.1816 23.6436 37.4255C23.6436 35.5474 23.9829 33.7801 24.6616 32.138C25.3402 30.4911 26.3389 28.9934 27.6623 27.6499C29.0003 26.3353 30.5079 25.3384 32.1707 24.6546C33.8383 23.9708 35.6174 23.6289 37.508 23.6289C39.5198 23.6289 41.4152 24.0238 43.2089 24.8135C45.0025 25.6033 46.5538 26.7205 47.8675 28.1652C49.0649 29.4846 49.9714 30.9871 50.5967 32.6773C50.6889 32.9181 50.4998 33.1782 50.238 33.1782H47.853C47.7027 33.1782 47.5718 33.0867 47.5088 32.9518C46.961 31.6998 46.2096 30.5922 45.2449 29.6387C44.222 28.6226 43.044 27.8425 41.7206 27.2935C40.3875 26.7446 38.9865 26.4701 37.5128 26.4701C35.4865 26.4701 33.6444 26.9516 31.9767 27.9148C30.3091 28.8779 28.9954 30.1973 28.0356 31.8683C27.0757 33.5393 26.591 35.3885 26.591 37.4159C26.591 39.4432 27.0709 41.2972 28.0356 42.9778C28.9954 44.6585 30.3188 45.9827 31.9913 46.9555C33.6686 47.9282 35.5107 48.4146 37.5177 48.4146C38.9914 48.4146 40.3923 48.1401 41.7255 47.5911C43.0586 47.0422 44.2317 46.262 45.2497 45.246C46.2096 44.2925 46.9658 43.1945 47.5136 41.9569C47.5718 41.8221 47.7075 41.7306 47.8578 41.7306H50.2429C50.5046 41.7306 50.6889 41.9858 50.6016 42.2314C49.9811 43.9072 49.0746 45.4001 47.8772 46.7195C46.5635 48.1642 45.0122 49.2814 43.2186 50.0711C41.4249 50.8609 39.5295 51.2558 37.5177 51.2558C33.7849 51.2558 30.5127 49.9315 27.6914 47.2829L27.6865 47.2974Z" fill="#1A237E"/>
<path d="M37.47 45.0693C41.6895 45.0693 45.11 41.6714 45.11 37.4799C45.11 33.2885 41.6895 29.8906 37.47 29.8906C33.2506 29.8906 29.8301 33.2885 29.8301 37.4799C29.8301 41.6714 33.2506 45.0693 37.47 45.0693Z" fill="#FFCC00"/>
</svg>
