<svg width="15" height="21" viewBox="0 0 15 21" fill="none" xmlns="http://www.w3.org/2000/svg">
<path d="M9.90006 12.066C11.027 12.066 11.9399 11.1531 11.9399 10.0262C11.9399 8.89921 11.027 7.98633 9.90006 7.98633C8.77311 7.98633 7.86023 8.89921 7.86023 10.0262C7.86023 11.1531 8.77311 12.066 9.90006 12.066Z" fill="url(#paint0_linear_3093_27509)"/>
<path d="M7.28821 12.6705C7.28821 12.6705 7.28329 12.6656 7.28083 12.6631C6.56603 11.9077 6.20801 11.0256 6.20801 10.0167C6.20801 9.51229 6.29905 9.0374 6.4799 8.59572C6.66076 8.15281 6.92773 7.75051 7.28206 7.3888C7.64007 7.0357 8.04115 6.76749 8.48529 6.58418C8.93066 6.40087 9.40556 6.30859 9.90998 6.30859C10.4464 6.30859 10.9533 6.41563 11.4319 6.62724C11.9104 6.83885 12.3251 7.14027 12.6757 7.52905C12.9956 7.88338 13.2379 8.28815 13.404 8.74213C13.4286 8.80733 13.3782 8.87623 13.3081 8.87623H12.672C12.6314 8.87623 12.5957 8.85162 12.5797 8.81594C12.4346 8.47884 12.2328 8.18234 11.9757 7.92521C11.7025 7.65208 11.3888 7.44293 11.0345 7.29406C10.6789 7.14643 10.3049 7.07261 9.91121 7.07261C9.36988 7.07261 8.87776 7.20179 8.43239 7.46138C7.98702 7.72098 7.63638 8.0753 7.37925 8.52436C7.12212 8.97342 6.99417 9.47046 6.99417 10.0167C6.99417 10.563 7.12212 11.06 7.37925 11.5128C7.63638 11.9643 7.98825 12.3198 8.43608 12.5831C8.88391 12.8452 9.3748 12.9756 9.91121 12.9756C10.3049 12.9756 10.6789 12.9018 11.0345 12.7541C11.39 12.6065 11.7038 12.3961 11.9757 12.123C12.2328 11.8659 12.4346 11.5718 12.5797 11.2384C12.5957 11.2015 12.6314 11.1781 12.672 11.1781H13.3081C13.3782 11.1781 13.4274 11.247 13.4028 11.3122C13.2367 11.7625 12.9943 12.1648 12.6757 12.5191C12.3251 12.9079 11.9104 13.2081 11.4319 13.421C10.9533 13.6326 10.4464 13.7396 9.90998 13.7396C8.91344 13.7396 8.03992 13.384 7.28698 12.6717L7.28821 12.6705Z" fill="#9F9F9F"/>
<path d="M12.2451 14.2872L11.7369 14.5431C11.6877 14.5677 11.6668 14.6292 11.6927 14.6784L13.9133 19.0989C13.938 19.1481 13.9995 19.169 14.0487 19.1432L14.5568 18.8873C14.606 18.8627 14.6269 18.8012 14.6011 18.7519L12.3804 14.3315C12.3558 14.281 12.2943 14.2613 12.2451 14.286V14.2872Z" fill="#9F9F9F"/>
<path d="M8.84075 14.9642L8.28957 19.8805C8.28342 19.9359 8.32279 19.9863 8.37816 19.9925L8.94286 20.0552C8.99823 20.0614 9.04867 20.022 9.05482 19.9666L9.606 15.0503C9.61215 14.995 9.57278 14.9445 9.51741 14.9384L8.95271 14.8756C8.89734 14.8695 8.8469 14.9089 8.84075 14.9642Z" fill="#9F9F9F"/>
<path d="M6.29176 13.6481L3.14834 17.4682C3.11266 17.5112 3.11881 17.5752 3.16188 17.6096L3.60109 17.9714C3.64415 18.007 3.70813 18.0009 3.74258 17.9578L6.88599 14.1377C6.92167 14.0947 6.91552 14.0307 6.87246 13.9963L6.43324 13.6345C6.39018 13.5989 6.32621 13.605 6.29176 13.6481Z" fill="#9F9F9F"/>
<path d="M4.87589 11.1547L0.157694 12.6422C0.104791 12.6594 0.0752632 12.716 0.0912571 12.7689L0.262267 13.3115C0.279491 13.3644 0.336085 13.3939 0.388988 13.3779L5.10719 11.8905C5.16009 11.8732 5.18962 11.8166 5.17362 11.7637L5.00261 11.2212C4.98539 11.1683 4.92879 11.1387 4.87589 11.1547Z" fill="#9F9F9F"/>
<path d="M0.156248 7.03671L0.00369187 7.5842C-0.0110717 7.63833 0.0196829 7.69369 0.0738161 7.70845L4.84 9.03595C4.89413 9.05071 4.94949 9.01995 4.96426 8.96582L5.11682 8.41834C5.13158 8.36421 5.10082 8.30884 5.04669 8.29408L0.280509 6.96658C0.226376 6.95182 0.171011 6.98258 0.156248 7.03671Z" fill="#9F9F9F"/>
<path d="M3.3391 2.26759L2.91219 2.64406C2.87036 2.68097 2.86667 2.74494 2.90357 2.78677L6.17371 6.49982C6.21062 6.54165 6.2746 6.54534 6.31643 6.50843L6.74334 6.13196C6.78517 6.09505 6.78886 6.03108 6.75195 5.98925L3.48182 2.2762C3.44491 2.23437 3.38093 2.23068 3.3391 2.26759Z" fill="#9F9F9F"/>
<path d="M8.60794 0.00121396L8.0457 0.0836457C7.99034 0.0922578 7.9522 0.142699 7.96081 0.198063L8.67561 5.09343C8.68422 5.14879 8.73467 5.18693 8.79003 5.17832L9.35228 5.09589C9.40764 5.08727 9.44578 5.03683 9.43717 4.98147L8.72236 0.086105C8.71375 0.0307415 8.66331 -0.00739814 8.60794 0.00121396Z" fill="#9F9F9F"/>
<path d="M13.6061 0.796619L11.5343 5.28967C11.5109 5.34012 11.5343 5.4004 11.5835 5.42378L12.1002 5.66245C12.1506 5.68583 12.2109 5.66245 12.2343 5.61324L14.3061 1.12019C14.3295 1.06974 14.3061 1.00946 14.2569 0.986083L13.7402 0.747404C13.6898 0.724029 13.6295 0.747407 13.6061 0.796619Z" fill="#9F9F9F"/>
<defs>
<linearGradient id="paint0_linear_3093_27509" x1="7.07405" y1="7.38103" x2="11.6262" y2="11.2565" gradientUnits="userSpaceOnUse">
<stop offset="0.42" stop-color="#F8B814"/>
<stop offset="1" stop-color="#F28705"/>
</linearGradient>
</defs>
</svg>
