<svg width="20" height="20" viewBox="0 0 20 20" fill="none" xmlns="http://www.w3.org/2000/svg">
<path d="M14.1667 16.6673H18.3334V15.0007C18.3334 13.6199 17.2141 12.5007 15.8334 12.5007C15.0371 12.5007 14.3277 12.873 13.8699 13.4531M14.1667 16.6673H5.83341M14.1667 16.6673V15.0007C14.1667 14.4538 14.0614 13.9315 13.8699 13.4531M5.83341 16.6673H1.66675V15.0007C1.66675 13.6199 2.78604 12.5007 4.16675 12.5007C4.96309 12.5007 5.67246 12.873 6.13029 13.4531M5.83341 16.6673V15.0007C5.83341 14.4538 5.93877 13.9315 6.13029 13.4531M6.13029 13.4531C6.74467 11.9182 8.24576 10.834 10.0001 10.834C11.7544 10.834 13.2555 11.9182 13.8699 13.4531M12.5001 5.83398C12.5001 7.2147 11.3808 8.33398 10.0001 8.33398C8.61937 8.33398 7.50008 7.2147 7.50008 5.83398C7.50008 4.45327 8.61937 3.33398 10.0001 3.33398C11.3808 3.33398 12.5001 4.45327 12.5001 5.83398ZM17.5001 8.33398C17.5001 9.25446 16.7539 10.0007 15.8334 10.0007C14.9129 10.0007 14.1667 9.25446 14.1667 8.33398C14.1667 7.41351 14.9129 6.66732 15.8334 6.66732C16.7539 6.66732 17.5001 7.41351 17.5001 8.33398ZM5.83341 8.33398C5.83341 9.25446 5.08722 10.0007 4.16675 10.0007C3.24627 10.0007 2.50008 9.25446 2.50008 8.33398C2.50008 7.41351 3.24627 6.66732 4.16675 6.66732C5.08722 6.66732 5.83341 7.41351 5.83341 8.33398Z" stroke="#64748B" stroke-width="1.5" stroke-linecap="round" stroke-linejoin="round"/>
</svg>
