<svg width="13" height="13" viewBox="0 0 13 13" fill="none" xmlns="http://www.w3.org/2000/svg">
<g clip-path="url(#clip0_35_2823)">
<path d="M6.5 0.919434C5.41221 0.919434 4.34884 1.242 3.44437 1.84635C2.5399 2.4507 1.83495 3.30968 1.41867 4.31467C1.00238 5.31967 0.893465 6.42553 1.10568 7.49243C1.3179 8.55933 1.84173 9.53933 2.61092 10.3085C3.3801 11.0777 4.36011 11.6015 5.42701 11.8138C6.4939 12.026 7.59977 11.9171 8.60476 11.5008C9.60976 11.0845 10.4687 10.3795 11.0731 9.47507C11.6774 8.5706 12 7.50723 12 6.41943C12 4.96074 11.4205 3.5618 10.3891 2.53035C9.35764 1.4989 7.95869 0.919434 6.5 0.919434ZM9.3535 5.27293L5.8535 8.77293C5.75974 8.86667 5.63258 8.91933 5.5 8.91933C5.36742 8.91933 5.24027 8.86667 5.1465 8.77293L3.6465 7.27293C3.55542 7.17863 3.50503 7.05233 3.50617 6.92123C3.5073 6.79013 3.55989 6.66473 3.65259 6.57202C3.7453 6.47932 3.8707 6.42674 4.0018 6.4256C4.1329 6.42446 4.2592 6.47485 4.3535 6.56593L5.5 7.71243L8.6465 4.56593C8.7408 4.47485 8.8671 4.42446 8.9982 4.4256C9.1293 4.42674 9.25471 4.47932 9.34741 4.57202C9.44012 4.66473 9.4927 4.79013 9.49384 4.92123C9.49498 5.05233 9.44458 5.17863 9.3535 5.27293Z" fill="white"/>
</g>
<defs>
<clipPath id="clip0_35_2823">
<rect width="12" height="12" fill="white" transform="translate(0.5 0.419434)"/>
</clipPath>
</defs>
</svg>
