<svg width="16" height="16" viewBox="0 0 16 16" fill="none" xmlns="http://www.w3.org/2000/svg">
<path d="M4.13301 3.692C4.30165 3.19824 4.62054 2.76961 5.04501 2.46619C5.46948 2.16277 5.97825 1.99976 6.50001 2H11.5C12.1631 2 12.7989 2.26339 13.2678 2.73223C13.7366 3.20107 14 3.83696 14 4.5V9.5C14 10.598 13.292 11.53 12.308 11.867V12.231C12.308 12.566 12.191 12.994 11.916 13.347C11.627 13.719 11.168 14 10.539 14H4.76901C4.40459 14.0025 4.0433 13.9326 3.70615 13.7943C3.36899 13.656 3.06269 13.452 2.80504 13.1943C2.5474 12.9365 2.34355 12.6301 2.20535 12.2929C2.06715 11.9557 1.99735 11.5944 2.00001 11.23V5.463C2.00001 4.914 2.19701 4.457 2.54601 4.14C2.88601 3.831 3.33101 3.693 3.76901 3.693L4.13301 3.692ZM4.00001 4.692H3.77001C3.56891 4.68299 3.37181 4.75012 3.21801 4.88C3.10001 4.987 3.00001 5.164 3.00001 5.462V11.231C3.00001 12.224 3.77601 13.001 4.77001 13.001H10.539C10.838 13.001 11.013 12.88 11.127 12.733C11.2364 12.5877 11.2991 12.4127 11.307 12.231V12H6.50001C5.83697 12 5.20109 11.7366 4.73225 11.2678C4.2634 10.7989 4.00001 10.163 4.00001 9.5V4.692ZM8.00001 6H9.29301L6.64601 8.646C6.59952 8.69249 6.56265 8.74768 6.53749 8.80842C6.51233 8.86916 6.49938 8.93426 6.49938 9C6.49938 9.06574 6.51233 9.13084 6.53749 9.19158C6.56265 9.25232 6.59952 9.30751 6.64601 9.354C6.6925 9.40049 6.74769 9.43737 6.80843 9.46252C6.86917 9.48768 6.93427 9.50063 7.00001 9.50063C7.06576 9.50063 7.13086 9.48768 7.1916 9.46252C7.25234 9.43737 7.30752 9.40049 7.35401 9.354L10 6.707V8C10 8.13261 10.0527 8.25979 10.1465 8.35355C10.2402 8.44732 10.3674 8.5 10.5 8.5C10.6326 8.5 10.7598 8.44732 10.8536 8.35355C10.9473 8.25979 11 8.13261 11 8V5.5C11 5.36739 10.9473 5.24022 10.8536 5.14645C10.7598 5.05268 10.6326 5 10.5 5H8.00001C7.8674 5 7.74023 5.05268 7.64646 5.14645C7.55269 5.24022 7.50001 5.36739 7.50001 5.5C7.50001 5.63261 7.55269 5.75979 7.64646 5.85355C7.74023 5.94732 7.8674 6 8.00001 6Z" fill="#64748B"/>
</svg>
