<svg width="24" height="16" viewBox="0 0 24 16" fill="none" xmlns="http://www.w3.org/2000/svg">
<path d="M15.25 0.880371V2.50537H20.601L13.625 9.48141L10.1369 5.99343C10.0615 5.91795 9.97198 5.85808 9.87341 5.81722C9.77485 5.77637 9.6692 5.75534 9.5625 5.75534C9.4558 5.75534 9.35015 5.77637 9.25159 5.81722C9.15302 5.85808 9.06347 5.91795 8.98806 5.99343L0.625 14.3564L1.77396 15.5054L9.5625 7.71683L13.0506 11.2048C13.126 11.2803 13.2155 11.3402 13.3141 11.381C13.4127 11.4219 13.5183 11.4429 13.625 11.4429C13.7317 11.4429 13.8373 11.4219 13.9359 11.381C14.0345 11.3402 14.124 11.2803 14.1994 11.2048L21.75 3.65433V9.00537H23.375V0.880371H15.25Z" fill="#64748B"/>
</svg>
