<svg width="676" height="270" viewBox="0 0 676 270" fill="none" xmlns="http://www.w3.org/2000/svg">
<path d="M134.82 267.64C208.175 267.64 267.64 208.174 267.64 134.82C267.64 61.4655 208.175 2 134.82 2C61.4656 2 2 61.4655 2 134.82C2 208.174 61.4656 267.64 134.82 267.64Z" fill="#1EB0C7"/>
<path d="M265.43 134.82C265.43 134.82 206.95 205.07 134.82 205.07C62.6901 205.07 4.20996 134.82 4.20996 134.82C4.20996 134.82 62.6901 64.5701 134.82 64.5701C206.95 64.5701 265.43 134.82 265.43 134.82Z" fill="#1A9DAA"/>
<path d="M134.82 173.2C156.017 173.2 173.2 156.017 173.2 134.82C173.2 113.623 156.017 96.4399 134.82 96.4399C113.623 96.4399 96.4399 113.623 96.4399 134.82C96.4399 156.017 113.623 173.2 134.82 173.2Z" fill="url(#paint0_linear_1663_28938)"/>
<path d="M264.07 96.44C263.32 93.9 262.49 91.39 261.6 88.92C242.78 37.11 193.05 0 134.82 0C76.5901 0 26.86 37.11 8.04004 88.92C7.15004 91.39 6.32007 93.9 5.57007 96.44C1.94007 108.61 0 121.49 0 134.82C0 148.15 1.95007 161.04 5.57007 173.21C6.32007 175.75 7.15004 178.25 8.04004 180.71C26.86 232.52 76.5901 269.63 134.82 269.63C193.05 269.63 242.78 232.52 261.6 180.71C262.49 178.25 263.32 175.75 264.07 173.21C267.69 161.04 269.64 148.15 269.64 134.82C269.64 121.49 267.7 108.61 264.07 96.44ZM265.6 131.97C261.43 127.25 247.87 112.58 228.36 98.09C206.94 82.17 173.81 63.27 136.81 62.6V38.61C187.8 39.36 231.58 68.41 258.16 91.22C262.7 104.01 265.29 117.71 265.6 131.97ZM66.96 134.82C66.96 97.41 97.4001 66.97 134.81 66.97C172.22 66.97 202.66 97.41 202.66 134.82C202.66 172.23 172.22 202.67 134.81 202.67C97.4001 202.67 66.96 172.23 66.96 134.82ZM62.6 134.82C62.6 161.47 77.1099 184.77 98.6399 197.28C50.4899 182.23 13.62 142.47 6.84998 134.82C13.62 127.16 50.4899 87.4 98.6399 72.36C77.1099 84.88 62.6 108.18 62.6 134.82ZM207.03 134.82C207.03 108.17 192.51 84.87 170.99 72.36C219.14 87.41 256.02 127.17 262.78 134.82C256.02 142.48 219.15 182.25 170.97 197.29C192.51 184.78 207.03 161.47 207.03 134.82ZM134.82 4C188.75 4 235.17 36.81 255.16 83.51C227.35 60.87 184.39 34.57 134.82 34.57C85.2501 34.57 42.29 60.87 14.48 83.51C34.47 36.81 80.8901 4 134.82 4ZM11.47 91.22C38.05 68.41 81.8301 39.35 132.82 38.61V62.6C95.8201 63.26 62.69 82.17 41.27 98.09C21.76 112.58 8.21003 127.25 4.03003 131.97C4.34003 117.72 6.92997 104.01 11.47 91.22ZM4.03003 137.67C8.20003 142.39 21.76 157.06 41.27 171.55C62.69 187.47 95.8201 206.37 132.82 207.04V231.04C81.8301 230.29 38.05 201.24 11.47 178.42C6.92997 165.63 4.34003 151.93 4.03003 137.68V137.67ZM134.82 265.63C80.8801 265.63 34.46 232.82 14.48 186.11C42.29 208.77 85.2501 235.07 134.82 235.07C184.39 235.07 227.35 208.77 255.16 186.11C235.18 232.82 188.76 265.63 134.82 265.63ZM258.17 178.41C231.59 201.23 187.81 230.29 136.82 231.03V207.03C173.82 206.37 206.95 187.46 228.37 171.54C247.88 157.05 261.44 142.38 265.61 137.66C265.3 151.92 262.71 165.61 258.17 178.4V178.41Z" fill="url(#paint1_linear_1663_28938)"/>
<path d="M321.13 142.15H308.51L306.49 148.12H297.87L310.1 114.32H319.63L331.86 148.12H323.15L321.13 142.15ZM319.01 135.79L314.82 123.42L310.68 135.79H319.01Z" fill="#291B89"/>
<path d="M341.16 147.25C339.2 146.45 337.64 145.26 336.47 143.69C335.3 142.12 334.68 140.22 334.62 138.01H343.38C343.51 139.26 343.94 140.22 344.68 140.88C345.42 141.54 346.38 141.87 347.57 141.87C348.76 141.87 349.75 141.59 350.46 141.03C351.17 140.47 351.52 139.69 351.52 138.7C351.52 137.87 351.24 137.18 350.68 136.63C350.12 136.09 349.43 135.64 348.61 135.28C347.79 134.93 346.63 134.53 345.12 134.08C342.94 133.41 341.16 132.73 339.78 132.06C338.4 131.39 337.21 130.39 336.22 129.07C335.22 127.75 334.73 126.04 334.73 123.92C334.73 120.78 335.87 118.31 338.15 116.53C340.43 114.75 343.4 113.86 347.06 113.86C350.72 113.86 353.78 114.75 356.06 116.53C358.34 118.31 359.56 120.79 359.72 123.97H350.81C350.75 122.88 350.35 122.02 349.61 121.39C348.87 120.76 347.92 120.45 346.77 120.45C345.77 120.45 344.97 120.71 344.36 121.24C343.75 121.77 343.44 122.53 343.44 123.53C343.44 124.62 343.95 125.47 344.98 126.08C346.01 126.69 347.61 127.35 349.79 128.05C351.97 128.79 353.75 129.5 355.11 130.17C356.47 130.84 357.65 131.82 358.65 133.11C359.64 134.39 360.14 136.05 360.14 138.07C360.14 140.09 359.65 141.75 358.67 143.32C357.69 144.89 356.27 146.14 354.41 147.07C352.55 148 350.35 148.47 347.81 148.47C345.27 148.47 343.12 148.07 341.17 147.27L341.16 147.25Z" fill="#291B89"/>
<path d="M389.6 130.57C388.7 132.19 387.32 133.5 385.46 134.49C383.6 135.49 381.29 135.98 378.53 135.98H373.43V148.11H365.2V114.31H378.54C381.24 114.31 383.52 114.78 385.38 115.71C387.24 116.64 388.64 117.92 389.57 119.56C390.5 121.2 390.97 123.07 390.97 125.19C390.97 127.15 390.52 128.94 389.62 130.56L389.6 130.57ZM381.41 128.33C382.18 127.59 382.57 126.55 382.57 125.2C382.57 123.85 382.18 122.81 381.41 122.07C380.64 121.33 379.47 120.96 377.9 120.96H373.42V129.43H377.9C379.47 129.43 380.64 129.06 381.41 128.32V128.33Z" fill="#291B89"/>
<path d="M403.46 114.32V148.12H395.23V114.32H403.46Z" fill="#291B89"/>
<path d="M426.67 148.12L419.64 135.36H417.67V148.12H409.44V114.32H423.26C425.92 114.32 428.2 114.79 430.07 115.72C431.95 116.65 433.35 117.93 434.28 119.55C435.21 121.17 435.68 122.98 435.68 124.97C435.68 127.22 435.05 129.22 433.78 130.99C432.51 132.76 430.64 134.01 428.17 134.75L435.97 148.13H426.68L426.67 148.12ZM417.67 129.53H422.77C424.28 129.53 425.41 129.16 426.16 128.42C426.91 127.68 427.29 126.64 427.29 125.29C427.29 123.94 426.91 123 426.16 122.26C425.41 121.52 424.27 121.15 422.77 121.15H417.67V129.53Z" fill="#291B89"/>
<path d="M449.06 114.32V148.12H440.83V114.32H449.06Z" fill="#291B89"/>
<path d="M485.27 148.12H477.04L463.27 127.27V148.12H455.04V114.32H463.27L477.04 135.26V114.32H485.27V148.12Z" fill="#291B89"/>
<path d="M513.67 125.01C513.06 123.89 512.18 123.03 511.05 122.43C509.91 121.84 508.57 121.54 507.03 121.54C504.36 121.54 502.23 122.41 500.63 124.16C499.02 125.91 498.22 128.24 498.22 131.16C498.22 134.27 499.06 136.71 500.75 138.45C502.44 140.2 504.75 141.07 507.71 141.07C509.73 141.07 511.44 140.56 512.84 139.53C514.24 138.5 515.26 137.03 515.9 135.1H505.45V129.03H523.36V136.69C522.75 138.74 521.71 140.65 520.25 142.42C518.79 144.19 516.94 145.61 514.69 146.71C512.44 147.8 509.91 148.35 507.08 148.35C503.74 148.35 500.76 147.62 498.15 146.16C495.53 144.7 493.49 142.67 492.03 140.07C490.57 137.47 489.84 134.5 489.84 131.16C489.84 127.82 490.57 124.85 492.03 122.23C493.49 119.61 495.52 117.58 498.12 116.12C500.72 114.66 503.69 113.93 507.03 113.93C511.07 113.93 514.49 114.91 517.26 116.87C520.04 118.83 521.87 121.54 522.77 125.01H513.67Z" fill="#291B89"/>
<path d="M306.78 178.33C305.88 178.33 305.08 178.49 304.37 178.82C303.66 179.15 303.07 179.61 302.58 180.23C302.09 180.84 301.72 181.58 301.46 182.45C301.2 183.32 301.07 184.3 301.07 185.39C301.07 186.85 301.28 188.1 301.69 189.15C302.1 190.2 302.73 191.01 303.57 191.57C304.41 192.13 305.47 192.41 306.76 192.41C307.56 192.41 308.33 192.33 309.09 192.18C309.85 192.03 310.62 191.82 311.43 191.55V194.17C310.67 194.47 309.9 194.69 309.12 194.83C308.34 194.97 307.44 195.04 306.42 195.04C304.5 195.04 302.91 194.64 301.65 193.84C300.39 193.04 299.44 191.92 298.82 190.47C298.2 189.02 297.89 187.33 297.89 185.38C297.89 183.96 298.09 182.66 298.48 181.47C298.87 180.29 299.45 179.27 300.2 178.4C300.95 177.53 301.89 176.88 302.99 176.41C304.1 175.94 305.37 175.71 306.8 175.71C307.74 175.71 308.67 175.82 309.58 176.02C310.49 176.23 311.34 176.53 312.12 176.91L311.04 179.45C310.39 179.14 309.71 178.88 309 178.65C308.29 178.43 307.55 178.32 306.79 178.32L306.78 178.33Z" fill="#291B89"/>
<path d="M331.36 194.76H320.72V175.97H331.36V178.57H323.8V183.67H330.88V186.25H323.8V192.15H331.36V194.76Z" fill="#291B89"/>
<path d="M345.96 175.97C347.58 175.97 348.92 176.17 349.98 176.56C351.04 176.95 351.83 177.55 352.34 178.36C352.86 179.17 353.12 180.19 353.12 181.43C353.12 182.35 352.95 183.14 352.61 183.79C352.27 184.44 351.82 184.98 351.26 185.41C350.7 185.84 350.11 186.18 349.47 186.44L354.8 194.76H351.32L346.78 187.23H343.76V194.76H340.68V175.97H345.96ZM345.75 178.54H343.76V184.68H345.89C347.32 184.68 348.36 184.41 349.01 183.88C349.66 183.35 349.98 182.57 349.98 181.53C349.98 180.44 349.64 179.67 348.95 179.22C348.26 178.77 347.2 178.54 345.76 178.54H345.75Z" fill="#291B89"/>
<path d="M369.26 194.76H366.16V178.59H360.66V175.97H374.75V178.59H369.26V194.76Z" fill="#291B89"/>
<path d="M382.88 194.76V175.97H385.96V194.76H382.88Z" fill="#291B89"/>
<path d="M399.24 194.76H396.18V175.97H406.8V178.57H399.24V184.43H406.31V187.01H399.24V194.76Z" fill="#291B89"/>
<path d="M415.47 194.76V175.97H418.55V194.76H415.47Z" fill="#291B89"/>
<path d="M439.4 194.76H428.76V175.97H439.4V178.57H431.84V183.67H438.92V186.25H431.84V192.15H439.4V194.76Z" fill="#291B89"/>
<path d="M463.97 185.19C463.97 187.31 463.58 189.07 462.79 190.49C462 191.91 460.86 192.98 459.36 193.69C457.86 194.41 456.05 194.76 453.94 194.76H448.72V175.97H454.5C456.44 175.97 458.12 176.32 459.54 177.02C460.95 177.72 462.05 178.75 462.82 180.12C463.59 181.49 463.98 183.18 463.98 185.19H463.97ZM460.76 185.28C460.76 183.74 460.52 182.47 460.03 181.48C459.55 180.49 458.83 179.75 457.9 179.26C456.96 178.78 455.81 178.53 454.44 178.53H451.81V192.18H453.99C456.26 192.18 457.96 191.6 459.08 190.44C460.2 189.28 460.76 187.56 460.76 185.27V185.28Z" fill="#291B89"/>
<path d="M493.38 178.33C492.48 178.33 491.68 178.49 490.97 178.82C490.26 179.15 489.67 179.61 489.18 180.23C488.69 180.84 488.32 181.58 488.06 182.45C487.8 183.32 487.67 184.3 487.67 185.39C487.67 186.85 487.88 188.1 488.29 189.15C488.7 190.2 489.33 191.01 490.17 191.57C491.01 192.13 492.07 192.41 493.36 192.41C494.16 192.41 494.93 192.33 495.69 192.18C496.45 192.03 497.22 191.82 498.03 191.55V194.17C497.27 194.47 496.5 194.69 495.72 194.83C494.94 194.97 494.04 195.04 493.02 195.04C491.1 195.04 489.51 194.64 488.25 193.84C486.99 193.04 486.04 191.92 485.42 190.47C484.8 189.02 484.49 187.33 484.49 185.38C484.49 183.96 484.69 182.66 485.08 181.47C485.47 180.29 486.05 179.27 486.8 178.4C487.55 177.53 488.49 176.88 489.59 176.41C490.7 175.94 491.97 175.71 493.4 175.71C494.34 175.71 495.27 175.82 496.18 176.02C497.09 176.23 497.94 176.53 498.72 176.91L497.64 179.45C496.99 179.14 496.31 178.88 495.6 178.65C494.89 178.43 494.15 178.32 493.39 178.32L493.38 178.33Z" fill="#291B89"/>
<path d="M524 185.34C524 186.79 523.82 188.11 523.45 189.29C523.09 190.48 522.54 191.5 521.81 192.35C521.08 193.2 520.17 193.86 519.07 194.32C517.97 194.78 516.69 195.01 515.21 195.01C513.73 195.01 512.41 194.78 511.31 194.32C510.21 193.86 509.3 193.2 508.57 192.34C507.85 191.48 507.3 190.46 506.94 189.27C506.58 188.08 506.4 186.76 506.4 185.31C506.4 183.37 506.72 181.68 507.36 180.24C508 178.8 508.97 177.67 510.28 176.87C511.59 176.07 513.24 175.67 515.24 175.67C517.24 175.67 518.82 176.07 520.11 176.87C521.4 177.67 522.37 178.79 523.02 180.23C523.67 181.67 523.99 183.38 523.99 185.34H524ZM509.66 185.34C509.66 186.79 509.86 188.04 510.25 189.1C510.64 190.16 511.25 190.97 512.07 191.54C512.89 192.11 513.94 192.39 515.23 192.39C516.52 192.39 517.58 192.11 518.39 191.54C519.2 190.97 519.8 190.16 520.19 189.1C520.58 188.04 520.77 186.79 520.77 185.34C520.77 183.14 520.33 181.41 519.45 180.17C518.57 178.92 517.17 178.3 515.25 178.3C513.96 178.3 512.91 178.58 512.08 179.15C511.25 179.72 510.64 180.52 510.25 181.57C509.86 182.62 509.66 183.88 509.66 185.34Z" fill="#291B89"/>
<path d="M548.98 194.76H545.19L535.99 179.76H535.87C535.9 180.27 535.94 180.8 535.97 181.37C536 181.94 536.03 182.52 536.05 183.12C536.07 183.72 536.09 184.33 536.11 184.94V194.76H533.31V175.97H537.08L546.27 190.87H546.36C546.34 190.43 546.32 189.93 546.3 189.37C546.28 188.81 546.25 188.22 546.23 187.62C546.21 187.02 546.19 186.43 546.19 185.87V175.99H549V194.78L548.98 194.76Z" fill="#291B89"/>
<path d="M570.03 189.65C570.03 190.76 569.76 191.72 569.21 192.53C568.66 193.34 567.89 193.95 566.87 194.38C565.85 194.81 564.64 195.02 563.24 195.02C562.55 195.02 561.9 194.98 561.27 194.9C560.65 194.82 560.06 194.71 559.5 194.56C558.95 194.41 558.44 194.23 557.99 194.01V191.1C558.75 191.43 559.61 191.74 560.55 192.01C561.49 192.28 562.45 192.42 563.43 192.42C564.23 192.42 564.89 192.31 565.42 192.1C565.95 191.89 566.34 191.59 566.6 191.2C566.86 190.81 566.98 190.35 566.98 189.83C566.98 189.27 566.83 188.8 566.53 188.42C566.23 188.04 565.78 187.68 565.17 187.36C564.57 187.04 563.81 186.69 562.9 186.33C562.28 186.08 561.69 185.8 561.13 185.48C560.57 185.16 560.07 184.79 559.63 184.36C559.19 183.93 558.85 183.42 558.59 182.84C558.34 182.25 558.21 181.56 558.21 180.76C558.21 179.7 558.46 178.79 558.97 178.04C559.48 177.29 560.2 176.71 561.13 176.31C562.06 175.91 563.15 175.71 564.39 175.71C565.38 175.71 566.3 175.81 567.17 176.02C568.04 176.23 568.89 176.52 569.73 176.89L568.75 179.37C567.98 179.05 567.23 178.8 566.51 178.61C565.79 178.42 565.05 178.33 564.29 178.33C563.64 178.33 563.09 178.43 562.63 178.62C562.17 178.82 561.83 179.09 561.59 179.45C561.35 179.81 561.24 180.23 561.24 180.72C561.24 181.27 561.37 181.73 561.65 182.1C561.92 182.47 562.34 182.81 562.91 183.12C563.48 183.43 564.21 183.77 565.12 184.15C566.16 184.58 567.04 185.03 567.76 185.5C568.48 185.97 569.04 186.54 569.42 187.19C569.8 187.84 570 188.67 570 189.65H570.03Z" fill="#291B89"/>
<path d="M586.92 178.33C586.02 178.33 585.22 178.49 584.51 178.82C583.8 179.15 583.21 179.61 582.72 180.23C582.23 180.84 581.86 181.58 581.6 182.45C581.34 183.32 581.21 184.3 581.21 185.39C581.21 186.85 581.42 188.1 581.83 189.15C582.24 190.2 582.87 191.01 583.71 191.57C584.55 192.13 585.61 192.41 586.9 192.41C587.7 192.41 588.47 192.33 589.23 192.18C589.99 192.03 590.76 191.82 591.57 191.55V194.17C590.81 194.47 590.04 194.69 589.26 194.83C588.48 194.97 587.58 195.04 586.56 195.04C584.64 195.04 583.05 194.64 581.79 193.84C580.53 193.04 579.58 191.92 578.96 190.47C578.34 189.02 578.03 187.33 578.03 185.38C578.03 183.96 578.23 182.66 578.62 181.47C579.01 180.29 579.59 179.27 580.34 178.4C581.09 177.53 582.03 176.88 583.13 176.41C584.24 175.94 585.51 175.71 586.94 175.71C587.88 175.71 588.81 175.82 589.72 176.02C590.63 176.23 591.48 176.53 592.26 176.91L591.18 179.45C590.53 179.14 589.85 178.88 589.14 178.65C588.43 178.43 587.69 178.32 586.93 178.32L586.92 178.33Z" fill="#291B89"/>
<path d="M600.86 194.76V175.97H603.94V194.76H600.86Z" fill="#291B89"/>
<path d="M630.84 185.34C630.84 186.79 630.66 188.11 630.29 189.29C629.93 190.48 629.38 191.5 628.65 192.35C627.92 193.2 627.01 193.86 625.91 194.32C624.81 194.78 623.53 195.01 622.05 195.01C620.57 195.01 619.25 194.78 618.15 194.32C617.05 193.86 616.14 193.2 615.41 192.34C614.69 191.48 614.14 190.46 613.78 189.27C613.42 188.08 613.24 186.76 613.24 185.31C613.24 183.37 613.56 181.68 614.2 180.24C614.84 178.8 615.81 177.67 617.12 176.87C618.43 176.07 620.08 175.67 622.08 175.67C624.08 175.67 625.66 176.07 626.95 176.87C628.24 177.67 629.21 178.79 629.86 180.23C630.51 181.67 630.83 183.38 630.83 185.34H630.84ZM616.5 185.34C616.5 186.79 616.7 188.04 617.09 189.1C617.48 190.16 618.09 190.97 618.91 191.54C619.73 192.11 620.78 192.39 622.07 192.39C623.36 192.39 624.42 192.11 625.23 191.54C626.04 190.97 626.64 190.16 627.03 189.1C627.42 188.04 627.61 186.79 627.61 185.34C627.61 183.14 627.17 181.41 626.29 180.17C625.41 178.92 624.01 178.3 622.09 178.3C620.8 178.3 619.75 178.58 618.92 179.15C618.09 179.72 617.48 180.52 617.09 181.57C616.7 182.62 616.5 183.88 616.5 185.34Z" fill="#291B89"/>
<path d="M654.89 175.97V188.13C654.89 189.44 654.61 190.62 654.06 191.65C653.51 192.69 652.67 193.51 651.56 194.11C650.45 194.71 649.05 195.02 647.36 195.02C644.95 195.02 643.12 194.39 641.87 193.12C640.62 191.85 639.99 190.17 639.99 188.08V175.97H643.07V187.81C643.07 189.38 643.44 190.53 644.17 191.28C644.91 192.03 646.01 192.4 647.47 192.4C648.48 192.4 649.3 192.22 649.94 191.87C650.58 191.52 651.05 190.99 651.35 190.3C651.65 189.61 651.81 188.78 651.81 187.8V175.98H654.88L654.89 175.97Z" fill="#291B89"/>
<path d="M675.8 189.65C675.8 190.76 675.53 191.72 674.98 192.53C674.43 193.34 673.66 193.95 672.64 194.38C671.62 194.81 670.41 195.02 669.01 195.02C668.32 195.02 667.67 194.98 667.04 194.9C666.41 194.82 665.83 194.71 665.27 194.56C664.72 194.41 664.21 194.23 663.76 194.01V191.1C664.52 191.43 665.37 191.74 666.32 192.01C667.26 192.28 668.22 192.42 669.2 192.42C670 192.42 670.66 192.31 671.19 192.1C671.72 191.89 672.11 191.59 672.37 191.2C672.63 190.81 672.76 190.35 672.76 189.83C672.76 189.27 672.61 188.8 672.31 188.42C672.01 188.04 671.56 187.68 670.95 187.36C670.35 187.04 669.59 186.69 668.68 186.33C668.06 186.08 667.47 185.8 666.91 185.48C666.35 185.16 665.85 184.79 665.41 184.36C664.97 183.93 664.63 183.42 664.38 182.84C664.13 182.26 664 181.56 664 180.76C664 179.7 664.25 178.79 664.76 178.04C665.27 177.29 665.99 176.71 666.92 176.31C667.85 175.91 668.94 175.71 670.18 175.71C671.17 175.71 672.09 175.81 672.96 176.02C673.83 176.23 674.68 176.52 675.52 176.89L674.54 179.37C673.77 179.05 673.02 178.8 672.3 178.61C671.58 178.42 670.84 178.33 670.08 178.33C669.43 178.33 668.88 178.43 668.42 178.62C667.97 178.82 667.62 179.09 667.39 179.45C667.15 179.81 667.04 180.23 667.04 180.72C667.04 181.27 667.17 181.73 667.44 182.1C667.71 182.47 668.13 182.81 668.7 183.12C669.27 183.43 670 183.77 670.9 184.15C671.94 184.58 672.82 185.03 673.54 185.5C674.26 185.97 674.82 186.54 675.21 187.19C675.6 187.84 675.79 188.67 675.79 189.65H675.8Z" fill="#291B89"/>
<path d="M298.77 226.35V207.56H301.85V226.35H298.77Z" fill="#291B89"/>
<path d="M327.75 226.35H323.96L314.76 211.35H314.64C314.67 211.86 314.71 212.39 314.74 212.96C314.77 213.53 314.8 214.11 314.82 214.71C314.84 215.31 314.86 215.92 314.88 216.53V226.35H312.08V207.56H315.85L325.04 222.46H325.13C325.11 222.02 325.09 221.52 325.07 220.96C325.05 220.4 325.02 219.81 325 219.21C324.98 218.61 324.96 218.02 324.96 217.46V207.58H327.77V226.37L327.75 226.35Z" fill="#291B89"/>
<path d="M353.2 216.77C353.2 218.89 352.81 220.65 352.02 222.07C351.23 223.49 350.09 224.56 348.59 225.27C347.09 225.99 345.28 226.34 343.17 226.34H337.95V207.55H343.73C345.67 207.55 347.35 207.9 348.77 208.6C350.18 209.3 351.28 210.33 352.05 211.7C352.82 213.07 353.21 214.76 353.21 216.77H353.2ZM349.99 216.86C349.99 215.32 349.75 214.05 349.26 213.06C348.78 212.07 348.06 211.33 347.13 210.84C346.19 210.36 345.04 210.11 343.67 210.11H341.04V223.76H343.22C345.49 223.76 347.19 223.18 348.31 222.02C349.43 220.86 349.99 219.14 349.99 216.85V216.86Z" fill="#291B89"/>
<path d="M362.5 226.35V207.56H365.58V226.35H362.5Z" fill="#291B89"/>
<path d="M389.73 207.56L383.16 226.35H379.9L373.33 207.56H376.49L380.45 219.33C380.57 219.67 380.7 220.09 380.84 220.58C380.98 221.07 381.11 221.56 381.24 222.06C381.36 222.56 381.46 223 381.53 223.38C381.6 222.99 381.69 222.55 381.82 222.06C381.94 221.56 382.07 221.07 382.21 220.58C382.35 220.09 382.48 219.67 382.6 219.32L386.57 207.56H389.73Z" fill="#291B89"/>
<path d="M397.47 226.35V207.56H400.55V226.35H397.47Z" fill="#291B89"/>
<path d="M426.02 216.77C426.02 218.89 425.63 220.65 424.84 222.07C424.05 223.49 422.91 224.56 421.41 225.27C419.91 225.99 418.1 226.34 415.99 226.34H410.77V207.55H416.55C418.5 207.55 420.17 207.9 421.59 208.6C423 209.3 424.1 210.33 424.87 211.7C425.64 213.07 426.03 214.76 426.03 216.77H426.02ZM422.8 216.86C422.8 215.32 422.56 214.05 422.07 213.06C421.59 212.07 420.87 211.33 419.94 210.84C419 210.36 417.85 210.11 416.48 210.11H413.85V223.76H416.03C418.3 223.76 420 223.18 421.12 222.02C422.24 220.86 422.8 219.14 422.8 216.85V216.86Z" fill="#291B89"/>
<path d="M450.07 207.56V219.72C450.07 221.03 449.79 222.21 449.24 223.24C448.69 224.28 447.85 225.1 446.74 225.7C445.63 226.3 444.23 226.61 442.54 226.61C440.13 226.61 438.3 225.98 437.05 224.71C435.79 223.45 435.17 221.76 435.17 219.67V207.56H438.25V219.4C438.25 220.97 438.62 222.12 439.36 222.87C440.1 223.62 441.2 223.99 442.66 223.99C443.67 223.99 444.5 223.81 445.13 223.46C445.77 223.1 446.24 222.58 446.54 221.89C446.84 221.2 447 220.37 447 219.39V207.57H450.07V207.56Z" fill="#291B89"/>
<path d="M471.77 226.35L469.93 221.13H462.75L460.91 226.35H457.66L464.65 207.48H468.07L475.05 226.35H471.77ZM469.14 218.48L467.35 213.34C467.28 213.12 467.18 212.8 467.06 212.39C466.93 211.98 466.8 211.57 466.67 211.14C466.54 210.72 466.43 210.36 466.35 210.07C466.26 210.42 466.16 210.81 466.03 211.25C465.9 211.69 465.79 212.09 465.67 212.46C465.55 212.84 465.47 213.13 465.41 213.33L463.61 218.47H469.14V218.48Z" fill="#291B89"/>
<path d="M482.79 226.35V207.56H485.87V223.73H493.85V226.35H482.78H482.79Z" fill="#291B89"/>
<path d="M328.45 73.12C331.93 73.12 334.75 70.3 334.75 66.82C334.75 63.34 331.93 60.52 328.45 60.52C324.97 60.52 322.15 63.34 322.15 66.82C322.15 70.3 324.97 73.12 328.45 73.12Z" fill="url(#paint2_linear_1663_28938)"/>
<path d="M347.8 77.9801H346.02C345.85 77.9801 345.71 77.8401 345.71 77.6701V56.0201C345.71 55.8501 345.85 55.7101 346.02 55.7101H347.8C347.97 55.7101 348.11 55.8501 348.11 56.0201V58.2701C348.11 58.5501 348.46 58.6901 348.65 58.4801C349.48 57.6001 350.47 56.8901 351.6 56.3501C352.99 55.6901 354.47 55.3501 356.04 55.3501C357.9 55.3501 359.58 55.7601 361.06 56.5901C362.55 57.4201 363.7 58.5601 364.54 60.0301C365.38 61.4901 365.79 63.1501 365.79 65.0001V77.6701C365.79 77.8401 365.65 77.9801 365.48 77.9801H363.72C363.55 77.9801 363.41 77.8401 363.41 77.6701V65.5301C363.41 63.9901 363.1 62.6201 362.49 61.4201C361.87 60.2301 361.01 59.3001 359.89 58.6501C358.77 58.0001 357.49 57.6701 356.04 57.6701C354.5 57.6701 353.14 58.0601 351.94 58.8301C350.74 59.6001 349.8 60.6701 349.12 62.0401C348.44 63.4101 348.11 64.9701 348.11 66.7201V77.6701C348.11 77.8401 347.97 77.9801 347.8 77.9801Z" fill="#291B89"/>
<path d="M375.42 74.9901L375.4 74.9701C373.19 72.6401 372.09 69.9101 372.09 66.8001C372.09 65.2401 372.37 63.7801 372.93 62.4101C373.49 61.0401 374.31 59.8001 375.41 58.6801C376.52 57.5901 377.75 56.7601 379.13 56.2001C380.51 55.6301 381.97 55.3501 383.53 55.3501C385.48 55.3501 387.28 55.8101 388.93 56.7401C390.59 57.6601 391.94 58.9401 392.98 60.5501C394.02 62.1601 394.62 63.9601 394.77 65.9301C394.8 66.2501 394.81 66.7701 394.81 67.5001C394.81 67.6701 394.67 67.8201 394.5 67.8201H374.94C374.75 67.8201 374.6 67.9901 374.63 68.1701C374.82 69.5601 375.29 70.8301 376.06 71.9701C376.89 73.2001 377.96 74.1801 379.27 74.8801C380.58 75.5801 382.01 75.9401 383.53 75.9401C385.26 75.9401 386.84 75.4901 388.31 74.5901C389.71 73.7301 390.78 72.5801 391.51 71.1401C391.56 71.0301 391.67 70.9701 391.79 70.9701H393.78C394 70.9701 394.16 71.2001 394.07 71.4001C393.5 72.7001 392.74 73.8401 391.76 74.8401C390.68 75.9501 389.43 76.8001 388.01 77.4001C386.58 78.0001 385.1 78.3001 383.54 78.3001C380.46 78.3001 377.76 77.2001 375.44 75.0001V75.0101L375.42 74.9901ZM391.88 65.4601C392.07 65.4601 392.22 65.2901 392.19 65.1001C391.95 63.7701 391.46 62.5601 390.7 61.4801C389.88 60.3001 388.84 59.3801 387.58 58.7101C386.32 58.0401 384.96 57.7001 383.5 57.7001C382.04 57.7001 380.62 58.0401 379.33 58.7101C378.04 59.3801 376.97 60.3001 376.14 61.4801C375.38 62.5601 374.87 63.7701 374.64 65.1001C374.61 65.2901 374.76 65.4601 374.95 65.4601H391.88Z" fill="#291B89"/>
<path d="M405.78 77.74C404.6 77.32 403.62 76.73 402.84 75.97C402.06 75.21 401.54 74.33 401.27 73.34C401.14 72.88 401.08 72.39 401.08 71.87C401.08 71.77 401.08 71.64 401.1 71.48C401.11 71.32 401.25 71.19 401.41 71.19H402.91C403.09 71.19 403.23 71.35 403.22 71.53C403.22 71.59 403.22 71.63 403.22 71.67C403.22 72.54 403.53 73.32 404.14 73.99C404.75 74.67 405.56 75.19 406.55 75.55C407.55 75.91 408.59 76.1 409.7 76.1C410.89 76.1 411.96 75.92 412.92 75.57C413.88 75.22 414.63 74.73 415.18 74.12C415.72 73.51 416 72.81 416.02 72.04C415.99 70.99 415.51 70.14 414.57 69.48C413.63 68.83 412.08 68.27 409.93 67.81C408.67 67.56 407.66 67.34 406.87 67.13C406.09 66.92 405.34 66.67 404.62 66.39C403.43 65.88 402.55 65.24 401.97 64.45C401.13 63.33 400.9 61.88 401.27 60.11C401.27 60.09 401.28 60.07 401.29 60.05C401.96 58.25 403.29 56.93 405.29 56.09C406.6 55.54 408.07 55.26 409.7 55.26C411.33 55.26 412.86 55.54 414.18 56.1C415.5 56.66 416.53 57.43 417.27 58.43C418.01 59.43 418.38 60.54 418.38 61.79C418.38 61.88 418.38 62 418.36 62.16C418.35 62.32 418.21 62.45 418.05 62.45H416.2C416.22 62.36 416.22 62.21 416.22 62.01C416.22 61.21 415.94 60.47 415.36 59.78C414.79 59.1 414 58.55 413.01 58.15C412.01 57.75 410.91 57.55 409.7 57.55C408.49 57.55 407.44 57.73 406.48 58.08C405.52 58.43 404.77 58.92 404.22 59.54C403.67 60.16 403.4 60.86 403.4 61.63C403.4 62.02 403.48 62.38 403.66 62.72C403.83 63.06 404.08 63.34 404.4 63.56C404.69 63.77 405.2 64.01 405.93 64.29C406.55 64.54 407.1 64.73 407.59 64.86C408.07 64.99 408.92 65.2 410.14 65.47C412.1 65.88 413.67 66.38 414.86 66.95C416.05 67.52 416.92 68.22 417.48 69.04C418.25 70.17 418.49 71.62 418.2 73.4C418.2 73.42 418.19 73.44 418.18 73.46C417.53 75.34 416.18 76.7 414.13 77.55C412.82 78.1 411.34 78.37 409.7 78.37C408.27 78.37 406.96 78.16 405.77 77.74H405.78Z" fill="#291B89"/>
<path d="M429.36 77.74C428.18 77.32 427.2 76.73 426.42 75.97C425.64 75.21 425.12 74.33 424.85 73.34C424.72 72.88 424.66 72.39 424.66 71.87C424.66 71.77 424.66 71.64 424.68 71.48C424.69 71.32 424.83 71.19 424.99 71.19H426.49C426.67 71.19 426.81 71.35 426.8 71.53C426.8 71.59 426.8 71.63 426.8 71.67C426.8 72.54 427.11 73.32 427.72 73.99C428.33 74.67 429.14 75.19 430.13 75.55C431.13 75.91 432.17 76.1 433.28 76.1C434.47 76.1 435.54 75.92 436.5 75.57C437.46 75.22 438.21 74.73 438.76 74.12C439.3 73.51 439.58 72.81 439.6 72.04C439.57 70.99 439.09 70.14 438.15 69.48C437.21 68.83 435.67 68.27 433.51 67.81C432.25 67.56 431.24 67.34 430.46 67.13C429.68 66.92 428.93 66.67 428.21 66.39C427.02 65.88 426.14 65.24 425.56 64.45C424.72 63.33 424.49 61.88 424.86 60.11C424.86 60.09 424.87 60.07 424.88 60.05C425.54 58.25 426.88 56.93 428.88 56.09C430.19 55.54 431.66 55.26 433.29 55.26C434.92 55.26 436.46 55.54 437.77 56.1C439.09 56.66 440.12 57.43 440.86 58.43C441.6 59.43 441.97 60.54 441.97 61.79C441.97 61.88 441.97 62 441.95 62.16C441.94 62.32 441.8 62.45 441.64 62.45H439.79C439.81 62.36 439.81 62.21 439.81 62.01C439.81 61.21 439.52 60.47 438.95 59.78C438.38 59.1 437.59 58.55 436.6 58.15C435.6 57.75 434.5 57.55 433.29 57.55C432.08 57.55 431.03 57.73 430.07 58.08C429.11 58.43 428.36 58.92 427.81 59.54C427.26 60.16 426.99 60.86 426.99 61.63C426.99 62.02 427.07 62.38 427.25 62.72C427.42 63.06 427.67 63.34 427.99 63.56C428.28 63.77 428.79 64.01 429.52 64.29C430.14 64.54 430.69 64.73 431.18 64.86C431.66 64.99 432.51 65.2 433.73 65.47C435.69 65.88 437.26 66.38 438.45 66.95C439.64 67.52 440.51 68.22 441.07 69.04C441.84 70.17 442.08 71.62 441.79 73.4C441.79 73.42 441.78 73.44 441.77 73.46C441.12 75.34 439.77 76.7 437.72 77.55C436.41 78.1 434.93 78.37 433.29 78.37C431.86 78.37 430.55 78.16 429.36 77.74Z" fill="#291B89"/>
<path d="M320.38 74.9901L320.36 74.9701C318.15 72.6401 317.05 69.9101 317.05 66.8001C317.05 65.2401 317.33 63.7801 317.89 62.4101C318.45 61.0401 319.27 59.8001 320.37 58.6801C321.48 57.5901 322.71 56.7601 324.09 56.2001C325.47 55.6301 326.93 55.3501 328.49 55.3501C330.15 55.3501 331.71 55.6801 333.19 56.3301C334.67 56.9801 335.95 57.9101 337.03 59.1201C338.02 60.2101 338.77 61.4601 339.28 62.8701C339.36 63.0701 339.2 63.2801 338.98 63.2801H337.02C336.89 63.2801 336.78 63.2001 336.74 63.0901C336.29 62.0501 335.67 61.1301 334.87 60.3401C334.03 59.5001 333.06 58.8501 331.96 58.3901C330.86 57.9301 329.71 57.7101 328.49 57.7101C326.82 57.7101 325.3 58.1101 323.92 58.9101C322.54 59.7101 321.46 60.8101 320.67 62.1901C319.88 63.5801 319.48 65.1101 319.48 66.8001C319.48 68.4901 319.88 70.0201 320.67 71.4201C321.46 72.8101 322.55 73.9101 323.93 74.7301C325.31 75.5401 326.83 75.9401 328.49 75.9401C329.71 75.9401 330.86 75.7101 331.96 75.2601C333.06 74.8001 334.03 74.1501 334.87 73.3101C335.66 72.5201 336.29 71.6101 336.74 70.5801C336.79 70.4701 336.9 70.3901 337.02 70.3901H338.98C339.2 70.3901 339.35 70.6001 339.27 70.8001C338.76 72.1901 338.01 73.4301 337.02 74.5301C335.94 75.7301 334.66 76.6601 333.18 77.3201C331.7 77.9701 330.14 78.3001 328.48 78.3001C325.4 78.3001 322.7 77.2001 320.38 75.0001V74.9901Z" fill="#291B89"/>
<path d="M335.69 79.9701L334.12 80.7601C333.97 80.8401 333.9 81.0301 333.98 81.1801L340.84 94.8301C340.92 94.9801 341.11 95.0501 341.26 94.9701L342.83 94.1801C342.98 94.1001 343.05 93.9101 342.97 93.7601L336.11 80.1101C336.03 79.9501 335.84 79.8901 335.69 79.9701Z" fill="#291B89"/>
<path d="M325.18 82.07L323.48 97.25C323.46 97.42 323.58 97.58 323.75 97.6L325.49 97.79C325.66 97.81 325.82 97.69 325.84 97.52L327.54 82.34C327.56 82.17 327.44 82.01 327.27 81.99L325.53 81.8C325.36 81.78 325.2 81.9 325.18 82.07Z" fill="#291B89"/>
<path d="M317.31 78.0001L307.6 89.8001C307.49 89.9301 307.51 90.1301 307.64 90.2401L309 91.3601C309.13 91.4701 309.33 91.4501 309.44 91.3201L319.15 79.5201C319.26 79.3901 319.24 79.1901 319.11 79.0801L317.75 77.9601C317.62 77.8501 317.42 77.8701 317.31 78.0001Z" fill="#291B89"/>
<path d="M312.93 70.3L298.36 74.89C298.2 74.94 298.11 75.12 298.15 75.28L298.68 76.96C298.73 77.12 298.91 77.21 299.07 77.17L313.64 72.58C313.8 72.53 313.89 72.35 313.85 72.19L313.32 70.51C313.27 70.35 313.09 70.26 312.93 70.3Z" fill="#291B89"/>
<path d="M298.36 57.5901L297.89 59.2801C297.84 59.4501 297.94 59.6201 298.11 59.6601L312.83 63.7601C313 63.8101 313.17 63.7101 313.21 63.5401L313.68 61.8501C313.73 61.6801 313.63 61.5101 313.46 61.4701L298.74 57.3701C298.57 57.3201 298.4 57.4201 298.36 57.5901Z" fill="#291B89"/>
<path d="M308.19 42.86L306.87 44.02C306.74 44.13 306.73 44.33 306.84 44.46L316.94 55.93C317.05 56.06 317.25 56.07 317.38 55.96L318.7 54.8C318.83 54.69 318.84 54.49 318.73 54.36L308.63 42.89C308.52 42.76 308.32 42.75 308.19 42.86Z" fill="#291B89"/>
<path d="M324.46 35.8601L322.72 36.1101C322.55 36.1401 322.43 36.2901 322.46 36.4601L324.67 51.5801C324.7 51.7501 324.85 51.8701 325.02 51.8401L326.76 51.5901C326.93 51.5601 327.05 51.4101 327.02 51.2401L324.81 36.1201C324.78 35.9501 324.63 35.8301 324.46 35.8601Z" fill="#291B89"/>
<path d="M339.89 38.3101L333.49 52.1901C333.42 52.3501 333.49 52.5301 333.64 52.6001L335.24 53.3401C335.4 53.4101 335.58 53.3401 335.65 53.1901L342.05 39.3101C342.12 39.1501 342.05 38.9701 341.9 38.9001L340.3 38.1601C340.14 38.0901 339.96 38.1601 339.89 38.3101Z" fill="#291B89"/>
<defs>
<linearGradient id="paint0_linear_1663_28938" x1="96.4399" y1="134.82" x2="173.19" y2="134.82" gradientUnits="userSpaceOnUse">
<stop stop-color="#F9BA1D"/>
<stop offset="0.03" stop-color="#F8BE26"/>
<stop offset="0.09" stop-color="#F8C841"/>
<stop offset="0.16" stop-color="#F7DA6C"/>
<stop offset="0.24" stop-color="#F7F1A3"/>
<stop offset="0.29" stop-color="#F7EC96"/>
<stop offset="0.39" stop-color="#F7E074"/>
<stop offset="0.53" stop-color="#F9CD3E"/>
<stop offset="0.61" stop-color="#F8D34F"/>
<stop offset="1" stop-color="#F7F1A3"/>
</linearGradient>
<linearGradient id="paint1_linear_1663_28938" x1="0" y1="134.81" x2="269.64" y2="134.81" gradientUnits="userSpaceOnUse">
<stop stop-color="#F9BA1D"/>
<stop offset="0.03" stop-color="#F8BE26"/>
<stop offset="0.09" stop-color="#F8C841"/>
<stop offset="0.16" stop-color="#F7DA6C"/>
<stop offset="0.24" stop-color="#F7F1A3"/>
<stop offset="0.29" stop-color="#F7EC96"/>
<stop offset="0.39" stop-color="#F7E074"/>
<stop offset="0.53" stop-color="#F9CD3E"/>
<stop offset="0.57" stop-color="#F8D34F"/>
<stop offset="0.8" stop-color="#F7F1A3"/>
<stop offset="0.83" stop-color="#F2E899"/>
<stop offset="0.87" stop-color="#E4D181"/>
<stop offset="0.93" stop-color="#CEAC58"/>
<stop offset="0.99" stop-color="#B07A21"/>
<stop offset="1" stop-color="#AC731A"/>
</linearGradient>
<linearGradient id="paint2_linear_1663_28938" x1="319.36" y1="-2291.8" x2="333.42" y2="71.05" gradientUnits="userSpaceOnUse">
<stop offset="0.42" stop-color="#F8B814"/>
<stop offset="1" stop-color="#F28705"/>
</linearGradient>
</defs>
</svg>
