<svg width="20" height="20" viewBox="0 0 20 20" fill="none" xmlns="http://www.w3.org/2000/svg">
<path d="M4.33656 9.51026L2.82989 8.00359C2.69545 7.86915 2.63101 7.7122 2.63656 7.53276C2.64156 7.35276 2.71128 7.19554 2.84573 7.06109L4.33656 5.57026C4.47101 5.43582 4.62795 5.36859 4.80739 5.36859C4.98684 5.36859 5.14378 5.43582 5.27823 5.57026L6.76906 7.06109C6.90406 7.19554 6.97156 7.35248 6.97156 7.53193C6.97156 7.71137 6.90406 7.86859 6.76906 8.00359L5.27823 9.49359C5.14378 9.62859 4.98684 9.69859 4.80739 9.70359C4.62795 9.70859 4.47101 9.64415 4.33656 9.51026ZM8.84656 17.5003C8.65545 17.5003 8.49545 17.4358 8.36656 17.3069C8.23767 17.1775 8.17323 17.0175 8.17323 16.8269V13.6703C7.43823 13.613 6.71045 13.5344 5.98989 13.4344C5.26934 13.335 4.54878 13.2066 3.82823 13.0494C3.69934 13.0155 3.59101 12.9505 3.50323 12.8544C3.41545 12.7583 3.39101 12.6483 3.42989 12.5244C3.46712 12.4005 3.54267 12.3097 3.65656 12.2519C3.76989 12.1941 3.89128 12.1822 4.02073 12.2161C5.00239 12.4416 5.99295 12.6014 6.99239 12.6953C7.99184 12.7897 8.99434 12.8369 9.99989 12.8369C11.0055 12.8369 12.0082 12.7897 13.0082 12.6953C14.0071 12.6014 14.9974 12.4416 15.9791 12.2161C16.1085 12.1822 16.2302 12.1936 16.3441 12.2503C16.4585 12.3069 16.5341 12.3958 16.5707 12.5169C16.608 12.6458 16.5829 12.7583 16.4957 12.8544C16.4085 12.9505 16.3002 13.0155 16.1707 13.0494C15.4507 13.2066 14.7305 13.335 14.0099 13.4344C13.2893 13.5339 12.5616 13.6125 11.8266 13.6703V16.8269C11.8266 17.0175 11.7621 17.1775 11.6332 17.3069C11.5043 17.4364 11.3443 17.5008 11.1532 17.5003H8.84656ZM4.80739 8.81693L6.07656 7.53359L4.80823 6.26359L3.52239 7.53276L4.80739 8.81693ZM9.99989 6.15526C9.46601 6.15526 9.01212 5.96832 8.63823 5.59443C8.26378 5.22054 8.07656 4.76637 8.07656 4.23193C8.07656 3.69748 8.26378 3.24332 8.63823 2.86943C9.01267 2.49554 9.46656 2.30859 9.99989 2.30859C10.5332 2.30859 10.9874 2.49554 11.3624 2.86943C11.7374 3.24332 11.9243 3.69748 11.9232 4.23193C11.9221 4.76637 11.7349 5.22054 11.3616 5.59443C10.9882 5.96832 10.5343 6.15582 9.99989 6.15526ZM9.99989 11.4911C9.61212 11.4911 9.28017 11.3528 9.00406 11.0761C8.72795 10.8 8.58989 10.468 8.58989 10.0803C8.58989 9.69248 8.72795 9.36054 9.00406 9.08443C9.28017 8.80832 9.61212 8.67026 9.99989 8.67026C10.3877 8.67026 10.7196 8.80832 10.9957 9.08443C11.2718 9.36054 11.4099 9.69248 11.4099 10.0803C11.4099 10.468 11.2718 10.8 10.9957 11.0761C10.7196 11.3522 10.3877 11.4908 9.99989 11.4919M9.99989 5.32193C10.2999 5.32193 10.5566 5.21526 10.7699 5.00193C10.9832 4.78859 11.0899 4.53193 11.0899 4.23193C11.0899 3.93193 10.9832 3.67526 10.7699 3.46193C10.5566 3.24859 10.2999 3.14165 9.99989 3.14109C9.69989 3.14054 9.44323 3.2472 9.22989 3.46109C9.01656 3.67498 8.90989 3.93165 8.90989 4.23109C8.90989 4.53054 9.01656 4.7872 9.22989 5.00109C9.44323 5.21498 9.69989 5.32248 9.99989 5.32193ZM13.9632 9.53526L13.2449 8.28526C13.186 8.18526 13.1566 8.07415 13.1566 7.95193C13.1566 7.8297 13.186 7.71665 13.2449 7.61276L13.9632 6.36276C14.0216 6.25554 14.1018 6.17276 14.2041 6.11443C14.3063 6.05609 14.4193 6.02665 14.5432 6.02609H15.9216C16.046 6.02609 16.1591 6.05554 16.2607 6.11443C16.3624 6.17332 16.4427 6.25609 16.5016 6.36276L17.2199 7.61276C17.2782 7.71276 17.3074 7.82387 17.3074 7.94609C17.3074 8.06832 17.2782 8.18137 17.2199 8.28526L16.5016 9.53526C16.4427 9.64248 16.3624 9.72554 16.2607 9.78443C16.1591 9.84332 16.046 9.87248 15.9216 9.87193H14.5432C14.4188 9.87193 14.3057 9.84276 14.2041 9.78443C14.1018 9.72554 14.0213 9.64248 13.9624 9.53526M14.6274 9.03859H15.8424L16.4449 7.94943L15.8374 6.85943H14.6216L14.0191 7.94943L14.6274 9.03859Z" fill="#A7A6A6"/>
</svg>
