<svg width="33" height="32" viewBox="0 0 33 32" fill="none" xmlns="http://www.w3.org/2000/svg">
<rect x="0.427531" y="0.408" width="31.184" height="31.184" rx="15.592" fill="white"/>
<rect x="0.427531" y="0.408" width="31.184" height="31.184" rx="15.592" stroke="#ECEEF2" stroke-width="0.816"/>
<g clip-path="url(#clip0_1242_7382)">
<path d="M23.6992 15.3821C23.6992 15.172 23.6578 14.9639 23.5774 14.7698C23.497 14.5757 23.3791 14.3993 23.2306 14.2507C23.082 14.1022 22.9056 13.9843 22.7115 13.9039C22.5174 13.8235 22.3093 13.7821 22.0992 13.7821H18.0601C18.0349 13.7821 18.01 13.776 17.9875 13.7645C17.965 13.753 17.9456 13.7363 17.9308 13.7158C17.916 13.6953 17.9063 13.6717 17.9024 13.6467C17.8985 13.6217 17.9006 13.5962 17.9085 13.5722C18.2618 12.6767 18.3765 11.7048 18.2413 10.7517C17.8649 9.41091 17.0675 9.02371 16.4435 9.11011C16.137 9.16226 15.86 9.32416 15.6641 9.56559C15.4683 9.80702 15.367 10.1115 15.3792 10.4221C15.3792 12.1796 14.0166 14.0996 12.7974 14.9412C12.7547 14.9706 12.7198 15.01 12.6958 15.0559C12.6717 15.1019 12.6591 15.153 12.6592 15.2048V21.6791C12.6592 21.7534 12.685 21.8254 12.7323 21.8828C12.7796 21.9401 12.8454 21.9792 12.9184 21.9933C13.1469 22.0375 13.3542 22.0797 13.5501 22.1213C14.4112 22.3265 15.2939 22.4277 16.1792 22.4228H20.3392C21.5917 22.4228 21.7792 21.7188 21.7792 21.3028C21.7793 21.0821 21.7285 20.8644 21.6307 20.6666C21.9687 20.4953 22.2255 20.1976 22.3454 19.8381C22.4652 19.4787 22.4384 19.0864 22.2707 18.7466C22.5079 18.6261 22.7071 18.4423 22.8462 18.2156C22.9854 17.9889 23.0591 17.7281 23.0592 17.4621C23.0596 17.2224 22.9995 16.9864 22.8845 16.776C23.1316 16.6368 23.3374 16.4343 23.4805 16.1894C23.6237 15.9444 23.6992 15.6658 23.6992 15.3821Z" fill="#7077FE"/>
<path d="M11.6994 15.222C11.6994 15.0523 11.6319 14.8895 11.5119 14.7695C11.3919 14.6495 11.2291 14.582 11.0594 14.582H8.97936C8.80962 14.582 8.64683 14.6495 8.52681 14.7695C8.40678 14.8895 8.33936 15.0523 8.33936 15.222V22.262C8.33936 22.4318 8.40678 22.5946 8.52681 22.7146C8.64683 22.8346 8.80962 22.902 8.97936 22.902H11.0594C11.2291 22.902 11.3919 22.8346 11.5119 22.7146C11.6319 22.5946 11.6994 22.4318 11.6994 22.262V15.222ZM10.7394 21.142C10.7394 21.237 10.7112 21.3298 10.6585 21.4087C10.6057 21.4876 10.5308 21.5492 10.443 21.5855C10.3553 21.6218 10.2588 21.6313 10.1657 21.6128C10.0726 21.5943 9.98707 21.5486 9.91994 21.4814C9.85281 21.4143 9.8071 21.3288 9.78858 21.2357C9.77006 21.1426 9.77956 21.0461 9.81589 20.9583C9.85222 20.8706 9.91375 20.7957 9.99268 20.7429C10.0716 20.6902 10.1644 20.662 10.2594 20.662C10.3867 20.662 10.5087 20.7126 10.5988 20.8026C10.6888 20.8926 10.7394 21.0147 10.7394 21.142Z" fill="#7077FE"/>
</g>
<defs>
<clipPath id="clip0_1242_7382">
<rect width="15.36" height="15.36" fill="white" transform="translate(8.33936 8.32031)"/>
</clipPath>
</defs>
</svg>
