<svg width="676" height="270" viewBox="0 0 676 270" fill="none" xmlns="http://www.w3.org/2000/svg">
<path d="M134.82 267.64C208.174 267.64 267.64 208.174 267.64 134.82C267.64 61.4655 208.174 2 134.82 2C61.4655 2 2 61.4655 2 134.82C2 208.174 61.4655 267.64 134.82 267.64Z" fill="#E64646"/>
<path d="M265.43 134.82C265.43 134.82 206.95 205.07 134.82 205.07C62.69 205.07 4.2 134.82 4.2 134.82C4.2 134.82 62.68 64.5701 134.81 64.5701C206.94 64.5701 265.42 134.82 265.42 134.82H265.43Z" fill="#C43B3B"/>
<path d="M134.82 173.2C156.017 173.2 173.2 156.017 173.2 134.82C173.2 113.623 156.017 96.4399 134.82 96.4399C113.623 96.4399 96.44 113.623 96.44 134.82C96.44 156.017 113.623 173.2 134.82 173.2Z" fill="url(#paint0_linear_1663_28752)"/>
<path d="M264.07 96.44C263.32 93.9 262.49 91.39 261.6 88.92C242.78 37.11 193.05 0 134.82 0C76.59 0 26.86 37.11 8.04 88.92C7.15 91.39 6.32 93.9 5.57 96.44C1.94 108.61 0 121.49 0 134.82C0 148.15 1.95 161.04 5.57 173.21C6.32 175.75 7.15 178.25 8.04 180.71C26.86 232.52 76.59 269.63 134.82 269.63C193.05 269.63 242.78 232.52 261.6 180.71C262.49 178.25 263.32 175.75 264.07 173.21C267.69 161.04 269.64 148.15 269.64 134.82C269.64 121.49 267.7 108.61 264.07 96.44ZM265.61 131.97C261.44 127.25 247.88 112.58 228.37 98.09C206.95 82.17 173.82 63.27 136.82 62.6V38.61C187.81 39.36 231.59 68.41 258.17 91.22C262.71 104.01 265.3 117.71 265.61 131.97ZM66.97 134.82C66.97 97.41 97.41 66.97 134.82 66.97C172.23 66.97 202.67 97.41 202.67 134.82C202.67 172.23 172.23 202.67 134.82 202.67C97.41 202.67 66.97 172.23 66.97 134.82ZM62.6 134.82C62.6 161.47 77.11 184.77 98.64 197.28C50.49 182.23 13.62 142.47 6.85 134.82C13.62 127.16 50.49 87.4 98.64 72.36C77.11 84.88 62.6 108.18 62.6 134.82ZM207.04 134.82C207.04 108.17 192.52 84.87 171 72.36C219.15 87.41 256.03 127.17 262.79 134.82C256.03 142.48 219.16 182.25 170.98 197.29C192.52 184.78 207.04 161.47 207.04 134.82ZM134.82 4C188.75 4 235.17 36.81 255.16 83.51C227.35 60.87 184.39 34.57 134.82 34.57C85.25 34.57 42.29 60.87 14.48 83.51C34.47 36.81 80.89 4 134.82 4ZM11.47 91.22C38.05 68.41 81.83 39.35 132.82 38.61V62.6C95.82 63.26 62.69 82.17 41.27 98.09C21.76 112.58 8.21 127.25 4.03 131.97C4.34 117.72 6.93 104.01 11.47 91.22ZM4.03 137.67C8.2 142.39 21.76 157.06 41.27 171.55C62.69 187.47 95.82 206.37 132.82 207.04V231.04C81.83 230.29 38.05 201.24 11.47 178.42C6.93 165.63 4.34 151.93 4.03 137.68V137.67ZM134.82 265.63C80.88 265.63 34.46 232.82 14.48 186.11C42.29 208.77 85.25 235.07 134.82 235.07C184.39 235.07 227.35 208.77 255.16 186.11C235.18 232.82 188.76 265.63 134.82 265.63ZM258.17 178.41C231.59 201.23 187.81 230.29 136.82 231.03V207.03C173.82 206.37 206.95 187.46 228.37 171.54C247.88 157.05 261.44 142.38 265.61 137.66C265.3 151.92 262.71 165.61 258.17 178.4V178.41Z" fill="url(#paint1_linear_1663_28752)"/>
<path d="M321.13 142.15H308.52L306.5 148.12H297.88L310.11 114.32H319.64L331.87 148.12H323.16L321.14 142.15H321.13ZM319.02 135.79L314.83 123.42L310.69 135.79H319.02Z" fill="#291B89"/>
<path d="M341.16 147.25C339.2 146.45 337.64 145.26 336.47 143.69C335.3 142.12 334.68 140.22 334.62 138.01H343.38C343.51 139.26 343.94 140.22 344.68 140.88C345.42 141.54 346.38 141.87 347.57 141.87C348.76 141.87 349.75 141.59 350.46 141.03C351.17 140.47 351.52 139.69 351.52 138.7C351.52 137.87 351.24 137.18 350.68 136.63C350.12 136.09 349.43 135.64 348.61 135.28C347.79 134.93 346.63 134.53 345.12 134.08C342.94 133.41 341.16 132.73 339.78 132.06C338.4 131.39 337.21 130.39 336.22 129.07C335.22 127.75 334.73 126.04 334.73 123.92C334.73 120.78 335.87 118.31 338.15 116.53C340.43 114.75 343.4 113.86 347.06 113.86C350.72 113.86 353.78 114.75 356.06 116.53C358.34 118.31 359.56 120.79 359.72 123.97H350.81C350.75 122.88 350.34 122.02 349.61 121.39C348.87 120.76 347.92 120.45 346.77 120.45C345.77 120.45 344.97 120.71 344.36 121.24C343.75 121.77 343.45 122.53 343.45 123.53C343.45 124.62 343.96 125.47 344.99 126.08C346.02 126.69 347.62 127.35 349.8 128.05C351.98 128.79 353.76 129.5 355.12 130.17C356.48 130.84 357.66 131.82 358.66 133.11C359.65 134.39 360.15 136.05 360.15 138.07C360.15 140.09 359.66 141.75 358.68 143.32C357.7 144.89 356.28 146.14 354.42 147.07C352.56 148 350.36 148.47 347.82 148.47C345.28 148.47 343.13 148.07 341.18 147.27L341.16 147.25Z" fill="#291B89"/>
<path d="M389.6 130.57C388.7 132.19 387.32 133.5 385.46 134.49C383.6 135.49 381.29 135.98 378.53 135.98H373.43V148.11H365.2V114.31H378.54C381.24 114.31 383.52 114.78 385.38 115.71C387.24 116.64 388.64 117.92 389.57 119.56C390.5 121.2 390.97 123.07 390.97 125.19C390.97 127.15 390.52 128.94 389.62 130.56L389.6 130.57ZM381.42 128.33C382.19 127.59 382.58 126.55 382.58 125.2C382.58 123.85 382.19 122.81 381.42 122.07C380.65 121.33 379.48 120.96 377.91 120.96H373.43V129.43H377.91C379.48 129.43 380.65 129.06 381.42 128.32V128.33Z" fill="#291B89"/>
<path d="M403.47 114.32V148.12H395.24V114.32H403.47Z" fill="#291B89"/>
<path d="M426.67 148.12L419.64 135.36H417.67V148.12H409.44V114.32H423.26C425.92 114.32 428.2 114.79 430.07 115.72C431.95 116.65 433.35 117.93 434.28 119.55C435.21 121.17 435.68 122.98 435.68 124.97C435.68 127.22 435.05 129.22 433.78 130.99C432.51 132.76 430.64 134.01 428.17 134.75L435.97 148.13H426.68L426.67 148.12ZM417.67 129.53H422.77C424.28 129.53 425.41 129.16 426.16 128.42C426.91 127.68 427.29 126.64 427.29 125.29C427.29 123.94 426.91 123 426.16 122.26C425.41 121.52 424.27 121.15 422.77 121.15H417.67V129.53Z" fill="#291B89"/>
<path d="M449.06 114.32V148.12H440.83V114.32H449.06Z" fill="#291B89"/>
<path d="M485.27 148.12H477.04L463.27 127.27V148.12H455.04V114.32H463.27L477.04 135.26V114.32H485.27V148.12Z" fill="#291B89"/>
<path d="M513.68 125.01C513.07 123.89 512.2 123.03 511.06 122.43C509.92 121.84 508.58 121.54 507.04 121.54C504.37 121.54 502.24 122.41 500.64 124.16C499.03 125.91 498.23 128.24 498.23 131.16C498.23 134.27 499.07 136.71 500.76 138.45C502.45 140.2 504.76 141.07 507.72 141.07C509.74 141.07 511.45 140.56 512.85 139.53C514.25 138.5 515.26 137.03 515.91 135.1H505.46V129.03H523.37V136.69C522.76 138.74 521.72 140.65 520.26 142.42C518.8 144.19 516.95 145.61 514.7 146.71C512.45 147.8 509.92 148.35 507.09 148.35C503.75 148.35 500.77 147.62 498.16 146.16C495.54 144.7 493.51 142.67 492.05 140.07C490.59 137.47 489.86 134.5 489.86 131.16C489.86 127.82 490.59 124.85 492.05 122.23C493.51 119.61 495.54 117.58 498.14 116.12C500.74 114.66 503.71 113.93 507.05 113.93C511.09 113.93 514.5 114.91 517.28 116.87C520.06 118.83 521.89 121.54 522.79 125.01H513.69H513.68Z" fill="#291B89"/>
<path d="M306.79 178.33C305.89 178.33 305.09 178.49 304.38 178.82C303.67 179.15 303.08 179.61 302.59 180.23C302.1 180.84 301.73 181.58 301.47 182.45C301.21 183.32 301.08 184.3 301.08 185.39C301.08 186.85 301.29 188.1 301.7 189.15C302.11 190.2 302.74 191.01 303.58 191.57C304.42 192.13 305.48 192.41 306.77 192.41C307.57 192.41 308.34 192.33 309.1 192.18C309.86 192.03 310.63 191.82 311.44 191.55V194.17C310.68 194.47 309.91 194.69 309.13 194.83C308.35 194.97 307.45 195.04 306.43 195.04C304.51 195.04 302.92 194.64 301.66 193.84C300.4 193.04 299.45 191.92 298.83 190.47C298.21 189.02 297.9 187.33 297.9 185.38C297.9 183.96 298.1 182.66 298.49 181.47C298.88 180.28 299.46 179.27 300.21 178.4C300.96 177.53 301.9 176.88 303.01 176.41C304.12 175.94 305.39 175.71 306.82 175.71C307.76 175.71 308.69 175.82 309.6 176.02C310.51 176.23 311.36 176.53 312.14 176.91L311.06 179.45C310.41 179.14 309.73 178.88 309.02 178.65C308.31 178.43 307.57 178.32 306.81 178.32L306.79 178.33Z" fill="#291B89"/>
<path d="M331.37 194.76H320.73V175.97H331.37V178.57H323.81V183.67H330.89V186.25H323.81V192.15H331.37V194.76Z" fill="#291B89"/>
<path d="M345.96 175.97C347.58 175.97 348.92 176.17 349.98 176.56C351.04 176.95 351.83 177.55 352.34 178.36C352.86 179.17 353.12 180.19 353.12 181.43C353.12 182.35 352.95 183.14 352.61 183.79C352.27 184.44 351.82 184.98 351.26 185.41C350.7 185.84 350.11 186.18 349.47 186.44L354.8 194.76H351.32L346.78 187.23H343.76V194.76H340.68V175.97H345.96ZM345.76 178.54H343.77V184.68H345.9C347.33 184.68 348.37 184.41 349.02 183.88C349.67 183.35 349.99 182.57 349.99 181.53C349.99 180.44 349.64 179.67 348.96 179.22C348.27 178.77 347.21 178.54 345.77 178.54H345.76Z" fill="#291B89"/>
<path d="M369.27 194.76H366.17V178.59H360.67V175.97H374.76V178.59H369.27V194.76Z" fill="#291B89"/>
<path d="M382.89 194.76V175.97H385.97V194.76H382.89Z" fill="#291B89"/>
<path d="M399.24 194.76H396.18V175.97H406.8V178.57H399.24V184.43H406.31V187.01H399.24V194.76Z" fill="#291B89"/>
<path d="M415.47 194.76V175.97H418.55V194.76H415.47Z" fill="#291B89"/>
<path d="M439.41 194.76H428.77V175.97H439.41V178.57H431.85V183.67H438.93V186.25H431.85V192.15H439.41V194.76Z" fill="#291B89"/>
<path d="M463.98 185.19C463.98 187.31 463.59 189.07 462.8 190.49C462.01 191.91 460.87 192.98 459.37 193.69C457.87 194.41 456.06 194.76 453.95 194.76H448.73V175.97H454.51C456.45 175.97 458.13 176.32 459.55 177.02C460.97 177.72 462.06 178.75 462.83 180.12C463.6 181.49 463.99 183.18 463.99 185.19H463.98ZM460.76 185.28C460.76 183.74 460.52 182.47 460.03 181.48C459.54 180.49 458.83 179.75 457.9 179.26C456.97 178.77 455.81 178.53 454.44 178.53H451.81V192.18H453.99C456.26 192.18 457.96 191.6 459.08 190.44C460.2 189.28 460.76 187.56 460.76 185.27V185.28Z" fill="#291B89"/>
<path d="M493.38 178.33C492.48 178.33 491.68 178.49 490.97 178.82C490.26 179.15 489.67 179.61 489.18 180.23C488.69 180.84 488.32 181.58 488.06 182.45C487.8 183.32 487.67 184.3 487.67 185.39C487.67 186.85 487.88 188.1 488.29 189.15C488.7 190.2 489.33 191.01 490.17 191.57C491.01 192.13 492.07 192.41 493.36 192.41C494.16 192.41 494.93 192.33 495.69 192.18C496.45 192.03 497.22 191.82 498.03 191.55V194.17C497.27 194.47 496.5 194.69 495.72 194.83C494.94 194.97 494.04 195.04 493.02 195.04C491.1 195.04 489.51 194.64 488.25 193.84C486.99 193.04 486.04 191.92 485.42 190.47C484.8 189.02 484.49 187.33 484.49 185.38C484.49 183.96 484.69 182.66 485.08 181.47C485.47 180.28 486.05 179.27 486.8 178.4C487.55 177.53 488.49 176.88 489.6 176.41C490.71 175.94 491.98 175.71 493.41 175.71C494.35 175.71 495.28 175.82 496.19 176.02C497.1 176.23 497.95 176.53 498.73 176.91L497.65 179.45C497 179.14 496.32 178.88 495.61 178.65C494.9 178.43 494.16 178.32 493.4 178.32L493.38 178.33Z" fill="#291B89"/>
<path d="M524 185.34C524 186.79 523.82 188.11 523.45 189.29C523.09 190.48 522.54 191.5 521.81 192.35C521.08 193.2 520.17 193.86 519.07 194.32C517.97 194.78 516.69 195.01 515.21 195.01C513.73 195.01 512.41 194.78 511.31 194.32C510.21 193.86 509.3 193.2 508.57 192.34C507.84 191.48 507.3 190.46 506.94 189.27C506.58 188.08 506.4 186.76 506.4 185.31C506.4 183.37 506.72 181.68 507.36 180.24C508 178.8 508.97 177.67 510.28 176.87C511.59 176.07 513.24 175.67 515.23 175.67C517.22 175.67 518.81 176.07 520.1 176.87C521.39 177.67 522.36 178.79 523.01 180.23C523.66 181.67 523.98 183.38 523.98 185.34H524ZM509.66 185.34C509.66 186.79 509.86 188.04 510.25 189.1C510.64 190.16 511.25 190.97 512.07 191.54C512.89 192.11 513.94 192.39 515.23 192.39C516.52 192.39 517.58 192.11 518.39 191.54C519.2 190.97 519.8 190.16 520.19 189.1C520.58 188.04 520.77 186.79 520.77 185.34C520.77 183.14 520.33 181.41 519.45 180.17C518.57 178.92 517.17 178.3 515.25 178.3C513.96 178.3 512.91 178.58 512.08 179.15C511.25 179.72 510.64 180.52 510.25 181.57C509.86 182.62 509.66 183.88 509.66 185.34Z" fill="#291B89"/>
<path d="M548.98 194.76H545.19L535.99 179.76H535.87C535.9 180.27 535.94 180.8 535.97 181.37C536 181.94 536.03 182.52 536.05 183.12C536.07 183.72 536.09 184.33 536.11 184.94V194.76H533.31V175.97H537.08L546.27 190.87H546.36C546.34 190.43 546.32 189.93 546.3 189.37C546.27 188.8 546.25 188.22 546.23 187.62C546.21 187.02 546.19 186.43 546.19 185.87V175.99H549V194.78L548.98 194.76Z" fill="#291B89"/>
<path d="M570.03 189.65C570.03 190.76 569.76 191.72 569.21 192.53C568.66 193.34 567.89 193.95 566.87 194.38C565.85 194.81 564.64 195.02 563.24 195.02C562.55 195.02 561.9 194.98 561.27 194.9C560.64 194.82 560.06 194.71 559.5 194.56C558.95 194.41 558.44 194.23 557.99 194.01V191.1C558.75 191.43 559.6 191.74 560.55 192.01C561.49 192.28 562.45 192.42 563.43 192.42C564.23 192.42 564.89 192.31 565.42 192.1C565.95 191.89 566.34 191.59 566.6 191.2C566.86 190.81 566.99 190.35 566.99 189.83C566.99 189.27 566.84 188.8 566.54 188.42C566.24 188.04 565.79 187.68 565.18 187.36C564.57 187.04 563.82 186.69 562.91 186.33C562.29 186.08 561.7 185.8 561.14 185.48C560.58 185.16 560.08 184.79 559.64 184.36C559.2 183.93 558.86 183.42 558.61 182.84C558.36 182.25 558.23 181.56 558.23 180.76C558.23 179.7 558.48 178.79 558.99 178.04C559.5 177.29 560.22 176.71 561.15 176.31C562.08 175.91 563.17 175.71 564.41 175.71C565.4 175.71 566.32 175.81 567.19 176.02C568.06 176.23 568.91 176.52 569.75 176.89L568.77 179.37C568 179.05 567.25 178.8 566.53 178.61C565.81 178.42 565.07 178.33 564.31 178.33C563.66 178.33 563.11 178.43 562.65 178.62C562.2 178.82 561.85 179.09 561.62 179.45C561.38 179.81 561.27 180.23 561.27 180.72C561.27 181.27 561.4 181.73 561.67 182.1C561.94 182.47 562.36 182.81 562.93 183.12C563.5 183.43 564.23 183.77 565.13 184.15C566.17 184.58 567.05 185.03 567.77 185.5C568.49 185.97 569.05 186.54 569.43 187.19C569.81 187.84 570.01 188.67 570.01 189.65H570.03Z" fill="#291B89"/>
<path d="M586.93 178.33C586.03 178.33 585.23 178.49 584.52 178.82C583.81 179.15 583.22 179.61 582.73 180.23C582.24 180.84 581.87 181.58 581.61 182.45C581.35 183.32 581.22 184.3 581.22 185.39C581.22 186.85 581.43 188.1 581.84 189.15C582.25 190.2 582.88 191.01 583.72 191.57C584.56 192.13 585.62 192.41 586.91 192.41C587.71 192.41 588.48 192.33 589.24 192.18C590 192.03 590.77 191.82 591.58 191.55V194.17C590.82 194.47 590.05 194.69 589.27 194.83C588.49 194.97 587.59 195.04 586.57 195.04C584.65 195.04 583.06 194.64 581.8 193.84C580.54 193.04 579.59 191.92 578.97 190.47C578.35 189.02 578.04 187.33 578.04 185.38C578.04 183.96 578.24 182.66 578.63 181.47C579.02 180.28 579.6 179.27 580.35 178.4C581.1 177.53 582.04 176.88 583.15 176.41C584.26 175.94 585.53 175.71 586.96 175.71C587.9 175.71 588.83 175.82 589.74 176.02C590.65 176.23 591.5 176.53 592.28 176.91L591.2 179.45C590.55 179.14 589.87 178.88 589.16 178.65C588.45 178.43 587.71 178.32 586.95 178.32L586.93 178.33Z" fill="#291B89"/>
<path d="M600.87 194.76V175.97H603.95V194.76H600.87Z" fill="#291B89"/>
<path d="M630.84 185.34C630.84 186.79 630.66 188.11 630.29 189.29C629.93 190.48 629.38 191.5 628.65 192.35C627.92 193.2 627.01 193.86 625.91 194.32C624.81 194.78 623.53 195.01 622.05 195.01C620.57 195.01 619.25 194.78 618.15 194.32C617.05 193.86 616.14 193.2 615.41 192.34C614.68 191.48 614.14 190.46 613.78 189.27C613.42 188.08 613.24 186.76 613.24 185.31C613.24 183.37 613.56 181.68 614.2 180.24C614.84 178.8 615.81 177.67 617.12 176.87C618.43 176.07 620.08 175.67 622.07 175.67C624.06 175.67 625.65 176.07 626.94 176.87C628.23 177.67 629.2 178.79 629.85 180.23C630.5 181.67 630.82 183.38 630.82 185.34H630.84ZM616.5 185.34C616.5 186.79 616.7 188.04 617.09 189.1C617.48 190.16 618.09 190.97 618.91 191.54C619.73 192.11 620.78 192.39 622.07 192.39C623.36 192.39 624.42 192.11 625.23 191.54C626.04 190.97 626.64 190.16 627.03 189.1C627.42 188.04 627.61 186.79 627.61 185.34C627.61 183.14 627.17 181.41 626.29 180.17C625.41 178.92 624.01 178.3 622.09 178.3C620.8 178.3 619.75 178.58 618.92 179.15C618.09 179.72 617.48 180.52 617.09 181.57C616.7 182.62 616.5 183.88 616.5 185.34Z" fill="#291B89"/>
<path d="M654.9 175.97V188.13C654.9 189.44 654.62 190.62 654.07 191.65C653.52 192.69 652.68 193.51 651.57 194.11C650.46 194.71 649.06 195.02 647.37 195.02C644.96 195.02 643.13 194.39 641.88 193.12C640.62 191.86 640 190.17 640 188.08V175.97H643.08V187.81C643.08 189.38 643.45 190.53 644.18 191.28C644.92 192.03 646.02 192.4 647.48 192.4C648.49 192.4 649.32 192.22 649.95 191.87C650.59 191.51 651.06 190.99 651.36 190.3C651.66 189.61 651.82 188.78 651.82 187.8V175.98H654.89L654.9 175.97Z" fill="#291B89"/>
<path d="M675.8 189.65C675.8 190.76 675.53 191.72 674.98 192.53C674.43 193.34 673.66 193.95 672.64 194.38C671.62 194.81 670.41 195.02 669.01 195.02C668.32 195.02 667.67 194.98 667.04 194.9C666.41 194.82 665.83 194.71 665.27 194.56C664.72 194.41 664.21 194.23 663.76 194.01V191.1C664.52 191.43 665.37 191.74 666.32 192.01C667.26 192.28 668.22 192.42 669.2 192.42C670 192.42 670.66 192.31 671.19 192.1C671.72 191.89 672.11 191.59 672.37 191.2C672.63 190.81 672.76 190.35 672.76 189.83C672.76 189.27 672.61 188.8 672.31 188.42C672.01 188.04 671.56 187.68 670.95 187.36C670.34 187.04 669.59 186.69 668.68 186.33C668.06 186.08 667.47 185.8 666.91 185.48C666.35 185.16 665.85 184.79 665.41 184.36C664.97 183.93 664.63 183.42 664.38 182.84C664.13 182.25 664 181.56 664 180.76C664 179.7 664.25 178.79 664.76 178.04C665.27 177.29 665.99 176.71 666.92 176.31C667.85 175.91 668.94 175.71 670.18 175.71C671.17 175.71 672.09 175.81 672.96 176.02C673.83 176.23 674.68 176.52 675.52 176.89L674.54 179.37C673.77 179.05 673.02 178.8 672.3 178.61C671.58 178.42 670.84 178.33 670.08 178.33C669.43 178.33 668.88 178.43 668.42 178.62C667.97 178.82 667.62 179.09 667.39 179.45C667.15 179.81 667.04 180.23 667.04 180.72C667.04 181.27 667.17 181.73 667.44 182.1C667.71 182.47 668.13 182.81 668.7 183.12C669.27 183.43 670 183.77 670.9 184.15C671.94 184.58 672.82 185.03 673.54 185.5C674.26 185.97 674.82 186.54 675.2 187.19C675.58 187.84 675.78 188.67 675.78 189.65H675.8Z" fill="#291B89"/>
<path d="M315.46 216.93C315.46 218.38 315.28 219.7 314.91 220.88C314.55 222.07 314 223.09 313.27 223.94C312.54 224.79 311.63 225.45 310.53 225.91C309.43 226.37 308.15 226.6 306.67 226.6C305.19 226.6 303.87 226.37 302.77 225.91C301.67 225.45 300.76 224.79 300.03 223.93C299.3 223.07 298.76 222.05 298.4 220.86C298.04 219.67 297.86 218.35 297.86 216.9C297.86 214.96 298.18 213.27 298.82 211.83C299.46 210.39 300.43 209.26 301.74 208.46C303.05 207.66 304.7 207.26 306.69 207.26C308.68 207.26 310.27 207.66 311.56 208.46C312.85 209.26 313.82 210.38 314.47 211.82C315.12 213.26 315.44 214.97 315.44 216.93H315.46ZM301.12 216.93C301.12 218.38 301.32 219.63 301.71 220.69C302.1 221.75 302.71 222.56 303.53 223.13C304.35 223.7 305.4 223.98 306.69 223.98C307.98 223.98 309.04 223.7 309.85 223.13C310.66 222.56 311.26 221.75 311.65 220.69C312.04 219.63 312.23 218.38 312.23 216.93C312.23 214.73 311.79 213 310.91 211.76C310.03 210.51 308.63 209.89 306.71 209.89C305.42 209.89 304.37 210.17 303.54 210.74C302.71 211.31 302.1 212.11 301.71 213.16C301.32 214.21 301.12 215.47 301.12 216.93Z" fill="#291B89"/>
<path d="M330.04 207.56C331.66 207.56 333 207.76 334.06 208.15C335.12 208.54 335.91 209.14 336.42 209.95C336.94 210.76 337.2 211.78 337.2 213.02C337.2 213.94 337.03 214.73 336.69 215.38C336.35 216.03 335.9 216.57 335.34 217C334.78 217.43 334.19 217.77 333.55 218.03L338.88 226.35H335.4L330.86 218.82H327.84V226.35H324.76V207.56H330.04ZM329.84 210.13H327.85V216.27H329.98C331.41 216.27 332.45 216 333.1 215.47C333.75 214.94 334.07 214.16 334.07 213.12C334.07 212.03 333.72 211.26 333.04 210.81C332.35 210.36 331.29 210.13 329.85 210.13H329.84Z" fill="#291B89"/>
<path d="M354.42 216.14H361.44V225.57C360.45 225.9 359.44 226.15 358.38 226.33C357.32 226.51 356.14 226.6 354.83 226.6C352.92 226.6 351.3 226.22 349.98 225.46C348.66 224.7 347.65 223.6 346.97 222.16C346.28 220.72 345.94 218.98 345.94 216.94C345.94 214.9 346.32 213.27 347.08 211.83C347.84 210.39 348.95 209.27 350.41 208.48C351.87 207.69 353.63 207.29 355.7 207.29C356.72 207.29 357.71 207.39 358.66 207.59C359.62 207.79 360.49 208.07 361.29 208.42L360.21 210.96C359.58 210.66 358.86 210.41 358.08 210.2C357.29 209.99 356.47 209.89 355.63 209.89C354.28 209.89 353.13 210.18 352.15 210.76C351.18 211.34 350.43 212.16 349.91 213.22C349.39 214.28 349.13 215.53 349.13 216.97C349.13 218.41 349.34 219.59 349.76 220.65C350.18 221.7 350.84 222.52 351.73 223.11C352.63 223.7 353.78 223.99 355.21 223.99C355.92 223.99 356.52 223.95 357.02 223.87C357.52 223.79 357.98 223.71 358.4 223.61V218.76H354.43V216.13L354.42 216.14Z" fill="#291B89"/>
<path d="M382.84 226.35L381 221.13H373.82L371.98 226.35H368.73L375.72 207.48H379.14L386.12 226.35H382.84ZM380.21 218.48L378.42 213.34C378.35 213.12 378.25 212.8 378.12 212.39C377.99 211.98 377.86 211.57 377.73 211.14C377.6 210.72 377.49 210.36 377.41 210.07C377.32 210.42 377.22 210.81 377.1 211.25C376.98 211.69 376.86 212.09 376.74 212.46C376.62 212.83 376.54 213.13 376.48 213.33L374.68 218.47H380.21V218.48Z" fill="#291B89"/>
<path d="M409.54 226.35H405.75L396.55 211.35H396.43C396.46 211.86 396.5 212.39 396.53 212.96C396.56 213.53 396.59 214.11 396.61 214.71C396.63 215.31 396.65 215.92 396.67 216.53V226.35H393.87V207.56H397.64L406.83 222.46H406.92C406.9 222.02 406.88 221.52 406.86 220.96C406.83 220.39 406.81 219.81 406.79 219.21C406.77 218.61 406.75 218.02 406.75 217.46V207.58H409.56V226.37L409.54 226.35Z" fill="#291B89"/>
<path d="M419.74 226.35V207.56H422.82V226.35H419.74Z" fill="#291B89"/>
<path d="M443.88 221.23C443.88 222.34 443.61 223.3 443.06 224.11C442.51 224.92 441.74 225.53 440.72 225.96C439.7 226.39 438.49 226.6 437.09 226.6C436.4 226.6 435.75 226.56 435.12 226.48C434.49 226.4 433.91 226.29 433.35 226.14C432.8 225.99 432.29 225.81 431.84 225.59V222.68C432.6 223.01 433.45 223.32 434.4 223.59C435.34 223.86 436.3 224 437.28 224C438.08 224 438.74 223.89 439.27 223.68C439.8 223.47 440.19 223.17 440.45 222.78C440.71 222.39 440.84 221.93 440.84 221.41C440.84 220.85 440.69 220.38 440.39 220C440.09 219.62 439.64 219.26 439.03 218.94C438.42 218.62 437.67 218.27 436.76 217.91C436.14 217.66 435.55 217.38 434.99 217.06C434.43 216.74 433.93 216.37 433.49 215.94C433.05 215.51 432.71 215 432.46 214.42C432.21 213.83 432.08 213.14 432.08 212.34C432.08 211.28 432.33 210.37 432.84 209.62C433.35 208.87 434.07 208.29 435 207.89C435.93 207.49 437.02 207.29 438.26 207.29C439.25 207.29 440.17 207.39 441.04 207.6C441.91 207.81 442.76 208.1 443.6 208.47L442.62 210.95C441.85 210.63 441.1 210.38 440.38 210.19C439.66 210 438.92 209.91 438.16 209.91C437.51 209.91 436.96 210.01 436.5 210.2C436.05 210.4 435.7 210.67 435.47 211.03C435.23 211.39 435.12 211.81 435.12 212.3C435.12 212.85 435.25 213.31 435.52 213.68C435.79 214.05 436.21 214.39 436.78 214.7C437.35 215.01 438.08 215.35 438.98 215.73C440.02 216.16 440.9 216.61 441.62 217.08C442.34 217.55 442.9 218.12 443.28 218.77C443.66 219.42 443.86 220.25 443.86 221.23H443.88Z" fill="#291B89"/>
<path d="M464.42 226.35L462.58 221.13H455.4L453.56 226.35H450.31L457.3 207.48H460.72L467.7 226.35H464.42ZM461.78 218.48L459.99 213.34C459.92 213.12 459.82 212.8 459.69 212.39C459.56 211.98 459.43 211.57 459.3 211.14C459.17 210.72 459.06 210.36 458.98 210.07C458.89 210.42 458.79 210.81 458.67 211.25C458.55 211.69 458.43 212.09 458.31 212.46C458.19 212.83 458.11 213.13 458.05 213.33L456.25 218.47H461.78V218.48Z" fill="#291B89"/>
<path d="M481.96 226.35H478.86V210.18H473.36V207.56H487.45V210.18H481.96V226.35Z" fill="#291B89"/>
<path d="M495.57 226.35V207.56H498.65V226.35H495.57Z" fill="#291B89"/>
<path d="M525.55 216.93C525.55 218.38 525.37 219.7 525 220.88C524.64 222.07 524.09 223.09 523.36 223.94C522.63 224.79 521.72 225.45 520.62 225.91C519.52 226.37 518.24 226.6 516.76 226.6C515.28 226.6 513.96 226.37 512.86 225.91C511.76 225.45 510.85 224.79 510.12 223.93C509.39 223.07 508.85 222.05 508.49 220.86C508.13 219.67 507.95 218.35 507.95 216.9C507.95 214.96 508.27 213.27 508.91 211.83C509.55 210.39 510.52 209.26 511.83 208.46C513.14 207.66 514.79 207.26 516.78 207.26C518.77 207.26 520.36 207.66 521.65 208.46C522.94 209.26 523.91 210.38 524.56 211.82C525.21 213.26 525.53 214.97 525.53 216.93H525.55ZM511.21 216.93C511.21 218.38 511.41 219.63 511.8 220.69C512.19 221.75 512.8 222.56 513.62 223.13C514.44 223.7 515.49 223.98 516.78 223.98C518.07 223.98 519.13 223.7 519.94 223.13C520.75 222.56 521.35 221.75 521.74 220.69C522.13 219.63 522.32 218.38 522.32 216.93C522.32 214.73 521.88 213 521 211.76C520.12 210.51 518.72 209.89 516.8 209.89C515.51 209.89 514.46 210.17 513.63 210.74C512.8 211.31 512.19 212.11 511.8 213.16C511.41 214.21 511.21 215.47 511.21 216.93Z" fill="#291B89"/>
<path d="M550.53 226.35H546.74L537.54 211.35H537.42C537.45 211.86 537.49 212.39 537.52 212.96C537.55 213.53 537.58 214.11 537.6 214.71C537.62 215.31 537.64 215.92 537.66 216.53V226.35H534.86V207.56H538.63L547.82 222.46H547.91C547.89 222.02 547.87 221.52 547.85 220.96C547.82 220.39 547.8 219.81 547.78 219.21C547.76 218.61 547.74 218.02 547.74 217.46V207.58H550.55V226.37L550.53 226.35Z" fill="#291B89"/>
<path d="M328.45 73.12C331.93 73.12 334.75 70.3 334.75 66.82C334.75 63.34 331.93 60.52 328.45 60.52C324.97 60.52 322.15 63.34 322.15 66.82C322.15 70.3 324.97 73.12 328.45 73.12Z" fill="url(#paint2_linear_1663_28752)"/>
<path d="M347.8 77.9801H346.02C345.85 77.9801 345.71 77.8401 345.71 77.6701V56.0201C345.71 55.8501 345.85 55.7101 346.02 55.7101H347.8C347.97 55.7101 348.11 55.8501 348.11 56.0201V58.2701C348.11 58.5501 348.46 58.6901 348.65 58.4801C349.48 57.6001 350.47 56.8901 351.6 56.3501C352.99 55.6901 354.47 55.3501 356.04 55.3501C357.9 55.3501 359.58 55.7601 361.06 56.5901C362.55 57.4201 363.7 58.5601 364.54 60.0301C365.38 61.4901 365.79 63.1501 365.79 65.0001V77.6701C365.79 77.8401 365.65 77.9801 365.48 77.9801H363.72C363.55 77.9801 363.41 77.8401 363.41 77.6701V65.5301C363.41 63.9901 363.1 62.6201 362.49 61.4201C361.87 60.2301 361.01 59.3001 359.89 58.6501C358.77 58.0001 357.49 57.6701 356.04 57.6701C354.5 57.6701 353.14 58.0601 351.94 58.8301C350.74 59.6001 349.8 60.6701 349.12 62.0401C348.44 63.4101 348.11 64.9701 348.11 66.7201V77.6701C348.11 77.8401 347.97 77.9801 347.8 77.9801Z" fill="#291B89"/>
<path d="M375.42 74.9901L375.4 74.9701C373.19 72.6401 372.09 69.9101 372.09 66.8001C372.09 65.2401 372.37 63.7801 372.93 62.4101C373.49 61.0401 374.31 59.8001 375.41 58.6801C376.52 57.5901 377.75 56.7601 379.13 56.2001C380.51 55.6301 381.97 55.3501 383.53 55.3501C385.48 55.3501 387.28 55.8101 388.93 56.7401C390.59 57.6601 391.94 58.9401 392.98 60.5501C394.02 62.1601 394.62 63.9601 394.77 65.9301C394.8 66.2501 394.81 66.7701 394.81 67.5001C394.81 67.6701 394.67 67.8201 394.5 67.8201H374.94C374.75 67.8201 374.6 67.9901 374.63 68.1701C374.82 69.5601 375.29 70.8301 376.06 71.9701C376.89 73.2001 377.96 74.1801 379.27 74.8801C380.58 75.5801 382.01 75.9401 383.53 75.9401C385.26 75.9401 386.84 75.4901 388.31 74.5901C389.71 73.7301 390.78 72.5801 391.51 71.1401C391.56 71.0301 391.67 70.9701 391.79 70.9701H393.78C394 70.9701 394.16 71.2001 394.07 71.4001C393.5 72.7001 392.74 73.8401 391.76 74.8401C390.68 75.9501 389.43 76.8001 388.01 77.4001C386.58 78.0001 385.1 78.3001 383.54 78.3001C380.46 78.3001 377.76 77.2001 375.44 75.0001V75.0101L375.42 74.9901ZM391.89 65.4601C392.08 65.4601 392.23 65.2901 392.2 65.1001C391.96 63.7701 391.47 62.5601 390.71 61.4801C389.89 60.3001 388.85 59.3801 387.59 58.7101C386.33 58.0401 384.97 57.7001 383.51 57.7001C382.05 57.7001 380.63 58.0401 379.34 58.7101C378.05 59.3801 376.98 60.3001 376.15 61.4801C375.39 62.5601 374.88 63.7701 374.65 65.1001C374.62 65.2901 374.77 65.4601 374.96 65.4601H391.89Z" fill="#291B89"/>
<path d="M405.78 77.74C404.6 77.32 403.62 76.73 402.84 75.97C402.06 75.21 401.54 74.33 401.27 73.34C401.14 72.88 401.08 72.39 401.08 71.87C401.08 71.77 401.08 71.64 401.1 71.48C401.11 71.32 401.25 71.19 401.41 71.19H402.91C403.09 71.19 403.23 71.35 403.22 71.53C403.22 71.59 403.22 71.63 403.22 71.67C403.22 72.54 403.53 73.32 404.14 73.99C404.75 74.67 405.56 75.19 406.55 75.55C407.55 75.91 408.59 76.1 409.7 76.1C410.89 76.1 411.96 75.92 412.92 75.57C413.88 75.22 414.63 74.73 415.18 74.12C415.72 73.51 416 72.81 416.02 72.04C415.99 70.99 415.51 70.14 414.57 69.48C413.63 68.83 412.08 68.27 409.93 67.81C408.67 67.56 407.66 67.34 406.87 67.13C406.09 66.92 405.34 66.67 404.62 66.39C403.43 65.88 402.55 65.24 401.97 64.45C401.13 63.33 400.9 61.88 401.27 60.11C401.27 60.09 401.28 60.07 401.29 60.05C401.96 58.25 403.29 56.93 405.29 56.09C406.6 55.54 408.07 55.26 409.7 55.26C411.33 55.26 412.86 55.54 414.18 56.1C415.5 56.66 416.53 57.43 417.27 58.43C418.01 59.43 418.38 60.54 418.38 61.79C418.38 61.88 418.38 62 418.36 62.16C418.35 62.32 418.21 62.45 418.05 62.45H416.2C416.22 62.36 416.22 62.21 416.22 62.01C416.22 61.21 415.94 60.47 415.36 59.78C414.79 59.1 414 58.55 413.01 58.15C412.01 57.75 410.91 57.55 409.7 57.55C408.49 57.55 407.44 57.73 406.48 58.08C405.52 58.43 404.77 58.92 404.22 59.54C403.67 60.16 403.4 60.86 403.4 61.63C403.4 62.02 403.48 62.38 403.66 62.72C403.83 63.06 404.08 63.34 404.4 63.56C404.69 63.77 405.2 64.01 405.93 64.29C406.55 64.54 407.1 64.73 407.59 64.86C408.07 64.99 408.92 65.2 410.14 65.47C412.1 65.88 413.67 66.38 414.86 66.95C416.05 67.52 416.92 68.22 417.48 69.04C418.25 70.17 418.49 71.62 418.2 73.4C418.2 73.42 418.19 73.44 418.18 73.46C417.53 75.34 416.18 76.7 414.13 77.55C412.82 78.1 411.34 78.37 409.7 78.37C408.27 78.37 406.96 78.16 405.77 77.74H405.78Z" fill="#291B89"/>
<path d="M429.37 77.74C428.19 77.32 427.21 76.73 426.43 75.97C425.65 75.21 425.13 74.33 424.86 73.34C424.73 72.88 424.67 72.39 424.67 71.87C424.67 71.77 424.67 71.64 424.69 71.48C424.7 71.32 424.84 71.19 425 71.19H426.5C426.68 71.19 426.82 71.35 426.81 71.53C426.81 71.59 426.81 71.63 426.81 71.67C426.81 72.54 427.12 73.32 427.73 73.99C428.34 74.67 429.15 75.19 430.14 75.55C431.14 75.91 432.18 76.1 433.29 76.1C434.48 76.1 435.55 75.92 436.51 75.57C437.47 75.22 438.22 74.73 438.77 74.12C439.31 73.51 439.59 72.81 439.61 72.04C439.58 70.99 439.1 70.14 438.16 69.48C437.22 68.83 435.68 68.27 433.52 67.81C432.26 67.56 431.25 67.34 430.47 67.13C429.69 66.92 428.94 66.67 428.22 66.39C427.03 65.88 426.15 65.24 425.57 64.45C424.73 63.33 424.5 61.88 424.87 60.11C424.87 60.09 424.88 60.07 424.89 60.05C425.55 58.25 426.89 56.93 428.89 56.09C430.2 55.54 431.67 55.26 433.3 55.26C434.93 55.26 436.47 55.54 437.78 56.1C439.1 56.66 440.13 57.43 440.87 58.43C441.61 59.43 441.98 60.54 441.98 61.79C441.98 61.88 441.98 62 441.96 62.16C441.95 62.32 441.81 62.45 441.65 62.45H439.8C439.82 62.36 439.82 62.21 439.82 62.01C439.82 61.21 439.53 60.47 438.96 59.78C438.39 59.1 437.6 58.55 436.61 58.15C435.61 57.75 434.51 57.55 433.3 57.55C432.09 57.55 431.04 57.73 430.08 58.08C429.12 58.43 428.37 58.92 427.82 59.54C427.27 60.16 427 60.86 427 61.63C427 62.02 427.08 62.38 427.26 62.72C427.43 63.06 427.68 63.34 428 63.56C428.29 63.77 428.8 64.01 429.53 64.29C430.15 64.54 430.7 64.73 431.19 64.86C431.67 64.99 432.52 65.2 433.74 65.47C435.7 65.88 437.27 66.38 438.46 66.95C439.65 67.52 440.52 68.22 441.08 69.04C441.85 70.17 442.09 71.62 441.8 73.4C441.8 73.42 441.79 73.44 441.78 73.46C441.13 75.34 439.78 76.7 437.73 77.55C436.42 78.1 434.94 78.37 433.3 78.37C431.87 78.37 430.56 78.16 429.37 77.74Z" fill="#291B89"/>
<path d="M320.39 74.9901L320.37 74.9701C318.16 72.6401 317.06 69.9101 317.06 66.8001C317.06 65.2401 317.34 63.7801 317.9 62.4101C318.46 61.0401 319.28 59.8001 320.38 58.6801C321.49 57.5901 322.72 56.7601 324.1 56.2001C325.48 55.6301 326.94 55.3501 328.5 55.3501C330.16 55.3501 331.72 55.6801 333.2 56.3301C334.68 56.9801 335.96 57.9101 337.04 59.1201C338.03 60.2101 338.78 61.4601 339.29 62.8701C339.37 63.0701 339.21 63.2801 338.99 63.2801H337.03C336.9 63.2801 336.79 63.2001 336.75 63.0901C336.3 62.0501 335.68 61.1301 334.88 60.3401C334.04 59.5001 333.07 58.8501 331.97 58.3901C330.87 57.9301 329.72 57.7101 328.5 57.7101C326.83 57.7101 325.31 58.1101 323.93 58.9101C322.55 59.7101 321.47 60.8101 320.68 62.1901C319.89 63.5801 319.49 65.1101 319.49 66.8001C319.49 68.4901 319.89 70.0201 320.68 71.4201C321.47 72.8101 322.56 73.9101 323.94 74.7301C325.32 75.5401 326.84 75.9401 328.5 75.9401C329.72 75.9401 330.87 75.7101 331.97 75.2601C333.07 74.8001 334.04 74.1501 334.88 73.3101C335.67 72.5201 336.3 71.6101 336.75 70.5801C336.8 70.4701 336.91 70.3901 337.03 70.3901H338.99C339.21 70.3901 339.36 70.6001 339.28 70.8001C338.77 72.1901 338.02 73.4301 337.03 74.5301C335.95 75.7301 334.67 76.6601 333.19 77.3201C331.71 77.9701 330.15 78.3001 328.49 78.3001C325.41 78.3001 322.71 77.2001 320.39 75.0001V74.9901Z" fill="#291B89"/>
<path d="M335.7 79.9701L334.13 80.7601C333.98 80.8401 333.91 81.0301 333.99 81.1801L340.85 94.8301C340.93 94.9801 341.12 95.0501 341.27 94.9701L342.84 94.1801C342.99 94.1001 343.06 93.9101 342.98 93.7601L336.12 80.1101C336.04 79.9501 335.85 79.8901 335.7 79.9701Z" fill="#291B89"/>
<path d="M325.18 82.07L323.48 97.25C323.46 97.42 323.58 97.58 323.75 97.6L325.49 97.79C325.66 97.81 325.82 97.69 325.84 97.52L327.54 82.34C327.56 82.17 327.44 82.01 327.27 81.99L325.53 81.8C325.36 81.78 325.2 81.9 325.18 82.07Z" fill="#291B89"/>
<path d="M317.31 78.0001L307.6 89.8001C307.49 89.9301 307.51 90.1301 307.64 90.2401L309 91.3601C309.13 91.4701 309.33 91.4501 309.44 91.3201L319.15 79.5201C319.26 79.3901 319.24 79.1901 319.11 79.0801L317.75 77.9601C317.62 77.8501 317.42 77.8701 317.31 78.0001Z" fill="#291B89"/>
<path d="M312.94 70.3L298.37 74.89C298.21 74.94 298.12 75.12 298.16 75.28L298.69 76.96C298.74 77.12 298.92 77.21 299.08 77.17L313.65 72.58C313.81 72.53 313.9 72.35 313.86 72.19L313.33 70.51C313.28 70.35 313.1 70.26 312.94 70.3Z" fill="#291B89"/>
<path d="M298.36 57.5901L297.89 59.2801C297.84 59.4501 297.94 59.6201 298.11 59.6601L312.83 63.7601C313 63.8101 313.17 63.7101 313.21 63.5401L313.68 61.8501C313.73 61.6801 313.63 61.5101 313.46 61.4701L298.74 57.3701C298.57 57.3201 298.4 57.4201 298.36 57.5901Z" fill="#291B89"/>
<path d="M308.19 42.86L306.87 44.02C306.74 44.13 306.73 44.33 306.84 44.46L316.94 55.93C317.05 56.06 317.25 56.07 317.38 55.96L318.7 54.8C318.83 54.69 318.84 54.49 318.73 54.36L308.63 42.89C308.52 42.76 308.32 42.75 308.19 42.86Z" fill="#291B89"/>
<path d="M324.46 35.8601L322.72 36.1101C322.55 36.1401 322.43 36.2901 322.46 36.4601L324.67 51.5801C324.7 51.7501 324.85 51.8701 325.02 51.8401L326.76 51.5901C326.93 51.5601 327.05 51.4101 327.02 51.2401L324.81 36.1201C324.78 35.9501 324.63 35.8301 324.46 35.8601Z" fill="#291B89"/>
<path d="M339.9 38.3101L333.5 52.1901C333.43 52.3501 333.5 52.5301 333.65 52.6001L335.25 53.3401C335.41 53.4101 335.59 53.3401 335.66 53.1901L342.06 39.3101C342.13 39.1501 342.06 38.9701 341.91 38.9001L340.31 38.1601C340.15 38.0901 339.97 38.1601 339.9 38.3101Z" fill="#291B89"/>
<defs>
<linearGradient id="paint0_linear_1663_28752" x1="96.44" y1="134.82" x2="173.2" y2="134.82" gradientUnits="userSpaceOnUse">
<stop stop-color="#F9BA1D"/>
<stop offset="0.03" stop-color="#F8BE26"/>
<stop offset="0.09" stop-color="#F8C841"/>
<stop offset="0.16" stop-color="#F7DA6C"/>
<stop offset="0.24" stop-color="#F7F1A3"/>
<stop offset="0.29" stop-color="#F7EC96"/>
<stop offset="0.39" stop-color="#F7E074"/>
<stop offset="0.53" stop-color="#F9CD3E"/>
<stop offset="0.57" stop-color="#F8D34F"/>
<stop offset="0.8" stop-color="#F7F1A3"/>
<stop offset="0.83" stop-color="#F2E899"/>
<stop offset="0.87" stop-color="#E4D181"/>
<stop offset="0.93" stop-color="#CEAC58"/>
<stop offset="0.99" stop-color="#B07A21"/>
<stop offset="1" stop-color="#AC731A"/>
</linearGradient>
<linearGradient id="paint1_linear_1663_28752" x1="0" y1="134.81" x2="269.64" y2="134.81" gradientUnits="userSpaceOnUse">
<stop stop-color="#F9BA1D"/>
<stop offset="0.03" stop-color="#F8BE26"/>
<stop offset="0.09" stop-color="#F8C841"/>
<stop offset="0.16" stop-color="#F7DA6C"/>
<stop offset="0.24" stop-color="#F7F1A3"/>
<stop offset="0.29" stop-color="#F7EC96"/>
<stop offset="0.39" stop-color="#F7E074"/>
<stop offset="0.53" stop-color="#F9CD3E"/>
<stop offset="0.57" stop-color="#F8D34F"/>
<stop offset="0.8" stop-color="#F7F1A3"/>
<stop offset="0.83" stop-color="#F2E899"/>
<stop offset="0.87" stop-color="#E4D181"/>
<stop offset="0.93" stop-color="#CEAC58"/>
<stop offset="0.99" stop-color="#B07A21"/>
<stop offset="1" stop-color="#AC731A"/>
</linearGradient>
<linearGradient id="paint2_linear_1663_28752" x1="319.36" y1="59.08" x2="333.42" y2="71.05" gradientUnits="userSpaceOnUse">
<stop offset="0.42" stop-color="#F8B814"/>
<stop offset="1" stop-color="#F28705"/>
</linearGradient>
</defs>
</svg>
