<svg width="32" height="34" viewBox="0 0 32 34" fill="none" xmlns="http://www.w3.org/2000/svg">
<path d="M20.0478 29.5476C20.0478 29.9945 19.6851 30.3571 19.2382 30.3571H12.762C12.3152 30.3571 11.9525 29.9945 11.9525 29.5476C11.9525 29.1007 12.3152 28.738 12.762 28.738H19.2382C19.6851 28.7381 20.0478 29.1008 20.0478 29.5476ZM19.2382 30.7619H12.762C12.2293 30.7619 11.8169 31.2764 11.9942 31.8354C12.101 32.1725 12.4422 32.381 12.796 32.381H12.8082C13.2757 32.381 13.7031 32.6452 13.9124 33.0634L13.9209 33.0804C14.203 33.6438 14.779 34 15.4092 34H16.5911C17.2213 34 17.7973 33.6438 18.079 33.0804L18.0875 33.0634C18.2968 32.6453 18.7242 32.381 19.1917 32.381H19.2038C19.5576 32.381 19.8988 32.1725 20.0057 31.8354C20.1833 31.2764 19.7709 30.7619 19.2382 30.7619ZM16.0002 4.85714C16.447 4.85714 16.8097 4.49446 16.8097 4.04762V0.809524C16.8097 0.362679 16.447 0 16.0002 0C15.5532 0 15.1906 0.362679 15.1906 0.809524V4.04762C15.1906 4.49446 15.5532 4.85714 16.0002 4.85714ZM7.4139 7.93941C7.57176 8.09768 7.77902 8.17661 7.98622 8.17661C8.19349 8.17661 8.40069 8.09768 8.55855 7.93941C8.87468 7.62327 8.87468 7.11083 8.55855 6.79476L6.26884 4.505C5.95313 4.18887 5.43985 4.18887 5.1242 4.505C4.80807 4.82113 4.80807 5.33351 5.1242 5.64964L7.4139 7.93941ZM5.47628 15.381C5.47628 14.9341 5.11361 14.5714 4.66676 14.5714H1.42866C0.981819 14.5714 0.619141 14.9341 0.619141 15.381C0.619141 15.8278 0.981819 16.1905 1.42866 16.1905H4.66676C5.11366 16.1905 5.47628 15.8278 5.47628 15.381ZM7.4139 22.8225L5.1242 25.1123C4.80807 25.4284 4.80807 25.9408 5.1242 26.2569C5.28206 26.4152 5.48926 26.494 5.69652 26.494C5.90372 26.494 6.11099 26.4152 6.26884 26.2569L8.55855 23.9671C8.87468 23.651 8.87468 23.1386 8.55855 22.8225C8.24283 22.5064 7.72962 22.5064 7.4139 22.8225ZM24.5863 22.8225C24.2702 22.5064 23.7578 22.5064 23.4417 22.8225C23.1256 23.1386 23.1256 23.6511 23.4417 23.9671L25.7315 26.2569C25.8897 26.4152 26.0966 26.494 26.3038 26.494C26.511 26.494 26.7178 26.4152 26.8761 26.2569C27.1922 25.9408 27.1922 25.4283 26.8761 25.1123L24.5863 22.8225ZM30.5715 14.5714H27.3334C26.8866 14.5714 26.5239 14.9341 26.5239 15.381C26.5239 15.8278 26.8866 16.1905 27.3334 16.1905H30.5715C31.0184 16.1905 31.381 15.8278 31.381 15.381C31.381 14.9341 31.0184 14.5714 30.5715 14.5714ZM24.014 8.17661C24.2212 8.17661 24.428 8.09768 24.5863 7.93941L26.876 5.64964C27.1922 5.33351 27.1922 4.82113 26.876 4.505C26.5599 4.18887 26.0475 4.18887 25.7314 4.505L23.4416 6.79476C23.1255 7.11089 23.1255 7.62327 23.4416 7.93941C23.5996 8.09768 23.8068 8.17661 24.014 8.17661ZM20.0478 27.5238C20.0478 27.9707 19.6851 28.3333 19.2382 28.3333H12.762C12.3152 28.3333 11.9525 27.9707 11.9525 27.5238C11.9525 27.0927 12.2905 26.7435 12.7155 26.7191C12.2115 22.1639 7.50009 21.1492 7.50009 15.7857C7.50009 11.0913 11.3057 7.28571 16.0001 7.28571C20.6945 7.28571 24.5001 11.0913 24.5001 15.7857C24.5001 21.1492 19.7887 22.1639 19.2847 26.7192C19.7097 26.7435 20.0478 27.0927 20.0478 27.5238ZM14.1346 9.55643C14.0087 9.24595 13.6553 9.09661 13.3437 9.22167C11.2749 10.0599 9.70652 11.8518 9.14831 14.0148C9.0645 14.3398 9.26003 14.6705 9.58468 14.7543C9.63527 14.7677 9.68628 14.7738 9.73646 14.7738C10.0068 14.7738 10.2534 14.592 10.3242 14.3184C10.7865 12.5261 12.0857 11.0414 13.7995 10.3473C14.1103 10.2215 14.26 9.86768 14.1346 9.55643Z" fill="#6340FF"/>
</svg>
