<svg width="34" height="34" viewBox="0 0 34 34" fill="none" xmlns="http://www.w3.org/2000/svg">
<rect width="34" height="34" rx="17" fill="#7077FE"/>
<path d="M20.75 23.9875L19.1312 22.3687L18.25 23.25L20.75 25.75L25.75 20.75L24.8687 19.8687L20.75 23.9875ZM12.625 17.625H17V18.875H12.625V17.625ZM12.625 14.5H20.125V15.75H12.625V14.5ZM12.625 11.375H20.125V12.625H12.625V11.375Z" fill="white"/>
<path d="M17 25.75H10.75C10.0606 25.75 9.5 25.1894 9.5 24.5V9.5C9.5 8.81062 10.0606 8.25 10.75 8.25H22C22.6894 8.25 23.25 8.81062 23.25 9.5V18.875H22V9.5H10.75V24.5H17V25.75Z" fill="white"/>
</svg>
