<svg width="20" height="20" viewBox="0 0 20 20" fill="none" xmlns="http://www.w3.org/2000/svg">
<path d="M9.375 6.53906C8.595 6.7524 8.125 7.35156 8.125 7.91656C8.125 8.48156 8.595 9.08073 9.375 9.29323V6.53906ZM10.625 10.7066V13.4599C11.405 13.2474 11.875 12.6482 11.875 12.0832C11.875 11.5182 11.405 10.9191 10.625 10.7066Z" fill="white"/>
<path fill-rule="evenodd" clip-rule="evenodd" d="M18.3307 10.0003C18.3307 14.6028 14.5999 18.3337 9.9974 18.3337C5.3949 18.3337 1.66406 14.6028 1.66406 10.0003C1.66406 5.39783 5.3949 1.66699 9.9974 1.66699C14.5999 1.66699 18.3307 5.39783 18.3307 10.0003ZM9.9974 4.37533C10.1632 4.37533 10.3221 4.44117 10.4393 4.55838C10.5565 4.67559 10.6224 4.83457 10.6224 5.00033V5.26449C11.9807 5.50783 13.1224 6.52866 13.1224 7.91699C13.1224 8.08275 13.0565 8.24172 12.9393 8.35893C12.8221 8.47614 12.6632 8.54199 12.4974 8.54199C12.3316 8.54199 12.1727 8.47614 12.0555 8.35893C11.9382 8.24172 11.8724 8.08275 11.8724 7.91699C11.8724 7.35199 11.4024 6.75283 10.6224 6.53949V9.43116C11.9807 9.67449 13.1224 10.6953 13.1224 12.0837C13.1224 13.472 11.9807 14.4928 10.6224 14.7362V15.0003C10.6224 15.1661 10.5565 15.3251 10.4393 15.4423C10.3221 15.5595 10.1632 15.6253 9.9974 15.6253C9.83164 15.6253 9.67266 15.5595 9.55545 15.4423C9.43824 15.3251 9.3724 15.1661 9.3724 15.0003V14.7362C8.01406 14.4928 6.8724 13.472 6.8724 12.0837C6.8724 11.9179 6.93824 11.7589 7.05545 11.6417C7.17266 11.5245 7.33164 11.4587 7.4974 11.4587C7.66316 11.4587 7.82213 11.5245 7.93934 11.6417C8.05655 11.7589 8.1224 11.9179 8.1224 12.0837C8.1224 12.6487 8.5924 13.2478 9.3724 13.4603V10.5695C8.01406 10.3262 6.8724 9.30533 6.8724 7.91699C6.8724 6.52866 8.01406 5.50783 9.3724 5.26449V5.00033C9.3724 4.83457 9.43824 4.67559 9.55545 4.55838C9.67266 4.44117 9.83164 4.37533 9.9974 4.37533Z" fill="#3D9A7D"/>
</svg>
