<svg width="32" height="32" viewBox="0 0 32 32" fill="none" xmlns="http://www.w3.org/2000/svg">
<rect width="32" height="32" rx="16" fill="#F9CD3E"/>
<path fill-rule="evenodd" clip-rule="evenodd" d="M9.46505 20.4366C9.40162 20.6206 9.43705 20.8246 9.5582 20.9771C11.0119 22.8063 13.3553 24 15.9999 24C18.6445 24 20.9879 22.8063 22.4416 20.9771C22.5628 20.8246 22.5976 20.6206 22.5348 20.4366C21.6559 17.8737 19.0662 16 15.9999 16C12.9336 16 10.3439 17.8737 9.46505 20.4366Z" fill="white"/>
<path d="M15.9999 14.8571C17.8934 14.8571 19.4284 13.3221 19.4284 11.4286C19.4284 9.53502 17.8934 8 15.9999 8C14.1063 8 12.5713 9.53502 12.5713 11.4286C12.5713 13.3221 14.1063 14.8571 15.9999 14.8571Z" fill="white"/>
</svg>
