<svg width="35" height="36" viewBox="0 0 35 36" fill="none" xmlns="http://www.w3.org/2000/svg">
<rect x="0.5" y="1.30469" width="34" height="34" rx="17" fill="#6ACFAD"/>
<rect x="0.5" y="1.30469" width="34" height="34" rx="17" stroke="white"/>
<g clip-path="url(#clip0_2579_1072)">
<path d="M12.0209 19.1182L12.0021 18.9848L13.6272 19.4586C13.7784 19.5029 13.9182 19.3614 13.8721 19.2107L12.4899 14.6966C12.448 14.5596 12.279 14.5112 12.1709 14.6051L8.60657 17.7009C8.48782 17.804 8.53103 17.9978 8.68234 18.0407L9.24495 18.2007L10.3767 18.527L10.3803 18.6412C10.5225 22.3866 13.6951 25.4295 17.5003 25.4295C19.2425 25.4295 20.6802 24.8292 21.7408 24.0323L21.8216 23.9702L21.9108 23.8982C21.9935 23.8325 22.0101 23.7134 21.9484 23.6277L21.2865 22.6932C21.2777 22.681 21.2692 22.6694 21.2611 22.6582C21.1971 22.5707 21.0746 22.5509 20.9863 22.6139L20.7856 22.7635C20.6851 22.8381 20.5934 22.9031 20.4935 22.9691C20.221 23.1491 19.9316 23.3067 19.6079 23.4407C18.9805 23.7003 18.2827 23.8461 17.5003 23.8461C14.8739 23.8461 12.4594 21.9715 12.0209 19.1182Z" fill="white"/>
<path d="M22.9913 17.4799L23.0104 17.6132L21.385 17.1394C21.2338 17.0951 21.094 17.2366 21.1401 17.3873L22.5223 21.9015C22.5642 22.0384 22.7332 22.0869 22.8413 21.9929L26.4056 18.8971C26.5244 18.794 26.4812 18.6002 26.3299 18.5573L25.7673 18.3973L24.6354 18.071L24.632 17.9568C24.4897 14.2115 21.3171 11.1685 17.5119 11.1685C16.5828 11.1685 15.7068 11.3503 14.8943 11.6708C14.4109 11.8614 13.9782 12.0899 13.5995 12.3366C13.4984 12.4025 13.4062 12.4664 13.3224 12.5279L13.2019 12.6191L13.1014 12.6998C13.0187 12.7655 13.0021 12.8846 13.0638 12.9704L13.7511 13.9398C13.8151 14.0273 13.9376 14.0471 14.0259 13.9841L14.2267 13.8345C14.3271 13.7599 14.4188 13.6949 14.5187 13.6289C14.7912 13.4489 15.0806 13.2913 15.4043 13.1574C16.0317 12.8977 16.7295 12.7519 17.5119 12.7519C20.1383 12.7519 22.5528 14.6266 22.9913 17.4799Z" fill="white"/>
</g>
<defs>
<clipPath id="clip0_2579_1072">
<rect width="19" height="19" fill="white" transform="translate(8 8.80469)"/>
</clipPath>
</defs>
</svg>
