<svg width="13" height="13" viewBox="0 0 13 13" fill="none" xmlns="http://www.w3.org/2000/svg">
<g clip-path="url(#clip0_35_2056)">
<path d="M6.54199 0.919434C3.49199 0.919434 1.04199 3.36943 1.04199 6.41943C1.04199 9.46943 3.49199 11.9194 6.54199 11.9194C9.59199 11.9194 12.042 9.46943 12.042 6.41943C12.042 3.36943 9.59199 0.919434 6.54199 0.919434ZM9.89199 7.31943C9.84199 7.51943 9.64199 7.61943 9.44199 7.56943L6.64199 7.01943C6.54199 7.01943 6.44199 6.91943 6.34199 6.86943C6.14199 6.76943 6.04199 6.61943 6.04199 6.41943L6.14199 2.41943C6.14199 2.16943 6.34199 2.01943 6.54199 2.01943C6.74199 2.01943 6.94199 2.21943 6.94199 2.41943L6.99199 5.86943L9.59199 6.76943C9.84199 6.81943 9.94199 7.06943 9.89199 7.31943Z" fill="white"/>
</g>
<defs>
<clipPath id="clip0_35_2056">
<rect width="12" height="12" fill="white" transform="translate(0.666992 0.419434)"/>
</clipPath>
</defs>
</svg>
