<svg width="32" height="32" viewBox="0 0 32 32" fill="none" xmlns="http://www.w3.org/2000/svg">
<rect width="32" height="32" rx="16" fill="#F97316" fill-opacity="0.2"/>
<g clip-path="url(#clip0_13_4694)">
<path d="M18.3335 22.4167C18.3335 22.7387 18.0727 23 17.7502 23H12.5002C10.8919 23 9.5835 21.6916 9.5835 20.0833V11.9167C9.5835 10.3084 10.8919 9 12.5002 9H15.1339C16.2242 9 17.2497 9.42467 18.0214 10.1958L20.0537 12.2293C20.2118 12.3874 20.3588 12.5607 20.4901 12.7444C20.6773 13.0063 20.6167 13.3709 20.3547 13.5582C20.0928 13.7448 19.7277 13.6847 19.541 13.4222C19.4471 13.291 19.3421 13.1667 19.2295 13.0547L17.1966 11.0212C17.0111 10.8357 16.8052 10.6788 16.5835 10.5517V13.0833C16.5835 13.4047 16.8448 13.6667 17.1668 13.6667H18.9168C19.2394 13.6667 19.5002 13.928 19.5002 14.25C19.5002 14.572 19.2394 14.8333 18.9168 14.8333H17.1668C16.202 14.8333 15.4168 14.0482 15.4168 13.0833V10.1801C15.3235 10.1713 15.229 10.1667 15.1339 10.1667H12.5002C11.5353 10.1667 10.7502 10.9518 10.7502 11.9167V20.0833C10.7502 21.0482 11.5353 21.8333 12.5002 21.8333H17.7502C18.0727 21.8333 18.3335 22.0947 18.3335 22.4167ZM21.6497 18.4891L19.8758 18.1933C19.6582 18.1572 19.5002 17.9705 19.5002 17.75C19.5002 17.4286 19.7615 17.1667 20.0835 17.1667H21.4065C21.6142 17.1667 21.8078 17.2787 21.9122 17.4583C22.0727 17.7372 22.4285 17.8322 22.7091 17.6712C22.9879 17.5097 23.0836 17.1532 22.9214 16.8744C22.6099 16.3348 22.0289 15.9994 21.4059 15.9994H21.2496V15.4161C21.2496 15.0941 20.9888 14.8327 20.6662 14.8327C20.3437 14.8327 20.0829 15.0941 20.0829 15.4161V15.9994C19.1181 15.9994 18.3329 16.7846 18.3329 17.7494C18.3329 18.5427 18.9011 19.2136 19.6833 19.3437L21.4572 19.6394C21.6748 19.6756 21.8329 19.8623 21.8329 20.0828C21.8329 20.4042 21.5716 20.6661 21.2496 20.6661H19.9266C19.7189 20.6661 19.5252 20.5541 19.4208 20.3744C19.2604 20.095 18.904 19.9999 18.624 20.1615C18.3452 20.3231 18.2495 20.6795 18.4117 20.9583C18.7232 21.4979 19.3042 21.8328 19.9272 21.8328H20.0835V22.4161C20.0835 22.7381 20.3442 22.9994 20.6668 22.9994C20.9894 22.9994 21.2502 22.7381 21.2502 22.4161V21.8328C22.215 21.8328 23.0002 21.0476 23.0002 20.0828C23.0002 19.2894 22.432 18.6192 21.6497 18.4891ZM13.3752 17.75H16.5835C16.9061 17.75 17.1668 17.4887 17.1668 17.1667C17.1668 16.8447 16.9061 16.5833 16.5835 16.5833H13.3752C12.5713 16.5833 11.9168 17.2378 11.9168 18.0417V19.2083C11.9168 20.0122 12.5713 20.6667 13.3752 20.6667H16.5835C16.9061 20.6667 17.1668 20.4053 17.1668 20.0833C17.1668 19.7613 16.9061 19.5 16.5835 19.5H13.3752C13.2142 19.5 13.0835 19.3693 13.0835 19.2083V18.0417C13.0835 17.8807 13.2142 17.75 13.3752 17.75ZM12.5002 15.4167H13.6668C13.9888 15.4167 14.2502 15.1553 14.2502 14.8333C14.2502 14.5113 13.9888 14.25 13.6668 14.25H12.5002C12.1782 14.25 11.9168 14.5113 11.9168 14.8333C11.9168 15.1553 12.1782 15.4167 12.5002 15.4167ZM12.5002 13.0833H13.6668C13.9888 13.0833 14.2502 12.822 14.2502 12.5C14.2502 12.178 13.9888 11.9167 13.6668 11.9167H12.5002C12.1782 11.9167 11.9168 12.178 11.9168 12.5C11.9168 12.822 12.1782 13.0833 12.5002 13.0833Z" fill="#F97316"/>
</g>
<defs>
<clipPath id="clip0_13_4694">
<rect width="14" height="14" fill="white" transform="translate(9 9)"/>
</clipPath>
</defs>
</svg>
