<svg width="20" height="20" viewBox="0 0 20 20" fill="none" xmlns="http://www.w3.org/2000/svg">
<path d="M13.9381 6.82143H10.7625L11.3766 3.13762C11.3949 3.0284 11.3891 2.91651 11.3597 2.80974C11.3303 2.70297 11.278 2.60389 11.2065 2.5194C11.1349 2.43491 11.0457 2.36704 10.9452 2.32051C10.8448 2.27398 10.7353 2.24992 10.6246 2.25H6.69926C6.51902 2.25005 6.34464 2.314 6.2071 2.43048C6.06955 2.54696 5.97776 2.70842 5.94802 2.88619L4.67792 10.5052C4.65966 10.6144 4.6654 10.7262 4.69474 10.8329C4.72408 10.9396 4.77632 11.0387 4.84781 11.1232C4.91931 11.2076 5.00836 11.2755 5.10875 11.3221C5.20915 11.3687 5.31849 11.3928 5.42916 11.3929H8.47678V17.4881L14.5796 7.99552C14.6537 7.88038 14.6954 7.74741 14.7003 7.61059C14.7052 7.47376 14.6731 7.33815 14.6075 7.21801C14.5418 7.09786 14.445 6.99763 14.3272 6.92784C14.2094 6.85805 14.075 6.8213 13.9381 6.82143Z" fill="#C484CD"/>
</svg>
