<svg width="20" height="20" viewBox="0 0 20 20" fill="none" xmlns="http://www.w3.org/2000/svg">
<g clip-path="url(#clip0_13_4685)">
<path fill-rule="evenodd" clip-rule="evenodd" d="M12.8156 4.83605C12.8156 3.07261 14.2452 1.64307 16.0086 1.64307C17.772 1.64307 19.2015 3.07261 19.2015 4.83605C19.2015 6.59949 17.772 8.02903 16.0086 8.02903C15.0476 8.02903 14.1857 7.60445 13.6003 6.93264L7.95592 9.75484C8.00191 9.97052 8.0261 10.1944 8.0261 10.4238C8.0261 10.6532 8.00191 10.877 7.95592 11.0927L13.6003 13.9149C14.1857 13.2431 15.0476 12.8185 16.0086 12.8185C17.772 12.8185 19.2015 14.2481 19.2015 16.0115C19.2015 17.7749 17.772 19.2045 16.0086 19.2045C14.2452 19.2045 12.8156 17.7749 12.8156 16.0115C12.8156 15.7821 12.8398 15.5582 12.8857 15.3426L7.24138 12.5204C6.65602 13.1922 5.79415 13.6168 4.83312 13.6168C3.06968 13.6168 1.64014 12.1872 1.64014 10.4238C1.64014 8.66033 3.06968 7.23079 4.83312 7.23079C5.79415 7.23079 6.65602 7.65536 7.24138 8.32718L12.8857 5.50499C12.8398 5.28927 12.8156 5.06548 12.8156 4.83605ZM16.0086 3.23956C15.1268 3.23956 14.4121 3.95433 14.4121 4.83605C14.4121 5.71777 15.1268 6.43254 16.0086 6.43254C16.8903 6.43254 17.6051 5.71777 17.6051 4.83605C17.6051 3.95433 16.8903 3.23956 16.0086 3.23956ZM4.83312 8.82728C3.9514 8.82728 3.23663 9.54203 3.23663 10.4238C3.23663 11.3055 3.9514 12.0203 4.83312 12.0203C5.71484 12.0203 6.42961 11.3055 6.42961 10.4238C6.42961 9.54203 5.71484 8.82728 4.83312 8.82728ZM16.0086 14.415C15.1268 14.415 14.4121 15.1297 14.4121 16.0115C14.4121 16.8932 15.1268 17.608 16.0086 17.608C16.8903 17.608 17.6051 16.8932 17.6051 16.0115C17.6051 15.1297 16.8903 14.415 16.0086 14.415Z" fill="#242424"/>
</g>
<defs>
<clipPath id="clip0_13_4685">
<rect width="19.1579" height="19.1579" fill="white" transform="translate(0.842285 0.842041)"/>
</clipPath>
</defs>
</svg>
