<svg width="40" height="41" viewBox="0 0 40 41" fill="none" xmlns="http://www.w3.org/2000/svg">
<g opacity="0.3" clip-path="url(#clip0_128_5219)">
<path fill-rule="evenodd" clip-rule="evenodd" d="M16.2752 2.16543L14.5827 3.40793C14.2845 3.64581 13.9686 3.8606 13.6377 4.05043C13.4148 4.16888 13.1813 4.26598 12.9402 4.34043C12.6677 4.42293 12.3852 4.46543 11.8177 4.55293L9.74268 4.87043C8.10518 5.12043 7.28518 5.24793 6.64268 5.63043C6.06768 5.96793 5.59018 6.44793 5.25018 7.02293C4.86768 7.67293 4.74268 8.49293 4.49018 10.1229L4.17268 12.1979C4.08518 12.7654 4.04268 13.0504 3.96018 13.3229C3.88518 13.5646 3.78851 13.7963 3.67018 14.0179C3.53518 14.2679 3.36768 14.5004 3.02768 14.9629L1.78518 16.6554C0.805177 17.9904 0.315177 18.6579 0.125177 19.3804C-0.0386331 20.026 -0.0386331 20.7023 0.125177 21.3479C0.312677 22.0779 0.805177 22.7479 1.78518 24.0729L3.02768 25.7654C3.36768 26.2279 3.53768 26.4604 3.67018 26.7104C3.78684 26.9338 3.88351 27.1671 3.96018 27.4104C4.04268 27.6804 4.08518 27.9629 4.17268 28.5304L4.49018 30.6054C4.74018 32.2429 4.86768 33.0604 5.25018 33.7054C5.58768 34.2804 6.06768 34.7604 6.64268 35.0979C7.29268 35.4804 8.11268 35.6054 9.74268 35.8579L11.8177 36.1754C12.3852 36.2629 12.6702 36.3079 12.9402 36.3904C13.1818 36.4638 13.4143 36.5604 13.6377 36.6804C13.8877 36.8129 14.1202 36.9804 14.5827 37.3229L16.2752 38.5654C17.6102 39.5454 18.2777 40.0354 19.0002 40.2254C19.6452 40.3929 20.3227 40.3929 20.9677 40.2254C21.6977 40.0354 22.3677 39.5454 23.6927 38.5654L25.3852 37.3229C25.8477 36.9829 26.0802 36.8129 26.3302 36.6804C26.5535 36.5604 26.786 36.4638 27.0277 36.3904C27.3002 36.3079 27.5827 36.2654 28.1502 36.1754L30.2252 35.8579C31.8627 35.6079 32.6802 35.4829 33.3252 35.0979C33.9002 34.7604 34.3802 34.2804 34.7177 33.7054C35.1002 33.0554 35.2252 32.2354 35.4777 30.6054L35.7952 28.5304C35.8827 27.9629 35.9252 27.6804 36.0077 27.4079C36.0827 27.1663 36.1793 26.9338 36.2977 26.7104C36.4327 26.4604 36.6002 26.2279 36.9402 25.7654L38.1827 24.0729C39.1627 22.7379 39.6527 22.0729 39.8427 21.3479C40.0065 20.7023 40.0065 20.026 39.8427 19.3804C39.6552 18.6504 39.1627 17.9804 38.1827 16.6554L36.9402 14.9629C36.7023 14.6647 36.4875 14.3488 36.2977 14.0179C36.1792 13.7951 36.0821 13.5616 36.0077 13.3204C35.9084 12.9522 35.8374 12.577 35.7952 12.1979L35.4777 10.1229C35.2277 8.48543 35.1002 7.66543 34.7177 7.02293C34.3768 6.44997 33.8981 5.97129 33.3252 5.63043C32.6752 5.24793 31.8552 5.12293 30.2252 4.87043L28.1502 4.55293C27.7712 4.51074 27.3959 4.4397 27.0277 4.34043C26.786 4.26748 26.5523 4.17032 26.3302 4.05043C25.9993 3.8606 25.6834 3.64581 25.3852 3.40793L23.6927 2.16543C22.3577 1.18543 21.6902 0.695426 20.9677 0.505426C20.3221 0.341616 19.6458 0.341616 19.0002 0.505426C18.2702 0.695426 17.6002 1.18543 16.2752 2.16543ZM29.6002 15.6904C29.7449 15.5139 29.8527 15.3102 29.9173 15.0914C29.9819 14.8725 30.002 14.6429 29.9764 14.4161C29.9507 14.1893 29.8799 13.97 29.768 13.7711C29.6562 13.5722 29.5056 13.3977 29.3252 13.2579C28.9582 12.9708 28.4935 12.8383 28.0303 12.8888C27.567 12.9392 27.1418 13.1685 26.8452 13.5279L18.5702 23.6779L14.1452 20.2779C13.7837 19.9837 13.3216 19.8424 12.8574 19.8839C12.3932 19.9255 11.9636 20.1467 11.6602 20.5004C11.5119 20.6739 11.3999 20.8753 11.3309 21.0928C11.2618 21.3103 11.237 21.5395 11.258 21.7667C11.2789 21.9939 11.3453 22.2146 11.453 22.4158C11.5607 22.617 11.7077 22.7945 11.8852 22.9379L17.6852 27.4629C18.0514 27.7609 18.5207 27.9018 18.9905 27.8549C19.4603 27.8081 19.8925 27.5773 20.1927 27.2129L29.5927 15.6629L29.6002 15.6904Z" fill="#B5B5B5"/>
</g>
<defs>
<clipPath id="clip0_128_5219">
<rect width="40" height="40" fill="white" transform="translate(0 0.380371)"/>
</clipPath>
</defs>
</svg>
