<svg width="8" height="11" viewBox="0 0 8 11" fill="none" xmlns="http://www.w3.org/2000/svg">
<path d="M2.64258 9.5H5.64258V10.5H2.64258V9.5ZM6.59558 6.356C7.11058 5.753 7.64258 5.1295 7.64258 4C7.64258 2.0705 6.07208 0.5 4.14258 0.5C2.21308 0.5 0.642578 2.0705 0.642578 4C0.642578 5.1425 1.17608 5.764 1.69308 6.365C1.87208 6.574 2.05758 6.7905 2.23508 7.0395C2.30708 7.1425 2.42508 7.5375 2.53058 8H2.13458V9H6.15058V8H5.75558C5.86208 7.5365 5.98058 7.1405 6.05208 7.0375C6.22808 6.786 6.41508 6.5675 6.59558 6.356Z" fill="#FFCC00"/>
</svg>
