<svg width="34" height="34" viewBox="0 0 34 34" fill="none" xmlns="http://www.w3.org/2000/svg">
<path d="M17 29.75L28.5189 23.7887C28.9666 23.5564 29.1904 23.4416 29.3533 23.2702C29.4976 23.1198 29.607 22.9393 29.6735 22.7418C29.75 22.5165 29.75 22.2658 29.75 21.7614V10.6718M17 29.75L5.48108 23.7887C5.03342 23.5564 4.80958 23.4416 4.64667 23.2702C4.50237 23.1198 4.39305 22.9393 4.3265 22.7418C4.25 22.5165 4.25 22.2644 4.25 21.7586V10.6718M17 29.75V16.9108M29.75 10.6718L17 16.9108M29.75 10.6718L18.0342 4.60845C17.6559 4.41295 17.4675 4.31378 17.2677 4.27553C17.0909 4.24149 16.9091 4.24149 16.7322 4.27553C16.5339 4.31378 16.3441 4.41295 15.9644 4.60845L4.25 10.6718M4.25 10.6718L17 16.9108" stroke="#B5BBC2" stroke-width="2.125" stroke-linecap="round" stroke-linejoin="round"/>
</svg>
