<svg width="33" height="32" viewBox="0 0 33 32" fill="none" xmlns="http://www.w3.org/2000/svg">
<rect x="0.5" width="32" height="32" rx="16" fill="#60C750" fill-opacity="0.2"/>
<path d="M22.5002 10.6667H10.5002C10.3234 10.6667 10.1538 10.737 10.0288 10.862C9.90373 10.987 9.8335 11.1566 9.8335 11.3334V20.6667C9.8335 20.8436 9.90373 21.0131 10.0288 21.1382C10.1538 21.2632 10.3234 21.3334 10.5002 21.3334H22.5002C22.677 21.3334 22.8465 21.2632 22.9716 21.1382C23.0966 21.0131 23.1668 20.8436 23.1668 20.6667V11.3334C23.1668 11.1566 23.0966 10.987 22.9716 10.862C22.8465 10.737 22.677 10.6667 22.5002 10.6667ZM21.8335 18.0001C21.3031 18.0001 20.7944 18.2108 20.4193 18.5859C20.0442 18.9609 19.8335 19.4696 19.8335 20.0001H13.1668C13.1668 19.4696 12.9561 18.9609 12.581 18.5859C12.206 18.2108 11.6973 18.0001 11.1668 18.0001V14.0001C11.6973 14.0001 12.206 13.7894 12.581 13.4143C12.9561 13.0392 13.1668 12.5305 13.1668 12.0001H19.8335C19.8335 12.5305 20.0442 13.0392 20.4193 13.4143C20.7944 13.7894 21.3031 14.0001 21.8335 14.0001V18.0001Z" fill="#60C750"/>
<path d="M16.5002 13.3333C15.0295 13.3333 13.8335 14.5293 13.8335 15.9999C13.8335 17.4706 15.0295 18.6666 16.5002 18.6666C17.9708 18.6666 19.1668 17.4706 19.1668 15.9999C19.1668 14.5293 17.9708 13.3333 16.5002 13.3333ZM16.5002 17.3333C15.7648 17.3333 15.1668 16.7353 15.1668 15.9999C15.1668 15.2646 15.7648 14.6666 16.5002 14.6666C17.2355 14.6666 17.8335 15.2646 17.8335 15.9999C17.8335 16.7353 17.2355 17.3333 16.5002 17.3333Z" fill="#60C750"/>
</svg>
