<svg width="16" height="17" viewBox="0 0 16 17" fill="none" xmlns="http://www.w3.org/2000/svg">
<g clip-path="url(#clip0_1678_8243)">
<path d="M8.03223 0.369141C3.61389 0.369141 0.0322266 3.95081 0.0322266 8.36914C0.0322266 12.7875 3.61389 16.3691 8.03223 16.3691C12.4506 16.3691 16.0322 12.7875 16.0322 8.36914C16.0322 3.95081 12.4506 0.369141 8.03223 0.369141ZM8.00056 15.0385C4.31856 15.0385 1.33389 12.0538 1.33389 8.37181C1.33389 4.68981 4.31856 1.70514 8.00056 1.70514C11.6826 1.70514 14.6672 4.68981 14.6672 8.37181C14.6672 12.0538 11.6826 15.0385 8.00056 15.0385Z" fill="#FFCC00"/>
<path d="M12.045 8.07741L9.07698 5.63108C8.42065 5.09041 8.41532 5.94074 8.41532 5.94074V6.44907C8.38932 6.63974 8.25165 6.93907 7.63998 6.93907H4.67465H4.39232C4.39232 6.93907 3.76465 6.91374 3.76465 7.57708V7.78174V8.79274V8.95241C3.78132 9.18208 3.90965 9.66908 4.70198 9.66908H7.85498C8.43632 9.66908 8.41565 9.23274 8.41565 9.23274V9.20741C8.41565 8.86174 8.06932 8.80141 7.89532 8.79274H5.25798C4.78965 8.79274 4.69165 8.56474 4.67465 8.42008V8.24041C4.67465 7.86208 4.95665 7.79174 5.11465 7.78174H8.41532H8.51198C9.04765 7.78174 9.21632 7.49274 9.26865 7.27974H9.26932C9.26932 7.27974 9.32198 6.98141 9.61698 7.22408L10.759 8.16508C10.759 8.16508 10.762 8.16774 10.763 8.16808L10.7796 8.18208C10.861 8.25141 11.1443 8.53308 10.7596 8.80441L9.82732 9.46074L9.82065 9.46541L9.29165 9.83774V9.82674L8.85165 10.1274C8.41198 10.4287 8.41532 10.9261 8.41532 10.9261V11.0401C8.41532 11.0401 8.46898 11.4841 8.90132 11.1807L12.045 8.96808L12.0453 8.96774C12.6183 8.56441 12.0463 8.07841 12.045 8.07741Z" fill="#FFCC00"/>
</g>
<defs>
<clipPath id="clip0_1678_8243">
<rect width="16" height="16" fill="white" transform="translate(0 0.369141)"/>
</clipPath>
</defs>
</svg>
