<svg width="40" height="40" viewBox="0 0 40 40" fill="none" xmlns="http://www.w3.org/2000/svg">
<path d="M26.0833 15.6167C26.9295 15.3505 27.8371 15.3505 28.6833 15.6167C29.245 15.795 29.7066 16.1067 30.145 16.475C30.5633 16.825 31.035 17.2917 31.5916 17.8417L31.6266 17.875L33.5566 19.7833L33.6066 19.8333C33.7966 20.02 34.0233 20.2417 34.19 20.5117C34.3366 20.745 34.445 21.005 34.5116 21.275C34.577 21.5883 34.6011 21.9088 34.5833 22.2283C34.5733 24.5283 34.5266 26.1816 33.8 27.5433C33.1007 28.8366 32.012 29.8769 30.6883 30.5166C29.8633 30.9166 28.965 31.0883 27.9166 31.17C26.8933 31.25 25.625 31.25 24.0333 31.25H19.25C17.6566 31.25 16.3883 31.25 15.3666 31.17C14.3166 31.0883 13.42 30.9166 12.5933 30.5166C11.2702 29.8766 10.1821 28.8363 9.48329 27.5433C9.03829 26.71 8.85829 25.8 8.77496 24.745L8.76996 24.69C8.7387 24.414 8.74206 24.1352 8.77996 23.86C8.82329 23.5933 8.91829 23.3133 9.04329 23.075C9.18996 22.7933 9.39329 22.565 9.55996 22.3717L9.60329 22.3216L9.69496 22.2183L9.72996 22.1783C10.3166 21.5067 10.81 20.9416 11.25 20.5183C11.7083 20.0767 12.2 19.6983 12.8133 19.485C13.73 19.1683 14.7265 19.1683 15.6433 19.485C16.2566 19.6983 16.7483 20.0767 17.2083 20.5183C17.6483 20.9416 18.1416 21.5067 18.7266 22.1783L18.7533 22.2083H18.7566L23.1733 17.8417C23.7316 17.2917 24.2016 16.825 24.62 16.475C25.06 16.1083 25.5216 15.795 26.0816 15.6183M27.9266 18.0016C27.5722 17.8915 27.1927 17.8915 26.8383 18.0016C26.7166 18.0416 26.5433 18.1267 26.2266 18.3933C25.8966 18.67 25.4983 19.0616 24.8966 19.6566L20.5066 23.995C19.495 24.995 17.82 24.94 16.88 23.865C16.2483 23.1417 15.8266 22.66 15.475 22.3216C15.1316 21.9933 14.9466 21.8883 14.82 21.8466C14.4364 21.7159 14.0202 21.7159 13.6366 21.8466C13.5116 21.89 13.325 21.9933 12.9833 22.3216C12.63 22.6616 12.2083 23.1417 11.5766 23.865L11.4866 23.97C11.4075 24.0589 11.3302 24.1495 11.255 24.2417L11.2516 24.2533L11.2483 24.2633V24.28L11.2533 24.375L11.2666 24.55C11.3383 25.45 11.475 25.9667 11.6883 26.3666C12.1216 27.1766 12.8166 27.8467 13.6883 28.27C14.1116 28.4767 14.6583 28.61 15.56 28.68C16.475 28.7516 17.645 28.7516 19.3016 28.7516H23.9783C25.6366 28.7516 26.8066 28.7516 27.7216 28.68C28.6233 28.6083 29.17 28.4767 29.595 28.27C30.4633 27.8467 31.1616 27.1766 31.5933 26.3666C31.9733 25.655 32.0716 24.6767 32.0816 22.22C32.0826 22.0989 32.0809 21.9777 32.0766 21.8567L32.07 21.8416L32.0416 21.81C31.9622 21.7261 31.8811 21.6438 31.7983 21.5633L29.8683 19.6566C29.2666 19.0616 28.8683 18.67 28.5383 18.3933C28.2216 18.1267 28.0483 18.0416 27.9266 18.0016Z" fill="#7077FE"/>
<path d="M19.2783 5.41669H24.055C25.6417 5.41669 26.91 5.41669 27.9333 5.50002C28.9833 5.58669 29.8867 5.76669 30.7167 6.18835C32.0495 6.86784 33.1329 7.95186 33.8117 9.28502C34.2333 10.1134 34.4133 11.0184 34.5 12.0684C34.5833 13.09 34.5833 14.3584 34.5833 15.945V20.7217C34.5833 22.3084 34.5833 23.5767 34.5 24.6C34.4133 25.65 34.2333 26.5534 33.8117 27.3834C33.1326 28.7159 32.0492 29.7993 30.7167 30.4784C29.8867 30.9 28.9833 31.08 27.9333 31.1667C26.91 31.25 25.6417 31.25 24.055 31.25H19.2783C17.6917 31.25 16.4233 31.25 15.4 31.1667C14.35 31.08 13.4467 30.9 12.6167 30.4784C11.2841 29.7993 10.2007 28.7159 9.52167 27.3834C9.1 26.5534 8.92 25.65 8.83333 24.6C8.75 23.5767 8.75 22.3084 8.75 20.7217V15.945C8.75 14.3584 8.75 13.09 8.83333 12.0667C8.92 11.0167 9.1 10.1134 9.52167 9.28335C10.2012 7.95056 11.2852 6.86713 12.6183 6.18835C13.4467 5.76669 14.3517 5.58669 15.4017 5.50002C16.4233 5.41669 17.6917 5.41669 19.2783 5.41669ZM15.6033 7.99169C14.7083 8.06502 14.17 8.20335 13.7533 8.41669C12.8907 8.85614 12.1895 9.55743 11.75 10.42C11.5367 10.8367 11.4 11.375 11.325 12.27C11.2517 13.18 11.25 14.3467 11.25 16V20.6667C11.25 22.32 11.25 23.4867 11.325 24.3967C11.3983 25.2917 11.5367 25.83 11.75 26.2467C12.1895 27.1093 12.8907 27.8106 13.7533 28.25C14.17 28.4634 14.7083 28.6 15.6033 28.675C16.5133 28.7484 17.6783 28.75 19.3333 28.75H24C25.6533 28.75 26.82 28.75 27.73 28.675C28.625 28.6017 29.1633 28.4634 29.58 28.25C30.4423 27.811 31.1436 27.1103 31.5833 26.2484C31.7967 25.8284 31.9333 25.2917 32.0083 24.3967C32.0817 23.4867 32.0833 22.3217 32.0833 20.6667V16C32.0833 14.3467 32.0833 13.18 32.0083 12.27C31.935 11.375 31.7967 10.8367 31.5833 10.42C31.1448 9.55794 30.4447 8.8567 29.5833 8.41669C29.1633 8.20335 28.6267 8.06669 27.7317 7.99169C26.8217 7.91835 25.655 7.91669 24.0017 7.91669H19.335C17.6817 7.91669 16.5133 7.91669 15.6033 7.99169Z" fill="#7077FE"/>
<g opacity="0.5">
<path d="M19.1666 12.9167C18.8351 12.9167 18.5172 13.0484 18.2827 13.2828C18.0483 13.5172 17.9166 13.8352 17.9166 14.1667C17.9166 14.4982 18.0483 14.8161 18.2827 15.0506C18.5172 15.285 18.8351 15.4167 19.1666 15.4167C19.4981 15.4167 19.8161 15.285 20.0505 15.0506C20.2849 14.8161 20.4166 14.4982 20.4166 14.1667C20.4166 13.8352 20.2849 13.5172 20.0505 13.2828C19.8161 13.0484 19.4981 12.9167 19.1666 12.9167ZM15.4166 14.1667C15.4166 13.1721 15.8117 12.2183 16.515 11.515C17.2182 10.8118 18.1721 10.4167 19.1666 10.4167C20.1612 10.4167 21.115 10.8118 21.8183 11.515C22.5215 12.2183 22.9166 13.1721 22.9166 14.1667C22.9166 15.1612 22.5215 16.1151 21.8183 16.8183C21.115 17.5216 20.1612 17.9167 19.1666 17.9167C18.1721 17.9167 17.2182 17.5216 16.515 16.8183C15.8117 16.1151 15.4166 15.1612 15.4166 14.1667Z" fill="#7077FE"/>
<path d="M11.5866 9.93669C11.7048 10.2463 11.6952 10.5902 11.5598 10.8928C11.4245 11.1953 11.1746 11.4317 10.865 11.55C9.99747 11.8813 9.25106 12.4682 8.72456 13.2331C8.19806 13.998 7.91631 14.9048 7.91663 15.8334V21.6667C7.91663 24.8667 7.93329 26.17 8.26329 27.1884C8.6087 28.2516 9.20088 29.2181 9.99141 30.0086C10.7819 30.7991 11.7483 31.3913 12.8116 31.7367C13.83 32.0684 15.1333 32.0834 18.3333 32.0834H24.1666C26.1 32.0834 27.7566 30.8867 28.43 29.1884C28.5568 28.8869 28.7967 28.6472 29.0983 28.5206C29.3999 28.394 29.739 28.3906 30.0431 28.5112C30.3471 28.6318 30.5917 28.8668 30.7245 29.1657C30.8573 29.4646 30.8676 29.8036 30.7533 30.11C30.2302 31.4299 29.3225 32.5621 28.148 33.3597C26.9735 34.1574 25.5864 34.5837 24.1666 34.5834H18.0633C15.22 34.5834 13.485 34.5834 12.0383 34.115C10.5998 33.6477 9.2924 32.8465 8.22292 31.7771C7.15344 30.7076 6.35228 29.4002 5.88496 27.9617C5.41663 26.515 5.41663 24.78 5.41663 21.9367V15.8334C5.41643 14.3985 5.85201 12.9974 6.6657 11.8156C7.47939 10.6337 8.63282 9.72685 9.97329 9.21502C10.2829 9.09686 10.6268 9.1065 10.9294 9.24183C11.2319 9.37716 11.4683 9.6271 11.5866 9.93669Z" fill="#7077FE"/>
</g>
</svg>
