<svg width="270" height="270" viewBox="0 0 270 270" fill="none" xmlns="http://www.w3.org/2000/svg">
<path d="M134.82 267.64C208.175 267.64 267.64 208.174 267.64 134.82C267.64 61.4655 208.175 2 134.82 2C61.4656 2 2 61.4655 2 134.82C2 208.174 61.4656 267.64 134.82 267.64Z" fill="#1EB0C7"/>
<path d="M265.43 134.82C265.43 134.82 206.95 205.07 134.82 205.07C62.6901 205.07 4.20996 134.82 4.20996 134.82C4.20996 134.82 62.6901 64.5703 134.82 64.5703C206.95 64.5703 265.43 134.82 265.43 134.82Z" fill="#1A9DAA"/>
<path d="M134.82 173.199C156.017 173.199 173.2 156.016 173.2 134.819C173.2 113.623 156.017 96.4395 134.82 96.4395C113.623 96.4395 96.4399 113.623 96.4399 134.819C96.4399 156.016 113.623 173.199 134.82 173.199Z" fill="url(#paint0_linear_2936_26167)"/>
<path d="M264.07 96.44C263.32 93.9 262.49 91.39 261.6 88.92C242.78 37.11 193.05 0 134.82 0C76.5901 0 26.86 37.11 8.04004 88.92C7.15004 91.39 6.32007 93.9 5.57007 96.44C1.94007 108.61 0 121.49 0 134.82C0 148.15 1.95007 161.04 5.57007 173.21C6.32007 175.75 7.15004 178.25 8.04004 180.71C26.86 232.52 76.5901 269.63 134.82 269.63C193.05 269.63 242.78 232.52 261.6 180.71C262.49 178.25 263.32 175.75 264.07 173.21C267.69 161.04 269.64 148.15 269.64 134.82C269.64 121.49 267.7 108.61 264.07 96.44ZM265.6 131.97C261.43 127.25 247.87 112.58 228.36 98.09C206.94 82.17 173.81 63.27 136.81 62.6V38.61C187.8 39.36 231.58 68.41 258.16 91.22C262.7 104.01 265.29 117.71 265.6 131.97ZM66.96 134.82C66.96 97.41 97.4001 66.97 134.81 66.97C172.22 66.97 202.66 97.41 202.66 134.82C202.66 172.23 172.22 202.67 134.81 202.67C97.4001 202.67 66.96 172.23 66.96 134.82ZM62.6 134.82C62.6 161.47 77.1099 184.77 98.6399 197.28C50.4899 182.23 13.62 142.47 6.84998 134.82C13.62 127.16 50.4899 87.4 98.6399 72.36C77.1099 84.88 62.6 108.18 62.6 134.82ZM207.03 134.82C207.03 108.17 192.51 84.87 170.99 72.36C219.14 87.41 256.02 127.17 262.78 134.82C256.02 142.48 219.15 182.25 170.97 197.29C192.51 184.78 207.03 161.47 207.03 134.82ZM134.82 4C188.75 4 235.17 36.81 255.16 83.51C227.35 60.87 184.39 34.57 134.82 34.57C85.2501 34.57 42.29 60.87 14.48 83.51C34.47 36.81 80.8901 4 134.82 4ZM11.47 91.22C38.05 68.41 81.8301 39.35 132.82 38.61V62.6C95.8201 63.26 62.69 82.17 41.27 98.09C21.76 112.58 8.21003 127.25 4.03003 131.97C4.34003 117.72 6.92997 104.01 11.47 91.22ZM4.03003 137.67C8.20003 142.39 21.76 157.06 41.27 171.55C62.69 187.47 95.8201 206.37 132.82 207.04V231.04C81.8301 230.29 38.05 201.24 11.47 178.42C6.92997 165.63 4.34003 151.93 4.03003 137.68V137.67ZM134.82 265.63C80.8801 265.63 34.46 232.82 14.48 186.11C42.29 208.77 85.2501 235.07 134.82 235.07C184.39 235.07 227.35 208.77 255.16 186.11C235.18 232.82 188.76 265.63 134.82 265.63ZM258.17 178.41C231.59 201.23 187.81 230.29 136.82 231.03V207.03C173.82 206.37 206.95 187.46 228.37 171.54C247.88 157.05 261.44 142.38 265.61 137.66C265.3 151.92 262.71 165.61 258.17 178.4V178.41Z" fill="url(#paint1_linear_2936_26167)"/>
<defs>
<linearGradient id="paint0_linear_2936_26167" x1="96.4399" y1="134.819" x2="173.19" y2="134.819" gradientUnits="userSpaceOnUse">
<stop stop-color="#F9BA1D"/>
<stop offset="0.03" stop-color="#F8BE26"/>
<stop offset="0.09" stop-color="#F8C841"/>
<stop offset="0.16" stop-color="#F7DA6C"/>
<stop offset="0.24" stop-color="#F7F1A3"/>
<stop offset="0.29" stop-color="#F7EC96"/>
<stop offset="0.39" stop-color="#F7E074"/>
<stop offset="0.53" stop-color="#F9CD3E"/>
<stop offset="0.61" stop-color="#F8D34F"/>
<stop offset="1" stop-color="#F7F1A3"/>
</linearGradient>
<linearGradient id="paint1_linear_2936_26167" x1="0" y1="134.81" x2="269.64" y2="134.81" gradientUnits="userSpaceOnUse">
<stop stop-color="#F9BA1D"/>
<stop offset="0.03" stop-color="#F8BE26"/>
<stop offset="0.09" stop-color="#F8C841"/>
<stop offset="0.16" stop-color="#F7DA6C"/>
<stop offset="0.24" stop-color="#F7F1A3"/>
<stop offset="0.29" stop-color="#F7EC96"/>
<stop offset="0.39" stop-color="#F7E074"/>
<stop offset="0.53" stop-color="#F9CD3E"/>
<stop offset="0.57" stop-color="#F8D34F"/>
<stop offset="0.8" stop-color="#F7F1A3"/>
<stop offset="0.83" stop-color="#F2E899"/>
<stop offset="0.87" stop-color="#E4D181"/>
<stop offset="0.93" stop-color="#CEAC58"/>
<stop offset="0.99" stop-color="#B07A21"/>
<stop offset="1" stop-color="#AC731A"/>
</linearGradient>
</defs>
</svg>
