<svg width="39" height="39" viewBox="0 0 39 39" fill="none" xmlns="http://www.w3.org/2000/svg">
<rect width="39" height="39" fill="#1E1E1E"/>
<path d="M-38.167 -4C-38.167 -20.5685 -24.7355 -34 -8.16699 -34H206.833C223.402 -34 236.833 -20.5685 236.833 -4V45C236.833 61.5685 223.402 75 206.833 75H-8.16699C-24.7355 75 -38.167 61.5685 -38.167 45V-4Z" fill="white"/>
<path d="M-8.16699 -34V-33H206.833V-34V-35H-8.16699V-34ZM236.833 -4H235.833V45H236.833H237.833V-4H236.833ZM206.833 75V74H-8.16699V75V76H206.833V75ZM-38.167 45H-37.167V-4H-38.167H-39.167V45H-38.167ZM-8.16699 75V74C-24.1832 74 -37.167 61.0163 -37.167 45H-38.167H-39.167C-39.167 62.1208 -25.2878 76 -8.16699 76V75ZM236.833 45H235.833C235.833 61.0163 222.849 74 206.833 74V75V76C223.954 76 237.833 62.1208 237.833 45H236.833ZM206.833 -34V-33C222.849 -33 235.833 -20.0163 235.833 -4H236.833H237.833C237.833 -21.1208 223.954 -35 206.833 -35V-34ZM-8.16699 -34V-35C-25.2878 -35 -39.167 -21.1208 -39.167 -4H-38.167H-37.167C-37.167 -20.0163 -24.1832 -33 -8.16699 -33V-34Z" fill="white" fill-opacity="0.1"/>
<g clip-path="url(#clip0_0_1)">
<rect width="39" height="39" rx="19.5" fill="white"/>
<path d="M19.3335 38.7119C29.9437 38.7119 38.5449 30.1107 38.5449 19.5005C38.5449 8.89032 29.9437 0.289062 19.3335 0.289062C8.72333 0.289062 0.12207 8.89032 0.12207 19.5005C0.12207 30.1107 8.72333 38.7119 19.3335 38.7119Z" fill="#1EB0C7"/>
<path d="M38.2259 19.501C38.2259 19.501 29.7672 29.6621 19.3342 29.6621C8.9011 29.6621 0.442383 19.501 0.442383 19.501C0.442383 19.501 8.9011 9.33984 19.3342 9.33984C29.7672 9.33984 38.2259 19.501 38.2259 19.501Z" fill="#1A9DAA"/>
<path d="M19.3336 25.052C22.3996 25.052 24.885 22.5666 24.885 19.5006C24.885 16.4347 22.3996 13.9492 19.3336 13.9492C16.2677 13.9492 13.7822 16.4347 13.7822 19.5006C13.7822 22.5666 16.2677 25.052 19.3336 25.052Z" fill="url(#paint0_linear_0_1)"/>
<path d="M38.0288 13.9493C37.9203 13.5819 37.8003 13.2189 37.6715 12.8616C34.9494 5.36769 27.7563 0 19.3337 0C10.9112 0 3.71812 5.36769 0.99594 12.8616C0.867208 13.2189 0.747159 13.5819 0.638677 13.9493C0.113624 15.7096 -0.166992 17.5726 -0.166992 19.5007C-0.166992 21.4288 0.115071 23.2933 0.638677 25.0536C0.747159 25.4209 0.867208 25.7826 0.99594 26.1384C3.71812 33.6323 10.9112 39 19.3337 39C27.7563 39 34.9494 33.6323 37.6715 26.1384C37.8003 25.7826 37.9203 25.4209 38.0288 25.0536C38.5524 23.2933 38.8344 21.4288 38.8344 19.5007C38.8344 17.5726 38.5539 15.7096 38.0288 13.9493ZM38.2501 19.0885C37.6469 18.4058 35.6856 16.2839 32.8636 14.188C29.7654 11.8853 24.9734 9.15154 19.6216 9.05463V5.58465C26.9969 5.69313 33.3293 9.895 37.1739 13.1943C37.8306 15.0443 38.2053 17.0259 38.2501 19.0885ZM9.51827 19.5007C9.51827 14.0896 13.9212 9.68672 19.3323 9.68672C24.7434 9.68672 29.1463 14.0896 29.1463 19.5007C29.1463 24.9118 24.7434 29.3147 19.3323 29.3147C13.9212 29.3147 9.51827 24.9118 9.51827 19.5007ZM8.88763 19.5007C8.88763 23.3554 10.9864 26.7256 14.1005 28.5351C7.136 26.3582 1.80304 20.6072 0.823806 19.5007C1.80304 18.3928 7.136 12.6418 14.1005 10.4663C10.9864 12.2773 8.88763 15.6474 8.88763 19.5007ZM29.7784 19.5007C29.7784 15.646 27.6782 12.2758 24.5655 10.4663C31.53 12.6432 36.8644 18.3942 37.8422 19.5007C36.8644 20.6087 31.5314 26.3611 24.5626 28.5365C27.6782 26.7271 29.7784 23.3554 29.7784 19.5007ZM19.3337 0.578571C27.1343 0.578571 33.8486 5.3243 36.74 12.0791C32.7175 8.8044 26.5037 5.0003 19.3337 5.0003C12.1638 5.0003 5.94994 8.8044 1.92743 12.0791C4.81884 5.3243 11.5332 0.578571 19.3337 0.578571ZM1.49205 13.1943C5.33666 9.895 11.6691 5.69169 19.0445 5.58465V9.05463C13.6927 9.15009 8.90066 11.8853 5.80241 14.188C2.98043 16.2839 1.02053 18.4058 0.415922 19.0885C0.460761 17.0273 0.835377 15.0443 1.49205 13.1943ZM0.415922 19.913C1.01908 20.5957 2.98043 22.7176 5.80241 24.8134C8.90066 27.1162 13.6927 29.8499 19.0445 29.9468V33.4182C11.6691 33.3098 5.33666 29.1079 1.49205 25.8071C0.835377 23.9572 0.460761 21.9756 0.415922 19.9144V19.913ZM19.3337 38.4214C11.5317 38.4214 4.81739 33.6757 1.92743 26.9194C5.94994 30.197 12.1638 34.0011 19.3337 34.0011C26.5037 34.0011 32.7175 30.197 36.74 26.9194C33.8501 33.6757 27.1358 38.4214 19.3337 38.4214ZM37.1754 25.8057C33.3308 29.1064 26.9984 33.3098 19.623 33.4168V29.9454C24.9748 29.8499 29.7668 27.1147 32.8651 24.812C35.687 22.7161 37.6484 20.5942 38.2516 19.9115C38.2067 21.9741 37.8321 23.9543 37.1754 25.8042V25.8057Z" fill="url(#paint1_linear_0_1)"/>
<g filter="url(#filter0_d_0_1)">
<rect width="39" height="20" transform="translate(0 19)" fill="white"/>
<path d="M23.7136 32.157V30.0504C23.7136 29.0497 23.029 28.2597 22.1337 27.9964V26.3638C22.1337 24.8891 20.975 23.7305 19.5004 23.7305C18.0257 23.7305 16.8671 24.8891 16.8671 26.3638V27.9964C15.9718 28.2071 15.2871 29.0497 15.2871 30.0504V32.157C15.2871 33.3156 16.2351 34.2636 17.3937 34.2636H21.607C22.7656 34.2636 23.7136 33.3156 23.7136 32.157ZM17.9204 26.3638C17.9204 25.4684 18.605 24.7838 19.5004 24.7838C20.3957 24.7838 21.0803 25.4684 21.0803 26.3638V27.9437H17.9204V26.3638ZM16.3404 32.157V30.0504C16.3404 29.471 16.8144 28.997 17.3937 28.997H21.607C22.1863 28.997 22.6603 29.471 22.6603 30.0504V32.157C22.6603 32.7363 22.1863 33.2103 21.607 33.2103H17.3937C16.8144 33.2103 16.3404 32.7363 16.3404 32.157Z" fill="url(#paint2_linear_0_1)"/>
</g>
</g>
<rect x="0.5" y="0.5" width="38" height="38" rx="19" stroke="#ECEEF2"/>
<defs>
<filter id="filter0_d_0_1" x="-0.888781" y="18.3334" width="40.7776" height="21.7776" filterUnits="userSpaceOnUse" color-interpolation-filters="sRGB">
<feFlood flood-opacity="0" result="BackgroundImageFix"/>
<feColorMatrix in="SourceAlpha" type="matrix" values="0 0 0 0 0 0 0 0 0 0 0 0 0 0 0 0 0 0 127 0" result="hardAlpha"/>
<feOffset dy="0.222195"/>
<feGaussianBlur stdDeviation="0.44439"/>
<feComposite in2="hardAlpha" operator="out"/>
<feColorMatrix type="matrix" values="0 0 0 0 0 0 0 0 0 0 0 0 0 0 0 0 0 0 0.25 0"/>
<feBlend mode="normal" in2="BackgroundImageFix" result="effect1_dropShadow_0_1"/>
<feBlend mode="normal" in="SourceGraphic" in2="effect1_dropShadow_0_1" result="shape"/>
</filter>
<linearGradient id="paint0_linear_0_1" x1="13.7822" y1="19.5006" x2="24.8836" y2="19.5006" gradientUnits="userSpaceOnUse">
<stop stop-color="#F9BA1D"/>
<stop offset="0.03" stop-color="#F8BE26"/>
<stop offset="0.09" stop-color="#F8C841"/>
<stop offset="0.16" stop-color="#F7DA6C"/>
<stop offset="0.24" stop-color="#F7F1A3"/>
<stop offset="0.29" stop-color="#F7EC96"/>
<stop offset="0.39" stop-color="#F7E074"/>
<stop offset="0.53" stop-color="#F9CD3E"/>
<stop offset="0.61" stop-color="#F8D34F"/>
<stop offset="1" stop-color="#F7F1A3"/>
</linearGradient>
<linearGradient id="paint1_linear_0_1" x1="-0.166992" y1="19.4993" x2="38.8344" y2="19.4993" gradientUnits="userSpaceOnUse">
<stop stop-color="#F9BA1D"/>
<stop offset="0.03" stop-color="#F8BE26"/>
<stop offset="0.09" stop-color="#F8C841"/>
<stop offset="0.16" stop-color="#F7DA6C"/>
<stop offset="0.24" stop-color="#F7F1A3"/>
<stop offset="0.29" stop-color="#F7EC96"/>
<stop offset="0.39" stop-color="#F7E074"/>
<stop offset="0.53" stop-color="#F9CD3E"/>
<stop offset="0.57" stop-color="#F8D34F"/>
<stop offset="0.8" stop-color="#F7F1A3"/>
<stop offset="0.83" stop-color="#F2E899"/>
<stop offset="0.87" stop-color="#E4D181"/>
<stop offset="0.93" stop-color="#CEAC58"/>
<stop offset="0.99" stop-color="#B07A21"/>
<stop offset="1" stop-color="#AC731A"/>
</linearGradient>
<linearGradient id="paint2_linear_0_1" x1="19.5004" y1="23.7305" x2="19.5004" y2="34.2636" gradientUnits="userSpaceOnUse">
<stop stop-color="#FFDE5B"/>
<stop offset="1" stop-color="#C78F04"/>
</linearGradient>
<clipPath id="clip0_0_1">
<rect width="39" height="39" rx="19.5" fill="white"/>
</clipPath>
</defs>
</svg>
