<svg width="32" height="32" viewBox="0 0 32 32" fill="none" xmlns="http://www.w3.org/2000/svg">
<rect width="32" height="32" rx="16" fill="#00C7DB"/>
<g clip-path="url(#clip0_1155_10935)">
<path d="M11.5094 9.00121C10.3406 8.97777 8.99062 9.29496 7.58125 9.91527C7.22438 10.0723 7 10.4362 7 10.8262V22.0012C7 22.3621 7.37469 22.6121 7.70156 22.459C11.6484 20.6109 14.5703 22.8028 14.6953 22.8968C14.7844 22.9656 14.8906 23 15 23C15.3875 23 15.5 22.6443 15.5 22.5006V10.5012C15.5 10.3386 15.4209 10.1862 15.2881 10.0925C15.2281 10.0493 13.7719 9.04215 11.5094 9.00121ZM24.4188 9.91527C23.0091 9.29684 21.6538 8.98996 20.4906 9.0009C18.2269 9.0419 16.8 10.0493 16.7125 10.0921C16.5781 10.1862 16.5 10.3384 16.5 10.5012V22.4731C16.5 22.6375 16.6094 23 17 23C17.1089 23 17.2168 22.9648 17.3057 22.896C17.4283 22.8016 20.3507 20.6097 24.2994 22.4585C24.6263 22.6115 25.001 22.3614 25.001 22.0006L25.001 10.8256C24.9719 10.4365 24.775 10.0721 24.4188 9.91527Z" fill="white"/>
</g>
<defs>
<clipPath id="clip0_1155_10935">
<rect width="18" height="16" fill="white" transform="translate(7 8)"/>
</clipPath>
</defs>
</svg>
