<svg width="20" height="20" viewBox="0 0 20 20" fill="none" xmlns="http://www.w3.org/2000/svg">
<g clip-path="url(#clip0_0_2849)">
<path d="M18.3335 9.99968H19.1668M10.0002 1.66634V0.833008M10.0002 19.1663V18.333M16.6668 16.6663L15.8335 15.833M16.6668 3.33301L15.8335 4.16634M3.3335 16.6663L4.16683 15.833M3.3335 3.33301L4.16683 4.16634M0.833496 9.99968H1.66683M8.2935 8.01884L9.59266 5.26467C9.62766 5.18581 9.6848 5.1188 9.75713 5.07177C9.82946 5.02474 9.91389 4.9997 10.0002 4.9997C10.0864 4.9997 10.1709 5.02474 10.2432 5.07177C10.3155 5.1188 10.3727 5.18581 10.4077 5.26467L11.7068 8.01884L14.611 8.46301C14.9835 8.51968 15.1318 8.99968 14.8627 9.27468L12.761 11.4163L13.2568 14.4422C13.321 14.8313 12.931 15.1272 12.5977 14.9438L10.0002 13.5147L7.40266 14.9438C7.06933 15.1272 6.67933 14.8313 6.7435 14.4422L7.23933 11.4172L5.13766 9.27468C4.8685 8.99968 5.01683 8.51968 5.38933 8.46301L8.2935 8.01884Z" stroke="#A7A6A6" stroke-width="1.5" stroke-linecap="round" stroke-linejoin="round"/>
</g>
<defs>
<clipPath id="clip0_0_2849">
<rect width="20" height="20" fill="white"/>
</clipPath>
</defs>
</svg>
