<svg width="51" height="51" viewBox="0 0 51 51" fill="none" xmlns="http://www.w3.org/2000/svg">
<path d="M25.4528 11.9565C29.0444 11.9565 32.4888 13.3832 35.0285 15.9228C37.5681 18.4625 38.9949 21.907 38.9949 25.4986M22.7449 1.28606C23.6433 1.17649 24.5477 1.12222 25.4528 1.12356C31.9174 1.12356 38.1173 3.69163 42.6885 8.26283C47.2597 12.834 49.8278 19.0339 49.8278 25.4986C49.8278 26.4042 49.7736 27.3069 49.6653 28.2065" stroke="#344054" stroke-linecap="round" stroke-linejoin="round"/>
<path d="M33.5779 49.8737C29.3795 48.8727 25.397 47.1198 21.8233 44.6997L26.7529 37.6329C27.5633 36.527 28.763 35.7696 30.1099 35.5133C31.4569 35.2571 32.8509 35.5212 34.0108 36.2523C34.9052 36.8204 35.8256 37.3352 36.72 37.85C37.3927 38.179 37.9899 38.6438 38.4739 39.2153C38.9579 39.7867 39.3182 40.4523 39.5319 41.17C39.7457 41.8877 39.8084 42.6419 39.7159 43.385C39.6235 44.1281 39.378 44.844 38.995 45.4875L37.3154 48.0615C37.0147 48.7628 36.4712 49.3321 35.7848 49.6652C35.0983 49.9983 34.3148 50.0715 33.5779 49.8737ZM2.89265 13.7727L5.60055 12.0918C6.22867 11.6842 6.93447 11.4112 7.6734 11.2901C8.41234 11.169 9.16835 11.2024 9.89373 11.3882C10.6191 11.574 11.2981 11.9081 11.8878 12.3696C12.4775 12.831 12.9652 13.4097 13.32 14.0691C13.8348 15.0441 14.3483 15.9658 14.9177 16.7783C15.6486 17.9384 15.9125 19.3324 15.656 20.6794C15.3996 22.0263 14.6419 23.2259 13.5358 24.0362L6.33245 29.0464C3.89291 25.5033 2.11285 21.549 1.07785 17.3737C0.915881 16.6561 1.00834 15.9046 1.33939 15.2477C1.67045 14.5908 2.21953 14.0694 2.89265 13.7727Z" stroke="#306CFE" stroke-linecap="round" stroke-linejoin="round"/>
<path d="M6.33252 29.0474C8.32362 32.168 10.6683 35.0484 13.32 37.6313C15.9033 40.2831 18.7841 42.6277 21.9052 44.6188" stroke="#306CFE" stroke-linecap="round" stroke-linejoin="round"/>
</svg>
