<svg width="15" height="16" viewBox="0 0 15 16" fill="none" xmlns="http://www.w3.org/2000/svg">
<path d="M14.0347 14.511L13.5567 3.71642C13.5483 2.91951 12.8939 2.27307 12.0908 2.27307H9.66115C9.46398 1.00119 8.35291 0 7.01599 0C5.6787 0 4.56733 1.00119 4.3701 2.27307H1.94375C1.14089 2.27307 0.486745 2.91953 0.478323 3.71645L0.000602967 14.5107C0.00020727 14.5198 0 14.5291 0 14.5383C0 15.3442 0.657583 16 1.46589 16H12.5695C13.3778 16 14.0353 15.3444 14.0353 14.5385C14.0353 14.5293 14.0351 14.5202 14.0347 14.511ZM7.01599 1.24495C7.66367 1.24495 8.21194 1.67952 8.3879 2.27306H5.64338C5.81943 1.67953 6.36798 1.24495 7.01599 1.24495ZM12.5695 14.7564H1.46589C1.34519 14.7564 1.24998 14.6655 1.24515 14.5485L1.72256 3.76061C1.72297 3.75146 1.72317 3.74072 1.72317 3.73156C1.72317 3.61195 1.82005 3.51669 1.94374 3.51669H4.33383V5.79157C4.33383 6.13535 4.61185 6.41404 4.95564 6.41404C5.29942 6.41404 5.57745 6.13535 5.57745 5.79157V3.51669H8.44154V5.79157C8.44154 6.13535 8.71957 6.41404 9.06335 6.41404C9.40714 6.41404 9.68516 6.13535 9.68516 5.79157V3.51669H12.0908C12.2148 3.51669 12.3118 3.6118 12.3118 3.73141C12.3118 3.74058 12.312 3.75047 12.3124 3.75965L12.7902 14.5482C12.7853 14.6652 12.6901 14.7564 12.5695 14.7564Z" fill="#F97316"/>
</svg>
