<svg width="24" height="24" viewBox="0 0 24 24" fill="none" xmlns="http://www.w3.org/2000/svg">
<g clip-path="url(#clip0_211_12601)">
<path d="M23.1429 23.1429L20.0949 20.0949M6.69088 9.97028C6.29088 10.0011 5.8863 10.0171 5.47716 10.0183C4.66459 10.0183 3.86745 9.94457 3.09088 9.85714C2.58076 9.79805 2.10568 9.56797 1.74302 9.20438C1.38037 8.8408 1.15151 8.36512 1.09373 7.85485C1.01145 7.08343 0.942876 6.29143 0.942876 5.48228C0.942876 4.67657 1.01316 3.88286 1.09716 3.11143C1.20688 2.06571 2.04859 1.22571 3.09259 1.10914C3.86916 1.02343 4.66631 0.947998 5.47888 0.947998C6.29145 0.947998 7.08859 1.02171 7.86345 1.10914C8.90916 1.22571 9.74916 2.06571 9.86059 3.11143C9.94459 3.88286 10.0149 4.67486 10.0149 5.48228C10.0137 5.86628 9.99945 6.24686 9.97202 6.624M5.47716 13.98C4.66459 13.98 3.86745 14.0554 3.09088 14.1411C2.04516 14.2577 1.20516 15.0994 1.09373 16.1434C1.01145 16.9149 0.941162 17.7086 0.941162 18.516C0.941162 19.3234 1.01145 20.1154 1.09545 20.8886C1.20516 21.9343 2.04688 22.7743 3.09088 22.8909C3.86745 22.9766 4.66459 23.052 5.47716 23.052C6.28973 23.052 7.08688 22.9766 7.86173 22.8909M13.596 5.48228C13.596 4.67486 13.6646 3.88286 13.7486 3.11143C13.86 2.06571 14.7017 1.22571 15.7457 1.10914C16.5223 1.02343 17.3194 0.947998 18.132 0.947998C18.9446 0.947998 19.74 1.02171 20.5166 1.10914C21.5623 1.22571 22.4023 2.06571 22.5137 3.11143C22.596 3.88286 22.668 4.67486 22.668 5.48228C22.668 6.29143 22.596 7.08343 22.5137 7.85485C22.488 8.09205 22.4243 8.32357 22.3252 8.54057M15.1269 21.7594C19.3766 21.7594 21.7663 19.3697 21.7663 15.12C21.7663 10.8703 19.3766 8.48057 15.1269 8.48057C10.8772 8.48057 8.48745 10.8686 8.48745 15.12C8.48745 19.3714 10.8772 21.7594 15.1269 21.7594Z" stroke="#F8B814" stroke-width="1.5" stroke-linecap="round" stroke-linejoin="round"/>
</g>
<defs>
<clipPath id="clip0_211_12601">
<rect width="24" height="24" fill="white"/>
</clipPath>
</defs>
</svg>
