<svg width="11" height="16" viewBox="0 0 11 16" fill="none" xmlns="http://www.w3.org/2000/svg">
<path d="M9.93811 4.82245H6.7625L7.37659 1.13864C7.39486 1.02942 7.38911 0.917531 7.35972 0.810763C7.33034 0.703994 7.27804 0.604915 7.20645 0.520423C7.13487 0.435931 7.04573 0.368059 6.94524 0.321532C6.84475 0.275006 6.73533 0.250944 6.62459 0.251023H2.69926C2.51902 0.251075 2.34464 0.315022 2.2071 0.431501C2.06955 0.54798 1.97776 0.709447 1.94802 0.887213L0.677923 8.50626C0.659662 8.61542 0.665401 8.72724 0.694741 8.83396C0.72408 8.94067 0.776316 9.03971 0.847814 9.12419C0.919313 9.20867 1.00836 9.27655 1.10875 9.32313C1.20915 9.3697 1.31849 9.39385 1.42916 9.39388H4.47678V15.4891L10.5796 5.99655C10.6537 5.8814 10.6954 5.74843 10.7003 5.61161C10.7052 5.47479 10.6731 5.33917 10.6075 5.21903C10.5418 5.09889 10.445 4.99865 10.3272 4.92886C10.2094 4.85908 10.075 4.82232 9.93811 4.82245Z" fill="white"/>
</svg>
