<svg width="46" height="46" viewBox="0 0 46 46" fill="none" xmlns="http://www.w3.org/2000/svg">
<path d="M14.2991 37.0685H10.619C4.984 36.666 2.4541 32.3343 2.4541 28.4818C2.4541 24.6293 4.98403 20.2785 10.5232 19.8951C11.309 19.8185 11.999 20.4318 12.0565 21.2368C12.114 22.0226 11.5199 22.7126 10.7149 22.7701C6.9966 23.0385 5.3291 25.8368 5.3291 28.501C5.3291 31.1651 6.9966 33.9635 10.7149 34.2318H14.2991C15.0849 34.2318 15.7366 34.8835 15.7366 35.6693C15.7366 36.4551 15.0849 37.0685 14.2991 37.0685Z" fill="#292D32"/>
<path d="M31.9507 37.0687C31.9124 37.0687 31.8932 37.0687 31.8549 37.0687C31.0691 37.0687 30.3408 36.4171 30.3408 35.6312C30.3408 34.8071 30.9541 34.1937 31.7591 34.1937C34.1166 34.1937 36.2249 33.3696 37.8733 31.8937C40.8633 29.2871 41.0549 25.5304 40.2499 22.8854C39.4449 20.2596 37.2024 17.2504 33.2924 16.7712C32.6599 16.6946 32.1615 16.2154 32.0465 15.5829C31.2799 10.9829 28.8074 7.80125 25.0508 6.65125C21.1791 5.44375 16.6557 6.63208 13.8382 9.58374C11.0974 12.4396 10.4649 16.4454 12.0557 20.8538C12.324 21.6013 11.9408 22.4254 11.1933 22.6937C10.4458 22.9621 9.62159 22.5787 9.35326 21.8312C7.41743 16.4262 8.29911 11.2512 11.7683 7.60958C15.3141 3.89125 21.0066 2.4154 25.8941 3.9104C30.3791 5.2904 33.5415 8.98957 34.6915 14.1262C38.6015 15.0079 41.7449 17.9788 42.9907 22.0804C44.3516 26.5463 43.1249 31.1463 39.7707 34.0596C37.6432 35.9762 34.864 37.0687 31.9507 37.0687Z" fill="#292D32"/>
<path d="M22.9998 42.7038C19.1473 42.7038 15.544 40.6529 13.5699 37.3371C13.359 37.0113 13.1482 36.6279 12.9757 36.2063C12.324 34.8454 11.979 33.2929 11.979 31.6829C11.979 25.6071 16.924 20.6621 22.9998 20.6621C29.0757 20.6621 34.0207 25.6071 34.0207 31.6829C34.0207 33.3121 33.6757 34.8454 32.9857 36.2638C32.8324 36.6279 32.6216 37.0113 32.3916 37.3754C30.4557 40.6529 26.8523 42.7038 22.9998 42.7038ZM22.9998 23.5371C18.5148 23.5371 14.854 27.1979 14.854 31.6829C14.854 32.8713 15.1032 33.9829 15.5823 34.9988C15.7357 35.3246 15.8698 35.5929 16.0231 35.8421C17.4798 38.3146 20.144 39.8288 22.9807 39.8288C25.8173 39.8288 28.4815 38.3146 29.919 35.8804C30.0915 35.5929 30.2449 35.3246 30.3599 35.0563C30.8774 34.0021 31.1265 32.8904 31.1265 31.7021C31.1457 27.1979 27.4848 23.5371 22.9998 23.5371Z" fill="#292D32"/>
<path d="M21.9074 35.0183C21.5432 35.0183 21.1791 34.8841 20.8916 34.5966L18.994 32.6991C18.4382 32.1433 18.4382 31.2233 18.994 30.6674C19.5499 30.1116 20.4699 30.1116 21.0257 30.6674L21.9458 31.5874L25.0124 28.7508C25.6066 28.2141 26.5074 28.2524 27.044 28.8274C27.5807 29.4024 27.5424 30.3224 26.9674 30.8591L22.8849 34.6349C22.5974 34.8841 22.2524 35.0183 21.9074 35.0183Z" fill="#292D32"/>
</svg>
