<svg width="25" height="34" viewBox="0 0 25 34" fill="none" xmlns="http://www.w3.org/2000/svg">
<path d="M12.3619 21.4841L12.3544 21.4767C11.1456 20.1932 10.5337 18.7009 10.5337 16.9847C10.5337 16.1266 10.6904 15.3207 10.9963 14.5745C11.3023 13.8209 11.7575 13.1419 12.3544 12.53C12.9589 11.9331 13.6379 11.4779 14.399 11.1645C15.1527 10.8511 15.9586 10.6944 16.8168 10.6944C17.7271 10.6944 18.5853 10.8735 19.3986 11.2316C20.212 11.5898 20.9134 12.1047 21.5104 12.7613C22.0551 13.3657 22.4655 14.0522 22.7491 14.8208C22.7864 14.9327 22.7043 15.0521 22.5849 15.0521H21.4955C21.4283 15.0521 21.3686 15.0073 21.3388 14.9476C21.0925 14.373 20.7493 13.8731 20.3165 13.4329C19.8538 12.9702 19.324 12.6121 18.7196 12.3658C18.1152 12.1121 17.4809 11.9927 16.8168 11.9927C15.8989 11.9927 15.0632 12.2091 14.3095 12.6494C13.5558 13.0896 12.9589 13.6866 12.5261 14.4551C12.0933 15.2162 11.8694 16.0594 11.8694 16.9847C11.8694 17.9099 12.0858 18.7531 12.5261 19.5217C12.9589 20.2902 13.5558 20.8946 14.317 21.3349C15.0781 21.7751 15.9064 21.999 16.8168 21.999C17.4809 21.999 18.1226 21.8721 18.7196 21.6259C19.324 21.3722 19.8538 21.0215 20.3165 20.5589C20.7493 20.1261 21.0925 19.6261 21.3388 19.059C21.3686 18.9993 21.4283 18.9546 21.4955 18.9546H22.5775C22.6969 18.9546 22.7789 19.074 22.7416 19.1859C22.4581 19.947 22.0477 20.6335 21.5104 21.2304C20.9134 21.8871 20.212 22.4019 19.3986 22.7601C18.5853 23.1182 17.7271 23.2973 16.8168 23.2973C15.1229 23.2973 13.6379 22.6929 12.3619 21.4841Z" fill="#334155"/>
<path d="M19.9058 24.6485L20.7714 24.2157C20.8535 24.1709 20.9579 24.2082 21.0027 24.2903L24.7711 31.7894C24.8158 31.8715 24.7785 31.9759 24.6964 32.0207L23.8308 32.4535C23.7488 32.4982 23.6443 32.4609 23.5995 32.3789L19.8312 24.8798C19.7864 24.7977 19.8237 24.6932 19.9058 24.6485Z" fill="#334155"/>
<path d="M15.1829 25.2158L16.1381 25.3203C16.2351 25.3278 16.3022 25.4173 16.2873 25.5068L15.3545 33.8491C15.3471 33.9461 15.2575 34.0133 15.168 33.9983L14.2128 33.8939C14.1158 33.8864 14.0487 33.7969 14.0636 33.7073L14.9964 25.3651C15.0038 25.2755 15.0859 25.2084 15.1829 25.2158Z" fill="#334155"/>
<path d="M10.9138 23.1115L11.66 23.7233C11.7346 23.783 11.7421 23.895 11.6824 23.9621L6.34698 30.4464C6.28729 30.521 6.17535 30.5285 6.1082 30.4688L5.36199 29.8569C5.28737 29.7972 5.27991 29.6853 5.3396 29.6181L10.675 23.1413C10.7347 23.0667 10.8391 23.0518 10.9138 23.1115Z" fill="#334155"/>
<path d="M8.48126 19.022L8.77228 19.9398C8.80213 20.0293 8.74989 20.1263 8.66035 20.1562L0.653547 22.6782C0.564002 22.7081 0.466993 22.6559 0.437145 22.5663L0.146127 21.6485C0.116279 21.559 0.168513 21.462 0.258058 21.4321L8.26486 18.91C8.3544 18.8802 8.45141 18.9324 8.48126 19.022Z" fill="#334155"/>
<path d="M8.6761 14.2693L8.41492 15.202C8.39254 15.2915 8.29553 15.3437 8.20599 15.3214L0.124562 13.0679C0.0350171 13.0455 -0.0172156 12.9485 0.00517061 12.859L0.266343 11.9263C0.288729 11.8367 0.385735 11.7845 0.47528 11.8069L8.5567 14.0603C8.64625 14.0827 8.70595 14.1722 8.6761 14.2693Z" fill="#334155"/>
<path d="M11.438 10.3887L10.7142 11.0229C10.6396 11.0826 10.5351 11.0751 10.4754 11.008L4.9311 4.71026C4.87141 4.63564 4.87887 4.53117 4.94603 4.47148L5.66985 3.83723C5.74447 3.77754 5.84894 3.785 5.90863 3.85215L11.453 10.1499C11.5127 10.217 11.5052 10.3215 11.438 10.3887Z" fill="#334155"/>
<path d="M15.862 8.64281L14.9069 8.78458C14.8099 8.79951 14.7278 8.73235 14.7129 8.64281L13.504 0.337862C13.4891 0.240859 13.5563 0.158779 13.6458 0.143855L14.601 0.00208227C14.698 -0.0128413 14.78 0.0543142 14.795 0.143855L16.0038 8.4488C16.0188 8.53835 15.9591 8.62789 15.862 8.64281Z" fill="#334155"/>
<path d="M20.5264 9.59058L19.6533 9.18765C19.5638 9.15034 19.5264 9.04587 19.5712 8.95633L23.0859 1.33787C23.1232 1.24833 23.2276 1.21102 23.3172 1.25579L24.1902 1.65872C24.2798 1.69603 24.3171 1.8005 24.2723 1.89004L20.7577 9.5085C20.7129 9.59058 20.6159 9.62789 20.5264 9.59058Z" fill="#334155"/>
<path d="M16.7876 20.4624C18.6998 20.4624 20.25 18.9123 20.25 17.0001C20.25 15.0879 18.6998 13.5378 16.7876 13.5378C14.8754 13.5378 13.3252 15.0879 13.3252 17.0001C13.3252 18.9123 14.8754 20.4624 16.7876 20.4624Z" fill="#F28705" fill-opacity="0.92"/>
</svg>
