<svg width="24" height="25" viewBox="0 0 24 25" fill="none" xmlns="http://www.w3.org/2000/svg">
<g clip-path="url(#clip0_128_1961)">
<path d="M12 8.25537C9.525 8.25537 7.5 10.2804 7.5 12.7554C7.5 15.2304 9.525 17.2554 12 17.2554C14.475 17.2554 16.5 15.2304 16.5 12.7554C16.5 10.2804 14.475 8.25537 12 8.25537ZM12 15.7554C10.35 15.7554 9 14.4054 9 12.7554C9 11.1054 10.35 9.75537 12 9.75537C13.65 9.75537 15 11.1054 15 12.7554C15 14.4054 13.65 15.7554 12 15.7554Z" fill="#64748B"/>
<path d="M12 19.2803C9.20626 19.2803 6.52501 20.4428 4.61251 22.4865L4.10626 23.0303L5.19376 24.0615L5.70001 23.5178C7.35001 21.7553 9.58126 20.7803 12 20.7803C14.4188 20.7803 16.65 21.7553 18.3 23.5178L18.8063 24.0615L19.8938 23.0303L19.3875 22.4865C17.475 20.4615 14.7938 19.2803 12 19.2803Z" fill="#64748B"/>
<path d="M18.1875 9.36157V10.8616C19.95 10.8616 21.5812 11.5741 22.8 12.8678L23.8875 11.8366C22.425 10.2616 20.3438 9.36157 18.1875 9.36157Z" fill="#64748B"/>
<path d="M21.7688 4.13032C21.7688 2.16157 20.1563 0.549072 18.1875 0.549072C16.2188 0.549072 14.6063 2.16157 14.6063 4.13032C14.6063 6.09907 16.2188 7.71157 18.1875 7.71157C20.1563 7.71157 21.7688 6.09907 21.7688 4.13032ZM16.1063 4.13032C16.1063 2.98657 17.0438 2.04907 18.1875 2.04907C19.3313 2.04907 20.2688 2.98657 20.2688 4.13032C20.2688 5.27407 19.3313 6.21157 18.1875 6.21157C17.0438 6.21157 16.1063 5.27407 16.1063 4.13032Z" fill="#64748B"/>
<path d="M5.81249 9.36157C3.65624 9.36157 1.57499 10.2616 0.112488 11.8366L1.19999 12.8678C2.39999 11.5741 4.04999 10.8616 5.81249 10.8616V9.36157Z" fill="#64748B"/>
<path d="M9.39376 4.13032C9.39376 2.16157 7.78126 0.549072 5.81251 0.549072C3.84376 0.549072 2.23126 2.16157 2.23126 4.13032C2.23126 6.09907 3.84376 7.71157 5.81251 7.71157C7.78126 7.71157 9.39376 6.09907 9.39376 4.13032ZM5.81251 6.21157C4.66876 6.21157 3.73126 5.27407 3.73126 4.13032C3.73126 2.98657 4.66876 2.04907 5.81251 2.04907C6.95626 2.04907 7.89376 2.98657 7.89376 4.13032C7.89376 5.27407 6.95626 6.21157 5.81251 6.21157Z" fill="#64748B"/>
</g>
<defs>
<clipPath id="clip0_128_1961">
<rect width="24" height="24" fill="white" transform="translate(0 0.380371)"/>
</clipPath>
</defs>
</svg>
