<svg width="40" height="40" viewBox="0 0 40 40" fill="none" xmlns="http://www.w3.org/2000/svg">
<path fill-rule="evenodd" clip-rule="evenodd" d="M31.6667 18.3333C35.515 18.3333 37.9217 22.5 35.9967 25.8333C35.7316 26.2925 35.3952 26.7065 35 27.06V35.3183C35 35.4604 34.9637 35.6002 34.8945 35.7243C34.8252 35.8484 34.7254 35.9527 34.6045 36.0274C34.4836 36.102 34.3456 36.1445 34.2036 36.1508C34.0616 36.1571 33.9204 36.127 33.7934 36.0633L31.6667 35L29.54 36.0633C29.413 36.127 29.2718 36.1571 29.1298 36.1508C28.9878 36.1445 28.8498 36.102 28.7289 36.0274C28.608 35.9527 28.5082 35.8484 28.439 35.7243C28.3697 35.6002 28.3334 35.4604 28.3334 35.3183V27.06C25.465 24.4933 26.45 19.785 30.1067 18.5833C30.61 18.4183 31.1367 18.3333 31.6667 18.3333ZM20 15H10C9.57524 15.0005 9.16665 15.1631 8.85776 15.4547C8.54887 15.7464 8.36298 16.1449 8.33809 16.569C8.31319 16.9931 8.45116 17.4106 8.72382 17.7364C8.99647 18.0621 9.38321 18.2715 9.80504 18.3217L10 18.3333H20C20.4248 18.3329 20.8334 18.1702 21.1423 17.8786C21.4512 17.587 21.6371 17.1884 21.662 16.7643C21.6869 16.3403 21.5489 15.9227 21.2763 15.5969C21.0036 15.2712 20.6169 15.0618 20.195 15.0117L20 15ZM13.3334 21.6667H10C9.55801 21.6667 9.13409 21.8423 8.82153 22.1548C8.50897 22.4674 8.33337 22.8913 8.33337 23.3333C8.33337 23.7754 8.50897 24.1993 8.82153 24.5118C9.13409 24.8244 9.55801 25 10 25H13.3334C13.7754 25 14.1993 24.8244 14.5119 24.5118C14.8244 24.1993 15 23.7754 15 23.3333C15 22.8913 14.8244 22.4674 14.5119 22.1548C14.1993 21.8423 13.7754 21.6667 13.3334 21.6667Z" fill="#7077FE"/>
<path opacity="0.3" fill-rule="evenodd" clip-rule="evenodd" d="M33.3334 6.66669C34.2174 6.66669 35.0653 7.01788 35.6904 7.643C36.3155 8.26812 36.6667 9.11597 36.6667 10V16.6667C31.535 12.8184 24.16 15.9684 23.3934 22.3367C23.1366 24.4679 23.7121 26.616 25 28.3334V33.3334H6.66671C5.78265 33.3334 4.93481 32.9822 4.30968 32.357C3.68456 31.7319 3.33337 30.8841 3.33337 30V10C3.33337 9.11597 3.68456 8.26812 4.30968 7.643C4.93481 7.01788 5.78265 6.66669 6.66671 6.66669H33.3334Z" fill="#7077FE"/>
</svg>
