<svg width="20" height="20" viewBox="0 0 20 20" fill="none" xmlns="http://www.w3.org/2000/svg">
<path d="M14.1668 11.6667V16.6667M11.6668 14.1667H16.6668M5.00016 8.33337H6.66683C7.5873 8.33337 8.3335 7.58718 8.3335 6.66671V5.00004C8.3335 4.07957 7.5873 3.33337 6.66683 3.33337H5.00016C4.07969 3.33337 3.3335 4.07957 3.3335 5.00004V6.66671C3.3335 7.58718 4.07969 8.33337 5.00016 8.33337ZM13.3335 8.33337H15.0002C15.9206 8.33337 16.6668 7.58718 16.6668 6.66671V5.00004C16.6668 4.07957 15.9206 3.33337 15.0002 3.33337H13.3335C12.413 3.33337 11.6668 4.07957 11.6668 5.00004V6.66671C11.6668 7.58718 12.413 8.33337 13.3335 8.33337ZM5.00016 16.6667H6.66683C7.5873 16.6667 8.3335 15.9205 8.3335 15V13.3334C8.3335 12.4129 7.5873 11.6667 6.66683 11.6667H5.00016C4.07969 11.6667 3.3335 12.4129 3.3335 13.3334V15C3.3335 15.9205 4.07969 16.6667 5.00016 16.6667Z" stroke="#64748B" stroke-width="1.5" stroke-linecap="round" stroke-linejoin="round"/>
</svg>
