<svg width="249" height="247" viewBox="0 0 249 247" fill="none" xmlns="http://www.w3.org/2000/svg">
<rect width="249" height="247" rx="22" fill="#EAEAEB"/>
<rect width="181" height="181" transform="translate(34 14)" fill="#EAEAEB"/>
<path d="M71.7083 74.3334H135.435H132.042H134.681H71.7083ZM74.725 59.25H174.275L167.865 51.7084H81.1354L74.725 59.25ZM109.417 110.156L124.5 102.615L139.583 110.156V74.3334H109.417V110.156ZM71.7083 172.375C67.5604 172.375 64.0108 170.899 61.0595 167.948C58.1082 164.997 56.63 161.445 56.625 157.292V63.2094C56.625 61.4497 56.9091 59.7528 57.4772 58.1188C58.0453 56.4848 58.8925 54.9764 60.0188 53.5938L69.4458 42.0927C70.8285 40.333 72.5555 38.9806 74.627 38.0353C76.6984 37.0901 78.8679 36.62 81.1354 36.625H167.865C170.127 36.625 172.297 37.0977 174.373 38.0429C176.45 38.9881 178.177 40.3381 179.554 42.0927L188.981 53.5938C190.113 54.9764 190.962 56.4848 191.53 58.1188C192.098 59.7528 192.38 61.4497 192.375 63.2094V92.6219C192.375 94.7587 191.651 96.5511 190.203 97.9991C188.755 99.4471 186.965 100.169 184.833 100.164C182.702 100.159 180.912 99.4346 179.464 97.9916C178.016 96.5486 177.292 94.7587 177.292 92.6219V74.3334H154.667V103.18C150.267 105.694 146.434 108.806 143.166 112.517C139.898 116.227 137.321 120.405 135.435 125.051L124.5 119.583L105.269 129.199C102.755 130.456 100.304 130.363 97.9156 128.92C95.5274 127.477 94.3333 125.307 94.3333 122.411V74.3334H71.7083V157.292H130.345C132.482 157.292 134.274 158.016 135.722 159.464C137.17 160.912 137.891 162.702 137.886 164.833C137.886 166.844 137.162 168.604 135.714 170.113C134.266 171.621 132.477 172.375 130.345 172.375H71.7083ZM177.292 172.375C175.155 172.375 173.365 171.651 171.922 170.203C170.479 168.755 169.755 166.965 169.75 164.833V149.75H154.667C152.53 149.75 150.74 149.026 149.297 147.578C147.854 146.13 147.13 144.34 147.125 142.208C147.12 140.077 147.844 138.287 149.297 136.839C150.75 135.391 152.54 134.667 154.667 134.667H169.75V119.583C169.75 117.447 170.474 115.657 171.922 114.214C173.37 112.771 175.16 112.047 177.292 112.042C179.423 112.037 181.216 112.761 182.669 114.214C184.122 115.667 184.843 117.457 184.833 119.583V134.667H199.917C202.053 134.667 203.846 135.391 205.294 136.839C206.742 138.287 207.463 140.077 207.458 142.208C207.453 144.34 206.729 146.133 205.286 147.586C203.843 149.039 202.053 149.76 199.917 149.75H184.833V164.833C184.833 166.97 184.109 168.763 182.661 170.211C181.213 171.659 179.423 172.38 177.292 172.375ZM71.7083 74.3334H135.435H132.042H134.681H71.7083Z" fill="white"/>
<rect x="195" y="195" width="42" height="41" rx="20.5" fill="#008282"/>
<rect x="195" y="195" width="42" height="41" rx="20.5" stroke="white" stroke-width="2"/>
<path d="M224 204V208.875V204ZM224 213.75V208.875V213.75ZM224 208.875H229H224ZM224 208.875H219H224Z" fill="white"/>
<path d="M224 204V208.875M224 208.875V213.75M224 208.875H229M224 208.875H219" stroke="white" stroke-linecap="round" stroke-linejoin="round"/>
<path fill-rule="evenodd" clip-rule="evenodd" d="M217 207H209C208.204 207 207.441 207.3 206.878 207.835C206.316 208.369 206 209.094 206 209.85V219.825C206 219.907 206.01 219.986 206.032 220.062C206.01 220.14 206 220.22 206 220.3V223.15C206 223.906 206.316 224.631 206.878 225.165C207.441 225.7 208.204 226 209 226H223C223.795 226 224.558 225.7 225.121 225.165C225.683 224.631 226 223.906 226 223.15V216.5C225.999 216.42 225.989 216.34 225.968 216.262C225.989 216.185 225.999 216.105 226 216.025V215.55H224V215.565C219.703 215.697 216.6 216.681 214.42 218.057C215.246 218.335 216.17 218.732 217.076 219.25C218.475 220.048 219.897 221.169 220.854 222.654C220.922 222.761 220.968 222.879 220.988 223.002C221.009 223.125 221.004 223.251 220.973 223.372C220.942 223.494 220.886 223.608 220.809 223.709C220.732 223.81 220.635 223.895 220.523 223.96C220.41 224.025 220.286 224.069 220.156 224.088C220.027 224.108 219.894 224.103 219.766 224.074C219.639 224.044 219.518 223.992 219.412 223.918C219.306 223.845 219.216 223.752 219.148 223.646C218.412 222.503 217.27 221.577 216.046 220.879C214.824 220.181 213.581 219.746 212.719 219.556C211.504 219.293 210.261 219.17 209.016 219.189H208.994C208.646 219.195 208.314 219.209 208 219.232V209.85C208 209.598 208.105 209.356 208.292 209.178C208.48 209 208.734 208.9 209 208.9H217V207ZM212.5 210.8C211.955 210.805 211.424 210.967 210.978 211.264C210.408 211.653 210 212.295 210 213.175C210 214.055 210.408 214.696 210.978 215.085C211.423 215.384 211.954 215.546 212.5 215.55C212.91 215.55 213.503 215.441 214.022 215.085C214.592 214.696 215 214.055 215 213.175C215 212.295 214.592 211.654 214.022 211.264C213.576 210.965 213.045 210.803 212.5 210.8Z" fill="white"/>
<path d="M96.8975 211L96.1294 208.819H93.127L92.3589 211H91L93.9219 203.115H95.3506L98.2671 211H96.8975ZM95.7964 207.713L95.0498 205.564C95.0212 205.471 94.98 205.341 94.9263 205.172C94.8726 205 94.8188 204.827 94.7651 204.651C94.7114 204.472 94.6667 204.322 94.6309 204.2C94.5951 204.347 94.5503 204.512 94.4966 204.694C94.4465 204.873 94.3963 205.042 94.3462 205.199C94.2996 205.357 94.2638 205.479 94.2388 205.564L93.4868 207.713H95.7964ZM100.112 211H98.8448V202.643H100.112V211ZM102.849 202.643V204.657C102.849 204.889 102.842 205.119 102.828 205.344C102.817 205.566 102.806 205.74 102.796 205.865H102.849C103.01 205.607 103.234 205.391 103.521 205.215C103.811 205.036 104.181 204.947 104.632 204.947C105.338 204.947 105.905 205.206 106.335 205.726C106.765 206.241 106.98 207.006 106.98 208.019C106.98 208.692 106.881 209.258 106.684 209.716C106.487 210.175 106.21 210.522 105.852 210.758C105.497 210.991 105.08 211.107 104.6 211.107C104.149 211.107 103.784 211.025 103.505 210.86C103.229 210.692 103.012 210.497 102.855 210.275H102.763L102.532 211H101.587V202.643H102.849ZM104.299 205.973C103.941 205.973 103.657 206.044 103.445 206.188C103.238 206.331 103.087 206.546 102.994 206.832C102.901 207.115 102.853 207.475 102.849 207.912V208.024C102.849 208.687 102.953 209.194 103.161 209.544C103.372 209.895 103.755 210.071 104.31 210.071C104.751 210.071 105.089 209.894 105.325 209.539C105.562 209.181 105.68 208.669 105.68 208.003C105.68 207.33 105.562 206.823 105.325 206.483C105.093 206.143 104.751 205.973 104.299 205.973ZM113.294 205.054V211H112.3L112.128 210.2H112.058C111.933 210.404 111.774 210.574 111.58 210.71C111.387 210.842 111.172 210.941 110.936 211.005C110.699 211.073 110.451 211.107 110.189 211.107C109.742 211.107 109.358 211.032 109.04 210.882C108.725 210.728 108.483 210.492 108.315 210.173C108.146 209.854 108.062 209.442 108.062 208.938V205.054H109.33V208.701C109.33 209.163 109.423 209.509 109.609 209.738C109.799 209.967 110.093 210.082 110.49 210.082C110.873 210.082 111.177 210.003 111.403 209.845C111.629 209.688 111.788 209.455 111.881 209.147C111.978 208.839 112.026 208.461 112.026 208.014V205.054H113.294ZM121.493 204.941C122.159 204.941 122.66 205.113 122.997 205.457C123.337 205.801 123.507 206.352 123.507 207.111V211H122.245V207.337C122.245 206.886 122.157 206.546 121.982 206.316C121.806 206.087 121.54 205.973 121.181 205.973C120.68 205.973 120.319 206.134 120.097 206.456C119.878 206.775 119.769 207.238 119.769 207.847V211H118.507V207.337C118.507 207.036 118.467 206.785 118.388 206.585C118.313 206.381 118.197 206.229 118.039 206.128C117.882 206.025 117.683 205.973 117.443 205.973C117.096 205.973 116.818 206.051 116.611 206.209C116.407 206.367 116.26 206.599 116.17 206.907C116.081 207.212 116.036 207.586 116.036 208.03V211H114.774V205.054H115.757L115.934 205.854H116.004C116.125 205.647 116.276 205.477 116.455 205.344C116.638 205.208 116.84 205.108 117.062 205.043C117.284 204.975 117.515 204.941 117.755 204.941C118.199 204.941 118.573 205.02 118.877 205.178C119.182 205.332 119.409 205.568 119.559 205.887H119.656C119.842 205.564 120.102 205.326 120.435 205.172C120.768 205.018 121.121 204.941 121.493 204.941ZM127.595 211V203.147H128.884V211H127.595ZM137.218 204.941C137.884 204.941 138.385 205.113 138.722 205.457C139.062 205.801 139.232 206.352 139.232 207.111V211H137.97V207.337C137.97 206.886 137.882 206.546 137.707 206.316C137.531 206.087 137.264 205.973 136.906 205.973C136.405 205.973 136.043 206.134 135.821 206.456C135.603 206.775 135.494 207.238 135.494 207.847V211H134.232V207.337C134.232 207.036 134.192 206.785 134.113 206.585C134.038 206.381 133.922 206.229 133.764 206.128C133.607 206.025 133.408 205.973 133.168 205.973C132.821 205.973 132.543 206.051 132.336 206.209C132.131 206.367 131.985 206.599 131.895 206.907C131.806 207.212 131.761 207.586 131.761 208.03V211H130.499V205.054H131.482L131.659 205.854H131.729C131.85 205.647 132.001 205.477 132.18 205.344C132.362 205.208 132.565 205.108 132.787 205.043C133.009 204.975 133.24 204.941 133.48 204.941C133.924 204.941 134.298 205.02 134.602 205.178C134.906 205.332 135.134 205.568 135.284 205.887H135.381C135.567 205.564 135.827 205.326 136.16 205.172C136.493 205.018 136.845 204.941 137.218 204.941ZM142.995 204.941C143.747 204.941 144.314 205.108 144.697 205.441C145.084 205.774 145.277 206.293 145.277 206.999V211H144.381L144.139 210.157H144.096C143.928 210.372 143.754 210.549 143.575 210.688C143.396 210.828 143.188 210.932 142.952 211C142.719 211.072 142.434 211.107 142.098 211.107C141.743 211.107 141.426 211.043 141.147 210.914C140.868 210.782 140.648 210.581 140.486 210.312C140.325 210.044 140.245 209.704 140.245 209.292C140.245 208.68 140.472 208.22 140.927 207.912C141.385 207.604 142.076 207.434 143 207.401L144.031 207.364V207.052C144.031 206.64 143.935 206.347 143.741 206.171C143.552 205.996 143.283 205.908 142.936 205.908C142.638 205.908 142.35 205.951 142.071 206.037C141.792 206.123 141.52 206.229 141.255 206.354L140.846 205.462C141.136 205.308 141.466 205.183 141.835 205.086C142.207 204.99 142.594 204.941 142.995 204.941ZM144.026 208.159L143.258 208.186C142.628 208.207 142.186 208.314 141.931 208.508C141.677 208.701 141.55 208.966 141.55 209.303C141.55 209.596 141.638 209.811 141.813 209.947C141.989 210.08 142.22 210.146 142.506 210.146C142.943 210.146 143.304 210.022 143.591 209.775C143.881 209.525 144.026 209.158 144.026 208.674V208.159ZM148.412 213.643C147.606 213.643 146.988 213.498 146.559 213.208C146.129 212.917 145.914 212.511 145.914 211.988C145.914 211.623 146.029 211.313 146.258 211.059C146.487 210.808 146.815 210.635 147.241 210.538C147.08 210.466 146.94 210.355 146.822 210.205C146.707 210.051 146.65 209.881 146.65 209.695C146.65 209.473 146.713 209.283 146.838 209.125C146.963 208.968 147.151 208.816 147.402 208.669C147.091 208.536 146.84 208.322 146.65 208.024C146.464 207.724 146.371 207.371 146.371 206.966C146.371 206.537 146.462 206.171 146.645 205.871C146.827 205.566 147.094 205.335 147.445 205.178C147.796 205.017 148.22 204.936 148.718 204.936C148.825 204.936 148.942 204.943 149.067 204.958C149.196 204.968 149.314 204.983 149.422 205C149.533 205.015 149.617 205.031 149.674 205.049H151.731V205.752L150.721 205.94C150.818 206.076 150.895 206.232 150.952 206.408C151.01 206.58 151.038 206.768 151.038 206.972C151.038 207.588 150.825 208.073 150.399 208.427C149.977 208.778 149.393 208.954 148.648 208.954C148.469 208.946 148.295 208.932 148.127 208.911C147.998 208.989 147.9 209.077 147.832 209.174C147.764 209.267 147.73 209.373 147.73 209.491C147.73 209.587 147.764 209.666 147.832 209.727C147.9 209.784 148 209.827 148.133 209.856C148.269 209.885 148.433 209.899 148.627 209.899H149.653C150.304 209.899 150.802 210.037 151.146 210.312C151.489 210.588 151.661 210.993 151.661 211.526C151.661 212.203 151.382 212.724 150.823 213.089C150.265 213.458 149.461 213.643 148.412 213.643ZM148.46 212.756C148.901 212.756 149.271 212.713 149.572 212.627C149.873 212.542 150.1 212.418 150.254 212.257C150.408 212.099 150.485 211.911 150.485 211.693C150.485 211.5 150.437 211.351 150.34 211.247C150.243 211.143 150.098 211.072 149.905 211.032C149.712 210.993 149.472 210.973 149.185 210.973H148.251C148.018 210.973 147.812 211.009 147.633 211.081C147.454 211.156 147.314 211.263 147.214 211.403C147.117 211.542 147.069 211.711 147.069 211.908C147.069 212.18 147.189 212.389 147.429 212.536C147.672 212.683 148.016 212.756 148.46 212.756ZM148.707 208.126C149.076 208.126 149.35 208.026 149.529 207.826C149.708 207.622 149.798 207.335 149.798 206.966C149.798 206.565 149.704 206.264 149.518 206.064C149.336 205.863 149.064 205.763 148.702 205.763C148.347 205.763 148.077 205.865 147.891 206.069C147.708 206.273 147.617 206.576 147.617 206.977C147.617 207.339 147.708 207.622 147.891 207.826C148.077 208.026 148.349 208.126 148.707 208.126ZM154.855 204.941C155.385 204.941 155.839 205.051 156.219 205.269C156.599 205.487 156.89 205.797 157.095 206.198C157.299 206.599 157.401 207.079 157.401 207.638V208.314H153.431C153.446 208.891 153.6 209.335 153.893 209.646C154.191 209.958 154.606 210.114 155.139 210.114C155.519 210.114 155.859 210.078 156.16 210.006C156.464 209.931 156.778 209.822 157.1 209.679V210.705C156.803 210.844 156.5 210.946 156.192 211.011C155.884 211.075 155.515 211.107 155.086 211.107C154.502 211.107 153.988 210.995 153.544 210.769C153.104 210.54 152.758 210.2 152.508 209.749C152.261 209.297 152.137 208.737 152.137 208.067C152.137 207.401 152.25 206.836 152.475 206.37C152.701 205.905 153.018 205.55 153.426 205.307C153.834 205.063 154.311 204.941 154.855 204.941ZM154.855 205.892C154.457 205.892 154.135 206.021 153.888 206.279C153.644 206.537 153.501 206.914 153.458 207.412H156.165C156.162 207.115 156.112 206.852 156.015 206.623C155.922 206.393 155.779 206.214 155.585 206.085C155.395 205.957 155.152 205.892 154.855 205.892Z" fill="#909090"/>
<path d="M91.9404 222.987C91.9404 222.385 91.9977 221.798 92.1123 221.225C92.2305 220.652 92.4095 220.106 92.6494 219.587C92.8893 219.068 93.1919 218.588 93.5571 218.147H94.6582C94.1462 218.831 93.7594 219.589 93.498 220.419C93.2402 221.25 93.1113 222.102 93.1113 222.976C93.1113 223.545 93.1686 224.109 93.2832 224.668C93.3978 225.227 93.5697 225.764 93.7988 226.279C94.028 226.799 94.3109 227.285 94.6475 227.74H93.5571C93.1919 227.311 92.8893 226.841 92.6494 226.333C92.4095 225.825 92.2305 225.287 92.1123 224.722C91.9977 224.156 91.9404 223.578 91.9404 222.987ZM98.8668 226H97.5992V220.946C97.5992 220.778 97.601 220.609 97.6046 220.441C97.6082 220.273 97.6117 220.108 97.6153 219.947C97.6225 219.786 97.6314 219.632 97.6422 219.485C97.567 219.567 97.4739 219.657 97.3629 219.753C97.2554 219.85 97.1409 219.95 97.0191 220.054L96.1168 220.774L95.483 219.974L97.814 218.147H98.8668V226ZM106.438 226H101.12V225.049L103.156 222.987C103.55 222.586 103.874 222.24 104.128 221.95C104.382 221.657 104.57 221.379 104.692 221.118C104.817 220.856 104.88 220.572 104.88 220.264C104.88 219.884 104.771 219.598 104.552 219.404C104.334 219.207 104.046 219.109 103.688 219.109C103.347 219.109 103.032 219.177 102.742 219.313C102.456 219.445 102.159 219.635 101.851 219.882L101.158 219.05C101.376 218.864 101.609 218.694 101.856 218.54C102.107 218.386 102.386 218.264 102.694 218.174C103.002 218.081 103.353 218.035 103.747 218.035C104.244 218.035 104.674 218.124 105.036 218.303C105.397 218.479 105.675 218.724 105.868 219.039C106.065 219.354 106.164 219.721 106.164 220.14C106.164 220.563 106.08 220.953 105.911 221.311C105.743 221.669 105.503 222.024 105.192 222.375C104.88 222.722 104.509 223.1 104.08 223.508L102.721 224.834V224.894H106.438V226ZM112.403 222.068C112.403 222.702 112.352 223.27 112.252 223.771C112.156 224.269 112.002 224.691 111.79 225.039C111.579 225.386 111.303 225.651 110.963 225.833C110.623 226.016 110.211 226.107 109.728 226.107C109.123 226.107 108.623 225.948 108.229 225.629C107.835 225.307 107.544 224.845 107.354 224.244C107.164 223.639 107.069 222.913 107.069 222.068C107.069 221.223 107.155 220.5 107.327 219.898C107.502 219.293 107.785 218.83 108.176 218.507C108.566 218.185 109.083 218.024 109.728 218.024C110.336 218.024 110.838 218.185 111.232 218.507C111.629 218.826 111.923 219.288 112.113 219.893C112.306 220.495 112.403 221.22 112.403 222.068ZM108.342 222.068C108.342 222.731 108.385 223.284 108.471 223.728C108.56 224.172 108.707 224.505 108.911 224.727C109.115 224.945 109.388 225.055 109.728 225.055C110.068 225.055 110.34 224.945 110.544 224.727C110.748 224.509 110.895 224.177 110.985 223.733C111.078 223.289 111.124 222.734 111.124 222.068C111.124 221.41 111.079 220.858 110.99 220.414C110.9 219.97 110.754 219.637 110.55 219.415C110.345 219.189 110.072 219.077 109.728 219.077C109.384 219.077 109.11 219.189 108.906 219.415C108.705 219.637 108.56 219.97 108.471 220.414C108.385 220.858 108.342 221.41 108.342 222.068ZM118.368 222.068C118.368 222.702 118.317 223.27 118.217 223.771C118.12 224.269 117.966 224.691 117.755 225.039C117.544 225.386 117.268 225.651 116.928 225.833C116.588 226.016 116.176 226.107 115.693 226.107C115.088 226.107 114.588 225.948 114.194 225.629C113.8 225.307 113.508 224.845 113.319 224.244C113.129 223.639 113.034 222.913 113.034 222.068C113.034 221.223 113.12 220.5 113.292 219.898C113.467 219.293 113.75 218.83 114.14 218.507C114.531 218.185 115.048 218.024 115.693 218.024C116.301 218.024 116.803 218.185 117.197 218.507C117.594 218.826 117.888 219.288 118.077 219.893C118.271 220.495 118.368 221.22 118.368 222.068ZM114.307 222.068C114.307 222.731 114.35 223.284 114.436 223.728C114.525 224.172 114.672 224.505 114.876 224.727C115.08 224.945 115.353 225.055 115.693 225.055C116.033 225.055 116.305 224.945 116.509 224.727C116.713 224.509 116.86 224.177 116.95 223.733C117.043 223.289 117.089 222.734 117.089 222.068C117.089 221.41 117.044 220.858 116.955 220.414C116.865 219.97 116.719 219.637 116.514 219.415C116.31 219.189 116.036 219.077 115.693 219.077C115.349 219.077 115.075 219.189 114.871 219.415C114.67 219.637 114.525 219.97 114.436 220.414C114.35 220.858 114.307 221.41 114.307 222.068ZM123.267 222.96L121.279 220.054H122.719L124.078 222.144L125.442 220.054H126.876L124.878 222.96L126.978 226H125.533L124.078 223.771L122.617 226H121.183L123.267 222.96ZM133.51 226H132.242V220.946C132.242 220.778 132.244 220.609 132.248 220.441C132.251 220.273 132.255 220.108 132.258 219.947C132.266 219.786 132.275 219.632 132.285 219.485C132.21 219.567 132.117 219.657 132.006 219.753C131.899 219.85 131.784 219.95 131.662 220.054L130.76 220.774L130.126 219.974L132.457 218.147H133.51V226ZM141.081 226H135.763V225.049L137.799 222.987C138.193 222.586 138.517 222.24 138.771 221.95C139.025 221.657 139.213 221.379 139.335 221.118C139.461 220.856 139.523 220.572 139.523 220.264C139.523 219.884 139.414 219.598 139.196 219.404C138.977 219.207 138.689 219.109 138.331 219.109C137.991 219.109 137.676 219.177 137.385 219.313C137.099 219.445 136.802 219.635 136.494 219.882L135.801 219.05C136.019 218.864 136.252 218.694 136.499 218.54C136.75 218.386 137.029 218.264 137.337 218.174C137.645 218.081 137.996 218.035 138.39 218.035C138.888 218.035 139.317 218.124 139.679 218.303C140.041 218.479 140.318 218.724 140.511 219.039C140.708 219.354 140.807 219.721 140.807 220.14C140.807 220.563 140.723 220.953 140.554 221.311C140.386 221.669 140.146 222.024 139.835 222.375C139.523 222.722 139.153 223.1 138.723 223.508L137.364 224.834V224.894H141.081V226ZM147.046 222.068C147.046 222.702 146.996 223.27 146.895 223.771C146.799 224.269 146.645 224.691 146.433 225.039C146.222 225.386 145.946 225.651 145.606 225.833C145.266 226.016 144.854 226.107 144.371 226.107C143.766 226.107 143.266 225.948 142.872 225.629C142.478 225.307 142.187 224.845 141.997 224.244C141.807 223.639 141.712 222.913 141.712 222.068C141.712 221.223 141.798 220.5 141.97 219.898C142.145 219.293 142.428 218.83 142.819 218.507C143.209 218.185 143.726 218.024 144.371 218.024C144.98 218.024 145.481 218.185 145.875 218.507C146.272 218.826 146.566 219.288 146.756 219.893C146.949 220.495 147.046 221.22 147.046 222.068ZM142.985 222.068C142.985 222.731 143.028 223.284 143.114 223.728C143.204 224.172 143.35 224.505 143.554 224.727C143.759 224.945 144.031 225.055 144.371 225.055C144.711 225.055 144.983 224.945 145.187 224.727C145.391 224.509 145.538 224.177 145.628 223.733C145.721 223.289 145.767 222.734 145.767 222.068C145.767 221.41 145.723 220.858 145.633 220.414C145.544 219.97 145.397 219.637 145.193 219.415C144.989 219.189 144.715 219.077 144.371 219.077C144.027 219.077 143.753 219.189 143.549 219.415C143.349 219.637 143.204 219.97 143.114 220.414C143.028 220.858 142.985 221.41 142.985 222.068ZM153.011 222.068C153.011 222.702 152.96 223.27 152.86 223.771C152.764 224.269 152.61 224.691 152.398 225.039C152.187 225.386 151.911 225.651 151.571 225.833C151.231 226.016 150.819 226.107 150.336 226.107C149.731 226.107 149.231 225.948 148.837 225.629C148.443 225.307 148.152 224.845 147.962 224.244C147.772 223.639 147.677 222.913 147.677 222.068C147.677 221.223 147.763 220.5 147.935 219.898C148.11 219.293 148.393 218.83 148.784 218.507C149.174 218.185 149.691 218.024 150.336 218.024C150.945 218.024 151.446 218.185 151.84 218.507C152.237 218.826 152.531 219.288 152.721 219.893C152.914 220.495 153.011 221.22 153.011 222.068ZM148.95 222.068C148.95 222.731 148.993 223.284 149.079 223.728C149.169 224.172 149.315 224.505 149.519 224.727C149.724 224.945 149.996 225.055 150.336 225.055C150.676 225.055 150.948 224.945 151.152 224.727C151.356 224.509 151.503 224.177 151.593 223.733C151.686 223.289 151.732 222.734 151.732 222.068C151.732 221.41 151.688 220.858 151.598 220.414C151.509 219.97 151.362 219.637 151.158 219.415C150.953 219.189 150.68 219.077 150.336 219.077C149.992 219.077 149.718 219.189 149.514 219.415C149.314 219.637 149.169 219.97 149.079 220.414C148.993 220.858 148.95 221.41 148.95 222.068ZM156.209 222.981C156.209 223.576 156.152 224.156 156.038 224.722C155.923 225.287 155.746 225.825 155.506 226.333C155.269 226.841 154.965 227.311 154.593 227.74H153.508C153.844 227.285 154.127 226.799 154.356 226.279C154.586 225.76 154.757 225.221 154.872 224.663C154.987 224.104 155.044 223.54 155.044 222.971C155.044 222.391 154.985 221.818 154.867 221.252C154.752 220.686 154.58 220.142 154.351 219.619C154.122 219.093 153.837 218.602 153.497 218.147H154.593C154.965 218.588 155.269 219.068 155.506 219.587C155.746 220.106 155.923 220.652 156.038 221.225C156.152 221.794 156.209 222.38 156.209 222.981Z" fill="#909090"/>
</svg>
