<svg width="187" height="187" viewBox="0 0 187 187" fill="none" xmlns="http://www.w3.org/2000/svg">
<path fill-rule="evenodd" clip-rule="evenodd" d="M51.875 41.5C51.875 30.4935 56.2473 19.9378 64.0301 12.1551C71.8128 4.37231 82.3685 0 93.375 0C104.381 0 114.937 4.37231 122.72 12.1551C130.503 19.9378 134.875 30.4935 134.875 41.5C134.875 52.5065 130.503 63.0622 122.72 70.8449C114.937 78.6277 104.381 83 93.375 83C82.3685 83 71.8128 78.6277 64.0301 70.8449C56.2473 63.0622 51.875 52.5065 51.875 41.5ZM51.875 103.75C38.1169 103.75 24.9223 109.215 15.1938 118.944C5.46539 128.672 0 141.867 0 155.625C0 163.88 3.27923 171.797 9.1163 177.634C14.9534 183.471 22.8701 186.75 31.125 186.75H155.625C163.88 186.75 171.797 183.471 177.634 177.634C183.471 171.797 186.75 163.88 186.75 155.625C186.75 141.867 181.285 128.672 171.556 118.944C161.828 109.215 148.633 103.75 134.875 103.75H51.875Z" fill="white"/>
</svg>
