<svg width="32" height="33" viewBox="0 0 32 33" fill="none" xmlns="http://www.w3.org/2000/svg">
<rect y="0.419922" width="32" height="32" rx="16" fill="#F97316"/>
<g clip-path="url(#clip0_1155_11078)">
<path d="M23.2594 15.59L22.4219 15.4058C22.264 15.3712 22.1428 15.247 22.1093 15.0888C21.9767 14.4624 21.7508 13.8707 21.4458 13.3291C21.3712 13.1967 21.3759 13.0342 21.4578 12.9062L21.97 12.1066C22.0742 11.9439 22.0512 11.7306 21.9145 11.594L21.0647 10.744C20.928 10.6074 20.7147 10.5843 20.552 10.6885L19.8372 11.1462C19.7012 11.2333 19.5273 11.2321 19.3917 11.1444C18.8661 10.8041 18.2862 10.5409 17.6677 10.3703C17.5209 10.3298 17.4087 10.2114 17.3761 10.0627L17.1739 9.13714C17.1326 8.94836 16.9653 8.81055 16.7721 8.81055H15.5701C15.3768 8.81055 15.2097 8.94836 15.1683 9.13714L14.9851 9.9742C14.9507 10.1313 14.8277 10.2541 14.6707 10.2883C14.0461 10.4243 13.4566 10.6541 12.9172 10.9618C12.7845 11.0374 12.621 11.0337 12.4923 10.9513L11.6851 10.4343C11.5223 10.3302 11.309 10.3533 11.1724 10.4899L10.3224 11.3399C10.1858 11.4765 10.1627 11.6899 10.2669 11.8526L10.7397 12.591C10.8263 12.7262 10.8257 12.8991 10.7392 13.0345C10.4087 13.5522 10.1525 14.1218 9.9855 14.7284C9.94503 14.8754 9.82669 14.9878 9.67775 15.0205L8.71631 15.2307C8.52753 15.2721 8.39062 15.4393 8.39062 15.6325V16.8345C8.39062 17.0277 8.52753 17.1949 8.71631 17.2363L9.59531 17.4287C9.752 17.4631 9.87437 17.5856 9.909 17.7422C10.0435 18.3501 10.2671 18.9246 10.5646 19.4516C10.6395 19.5842 10.6355 19.747 10.5533 19.8752L10.0128 20.7196C9.90853 20.8823 9.93169 21.0956 10.0683 21.2322L10.9183 22.0822C11.055 22.2188 11.2682 22.2419 11.431 22.1377L12.1978 21.6466C12.3333 21.5599 12.5065 21.5608 12.6421 21.6477C13.1504 21.9733 13.7091 22.2272 14.3039 22.3952C14.4497 22.4364 14.561 22.5543 14.5934 22.7022L14.8091 23.6803C14.8504 23.869 15.0176 23.998 15.2108 23.998H16.4129C16.6061 23.998 16.7732 23.869 16.8147 23.6803L17.0081 22.8008C17.0426 22.6432 17.1663 22.5225 17.3239 22.4885C17.9337 22.3574 18.5104 22.1378 19.0398 21.8429C19.172 21.7691 19.3338 21.774 19.4613 21.8557L20.2979 22.3916C20.4606 22.4958 20.6739 22.4727 20.8105 22.3361L21.6605 21.4862C21.7971 21.3496 21.8202 21.1362 21.7161 20.9735L21.2401 20.2304C21.1529 20.0942 21.1543 19.9198 21.2424 19.7842C21.5777 19.2679 21.8387 18.6988 22.0103 18.0922C22.0516 17.9465 22.1695 17.8355 22.3173 17.8032L23.2593 17.5955C23.4481 17.5542 23.578 17.387 23.578 17.1938V15.9917C23.5781 15.7985 23.4482 15.6314 23.2594 15.59ZM15.9502 21.157C13.379 21.157 11.2946 19.0726 11.2946 16.5014C11.2946 13.9302 13.379 11.8458 15.9502 11.8458C18.5214 11.8458 20.6057 13.9302 20.6057 16.5014C20.6057 19.0726 18.5214 21.157 15.9502 21.157Z" fill="white"/>
<path d="M14.1476 15.847C14.5533 15.847 14.8821 15.5181 14.8821 15.1125C14.8821 14.7068 14.5533 14.3779 14.1476 14.3779C13.742 14.3779 13.4131 14.7068 13.4131 15.1125C13.4131 15.5181 13.7419 15.847 14.1476 15.847Z" fill="white"/>
<path d="M17.881 15.847C18.2867 15.847 18.6155 15.5181 18.6155 15.1125C18.6155 14.7068 18.2867 14.3779 17.881 14.3779C17.4754 14.3779 17.1465 14.7068 17.1465 15.1125C17.1465 15.5181 17.4754 15.847 17.881 15.847Z" fill="white"/>
<path d="M16.0114 16.3197C16.4171 16.3197 16.746 15.9908 16.746 15.5851C16.746 15.1795 16.4171 14.8506 16.0114 14.8506C15.6057 14.8506 15.2769 15.1795 15.2769 15.5851C15.2769 15.9908 15.6057 16.3197 16.0114 16.3197Z" fill="white"/>
<path d="M15.9844 16.6113C15.1991 16.6113 14.5781 17.2479 14.5781 18.0331V18.3251C14.5781 18.3819 14.6286 18.4356 14.6855 18.4356H17.3232C17.38 18.4356 17.3906 18.3819 17.3906 18.3251V18.0331C17.3906 17.2479 16.7697 16.6113 15.9844 16.6113Z" fill="white"/>
<path d="M15.0812 16.5018C14.8308 16.2792 14.4782 16.1406 14.1171 16.1406C13.3317 16.1406 12.6719 16.7746 12.6719 17.5593V17.851C12.6719 17.908 12.7646 17.9664 12.8216 17.9664H14.2329C14.2641 17.3102 14.5948 16.8142 15.0812 16.5018Z" fill="white"/>
<path d="M17.8746 16.1377C17.5118 16.1377 17.1819 16.2806 16.9312 16.504C17.4156 16.8161 17.7444 17.3103 17.7756 17.9665H19.1924C19.2494 17.9665 19.2967 17.9082 19.2967 17.8512V17.5594C19.2967 17.1671 19.1373 16.8113 18.88 16.5547C18.6227 16.2966 18.2676 16.1377 17.8746 16.1377Z" fill="white"/>
</g>
<defs>
<clipPath id="clip0_1155_11078">
<rect width="16" height="16" fill="white" transform="translate(8 8.41992)"/>
</clipPath>
</defs>
</svg>
