<svg width="40" height="40" viewBox="0 0 40 40" fill="none" xmlns="http://www.w3.org/2000/svg">
<g clip-path="url(#clip0_211_12634)">
<path opacity="0.2" d="M22 11.58L36.628 9.04C36.788 9.01333 36.9493 9 37.112 9C38.714 9 40 10.328 40 11.95V31.522C40 32.962 38.978 34.202 37.574 34.434L22.164 36.986C22.0447 37.0065 21.9228 37.0051 21.804 36.982L6.51 34.448C5.80879 34.3319 5.17158 33.9706 4.71189 33.4285C4.25221 32.8864 3.99993 32.1988 4 31.488V12.022C4 11.5847 4.0956 11.1527 4.28011 10.7562C4.46463 10.3597 4.73359 10.0084 5.06816 9.72678C5.40273 9.44518 5.79482 9.24012 6.21696 9.12598C6.63911 9.01184 7.08111 8.99137 7.512 9.066L22 11.58Z" fill="#7077FE"/>
<path fill-rule="evenodd" clip-rule="evenodd" d="M20.16 8.608L4.488 6.038C4.05838 5.96718 3.61849 5.99072 3.19889 6.10699C2.77928 6.22326 2.39001 6.42948 2.05812 6.71132C1.72623 6.99317 1.45966 7.34388 1.27694 7.7391C1.09422 8.13432 0.999717 8.56459 1 9V28.476C0.999977 29.1913 1.2555 29.883 1.72049 30.4265C2.18549 30.9699 2.82936 31.3294 3.536 31.44L19.846 33.99C19.9886 34.0122 20.1344 34.0033 20.2732 33.9639C20.412 33.9245 20.5407 33.8554 20.6504 33.7616C20.76 33.6677 20.848 33.5512 20.9084 33.4201C20.9687 33.289 21 33.1463 21 33.002V9.594C20.9997 9.35671 20.9151 9.12725 20.7612 8.94662C20.6073 8.76599 20.3942 8.64597 20.16 8.608ZM4.16 8.012L19 10.444V31.832L3.846 29.46C3.61067 29.4233 3.39616 29.3039 3.24107 29.1231C3.08598 28.9423 3.00049 28.7122 3 28.474V9C2.99987 8.85507 3.03125 8.71185 3.09196 8.58024C3.15267 8.44864 3.24126 8.3318 3.35159 8.23783C3.46192 8.14385 3.59137 8.07499 3.73096 8.03599C3.87054 7.997 4.01694 7.98881 4.16 8.012Z" fill="#7077FE"/>
<path fill-rule="evenodd" clip-rule="evenodd" d="M36 6C35.8371 6.00012 35.6746 6.0135 35.514 6.04L19.84 8.606C19.6061 8.64439 19.3935 8.7646 19.24 8.94519C19.0865 9.12578 19.0021 9.355 19.002 9.592V33C19.002 33.1443 19.0332 33.287 19.0936 33.4181C19.1539 33.5492 19.242 33.6657 19.3516 33.7596C19.4612 33.8534 19.5899 33.9225 19.7288 33.9619C19.8676 34.0013 20.0133 34.0102 20.156 33.988L36.466 31.438C37.1726 31.3274 37.8165 30.9679 38.2815 30.4244C38.7465 29.881 39.002 29.1893 39.002 28.474V9C39.002 8.60587 38.9243 8.2156 38.7734 7.85149C38.6225 7.48738 38.4014 7.15657 38.1226 6.87797C37.8438 6.59937 37.5128 6.37843 37.1486 6.22779C36.7844 6.07714 36.3941 5.99974 36 6ZM36.154 29.46L21 31.834V10.444L35.84 8.012C35.983 7.98881 36.1294 7.997 36.269 8.03599C36.4086 8.07498 36.538 8.14385 36.6484 8.23783C36.7587 8.3318 36.8473 8.44864 36.908 8.58024C36.9687 8.71184 37.0001 8.85507 37 9V28.474C36.9995 28.7122 36.914 28.9423 36.7589 29.1231C36.6038 29.3039 36.3893 29.4233 36.154 29.46Z" fill="#7077FE"/>
</g>
<defs>
<clipPath id="clip0_211_12634">
<rect width="40" height="40" fill="white"/>
</clipPath>
</defs>
</svg>
