<svg width="36" height="36" viewBox="0 0 36 36" fill="none" xmlns="http://www.w3.org/2000/svg">
<rect width="36" height="36" rx="18" fill="white"/>
<path d="M13.4706 14.2942H12.647C12.2102 14.2942 11.7913 14.4677 11.4824 14.7766C11.1735 15.0855 11 15.5044 11 15.9412V23.353C11 23.7898 11.1735 24.2087 11.4824 24.5176C11.7913 24.8265 12.2102 25 12.647 25H20.0588C20.4956 25 20.9145 24.8265 21.2234 24.5176C21.5323 24.2087 21.7058 23.7898 21.7058 23.353V22.5294" stroke="black" stroke-width="1.5" stroke-linecap="round" stroke-linejoin="round"/>
<path d="M20.8823 12.6471L23.3529 15.1177M24.4935 13.9524C24.8178 13.6281 25.0001 13.1882 25.0001 12.7295C25.0001 12.2708 24.8178 11.8309 24.4935 11.5066C24.1692 11.1822 23.7293 11 23.2706 11C22.8119 11 22.372 11.1822 22.0476 11.5066L15.1177 18.4118V20.8824H17.5882L24.4935 13.9524Z" stroke="black" stroke-width="1.5" stroke-linecap="round" stroke-linejoin="round"/>
</svg>
