<svg width="15" height="15" viewBox="0 0 15 15" fill="none" xmlns="http://www.w3.org/2000/svg">
<path d="M10.3125 4.21875H12.2325C12.3486 4.21886 12.4606 4.26208 12.5466 4.34002C12.6327 4.41796 12.6868 4.52508 12.6984 4.64062L12.9844 7.5H12.0412L11.8069 5.15625H10.3125V6.5625C10.3125 6.68682 10.2631 6.80605 10.1752 6.89396C10.0873 6.98186 9.96805 7.03125 9.84373 7.03125C9.71941 7.03125 9.60018 6.98186 9.51227 6.89396C9.42437 6.80605 9.37498 6.68682 9.37498 6.5625V5.15625H5.62498V6.5625C5.62498 6.68682 5.5756 6.80605 5.48769 6.89396C5.39978 6.98186 5.28055 7.03125 5.15623 7.03125C5.03191 7.03125 4.91268 6.98186 4.82478 6.89396C4.73687 6.80605 4.68748 6.68682 4.68748 6.5625V5.15625H3.19217L2.44217 12.6562H7.49998V13.5938H1.92373C1.85826 13.5937 1.79353 13.5799 1.73371 13.5533C1.67389 13.5267 1.6203 13.4879 1.5764 13.4393C1.53251 13.3907 1.49928 13.3335 1.47885 13.2713C1.45842 13.2091 1.45125 13.1433 1.45779 13.0781L2.30154 4.64062C2.31316 4.52508 2.36724 4.41796 2.45333 4.34002C2.53941 4.26208 2.65136 4.21886 2.76748 4.21875H4.68748V3.89156C4.68748 2.26594 5.93998 0.9375 7.49998 0.9375C9.05998 0.9375 10.3125 2.26594 10.3125 3.89156V4.21969V4.21875ZM9.37498 4.21875V3.89156C9.37498 2.77219 8.52936 1.875 7.49998 1.875C6.47061 1.875 5.62498 2.77219 5.62498 3.89156V4.21969H9.37498V4.21875ZM12.3253 11.3063L11.25 10.2319V13.5938C11.25 13.7181 11.2006 13.8373 11.1127 13.9252C11.0248 14.0131 10.9056 14.0625 10.7812 14.0625C10.6569 14.0625 10.5377 14.0131 10.4498 13.9252C10.3619 13.8373 10.3125 13.7181 10.3125 13.5938V10.2319L9.23811 11.3063C9.19487 11.351 9.14314 11.3867 9.08595 11.4113C9.02876 11.4359 8.96725 11.4488 8.90501 11.4493C8.84277 11.4499 8.78105 11.438 8.72344 11.4144C8.66583 11.3909 8.6135 11.3561 8.56948 11.3121C8.52547 11.268 8.49067 11.2157 8.4671 11.1581C8.44353 11.1005 8.43167 11.0388 8.43221 10.9765C8.43275 10.9143 8.44568 10.8528 8.47025 10.7956C8.49481 10.7384 8.53052 10.6867 8.57529 10.6434L10.4503 8.76844C10.5382 8.68056 10.6574 8.63119 10.7817 8.63119C10.906 8.63119 11.0252 8.68056 11.1131 8.76844L12.9881 10.6434C13.0329 10.6867 13.0686 10.7384 13.0932 10.7956C13.1177 10.8528 13.1307 10.9143 13.1312 10.9765C13.1317 11.0388 13.1199 11.1005 13.0963 11.1581C13.0727 11.2157 13.0379 11.268 12.9939 11.3121C12.9499 11.3561 12.8976 11.3909 12.84 11.4144C12.7824 11.438 12.7206 11.4499 12.6584 11.4493C12.5961 11.4488 12.5346 11.4359 12.4774 11.4113C12.4203 11.3867 12.3685 11.351 12.3253 11.3063Z" fill="#9747FF"/>
</svg>
