<svg width="60" height="60" viewBox="0 0 60 60" fill="none" xmlns="http://www.w3.org/2000/svg">
<rect x="0.35" y="0.35" width="59.3" height="59.3" rx="9.65" fill="white"/>
<rect x="0.35" y="0.35" width="59.3" height="59.3" rx="9.65" stroke="#848484" stroke-width="0.7"/>
<path fill-rule="evenodd" clip-rule="evenodd" d="M18 30C18.0002 27.6907 18.6668 25.4305 19.9197 23.4906C21.1726 21.5507 22.9586 20.0135 25.0635 19.0635C27.1684 18.1135 29.5027 17.7911 31.7863 18.1348C34.0699 18.4786 36.2058 19.4739 37.9377 21.0015C39.6696 22.529 40.924 24.5239 41.5503 26.7467C42.1766 28.9694 42.1482 31.3257 41.4685 33.5328C40.7889 35.7398 39.4869 37.7039 37.7187 39.1893C35.9505 40.6747 33.7912 41.6183 31.5 41.907V33H34.5C34.8978 33 35.2794 32.842 35.5607 32.5607C35.842 32.2794 36 31.8978 36 31.5C36 31.1022 35.842 30.7206 35.5607 30.4393C35.2794 30.158 34.8978 30 34.5 30H31.5V27C31.5 26.6022 31.658 26.2206 31.9393 25.9393C32.2206 25.658 32.6022 25.5 33 25.5H33.75C34.1478 25.5 34.5294 25.342 34.8107 25.0607C35.092 24.7794 35.25 24.3978 35.25 24C35.25 23.6022 35.092 23.2206 34.8107 22.9393C34.5294 22.658 34.1478 22.5 33.75 22.5H33C31.8065 22.5 30.6619 22.9741 29.818 23.818C28.9741 24.6619 28.5 25.8065 28.5 27V30H25.5C25.1022 30 24.7206 30.158 24.4393 30.4393C24.158 30.7206 24 31.1022 24 31.5C24 31.8978 24.158 32.2794 24.4393 32.5607C24.7206 32.842 25.1022 33 25.5 33H28.5V41.907C25.5999 41.5416 22.9329 40.1303 20.9996 37.938C19.0663 35.7456 17.9997 32.923 18 30ZM30 45C38.2845 45 45 38.2845 45 30C45 21.7155 38.2845 15 30 15C21.7155 15 15 21.7155 15 30C15 38.2845 21.7155 45 30 45Z" fill="#848484"/>
</svg>
