<svg width="34" height="34" viewBox="0 0 34 34" fill="none" xmlns="http://www.w3.org/2000/svg">
<g clip-path="url(#clip0_75_2530)">
<path d="M21.6667 9H12.3333C11.4496 9.00106 10.6024 9.35259 9.97748 9.97748C9.35259 10.6024 9.00106 11.4496 9 12.3333L9 21.6667C9.00106 22.5504 9.35259 23.3976 9.97748 24.0225C10.6024 24.6474 11.4496 24.9989 12.3333 25H21.6667C22.5504 24.9989 23.3976 24.6474 24.0225 24.0225C24.6474 23.3976 24.9989 22.5504 25 21.6667V12.3333C24.9989 11.4496 24.6474 10.6024 24.0225 9.97748C23.3976 9.35259 22.5504 9.00106 21.6667 9ZM23.6667 21.6667C23.6667 22.1971 23.456 22.7058 23.0809 23.0809C22.7058 23.456 22.1971 23.6667 21.6667 23.6667H12.3333C11.8029 23.6667 11.2942 23.456 10.9191 23.0809C10.544 22.7058 10.3333 22.1971 10.3333 21.6667V12.3333C10.3333 11.8029 10.544 11.2942 10.9191 10.9191C11.2942 10.544 11.8029 10.3333 12.3333 10.3333H21.6667C22.1971 10.3333 22.7058 10.544 23.0809 10.9191C23.456 11.2942 23.6667 11.8029 23.6667 12.3333V21.6667Z" fill="black"/>
<path d="M13.6667 15.6666C14.0623 15.6666 14.449 15.5493 14.7779 15.3296C15.1068 15.1098 15.3631 14.7974 15.5145 14.432C15.6659 14.0665 15.7055 13.6644 15.6283 13.2764C15.5511 12.8885 15.3607 12.5321 15.081 12.2524C14.8013 11.9727 14.4449 11.7822 14.0569 11.7051C13.669 11.6279 13.2668 11.6675 12.9014 11.8189C12.5359 11.9702 12.2236 12.2266 12.0038 12.5555C11.784 12.8844 11.6667 13.2711 11.6667 13.6666C11.6667 14.1971 11.8775 14.7058 12.2525 15.0808C12.6276 15.4559 13.1363 15.6666 13.6667 15.6666ZM13.6667 13C13.7986 13 13.9275 13.0391 14.0371 13.1123C14.1468 13.1856 14.2322 13.2897 14.2827 13.4115C14.3331 13.5333 14.3463 13.6674 14.3206 13.7967C14.2949 13.926 14.2314 14.0448 14.1382 14.138C14.0449 14.2313 13.9261 14.2948 13.7968 14.3205C13.6675 14.3462 13.5334 14.333 13.4116 14.2825C13.2898 14.2321 13.1857 14.1466 13.1124 14.037C13.0392 13.9274 13.0001 13.7985 13.0001 13.6666C13.0001 13.4898 13.0703 13.3202 13.1953 13.1952C13.3204 13.0702 13.4899 13 13.6667 13Z" fill="black"/>
<path d="M20.1385 15.8616C20.0751 15.7955 19.9982 15.7439 19.9131 15.7102C19.828 15.6765 19.7366 15.6615 19.6451 15.6663C19.5539 15.6695 19.4642 15.6913 19.3817 15.7304C19.2991 15.7695 19.2254 15.825 19.1651 15.8936L17.1451 18.1996L15.4718 16.5256C15.3468 16.4006 15.1772 16.3304 15.0005 16.3304C14.8237 16.3304 14.6541 16.4006 14.5291 16.5256L11.8625 19.1923C11.7988 19.2538 11.748 19.3273 11.7131 19.4087C11.6781 19.49 11.6597 19.5775 11.659 19.666C11.6582 19.7545 11.6751 19.8423 11.7086 19.9242C11.7421 20.0062 11.7916 20.0806 11.8542 20.1432C11.9168 20.2058 11.9912 20.2553 12.0732 20.2888C12.1551 20.3223 12.2429 20.3392 12.3314 20.3384C12.4199 20.3377 12.5074 20.3193 12.5887 20.2843C12.6701 20.2494 12.7436 20.1986 12.8051 20.1349L15.0005 17.9423L16.2671 19.2089L14.4985 21.2269C14.3819 21.3601 14.3231 21.5341 14.3348 21.7106C14.3466 21.8871 14.428 22.0518 14.5611 22.1683C14.6943 22.2848 14.8682 22.3437 15.0448 22.3319C15.2213 22.3201 15.3859 22.2387 15.5025 22.1056L17.6478 19.6536H17.6518L17.6565 19.6463L19.6998 17.3129L21.1958 18.8089C21.3215 18.9304 21.4899 18.9976 21.6647 18.9961C21.8395 18.9945 22.0067 18.9244 22.1303 18.8008C22.2539 18.6772 22.3241 18.51 22.3256 18.3352C22.3271 18.1604 22.2599 17.992 22.1385 17.8663L20.1385 15.8616Z" fill="black"/>
</g>
<defs>
<clipPath id="clip0_75_2530">
<rect width="16" height="16" fill="white" transform="translate(9 9)"/>
</clipPath>
</defs>
</svg>
