<svg width="20" height="20" viewBox="0 0 20 20" fill="none" xmlns="http://www.w3.org/2000/svg">
<path d="M10.2124 2.9775C10.527 2.81502 10.8591 2.6892 11.2024 2.6025C11.2324 3.2775 11.4424 3.945 11.7274 4.5825C12.1324 5.48375 12.7274 6.40375 13.3074 7.295L13.3749 7.3975C13.9436 8.26875 14.4999 9.12 14.9224 9.975C15.3599 10.8612 15.6286 11.6988 15.6286 12.5C15.6286 13.9412 15.1974 15.1837 14.3886 16.06C13.5886 16.9287 12.3586 17.5 10.6286 17.5C8.88239 17.5 7.66864 16.995 6.82114 16.2188C5.96239 15.4338 5.41864 14.315 5.12364 12.9887C4.84614 11.7413 5.09114 10.6225 5.41739 9.80125C5.47073 9.66792 5.52489 9.54292 5.57989 9.42625L5.73614 9.74C5.84905 9.96654 6.00552 10.1686 6.19661 10.3346C6.3877 10.5006 6.60965 10.6273 6.84976 10.7074C7.08987 10.7875 7.34342 10.8195 7.5959 10.8015C7.84838 10.7835 8.09483 10.7159 8.32114 10.6025C9.37864 10.0738 9.67114 8.7775 9.22364 7.8075C8.75864 6.79875 8.39614 5.545 8.71989 4.5725C8.96364 3.8425 9.54239 3.3225 10.2111 2.9775M5.13739 7.73625L5.13489 7.74125L5.12864 7.74875L5.10864 7.77375L5.04489 7.8625C4.98989 7.93833 4.91906 8.045 4.83239 8.1825C4.60692 8.55098 4.4137 8.93826 4.25489 9.34C3.86739 10.315 3.55489 11.6962 3.90364 13.2613C4.23489 14.7488 4.87239 16.1288 5.97739 17.1413C7.09239 18.1613 8.62364 18.75 10.6286 18.75C12.6511 18.75 14.2336 18.0713 15.3074 16.9088C16.3736 15.7538 16.8786 14.1838 16.8786 12.5C16.8786 11.4262 16.5224 10.3888 16.0424 9.42C15.5861 8.4975 14.9924 7.59 14.4361 6.73625L14.3549 6.61125C13.7636 5.705 13.2249 4.8675 12.8674 4.07C12.5099 3.2725 12.3711 2.595 12.4899 1.9975C12.508 1.90686 12.5058 1.81333 12.4834 1.72365C12.461 1.63397 12.419 1.55037 12.3604 1.47887C12.3019 1.40738 12.2282 1.34977 12.1446 1.31019C12.0611 1.27061 11.9698 1.25006 11.8774 1.25C11.3499 1.25 10.4711 1.435 9.63739 1.86625C8.79614 2.3025 7.91614 3.0325 7.53489 4.1775C7.04739 5.64 7.60864 7.29 8.08864 8.33125C8.30239 8.79375 8.11614 9.30625 7.76239 9.48375C7.68298 9.52366 7.59647 9.5475 7.50782 9.5539C7.41917 9.56029 7.33013 9.54911 7.24581 9.52101C7.16149 9.4929 7.08355 9.44842 7.01647 9.39011C6.94938 9.33181 6.89447 9.26083 6.85489 9.18125L6.18614 7.845C6.13913 7.75099 6.06917 7.67035 5.98273 7.61055C5.89628 7.55075 5.79616 7.51372 5.69161 7.50287C5.58706 7.49203 5.48146 7.50774 5.38459 7.54853C5.28771 7.58932 5.20269 7.65389 5.13739 7.73625Z" fill="#A7A6A6"/>
</svg>
