<svg width="24" height="25" viewBox="0 0 24 25" fill="none" xmlns="http://www.w3.org/2000/svg">
<path d="M12.0001 23.4199C13.9892 23.4199 15.8969 22.6297 17.3034 21.2232C18.7099 19.8167 19.5001 17.909 19.5001 15.9199C19.5001 15.0539 19.2701 14.2229 19.0001 13.4499C17.3331 15.0969 16.0671 15.9199 15.2001 15.9199C19.1951 8.91992 17.0001 5.91992 11.0001 1.91992C11.5001 6.91992 8.20409 9.19392 6.86209 10.4569C5.76742 11.4866 5.00733 12.8214 4.68038 14.2882C4.35342 15.7551 4.47468 17.2863 5.02844 18.6835C5.5822 20.0806 6.5429 21.2791 7.786 22.1236C9.0291 22.9682 10.4972 23.4198 12.0001 23.4199ZM12.7101 5.65492C15.9511 8.40492 15.9671 10.5419 13.4631 14.9289C12.7021 16.2619 13.6651 17.9199 15.2001 17.9199C15.8881 17.9199 16.5841 17.7199 17.3191 17.3249C17.1012 18.1479 16.6953 18.9091 16.1333 19.5485C15.5712 20.1879 14.8684 20.6882 14.0802 21.0098C13.2919 21.3314 12.4398 21.4657 11.5908 21.402C10.7419 21.3383 9.91933 21.0785 9.1879 20.6428C8.45647 20.2072 7.83615 19.6077 7.37578 18.8916C6.91541 18.1755 6.62757 17.3623 6.53491 16.516C6.44226 15.6697 6.54732 14.8135 6.84183 14.0148C7.13634 13.216 7.61225 12.4965 8.23209 11.9129C8.35809 11.7949 8.99709 11.2279 9.02509 11.2029C9.44909 10.8229 9.79809 10.4859 10.1431 10.1169C11.3731 8.79892 12.2571 7.33692 12.7091 5.65492H12.7101Z" fill="#F07EFF"/>
</svg>
