<svg width="32" height="33" viewBox="0 0 32 33" fill="none" xmlns="http://www.w3.org/2000/svg">
<rect y="0.370239" width="32" height="32" rx="16" fill="#20B9EB" fill-opacity="0.1"/>
<g clip-path="url(#clip0_146_4637)">
<path d="M16 9.37122C14.6155 9.37122 13.2622 9.78176 12.111 10.5509C10.9599 11.3201 10.0627 12.4133 9.53285 13.6924C9.00303 14.9715 8.86441 16.379 9.13451 17.7368C9.4046 19.0947 10.0713 20.342 11.0503 21.321C12.0292 22.2999 13.2765 22.9666 14.6344 23.2367C15.9922 23.5068 17.3997 23.3682 18.6788 22.8384C19.9579 22.3086 21.0511 21.4114 21.8203 20.2602C22.5895 19.1091 23 17.7557 23 16.3712C22.9985 14.5152 22.2605 12.7356 20.948 11.4232C19.6356 10.1108 17.856 9.37276 16 9.37122ZM16.5833 19.8712C16.5833 20.0259 16.5219 20.1743 16.4125 20.2837C16.3031 20.3931 16.1547 20.4545 16 20.4545C15.8453 20.4545 15.6969 20.3931 15.5875 20.2837C15.4781 20.1743 15.4167 20.0259 15.4167 19.8712V15.7879H14.8333C14.6786 15.7879 14.5303 15.7264 14.4209 15.617C14.3115 15.5076 14.25 15.3593 14.25 15.2045C14.25 15.0498 14.3115 14.9015 14.4209 14.7921C14.5303 14.6827 14.6786 14.6212 14.8333 14.6212H16C16.1547 14.6212 16.3031 14.6827 16.4125 14.7921C16.5219 14.9015 16.5833 15.0498 16.5833 15.2045V19.8712ZM16.0117 13.4545C15.857 13.4553 15.7083 13.3946 15.5983 13.2858C15.4884 13.1769 15.4262 13.0288 15.4254 12.8741C15.4246 12.7194 15.4854 12.5707 15.5942 12.4608C15.7031 12.3509 15.8511 12.2887 16.0058 12.2879H16.0117C16.1664 12.2879 16.3148 12.3493 16.4241 12.4587C16.5335 12.5681 16.595 12.7165 16.595 12.8712C16.595 13.0259 16.5335 13.1743 16.4241 13.2837C16.3148 13.3931 16.1664 13.4545 16.0117 13.4545Z" fill="#20B9EB"/>
</g>
<defs>
<clipPath id="clip0_146_4637">
<rect width="14" height="14" fill="white" transform="translate(9 9.37024)"/>
</clipPath>
</defs>
</svg>
