<svg width="18" height="19" viewBox="0 0 18 19" fill="none" xmlns="http://www.w3.org/2000/svg">
<path d="M14.625 5.5603H3.375C2.44302 5.5603 1.6875 6.31582 1.6875 7.2478V13.9978C1.6875 14.9298 2.44302 15.6853 3.375 15.6853H14.625C15.557 15.6853 16.3125 14.9298 16.3125 13.9978V7.2478C16.3125 6.31582 15.557 5.5603 14.625 5.5603Z" stroke="#222224" stroke-width="1.125" stroke-linejoin="round"/>
<path d="M14.4619 5.55974V4.50505C14.4618 4.24637 14.4046 3.9909 14.2944 3.75686C14.1842 3.52283 14.0238 3.31599 13.8244 3.15112C13.6251 2.98625 13.3919 2.8674 13.1413 2.80305C12.8908 2.73871 12.6291 2.73045 12.375 2.77888L3.11625 4.35915C2.71418 4.43577 2.35144 4.65031 2.09062 4.96575C1.82979 5.28119 1.68722 5.67777 1.6875 6.08708V7.80974" stroke="#222224" stroke-width="1.125" stroke-linejoin="round"/>
<path d="M12.9375 11.7493C12.715 11.7493 12.4975 11.6833 12.3125 11.5597C12.1275 11.4361 11.9833 11.2604 11.8981 11.0548C11.813 10.8492 11.7907 10.623 11.8341 10.4048C11.8775 10.1866 11.9847 9.98611 12.142 9.82877C12.2993 9.67144 12.4998 9.56429 12.718 9.52088C12.9363 9.47748 13.1625 9.49976 13.368 9.5849C13.5736 9.67005 13.7493 9.81425 13.8729 9.99925C13.9965 10.1843 14.0625 10.4018 14.0625 10.6243C14.0625 10.9226 13.944 11.2088 13.733 11.4198C13.522 11.6307 13.2359 11.7493 12.9375 11.7493Z" fill="#222224"/>
</svg>
