<svg width="21" height="21" viewBox="0 0 21 21" fill="none" xmlns="http://www.w3.org/2000/svg">
<path d="M3 10.3789L4.66667 8.71224M4.66667 8.71224L10.5 2.87891L16.3333 8.71224M4.66667 8.71224V17.0456C4.66667 17.5058 5.03976 17.8789 5.5 17.8789H8M16.3333 8.71224L18 10.3789M16.3333 8.71224V17.0456C16.3333 17.5058 15.9602 17.8789 15.5 17.8789H13M8 17.8789C8.46024 17.8789 8.83333 17.5058 8.83333 17.0456V13.7122C8.83333 13.252 9.20643 12.8789 9.66667 12.8789H11.3333C11.7936 12.8789 12.1667 13.252 12.1667 13.7122V17.0456C12.1667 17.5058 12.5398 17.8789 13 17.8789M8 17.8789H13" stroke="#7077FE" stroke-width="1.5" stroke-linecap="round" stroke-linejoin="round"/>
</svg>
