<svg width="15" height="18" viewBox="0 0 15 18" fill="none" xmlns="http://www.w3.org/2000/svg">
<path d="M0.5 8.31C0.5 6.952 0.5 6.273 0.774 5.676C1.049 5.079 1.564 4.638 2.595 3.754L3.595 2.897C5.46 1.3 6.39 0.5 7.5 0.5C8.61 0.5 9.541 1.299 11.405 2.896L12.405 3.753C13.435 4.637 13.951 5.078 14.225 5.675C14.5 6.272 14.5 6.951 14.5 8.309V12.55C14.5 14.436 14.5 15.378 13.914 15.964C13.328 16.55 12.386 16.55 10.5 16.55H4.5C2.614 16.55 1.672 16.55 1.086 15.964C0.5 15.378 0.5 14.436 0.5 12.55V8.31Z" stroke="#3D3D3D"/>
<path d="M10 16.55V11.55C10 11.2848 9.89464 11.0304 9.70711 10.8429C9.51957 10.6554 9.26522 10.55 9 10.55H6C5.73478 10.55 5.48043 10.6554 5.29289 10.8429C5.10536 11.0304 5 11.2848 5 11.55V16.55" stroke="#3D3D3D" stroke-linecap="round" stroke-linejoin="round"/>
</svg>
