<svg width="676" height="271" viewBox="0 0 676 271" fill="none" xmlns="http://www.w3.org/2000/svg">
<path d="M134.82 268.09C208.175 268.09 267.64 208.625 267.64 135.27C267.64 61.9157 208.175 2.4502 134.82 2.4502C61.4656 2.4502 2 61.9157 2 135.27C2 208.625 61.4656 268.09 134.82 268.09Z" fill="#4D71DF"/>
<path d="M180.37 135.27C155.28 146.57 146.12 155.74 134.82 180.82C123.52 155.73 114.35 146.57 89.27 135.27C114.36 123.97 123.52 114.8 134.82 89.7197C146.12 114.81 155.29 123.97 180.37 135.27Z" fill="url(#paint0_linear_1663_29055)"/>
<path d="M269.57 131.1C269.36 123.86 268.56 116.77 267.23 109.86C266.98 108.51 266.7 107.16 266.39 105.83C265.72 102.81 264.94 99.83 264.07 96.9C263.32 94.36 262.49 91.8499 261.6 89.3799C246.05 46.5699 209.39 13.79 164.27 3.70996C162.93 3.39996 161.58 3.11993 160.23 2.86993C153.32 1.53993 146.23 0.739968 138.99 0.529968C137.67 0.479968 136.36 0.459961 135.03 0.459961H134.61C133.28 0.459961 131.97 0.479968 130.65 0.529968C123.41 0.739968 116.32 1.53993 109.41 2.86993C108.06 3.11993 106.72 3.39995 105.38 3.69995C60.2601 13.79 23.59 46.5599 8.04004 89.3799C7.15004 91.8499 6.32007 94.36 5.57007 96.9C4.70007 99.83 3.92 102.81 3.25 105.83C2.94 107.16 2.66003 108.51 2.41003 109.86C1.08003 116.77 0.280068 123.86 0.0700684 131.1C0.0200684 132.42 0 133.74 0 135.06V135.48C0 136.8 0.0200684 138.12 0.0700684 139.44C0.280068 146.68 1.08003 153.77 2.41003 160.68C2.66003 162.03 2.93999 163.38 3.23999 164.72C3.91999 167.74 4.69007 170.73 5.57007 173.67C6.32007 176.21 7.15004 178.71 8.04004 181.17C23.59 223.99 60.2601 256.76 105.38 266.85C106.72 267.15 108.06 267.43 109.41 267.68C116.32 269.01 123.41 269.81 130.65 270.02C131.97 270.07 133.28 270.09 134.61 270.09H135.03C136.36 270.09 137.67 270.07 138.99 270.02C146.23 269.81 153.32 269.01 160.23 267.68C161.58 267.43 162.93 267.15 164.27 266.84C209.39 256.76 246.05 223.98 261.6 181.17C262.49 178.71 263.32 176.21 264.07 173.67C264.95 170.73 265.72 167.74 266.4 164.72C266.7 163.38 266.98 162.03 267.23 160.68C268.56 153.77 269.36 146.68 269.57 139.44C269.62 138.12 269.64 136.8 269.64 135.48V135.06C269.64 133.74 269.62 132.42 269.57 131.1ZM265.64 135.69C265.64 137.02 265.61 138.34 265.56 139.65C265.33 146.91 264.5 154.01 263.11 160.92C262.85 162.28 262.55 163.63 262.24 164.97C261.14 169.71 259.78 174.35 258.17 178.87C257.25 181.48 256.24 184.04 255.16 186.57C238.96 224.44 205.39 253.17 164.52 262.69C163.18 263 161.84 263.29 160.48 263.56C153.57 264.94 146.46 265.78 139.21 266.01C137.9 266.06 136.58 266.09 135.25 266.09H134.39C133.06 266.09 131.74 266.06 130.43 266.01C123.18 265.78 116.07 264.94 109.16 263.56C107.81 263.29 106.46 263 105.13 262.7C64.2501 253.17 30.68 224.44 14.48 186.57C13.4 184.04 12.39 181.48 11.47 178.87C9.85997 174.35 8.50002 169.71 7.40002 164.97C7.09002 163.63 6.79003 162.28 6.53003 160.92C5.14003 154.01 4.30996 146.91 4.07996 139.65C4.02996 138.34 4 137.02 4 135.69V134.85C4.01 133.52 4.02996 132.2 4.07996 130.89C4.30996 123.64 5.15003 116.53 6.53003 109.62C6.79003 108.26 7.09002 106.92 7.40002 105.58C8.50002 100.84 9.85997 96.1999 11.47 91.6799C12.39 89.0699 13.4 86.4999 14.48 83.9699C30.69 46.1099 64.2601 17.3799 105.13 7.85992C106.47 7.54992 107.81 7.25993 109.16 6.98993C116.07 5.60993 123.18 4.76992 130.43 4.53992C131.74 4.48992 133.06 4.45996 134.39 4.45996H135.25C136.58 4.45996 137.9 4.48992 139.21 4.53992C146.46 4.76992 153.57 5.60993 160.48 6.98993C161.83 7.25993 163.18 7.54992 164.52 7.85992C205.38 17.3799 238.96 46.1099 255.16 83.9699C256.24 86.4999 257.25 89.0699 258.17 91.6799C259.78 96.1999 261.14 100.84 262.24 105.58C262.55 106.92 262.85 108.26 263.11 109.62C264.49 116.53 265.33 123.64 265.56 130.89C265.61 132.2 265.63 133.52 265.64 134.85V135.69Z" fill="url(#paint1_linear_1663_29055)"/>
<path d="M246.88 129.59C246.52 122.21 245.43 115.02 243.69 108.09C243.36 106.72 242.99 105.35 242.6 104H242.59C231.91 67.2201 202.87 38.1801 166.09 27.5001C164.74 27.1001 163.38 26.7301 162.01 26.4001C155.08 24.6601 147.88 23.5701 140.51 23.2101C139.19 23.1401 137.88 23.0901 136.55 23.0801C135.98 23.0601 135.4 23.0601 134.82 23.0601C134.24 23.0601 133.66 23.0601 133.09 23.0801C131.76 23.0901 130.45 23.1401 129.13 23.2101C121.76 23.5701 114.56 24.6601 107.63 26.4001C106.26 26.7301 104.9 27.1001 103.55 27.4901C66.78 38.1801 37.73 67.2201 27.05 104C26.65 105.35 26.28 106.72 25.95 108.09C24.21 115.02 23.12 122.21 22.76 129.59C22.69 130.9 22.64 132.21 22.63 133.54C22.61 134.11 22.61 134.69 22.61 135.27C22.61 135.85 22.61 136.43 22.63 137C22.64 138.32 22.69 139.64 22.76 140.95C23.12 148.32 24.21 155.52 25.95 162.45C26.28 163.83 26.65 165.19 27.05 166.54C37.73 203.32 66.78 232.36 103.55 243.05C104.9 243.44 106.26 243.81 107.63 244.14C114.56 245.88 121.76 246.97 129.13 247.33C130.45 247.4 131.76 247.45 133.09 247.46C133.66 247.48 134.24 247.48 134.82 247.48C135.4 247.48 135.98 247.48 136.55 247.46C137.88 247.46 139.19 247.4 140.51 247.33C147.88 246.97 155.08 245.88 162.01 244.14C163.38 243.81 164.74 243.44 166.09 243.05C202.87 232.36 231.91 203.32 242.6 166.54C242.99 165.19 243.36 163.83 243.69 162.45C245.43 155.52 246.52 148.32 246.88 140.95C246.95 139.64 247 138.32 247.01 137C247.03 136.43 247.03 135.85 247.03 135.27C247.03 134.69 247.03 134.11 247.01 133.54C247 132.21 246.95 130.9 246.88 129.59ZM238.28 103.54C211.42 100.49 194.03 95.25 184.44 85.66C174.84 76.06 169.6 58.6701 166.56 31.8101C200.75 42.3201 227.78 69.34 238.28 103.54ZM162.45 30.6301C165.59 59.3901 171.14 78.02 181.61 88.48C192.08 98.95 210.71 104.5 239.46 107.65C241.29 114.59 242.45 121.81 242.86 129.23C168.8 122.21 147.88 101.29 140.87 27.23C148.29 27.64 155.5 28.8001 162.45 30.6301ZM103.08 31.8101C100.04 58.6701 94.8 76.06 85.21 85.66C75.61 95.25 58.22 100.49 31.36 103.54C41.86 69.34 68.8901 42.3201 103.08 31.8101ZM30.1801 107.65C58.9401 104.5 77.57 98.95 88.03 88.48C98.5 78.02 104.05 59.3901 107.19 30.6301H107.2C114.15 28.8001 121.35 27.64 128.77 27.23C121.76 101.29 100.85 122.21 26.78 129.23C27.19 121.81 28.3501 114.59 30.1801 107.65ZM31.36 167.01C58.22 170.05 75.61 175.29 85.21 184.89C94.81 194.49 100.04 211.88 103.09 238.74C68.9001 228.23 41.87 201.21 31.36 167.01ZM107.19 239.9C104.05 211.15 98.5 192.53 88.03 182.06C77.57 171.59 58.9401 166.04 30.1801 162.89C28.3501 155.95 27.19 148.73 26.78 141.31C100.85 148.33 121.76 169.25 128.77 243.31C121.35 242.9 114.14 241.74 107.19 239.9ZM166.56 238.73C169.6 211.88 174.84 194.49 184.44 184.89C194.03 175.29 211.42 170.05 238.28 167.01C227.77 201.2 200.75 228.23 166.56 238.73ZM239.46 162.89C210.71 166.04 192.08 171.59 181.61 182.06C171.14 192.53 165.59 211.15 162.45 239.9C155.5 241.74 148.29 242.9 140.87 243.31C147.88 169.25 168.8 148.33 242.86 141.31C242.45 148.73 241.29 155.95 239.46 162.89ZM227.9 139.09C196.92 143.33 177.19 151.13 163.93 164.38C150.68 177.64 142.88 197.37 138.64 228.35C137.99 233.13 137.42 238.16 136.91 243.45C136.22 243.47 135.52 243.48 134.82 243.48C134.12 243.48 133.42 243.48 132.73 243.45C132.23 238.16 131.65 233.13 131 228.35C126.77 197.37 118.97 177.64 105.71 164.38C92.46 151.13 72.73 143.33 41.74 139.09C36.95 138.44 31.93 137.87 26.64 137.36C26.62 136.67 26.61 135.97 26.61 135.27C26.61 134.57 26.62 133.87 26.64 133.18C31.93 132.67 36.95 132.1 41.74 131.45C72.73 127.22 92.46 119.42 105.71 106.16C118.97 92.91 126.77 73.1801 131 42.1901C131.65 37.4101 132.23 32.3801 132.73 27.0901C133.42 27.0701 134.12 27.0601 134.82 27.0601C135.52 27.0601 136.22 27.0701 136.91 27.0901C137.42 32.3801 137.99 37.4101 138.64 42.1901C142.88 73.1801 150.68 92.91 163.93 106.16C177.19 119.42 196.92 127.22 227.9 131.45C232.69 132.1 237.71 132.67 243 133.18C243.02 133.87 243.03 134.57 243.03 135.27C243.03 135.97 243.02 136.67 243 137.36C237.71 137.87 232.69 138.44 227.9 139.09Z" fill="url(#paint2_linear_1663_29055)"/>
<path d="M308.32 142.22H319.11V148.58H300.09V114.78H308.32V142.22Z" fill="#291B89"/>
<path d="M331.29 121.37V128.21H342.32V134.57H331.29V141.98H343.76V148.58H323.06V114.78H343.76V121.38H331.29V121.37Z" fill="#291B89"/>
<path d="M370.14 142.6H357.52L355.5 148.57H346.88L359.11 114.77H368.64L380.87 148.57H372.16L370.14 142.6ZM368.03 136.25L363.84 123.88L359.7 136.25H368.03Z" fill="#291B89"/>
<path d="M406.59 116.89C409.25 118.3 411.32 120.28 412.78 122.84C414.24 125.39 414.97 128.34 414.97 131.68C414.97 135.02 414.24 137.92 412.78 140.49C411.32 143.06 409.25 145.05 406.57 146.46C403.89 147.87 400.78 148.58 397.25 148.58H384.59V114.78H397.25C400.81 114.78 403.93 115.49 406.59 116.9V116.89ZM403.99 138.9C405.72 137.2 406.59 134.79 406.59 131.68C406.59 128.57 405.72 126.14 403.99 124.41C402.26 122.68 399.83 121.81 396.72 121.81H392.82V141.45H396.72C399.83 141.45 402.26 140.6 403.99 138.9Z" fill="#291B89"/>
<path d="M427.83 121.37V128.21H438.86V134.57H427.83V141.98H440.3V148.58H419.6V114.78H440.3V121.38H427.83V121.37Z" fill="#291B89"/>
<path d="M462.88 148.57L455.85 135.81H453.88V148.57H445.65V114.77H459.47C462.13 114.77 464.41 115.24 466.28 116.17C468.16 117.1 469.56 118.38 470.49 120C471.42 121.62 471.89 123.43 471.89 125.42C471.89 127.67 471.26 129.67 469.99 131.44C468.72 133.21 466.85 134.46 464.38 135.2L472.18 148.58H462.89L462.88 148.57ZM453.87 129.99H458.97C460.48 129.99 461.61 129.62 462.36 128.88C463.11 128.14 463.49 127.1 463.49 125.75C463.49 124.4 463.11 123.46 462.36 122.72C461.61 121.98 460.47 121.61 458.97 121.61H453.87V129.99Z" fill="#291B89"/>
<path d="M306.78 178.78C305.88 178.78 305.08 178.94 304.37 179.27C303.66 179.6 303.07 180.06 302.58 180.68C302.09 181.29 301.72 182.03 301.46 182.9C301.2 183.77 301.07 184.75 301.07 185.84C301.07 187.3 301.28 188.55 301.69 189.6C302.1 190.65 302.73 191.46 303.57 192.02C304.41 192.58 305.47 192.86 306.76 192.86C307.56 192.86 308.33 192.78 309.09 192.63C309.85 192.48 310.62 192.27 311.43 192V194.62C310.67 194.92 309.9 195.14 309.12 195.28C308.34 195.42 307.44 195.49 306.42 195.49C304.5 195.49 302.91 195.09 301.65 194.29C300.39 193.49 299.44 192.37 298.82 190.92C298.2 189.47 297.89 187.78 297.89 185.83C297.89 184.41 298.09 183.11 298.48 181.92C298.87 180.74 299.45 179.72 300.2 178.85C300.95 177.98 301.89 177.33 302.99 176.86C304.1 176.39 305.37 176.16 306.8 176.16C307.74 176.16 308.67 176.27 309.58 176.47C310.49 176.68 311.34 176.98 312.12 177.36L311.04 179.9C310.39 179.59 309.71 179.33 309 179.1C308.29 178.88 307.55 178.77 306.79 178.77L306.78 178.78Z" fill="#291B89"/>
<path d="M331.36 195.22H320.72V176.43H331.36V179.03H323.8V184.13H330.88V186.71H323.8V192.61H331.36V195.22Z" fill="#291B89"/>
<path d="M345.96 176.43C347.58 176.43 348.92 176.63 349.98 177.02C351.04 177.41 351.83 178.01 352.34 178.82C352.86 179.63 353.12 180.65 353.12 181.89C353.12 182.81 352.95 183.6 352.61 184.25C352.27 184.9 351.82 185.44 351.26 185.87C350.7 186.3 350.11 186.64 349.47 186.9L354.8 195.22H351.32L346.78 187.69H343.76V195.22H340.68V176.43H345.96ZM345.75 179H343.76V185.14H345.89C347.32 185.14 348.36 184.87 349.01 184.34C349.66 183.81 349.98 183.03 349.98 181.99C349.98 180.9 349.64 180.13 348.95 179.68C348.26 179.23 347.2 179 345.76 179H345.75Z" fill="#291B89"/>
<path d="M369.26 195.22H366.16V179.05H360.66V176.43H374.75V179.05H369.26V195.22Z" fill="#291B89"/>
<path d="M382.88 195.22V176.43H385.96V195.22H382.88Z" fill="#291B89"/>
<path d="M399.24 195.22H396.18V176.43H406.8V179.03H399.24V184.89H406.31V187.47H399.24V195.22Z" fill="#291B89"/>
<path d="M415.47 195.22V176.43H418.55V195.22H415.47Z" fill="#291B89"/>
<path d="M439.4 195.22H428.76V176.43H439.4V179.03H431.84V184.13H438.92V186.71H431.84V192.61H439.4V195.22Z" fill="#291B89"/>
<path d="M463.97 185.64C463.97 187.76 463.58 189.52 462.79 190.94C462 192.36 460.86 193.43 459.36 194.14C457.86 194.86 456.05 195.21 453.94 195.21H448.72V176.42H454.5C456.44 176.42 458.12 176.77 459.54 177.47C460.95 178.17 462.05 179.2 462.82 180.57C463.59 181.94 463.98 183.63 463.98 185.64H463.97ZM460.76 185.74C460.76 184.2 460.52 182.93 460.03 181.94C459.55 180.95 458.83 180.21 457.9 179.72C456.96 179.24 455.81 178.99 454.44 178.99H451.81V192.64H453.99C456.26 192.64 457.96 192.06 459.08 190.9C460.2 189.74 460.76 188.02 460.76 185.73V185.74Z" fill="#291B89"/>
<path d="M493.38 178.78C492.48 178.78 491.68 178.94 490.97 179.27C490.26 179.6 489.67 180.06 489.18 180.68C488.69 181.29 488.32 182.03 488.06 182.9C487.8 183.77 487.67 184.75 487.67 185.84C487.67 187.3 487.88 188.55 488.29 189.6C488.7 190.65 489.33 191.46 490.17 192.02C491.01 192.58 492.07 192.86 493.36 192.86C494.16 192.86 494.93 192.78 495.69 192.63C496.45 192.48 497.22 192.27 498.03 192V194.62C497.27 194.92 496.5 195.14 495.72 195.28C494.94 195.42 494.04 195.49 493.02 195.49C491.1 195.49 489.51 195.09 488.25 194.29C486.99 193.49 486.04 192.37 485.42 190.92C484.8 189.47 484.49 187.78 484.49 185.83C484.49 184.41 484.69 183.11 485.08 181.92C485.47 180.74 486.05 179.72 486.8 178.85C487.55 177.98 488.49 177.33 489.59 176.86C490.7 176.39 491.97 176.16 493.4 176.16C494.34 176.16 495.27 176.27 496.18 176.47C497.09 176.68 497.94 176.98 498.72 177.36L497.64 179.9C496.99 179.59 496.31 179.33 495.6 179.1C494.89 178.88 494.15 178.77 493.39 178.77L493.38 178.78Z" fill="#291B89"/>
<path d="M524 185.8C524 187.25 523.82 188.57 523.45 189.75C523.09 190.94 522.54 191.96 521.81 192.81C521.08 193.66 520.17 194.32 519.07 194.78C517.97 195.24 516.69 195.47 515.21 195.47C513.73 195.47 512.41 195.24 511.31 194.78C510.21 194.32 509.3 193.66 508.57 192.8C507.85 191.94 507.3 190.92 506.94 189.73C506.58 188.54 506.4 187.22 506.4 185.77C506.4 183.83 506.72 182.14 507.36 180.7C508 179.26 508.97 178.13 510.28 177.33C511.59 176.53 513.24 176.13 515.24 176.13C517.24 176.13 518.82 176.53 520.11 177.33C521.4 178.13 522.37 179.25 523.02 180.69C523.67 182.13 523.99 183.84 523.99 185.8H524ZM509.66 185.8C509.66 187.25 509.86 188.5 510.25 189.56C510.64 190.62 511.25 191.43 512.07 192C512.89 192.57 513.94 192.85 515.23 192.85C516.52 192.85 517.58 192.57 518.39 192C519.2 191.43 519.8 190.62 520.19 189.56C520.58 188.5 520.77 187.25 520.77 185.8C520.77 183.6 520.33 181.87 519.45 180.63C518.57 179.38 517.17 178.76 515.25 178.76C513.96 178.76 512.91 179.04 512.08 179.61C511.25 180.18 510.64 180.98 510.25 182.03C509.86 183.08 509.66 184.34 509.66 185.8Z" fill="#291B89"/>
<path d="M548.98 195.22H545.19L535.99 180.22H535.87C535.9 180.73 535.94 181.26 535.97 181.83C536 182.4 536.03 182.98 536.05 183.58C536.07 184.18 536.09 184.79 536.11 185.4V195.22H533.31V176.43H537.08L546.27 191.33H546.36C546.34 190.89 546.32 190.39 546.3 189.83C546.28 189.27 546.25 188.68 546.23 188.08C546.21 187.48 546.19 186.89 546.19 186.33V176.45H549V195.24L548.98 195.22Z" fill="#291B89"/>
<path d="M570.03 190.1C570.03 191.21 569.76 192.17 569.21 192.98C568.66 193.79 567.89 194.4 566.87 194.83C565.85 195.26 564.64 195.47 563.24 195.47C562.55 195.47 561.9 195.43 561.27 195.35C560.65 195.27 560.06 195.16 559.5 195.01C558.95 194.86 558.44 194.68 557.99 194.46V191.55C558.75 191.88 559.61 192.19 560.55 192.46C561.49 192.73 562.45 192.87 563.43 192.87C564.23 192.87 564.89 192.76 565.42 192.55C565.95 192.34 566.34 192.04 566.6 191.65C566.86 191.26 566.98 190.8 566.98 190.28C566.98 189.72 566.83 189.25 566.53 188.87C566.23 188.49 565.78 188.13 565.17 187.81C564.57 187.49 563.81 187.14 562.9 186.78C562.28 186.53 561.69 186.25 561.13 185.93C560.57 185.61 560.07 185.24 559.63 184.81C559.19 184.38 558.85 183.87 558.59 183.29C558.34 182.7 558.21 182.01 558.21 181.21C558.21 180.15 558.46 179.24 558.97 178.49C559.48 177.74 560.2 177.16 561.13 176.76C562.06 176.36 563.15 176.16 564.39 176.16C565.38 176.16 566.3 176.26 567.17 176.47C568.04 176.68 568.89 176.97 569.73 177.34L568.75 179.82C567.98 179.5 567.23 179.25 566.51 179.06C565.79 178.87 565.05 178.78 564.29 178.78C563.64 178.78 563.09 178.88 562.63 179.07C562.17 179.27 561.83 179.54 561.59 179.9C561.35 180.26 561.24 180.68 561.24 181.17C561.24 181.72 561.37 182.18 561.65 182.55C561.92 182.92 562.34 183.26 562.91 183.57C563.48 183.88 564.21 184.22 565.12 184.6C566.16 185.03 567.04 185.48 567.76 185.95C568.48 186.42 569.04 186.99 569.42 187.64C569.8 188.29 570 189.12 570 190.1H570.03Z" fill="#291B89"/>
<path d="M586.92 178.78C586.02 178.78 585.22 178.94 584.51 179.27C583.8 179.6 583.21 180.06 582.72 180.68C582.23 181.29 581.86 182.03 581.6 182.9C581.34 183.77 581.21 184.75 581.21 185.84C581.21 187.3 581.42 188.55 581.83 189.6C582.24 190.65 582.87 191.46 583.71 192.02C584.55 192.58 585.61 192.86 586.9 192.86C587.7 192.86 588.47 192.78 589.23 192.63C589.99 192.48 590.76 192.27 591.57 192V194.62C590.81 194.92 590.04 195.14 589.26 195.28C588.48 195.42 587.58 195.49 586.56 195.49C584.64 195.49 583.05 195.09 581.79 194.29C580.53 193.49 579.58 192.37 578.96 190.92C578.34 189.47 578.03 187.78 578.03 185.83C578.03 184.41 578.23 183.11 578.62 181.92C579.01 180.74 579.59 179.72 580.34 178.85C581.09 177.98 582.03 177.33 583.13 176.86C584.24 176.39 585.51 176.16 586.94 176.16C587.88 176.16 588.81 176.27 589.72 176.47C590.63 176.68 591.48 176.98 592.26 177.36L591.18 179.9C590.53 179.59 589.85 179.33 589.14 179.1C588.43 178.88 587.69 178.77 586.93 178.77L586.92 178.78Z" fill="#291B89"/>
<path d="M600.86 195.22V176.43H603.94V195.22H600.86Z" fill="#291B89"/>
<path d="M630.84 185.8C630.84 187.25 630.66 188.57 630.29 189.75C629.93 190.94 629.38 191.96 628.65 192.81C627.92 193.66 627.01 194.32 625.91 194.78C624.81 195.24 623.53 195.47 622.05 195.47C620.57 195.47 619.25 195.24 618.15 194.78C617.05 194.32 616.14 193.66 615.41 192.8C614.69 191.94 614.14 190.92 613.78 189.73C613.42 188.54 613.24 187.22 613.24 185.77C613.24 183.83 613.56 182.14 614.2 180.7C614.84 179.26 615.81 178.13 617.12 177.33C618.43 176.53 620.08 176.13 622.08 176.13C624.08 176.13 625.66 176.53 626.95 177.33C628.24 178.13 629.21 179.25 629.86 180.69C630.51 182.13 630.83 183.84 630.83 185.8H630.84ZM616.5 185.8C616.5 187.25 616.7 188.5 617.09 189.56C617.48 190.62 618.09 191.43 618.91 192C619.73 192.57 620.78 192.85 622.07 192.85C623.36 192.85 624.42 192.57 625.23 192C626.04 191.43 626.64 190.62 627.03 189.56C627.42 188.5 627.61 187.25 627.61 185.8C627.61 183.6 627.17 181.87 626.29 180.63C625.41 179.38 624.01 178.76 622.09 178.76C620.8 178.76 619.75 179.04 618.92 179.61C618.09 180.18 617.48 180.98 617.09 182.03C616.7 183.08 616.5 184.34 616.5 185.8Z" fill="#291B89"/>
<path d="M654.89 176.43V188.59C654.89 189.9 654.61 191.08 654.06 192.11C653.51 193.15 652.67 193.97 651.56 194.57C650.45 195.17 649.05 195.48 647.36 195.48C644.95 195.48 643.12 194.85 641.87 193.58C640.62 192.31 639.99 190.63 639.99 188.54V176.43H643.07V188.27C643.07 189.84 643.44 190.99 644.17 191.74C644.91 192.49 646.01 192.86 647.47 192.86C648.48 192.86 649.3 192.68 649.94 192.33C650.58 191.98 651.05 191.45 651.35 190.76C651.65 190.07 651.81 189.24 651.81 188.26V176.44H654.88L654.89 176.43Z" fill="#291B89"/>
<path d="M675.8 190.1C675.8 191.21 675.53 192.17 674.98 192.98C674.43 193.79 673.66 194.4 672.64 194.83C671.62 195.26 670.41 195.47 669.01 195.47C668.32 195.47 667.67 195.43 667.04 195.35C666.41 195.27 665.83 195.16 665.27 195.01C664.72 194.86 664.21 194.68 663.76 194.46V191.55C664.52 191.88 665.37 192.19 666.32 192.46C667.26 192.73 668.22 192.87 669.2 192.87C670 192.87 670.66 192.76 671.19 192.55C671.72 192.34 672.11 192.04 672.37 191.65C672.63 191.26 672.76 190.8 672.76 190.28C672.76 189.72 672.61 189.25 672.31 188.87C672.01 188.49 671.56 188.13 670.95 187.81C670.35 187.49 669.59 187.14 668.68 186.78C668.06 186.53 667.47 186.25 666.91 185.93C666.35 185.61 665.85 185.24 665.41 184.81C664.97 184.38 664.63 183.87 664.38 183.29C664.13 182.71 664 182.01 664 181.21C664 180.15 664.25 179.24 664.76 178.49C665.27 177.74 665.99 177.16 666.92 176.76C667.85 176.36 668.94 176.16 670.18 176.16C671.17 176.16 672.09 176.26 672.96 176.47C673.83 176.68 674.68 176.97 675.52 177.34L674.54 179.82C673.77 179.5 673.02 179.25 672.3 179.06C671.58 178.87 670.84 178.78 670.08 178.78C669.43 178.78 668.88 178.88 668.42 179.07C667.97 179.27 667.62 179.54 667.39 179.9C667.15 180.26 667.04 180.68 667.04 181.17C667.04 181.72 667.17 182.18 667.44 182.55C667.71 182.92 668.13 183.26 668.7 183.57C669.27 183.88 670 184.22 670.9 184.6C671.94 185.03 672.82 185.48 673.54 185.95C674.26 186.42 674.82 186.99 675.21 187.64C675.6 188.29 675.79 189.12 675.79 190.1H675.8Z" fill="#291B89"/>
<path d="M298.77 226.8V208.01H301.85V226.8H298.77Z" fill="#291B89"/>
<path d="M327.75 226.8H323.96L314.76 211.8H314.64C314.67 212.31 314.71 212.84 314.74 213.41C314.77 213.98 314.8 214.56 314.82 215.16C314.84 215.76 314.86 216.37 314.88 216.98V226.8H312.08V208.01H315.85L325.04 222.91H325.13C325.11 222.47 325.09 221.97 325.07 221.41C325.05 220.85 325.02 220.26 325 219.66C324.98 219.06 324.96 218.47 324.96 217.91V208.03H327.77V226.82L327.75 226.8Z" fill="#291B89"/>
<path d="M353.2 217.23C353.2 219.35 352.81 221.11 352.02 222.53C351.23 223.95 350.09 225.02 348.59 225.73C347.09 226.45 345.28 226.8 343.17 226.8H337.95V208.01H343.73C345.67 208.01 347.35 208.36 348.77 209.06C350.18 209.76 351.28 210.79 352.05 212.16C352.82 213.53 353.21 215.22 353.21 217.23H353.2ZM349.99 217.32C349.99 215.78 349.75 214.51 349.26 213.52C348.78 212.53 348.06 211.79 347.13 211.3C346.19 210.82 345.04 210.57 343.67 210.57H341.04V224.22H343.22C345.49 224.22 347.19 223.64 348.31 222.48C349.43 221.32 349.99 219.6 349.99 217.31V217.32Z" fill="#291B89"/>
<path d="M362.5 226.8V208.01H365.58V226.8H362.5Z" fill="#291B89"/>
<path d="M389.73 208.01L383.16 226.8H379.9L373.33 208.01H376.49L380.45 219.78C380.57 220.12 380.7 220.54 380.84 221.03C380.98 221.52 381.11 222.01 381.24 222.51C381.36 223.01 381.46 223.45 381.53 223.83C381.6 223.44 381.69 223 381.82 222.51C381.94 222.01 382.07 221.52 382.21 221.03C382.35 220.54 382.48 220.12 382.6 219.77L386.57 208.01H389.73Z" fill="#291B89"/>
<path d="M397.47 226.8V208.01H400.55V226.8H397.47Z" fill="#291B89"/>
<path d="M426.02 217.23C426.02 219.35 425.63 221.11 424.84 222.53C424.05 223.95 422.91 225.02 421.41 225.73C419.91 226.45 418.1 226.8 415.99 226.8H410.77V208.01H416.55C418.5 208.01 420.17 208.36 421.59 209.06C423 209.76 424.1 210.79 424.87 212.16C425.64 213.53 426.03 215.22 426.03 217.23H426.02ZM422.8 217.32C422.8 215.78 422.56 214.51 422.07 213.52C421.59 212.53 420.87 211.79 419.94 211.3C419 210.82 417.85 210.57 416.48 210.57H413.85V224.22H416.03C418.3 224.22 420 223.64 421.12 222.48C422.24 221.32 422.8 219.6 422.8 217.31V217.32Z" fill="#291B89"/>
<path d="M450.07 208.01V220.17C450.07 221.48 449.79 222.66 449.24 223.69C448.69 224.73 447.85 225.55 446.74 226.15C445.63 226.75 444.23 227.06 442.54 227.06C440.13 227.06 438.3 226.43 437.05 225.16C435.79 223.9 435.17 222.21 435.17 220.12V208.01H438.25V219.85C438.25 221.42 438.62 222.57 439.36 223.32C440.1 224.07 441.2 224.44 442.66 224.44C443.67 224.44 444.5 224.26 445.13 223.91C445.77 223.55 446.24 223.03 446.54 222.34C446.84 221.65 447 220.82 447 219.84V208.02H450.07V208.01Z" fill="#291B89"/>
<path d="M471.77 226.8L469.93 221.58H462.75L460.91 226.8H457.66L464.65 207.93H468.07L475.05 226.8H471.77ZM469.14 218.94L467.35 213.8C467.28 213.58 467.18 213.26 467.06 212.85C466.93 212.44 466.8 212.03 466.67 211.6C466.54 211.18 466.43 210.82 466.35 210.53C466.26 210.88 466.16 211.27 466.03 211.71C465.9 212.15 465.79 212.55 465.67 212.92C465.55 213.3 465.47 213.59 465.41 213.79L463.61 218.93H469.14V218.94Z" fill="#291B89"/>
<path d="M482.79 226.8V208.01H485.87V224.18H493.85V226.8H482.78H482.79Z" fill="#291B89"/>
<path d="M328.45 73.5795C331.93 73.5795 334.75 70.7595 334.75 67.2795C334.75 63.7995 331.93 60.9795 328.45 60.9795C324.97 60.9795 322.15 63.7995 322.15 67.2795C322.15 70.7595 324.97 73.5795 328.45 73.5795Z" fill="url(#paint3_linear_1663_29055)"/>
<path d="M347.8 78.4298H346.02C345.85 78.4298 345.71 78.2898 345.71 78.1198V56.4698C345.71 56.2998 345.85 56.1598 346.02 56.1598H347.8C347.97 56.1598 348.11 56.2998 348.11 56.4698V58.7198C348.11 58.9998 348.46 59.1398 348.65 58.9298C349.48 58.0498 350.47 57.3398 351.6 56.7998C352.99 56.1398 354.47 55.7998 356.04 55.7998C357.9 55.7998 359.58 56.2098 361.06 57.0398C362.55 57.8698 363.7 59.0098 364.54 60.4798C365.38 61.9398 365.79 63.5998 365.79 65.4498V78.1198C365.79 78.2898 365.65 78.4298 365.48 78.4298H363.72C363.55 78.4298 363.41 78.2898 363.41 78.1198V65.9798C363.41 64.4398 363.1 63.0698 362.49 61.8698C361.87 60.6798 361.01 59.7498 359.89 59.0998C358.77 58.4498 357.49 58.1198 356.04 58.1198C354.5 58.1198 353.14 58.5098 351.94 59.2798C350.74 60.0498 349.8 61.1198 349.12 62.4898C348.44 63.8598 348.11 65.4198 348.11 67.1698V78.1198C348.11 78.2898 347.97 78.4298 347.8 78.4298Z" fill="#291B89"/>
<path d="M375.42 75.4398L375.4 75.4198C373.19 73.0898 372.09 70.3598 372.09 67.2498C372.09 65.6898 372.37 64.2298 372.93 62.8598C373.49 61.4898 374.31 60.2498 375.41 59.1298C376.52 58.0398 377.75 57.2098 379.13 56.6498C380.51 56.0798 381.97 55.7998 383.53 55.7998C385.48 55.7998 387.28 56.2598 388.93 57.1898C390.59 58.1098 391.94 59.3898 392.98 60.9998C394.02 62.6098 394.62 64.4098 394.77 66.3798C394.8 66.6998 394.81 67.2198 394.81 67.9498C394.81 68.1198 394.67 68.2698 394.5 68.2698H374.94C374.75 68.2698 374.6 68.4398 374.63 68.6198C374.82 70.0098 375.29 71.2798 376.06 72.4198C376.89 73.6498 377.96 74.6298 379.27 75.3298C380.58 76.0298 382.01 76.3898 383.53 76.3898C385.26 76.3898 386.84 75.9398 388.31 75.0398C389.71 74.1798 390.78 73.0298 391.51 71.5898C391.56 71.4798 391.67 71.4198 391.79 71.4198H393.78C394 71.4198 394.16 71.6498 394.07 71.8498C393.5 73.1498 392.74 74.2898 391.76 75.2898C390.68 76.3998 389.43 77.2498 388.01 77.8498C386.58 78.4498 385.1 78.7498 383.54 78.7498C380.46 78.7498 377.76 77.6498 375.44 75.4498V75.4598L375.42 75.4398ZM391.88 65.9198C392.07 65.9198 392.22 65.7498 392.19 65.5598C391.95 64.2298 391.46 63.0198 390.7 61.9398C389.88 60.7598 388.84 59.8398 387.58 59.1698C386.32 58.4998 384.96 58.1598 383.5 58.1598C382.04 58.1598 380.62 58.4998 379.33 59.1698C378.04 59.8398 376.97 60.7598 376.14 61.9398C375.38 63.0198 374.87 64.2298 374.64 65.5598C374.61 65.7498 374.76 65.9198 374.95 65.9198H391.88Z" fill="#291B89"/>
<path d="M405.78 78.1998C404.6 77.7798 403.62 77.1897 402.84 76.4297C402.06 75.6697 401.54 74.7897 401.27 73.7997C401.14 73.3397 401.08 72.8498 401.08 72.3298C401.08 72.2298 401.08 72.0998 401.1 71.9398C401.11 71.7798 401.25 71.6498 401.41 71.6498H402.91C403.09 71.6498 403.23 71.8097 403.22 71.9897C403.22 72.0497 403.22 72.0898 403.22 72.1298C403.22 72.9998 403.53 73.7798 404.14 74.4498C404.75 75.1298 405.56 75.6498 406.55 76.0098C407.55 76.3698 408.59 76.5598 409.7 76.5598C410.89 76.5598 411.96 76.3798 412.92 76.0298C413.88 75.6798 414.63 75.1898 415.18 74.5798C415.72 73.9698 416 73.2698 416.02 72.4998C415.99 71.4498 415.51 70.5998 414.57 69.9398C413.63 69.2898 412.08 68.7298 409.93 68.2698C408.67 68.0198 407.66 67.7998 406.87 67.5898C406.09 67.3798 405.34 67.1297 404.62 66.8497C403.43 66.3397 402.55 65.6997 401.97 64.9097C401.13 63.7897 400.9 62.3398 401.27 60.5698C401.27 60.5498 401.28 60.5298 401.29 60.5098C401.96 58.7098 403.29 57.3897 405.29 56.5497C406.6 55.9997 408.07 55.7197 409.7 55.7197C411.33 55.7197 412.86 55.9998 414.18 56.5598C415.5 57.1198 416.53 57.8898 417.27 58.8898C418.01 59.8898 418.38 60.9998 418.38 62.2498C418.38 62.3398 418.38 62.4598 418.36 62.6198C418.35 62.7798 418.21 62.9097 418.05 62.9097H416.2C416.22 62.8197 416.22 62.6697 416.22 62.4697C416.22 61.6697 415.94 60.9297 415.36 60.2397C414.79 59.5597 414 59.0097 413.01 58.6097C412.01 58.2097 410.91 58.0098 409.7 58.0098C408.49 58.0098 407.44 58.1897 406.48 58.5397C405.52 58.8897 404.77 59.3798 404.22 59.9998C403.67 60.6198 403.4 61.3198 403.4 62.0898C403.4 62.4798 403.48 62.8397 403.66 63.1797C403.83 63.5197 404.08 63.7998 404.4 64.0198C404.69 64.2298 405.2 64.4698 405.93 64.7498C406.55 64.9998 407.1 65.1898 407.59 65.3198C408.07 65.4498 408.92 65.6597 410.14 65.9297C412.1 66.3397 413.67 66.8397 414.86 67.4097C416.05 67.9797 416.92 68.6798 417.48 69.4998C418.25 70.6298 418.49 72.0797 418.2 73.8597C418.2 73.8797 418.19 73.8997 418.18 73.9197C417.53 75.7997 416.18 77.1598 414.13 78.0098C412.82 78.5598 411.34 78.8298 409.7 78.8298C408.27 78.8298 406.96 78.6198 405.77 78.1998H405.78Z" fill="#291B89"/>
<path d="M429.36 78.1998C428.18 77.7798 427.2 77.1897 426.42 76.4297C425.64 75.6697 425.12 74.7897 424.85 73.7997C424.72 73.3397 424.66 72.8498 424.66 72.3298C424.66 72.2298 424.66 72.0998 424.68 71.9398C424.69 71.7798 424.83 71.6498 424.99 71.6498H426.49C426.67 71.6498 426.81 71.8097 426.8 71.9897C426.8 72.0497 426.8 72.0898 426.8 72.1298C426.8 72.9998 427.11 73.7798 427.72 74.4498C428.33 75.1298 429.14 75.6498 430.13 76.0098C431.13 76.3698 432.17 76.5598 433.28 76.5598C434.47 76.5598 435.54 76.3798 436.5 76.0298C437.46 75.6798 438.21 75.1898 438.76 74.5798C439.3 73.9698 439.58 73.2698 439.6 72.4998C439.57 71.4498 439.09 70.5998 438.15 69.9398C437.21 69.2898 435.67 68.7298 433.51 68.2698C432.25 68.0198 431.24 67.7998 430.46 67.5898C429.68 67.3798 428.93 67.1297 428.21 66.8497C427.02 66.3397 426.14 65.6997 425.56 64.9097C424.72 63.7897 424.49 62.3398 424.86 60.5698C424.86 60.5498 424.87 60.5298 424.88 60.5098C425.54 58.7098 426.88 57.3897 428.88 56.5497C430.19 55.9997 431.66 55.7197 433.29 55.7197C434.92 55.7197 436.46 55.9998 437.77 56.5598C439.09 57.1198 440.12 57.8898 440.86 58.8898C441.6 59.8898 441.97 60.9998 441.97 62.2498C441.97 62.3398 441.97 62.4598 441.95 62.6198C441.94 62.7798 441.8 62.9097 441.64 62.9097H439.79C439.81 62.8197 439.81 62.6697 439.81 62.4697C439.81 61.6697 439.52 60.9297 438.95 60.2397C438.38 59.5597 437.59 59.0097 436.6 58.6097C435.6 58.2097 434.5 58.0098 433.29 58.0098C432.08 58.0098 431.03 58.1897 430.07 58.5397C429.11 58.8897 428.36 59.3798 427.81 59.9998C427.26 60.6198 426.99 61.3198 426.99 62.0898C426.99 62.4798 427.07 62.8397 427.25 63.1797C427.42 63.5197 427.67 63.7998 427.99 64.0198C428.28 64.2298 428.79 64.4698 429.52 64.7498C430.14 64.9998 430.69 65.1898 431.18 65.3198C431.66 65.4498 432.51 65.6597 433.73 65.9297C435.69 66.3397 437.26 66.8397 438.45 67.4097C439.64 67.9797 440.51 68.6798 441.07 69.4998C441.84 70.6298 442.08 72.0797 441.79 73.8597C441.79 73.8797 441.78 73.8997 441.77 73.9197C441.12 75.7997 439.77 77.1598 437.72 78.0098C436.41 78.5598 434.93 78.8298 433.29 78.8298C431.86 78.8298 430.55 78.6198 429.36 78.1998Z" fill="#291B89"/>
<path d="M320.38 75.4398L320.36 75.4198C318.15 73.0898 317.05 70.3598 317.05 67.2498C317.05 65.6898 317.33 64.2298 317.89 62.8598C318.45 61.4898 319.27 60.2498 320.37 59.1298C321.48 58.0398 322.71 57.2098 324.09 56.6498C325.47 56.0798 326.93 55.7998 328.49 55.7998C330.15 55.7998 331.71 56.1298 333.19 56.7798C334.67 57.4298 335.95 58.3598 337.03 59.5698C338.02 60.6598 338.77 61.9098 339.28 63.3198C339.36 63.5198 339.2 63.7298 338.98 63.7298H337.02C336.89 63.7298 336.78 63.6498 336.74 63.5398C336.29 62.4998 335.67 61.5798 334.87 60.7898C334.03 59.9498 333.06 59.2998 331.96 58.8398C330.86 58.3798 329.71 58.1598 328.49 58.1598C326.82 58.1598 325.3 58.5598 323.92 59.3598C322.54 60.1598 321.46 61.2598 320.67 62.6398C319.88 64.0298 319.48 65.5598 319.48 67.2498C319.48 68.9398 319.88 70.4698 320.67 71.8698C321.46 73.2598 322.55 74.3598 323.93 75.1798C325.31 75.9898 326.83 76.3898 328.49 76.3898C329.71 76.3898 330.86 76.1598 331.96 75.7098C333.06 75.2498 334.03 74.5998 334.87 73.7598C335.66 72.9698 336.29 72.0598 336.74 71.0298C336.79 70.9198 336.9 70.8398 337.02 70.8398H338.98C339.2 70.8398 339.35 71.0498 339.27 71.2498C338.76 72.6398 338.01 73.8798 337.02 74.9798C335.94 76.1798 334.66 77.1098 333.18 77.7698C331.7 78.4198 330.14 78.7498 328.48 78.7498C325.4 78.7498 322.7 77.6498 320.38 75.4498V75.4398Z" fill="#291B89"/>
<path d="M335.69 80.4298L334.12 81.2198C333.97 81.2998 333.9 81.4898 333.98 81.6398L340.84 95.2898C340.92 95.4398 341.11 95.5098 341.26 95.4298L342.83 94.6398C342.98 94.5598 343.05 94.3698 342.97 94.2198L336.11 80.5698C336.03 80.4098 335.84 80.3498 335.69 80.4298Z" fill="#291B89"/>
<path d="M325.18 82.53L323.48 97.71C323.46 97.88 323.58 98.04 323.75 98.06L325.49 98.25C325.66 98.27 325.82 98.15 325.84 97.98L327.54 82.8C327.56 82.63 327.44 82.47 327.27 82.45L325.53 82.26C325.36 82.24 325.2 82.36 325.18 82.53Z" fill="#291B89"/>
<path d="M317.31 78.4596L307.6 90.2596C307.49 90.3896 307.51 90.5896 307.64 90.6996L309 91.8196C309.13 91.9296 309.33 91.9096 309.44 91.7796L319.15 79.9795C319.26 79.8495 319.24 79.6495 319.11 79.5395L317.75 78.4195C317.62 78.3095 317.42 78.3296 317.31 78.4596Z" fill="#291B89"/>
<path d="M312.93 70.76L298.36 75.3499C298.2 75.3999 298.11 75.5799 298.15 75.7399L298.68 77.4199C298.73 77.5799 298.91 77.6699 299.07 77.6299L313.64 73.0399C313.8 72.9899 313.89 72.81 313.85 72.65L313.32 70.9699C313.27 70.8099 313.09 70.72 312.93 70.76Z" fill="#291B89"/>
<path d="M298.36 58.0395L297.89 59.7295C297.84 59.8995 297.94 60.0695 298.11 60.1095L312.83 64.2096C313 64.2596 313.17 64.1595 313.21 63.9895L313.68 62.2995C313.73 62.1295 313.63 61.9595 313.46 61.9195L298.74 57.8195C298.57 57.7695 298.4 57.8695 298.36 58.0395Z" fill="#291B89"/>
<path d="M308.19 43.31L306.87 44.47C306.74 44.58 306.73 44.78 306.84 44.91L316.94 56.38C317.05 56.51 317.25 56.52 317.38 56.41L318.7 55.25C318.83 55.14 318.84 54.94 318.73 54.81L308.63 43.34C308.52 43.21 308.32 43.2 308.19 43.31Z" fill="#291B89"/>
<path d="M324.46 36.3098L322.72 36.5598C322.55 36.5898 322.43 36.7398 322.46 36.9098L324.67 52.0298C324.7 52.1998 324.85 52.3198 325.02 52.2898L326.76 52.0398C326.93 52.0098 327.05 51.8598 327.02 51.6898L324.81 36.5698C324.78 36.3998 324.63 36.2798 324.46 36.3098Z" fill="#291B89"/>
<path d="M339.89 38.7696L333.49 52.6496C333.42 52.8096 333.49 52.9896 333.64 53.0596L335.24 53.7995C335.4 53.8695 335.58 53.7996 335.65 53.6496L342.05 39.7696C342.12 39.6096 342.05 39.4295 341.9 39.3595L340.3 38.6196C340.14 38.5496 339.96 38.6196 339.89 38.7696Z" fill="#291B89"/>
<defs>
<linearGradient id="paint0_linear_1663_29055" x1="89.26" y1="135.27" x2="180.37" y2="135.27" gradientUnits="userSpaceOnUse">
<stop stop-color="#F9BA1D"/>
<stop offset="0.03" stop-color="#F8BE26"/>
<stop offset="0.09" stop-color="#F8C841"/>
<stop offset="0.16" stop-color="#F7DA6C"/>
<stop offset="0.24" stop-color="#F7F1A3"/>
<stop offset="0.29" stop-color="#F7EC96"/>
<stop offset="0.39" stop-color="#F7E074"/>
<stop offset="0.53" stop-color="#F9CD3E"/>
<stop offset="0.57" stop-color="#F8D34F"/>
<stop offset="0.8" stop-color="#F7F1A3"/>
<stop offset="0.83" stop-color="#F2E899"/>
<stop offset="0.87" stop-color="#E4D181"/>
<stop offset="0.93" stop-color="#CEAC58"/>
<stop offset="0.99" stop-color="#B07A21"/>
<stop offset="1" stop-color="#AC731A"/>
</linearGradient>
<linearGradient id="paint1_linear_1663_29055" x1="0" y1="135.27" x2="269.64" y2="135.27" gradientUnits="userSpaceOnUse">
<stop stop-color="#F9BA1D"/>
<stop offset="0.03" stop-color="#F8BE26"/>
<stop offset="0.09" stop-color="#F8C841"/>
<stop offset="0.16" stop-color="#F7DA6C"/>
<stop offset="0.24" stop-color="#F7F1A3"/>
<stop offset="0.29" stop-color="#F7EC96"/>
<stop offset="0.39" stop-color="#F7E074"/>
<stop offset="0.53" stop-color="#F9CD3E"/>
<stop offset="0.57" stop-color="#F8D34F"/>
<stop offset="0.8" stop-color="#F7F1A3"/>
<stop offset="0.83" stop-color="#F2E899"/>
<stop offset="0.87" stop-color="#E4D181"/>
<stop offset="0.93" stop-color="#CEAC58"/>
<stop offset="0.99" stop-color="#B07A21"/>
<stop offset="1" stop-color="#AC731A"/>
</linearGradient>
<linearGradient id="paint2_linear_1663_29055" x1="22.61" y1="135.27" x2="247.03" y2="135.27" gradientUnits="userSpaceOnUse">
<stop stop-color="#F9BA1D"/>
<stop offset="0.03" stop-color="#F8BE26"/>
<stop offset="0.09" stop-color="#F8C841"/>
<stop offset="0.16" stop-color="#F7DA6C"/>
<stop offset="0.24" stop-color="#F7F1A3"/>
<stop offset="0.29" stop-color="#F7EC96"/>
<stop offset="0.39" stop-color="#F7E074"/>
<stop offset="0.53" stop-color="#F9CD3E"/>
<stop offset="0.57" stop-color="#F8D34F"/>
<stop offset="0.8" stop-color="#F7F1A3"/>
<stop offset="0.83" stop-color="#F2E899"/>
<stop offset="0.87" stop-color="#E4D181"/>
<stop offset="0.93" stop-color="#CEAC58"/>
<stop offset="0.99" stop-color="#B07A21"/>
<stop offset="1" stop-color="#AC731A"/>
</linearGradient>
<linearGradient id="paint3_linear_1663_29055" x1="319.36" y1="59.5295" x2="333.42" y2="71.4996" gradientUnits="userSpaceOnUse">
<stop offset="0.42" stop-color="#F8B814"/>
<stop offset="1" stop-color="#F28705"/>
</linearGradient>
</defs>
</svg>
