<svg width="676" height="270" viewBox="0 0 676 270" fill="none" xmlns="http://www.w3.org/2000/svg">
<path d="M134.82 267.87C208.175 267.87 267.64 208.404 267.64 135.05C267.64 61.6955 208.175 2.22998 134.82 2.22998C61.4656 2.22998 2 61.6955 2 135.05C2 208.404 61.4656 267.87 134.82 267.87Z" fill="#19D189"/>
<path d="M198.73 135.05C198.73 170.35 170.11 198.96 134.81 198.96C99.5101 198.96 70.9 170.35 70.9 135.05H198.73Z" fill="url(#paint0_linear_1663_28997)"/>
<path d="M264.07 96.67C263.32 94.13 262.49 91.62 261.6 89.15C242.78 37.34 193.05 0.22998 134.82 0.22998C76.5901 0.22998 26.86 37.34 8.04004 89.15C7.15004 91.62 6.32007 94.13 5.57007 96.67C1.94007 108.84 0 121.72 0 135.05C0 148.38 1.95007 161.27 5.57007 173.44C6.32007 175.98 7.15004 178.48 8.04004 180.94C26.86 232.75 76.5901 269.86 134.82 269.86C193.05 269.86 242.78 232.75 261.6 180.94C262.49 178.48 263.32 175.98 264.07 173.44C267.69 161.27 269.64 148.38 269.64 135.05C269.64 121.72 267.7 108.84 264.07 96.67ZM261.65 102.97C264.09 112.62 265.46 122.69 265.61 133.05H248.73H224.73H198.68C198.46 125.88 197.07 119.01 194.67 112.62L261.65 102.97ZM220.71 137.05C219.64 183.5 181.52 220.96 134.81 220.96C88.1001 220.96 49.99 183.5 48.92 137.05H220.7H220.71ZM134.81 224.96C183.72 224.96 223.64 185.71 224.7 137.05H244.71C243.64 196.73 194.75 244.96 134.81 244.96C74.8701 244.96 25.99 196.73 24.92 137.05H44.9301C46.0001 185.71 85.9101 224.96 134.81 224.96ZM255.16 83.74C256.24 86.27 257.25 88.84 258.17 91.45C259.11 94.11 259.97 96.81 260.74 99.55L193.3 109.26C189.33 100.27 183.36 92.37 175.94 86.13L226.75 42.08C238.72 53.92 248.44 68.04 255.16 83.73V83.74ZM224.2 39.64L173.15 83.9C166.43 78.85 158.67 75.11 150.27 73.02L169.11 8.78998C190.01 14.47 208.84 25.23 224.2 39.64ZM134.82 4.22998C145.46 4.22998 155.8 5.51996 165.71 7.92996L146.84 72.27C142.95 71.53 138.93 71.13 134.82 71.13C130.71 71.13 126.68 71.53 122.79 72.28L103.88 7.94998C113.81 5.52998 124.16 4.22998 134.82 4.22998ZM100.46 8.80997L119.33 73.02C110.94 75.11 103.2 78.85 96.49 83.88L45.41 39.64C60.77 25.24 79.57 14.49 100.46 8.79996V8.80997ZM11.47 91.45C12.39 88.84 13.4 86.27 14.48 83.74C21.2 68.05 30.91 53.94 42.88 42.1L93.71 86.12C86.28 92.37 80.2901 100.29 76.3201 109.3L8.85999 99.68C9.63999 96.9 10.51 94.16 11.47 91.45ZM7.95996 103.03L74.9401 112.64C72.5501 119.02 71.1701 125.88 70.9401 133.04H20.89H4C4.16 122.7 5.51995 112.65 7.94995 103.02L7.95996 103.03ZM258.17 178.64C257.25 181.25 256.24 183.81 255.16 186.34C235.18 233.05 188.76 265.86 134.82 265.86C80.8801 265.86 34.46 233.05 14.48 186.34C13.4 183.81 12.39 181.25 11.47 178.64C6.83997 165.6 4.24002 151.61 4.02002 137.05H20.9301C22.0001 198.94 72.6701 248.96 134.81 248.96C196.95 248.96 247.63 198.94 248.7 137.05H265.61C265.39 151.61 262.79 165.6 258.16 178.64H258.17Z" fill="url(#paint1_linear_1663_28997)"/>
<path d="M308.32 114.54V148.34H300.09V114.54H308.32Z" fill="#291B89"/>
<path d="M344.53 148.34H336.3L322.53 127.49V148.34H314.3V114.54H322.53L336.3 135.48V114.54H344.53V148.34Z" fill="#291B89"/>
<path d="M356.09 147.48C354.13 146.68 352.57 145.49 351.39 143.92C350.22 142.35 349.6 140.45 349.54 138.24H358.3C358.43 139.49 358.86 140.45 359.6 141.11C360.34 141.77 361.3 142.1 362.49 142.1C363.68 142.1 364.67 141.82 365.38 141.26C366.09 140.7 366.44 139.92 366.44 138.93C366.44 138.1 366.16 137.41 365.6 136.86C365.04 136.32 364.35 135.87 363.53 135.51C362.71 135.16 361.55 134.76 360.04 134.31C357.86 133.64 356.08 132.96 354.7 132.29C353.32 131.62 352.13 130.62 351.14 129.3C350.14 127.98 349.65 126.27 349.65 124.15C349.65 121.01 350.79 118.54 353.07 116.76C355.35 114.98 358.32 114.09 361.98 114.09C365.64 114.09 368.7 114.98 370.98 116.76C373.26 118.54 374.48 121.02 374.64 124.2H365.73C365.67 123.11 365.27 122.25 364.53 121.62C363.79 120.99 362.84 120.68 361.69 120.68C360.7 120.68 359.89 120.94 359.28 121.47C358.67 122 358.36 122.76 358.36 123.76C358.36 124.85 358.87 125.7 359.9 126.31C360.93 126.92 362.53 127.58 364.72 128.28C366.9 129.02 368.68 129.73 370.04 130.4C371.4 131.07 372.58 132.05 373.58 133.34C374.58 134.62 375.07 136.28 375.07 138.3C375.07 140.32 374.58 141.98 373.6 143.55C372.62 145.12 371.2 146.37 369.34 147.3C367.48 148.23 365.28 148.7 362.74 148.7C360.2 148.7 358.05 148.3 356.1 147.5L356.09 147.48Z" fill="#291B89"/>
<path d="M404.52 130.79C403.62 132.41 402.24 133.72 400.38 134.71C398.52 135.71 396.21 136.2 393.45 136.2H388.35V148.33H380.12V114.53H393.46C396.16 114.53 398.44 115 400.3 115.93C402.16 116.86 403.56 118.14 404.49 119.78C405.42 121.42 405.89 123.29 405.89 125.41C405.89 127.37 405.44 129.16 404.54 130.78L404.52 130.79ZM396.34 128.56C397.11 127.82 397.5 126.78 397.5 125.43C397.5 124.08 397.12 123.04 396.34 122.3C395.56 121.56 394.4 121.19 392.83 121.19H388.35V129.66H392.83C394.4 129.66 395.57 129.29 396.34 128.55V128.56Z" fill="#291B89"/>
<path d="M418.39 114.54V148.34H410.16V114.54H418.39Z" fill="#291B89"/>
<path d="M441.6 148.34L434.57 135.58H432.6V148.34H424.37V114.54H438.19C440.85 114.54 443.13 115.01 445 115.94C446.88 116.87 448.28 118.15 449.21 119.77C450.14 121.39 450.61 123.2 450.61 125.19C450.61 127.44 449.98 129.44 448.71 131.21C447.44 132.98 445.57 134.23 443.1 134.97L450.9 148.35H441.61L441.6 148.34ZM432.59 129.76H437.69C439.2 129.76 440.33 129.39 441.08 128.65C441.83 127.91 442.21 126.87 442.21 125.52C442.21 124.17 441.83 123.23 441.08 122.49C440.33 121.75 439.2 121.38 437.69 121.38H432.59V129.76Z" fill="#291B89"/>
<path d="M463.98 121.14V127.98H475.01V134.34H463.98V141.75H476.45V148.35H455.75V114.55H476.45V121.15H463.98V121.14Z" fill="#291B89"/>
<path d="M503.8 116.66C506.46 118.07 508.53 120.05 509.99 122.61C511.45 125.16 512.18 128.11 512.18 131.45C512.18 134.79 511.45 137.69 509.99 140.26C508.53 142.83 506.46 144.82 503.78 146.23C501.1 147.64 497.99 148.35 494.46 148.35H481.8V114.55H494.46C498.02 114.55 501.14 115.26 503.8 116.67V116.66ZM501.2 138.67C502.93 136.97 503.8 134.56 503.8 131.45C503.8 128.34 502.93 125.91 501.2 124.18C499.47 122.45 497.04 121.58 493.93 121.58H490.03V141.22H493.93C497.04 141.22 499.47 140.37 501.2 138.67Z" fill="#291B89"/>
<path d="M306.78 178.55C305.88 178.55 305.08 178.71 304.37 179.04C303.66 179.37 303.07 179.83 302.58 180.45C302.09 181.07 301.72 181.8 301.46 182.67C301.2 183.54 301.07 184.52 301.07 185.61C301.07 187.07 301.28 188.32 301.69 189.37C302.1 190.42 302.73 191.23 303.57 191.79C304.41 192.35 305.47 192.63 306.76 192.63C307.56 192.63 308.33 192.55 309.09 192.4C309.85 192.25 310.62 192.04 311.43 191.77V194.39C310.67 194.69 309.9 194.91 309.12 195.05C308.34 195.19 307.44 195.26 306.42 195.26C304.5 195.26 302.91 194.86 301.65 194.06C300.39 193.26 299.44 192.14 298.82 190.69C298.2 189.24 297.89 187.55 297.89 185.6C297.89 184.18 298.09 182.88 298.48 181.69C298.87 180.5 299.45 179.49 300.2 178.62C300.95 177.75 301.89 177.1 303 176.63C304.11 176.16 305.38 175.93 306.81 175.93C307.75 175.93 308.68 176.04 309.59 176.24C310.5 176.45 311.35 176.75 312.13 177.13L311.05 179.67C310.4 179.36 309.72 179.1 309.01 178.87C308.3 178.65 307.56 178.54 306.8 178.54L306.78 178.55Z" fill="#291B89"/>
<path d="M331.36 194.99H320.72V176.2H331.36V178.8H323.8V183.9H330.88V186.48H323.8V192.38H331.36V194.99Z" fill="#291B89"/>
<path d="M345.96 176.2C347.58 176.2 348.92 176.4 349.98 176.79C351.04 177.18 351.83 177.78 352.35 178.59C352.87 179.4 353.13 180.42 353.13 181.66C353.13 182.58 352.96 183.37 352.62 184.02C352.28 184.67 351.83 185.21 351.27 185.64C350.71 186.07 350.12 186.41 349.48 186.67L354.81 194.99H351.33L346.79 187.46H343.77V194.99H340.69V176.2H345.97H345.96ZM345.75 178.77H343.76V184.91H345.89C347.32 184.91 348.36 184.64 349.01 184.11C349.66 183.58 349.98 182.8 349.98 181.76C349.98 180.67 349.64 179.9 348.95 179.45C348.26 179 347.2 178.77 345.76 178.77H345.75Z" fill="#291B89"/>
<path d="M369.26 194.99H366.16V178.82H360.66V176.2H374.74V178.82H369.25V194.99H369.26Z" fill="#291B89"/>
<path d="M382.88 194.99V176.2H385.96V194.99H382.88Z" fill="#291B89"/>
<path d="M399.24 194.99H396.18V176.2H406.8V178.8H399.24V184.66H406.31V187.24H399.24V194.99Z" fill="#291B89"/>
<path d="M415.47 194.99V176.2H418.55V194.99H415.47Z" fill="#291B89"/>
<path d="M439.4 194.99H428.76V176.2H439.4V178.8H431.84V183.9H438.92V186.48H431.84V192.38H439.4V194.99Z" fill="#291B89"/>
<path d="M463.97 185.42C463.97 187.54 463.58 189.3 462.79 190.72C462 192.14 460.86 193.21 459.36 193.92C457.86 194.64 456.05 194.99 453.94 194.99H448.72V176.2H454.5C456.44 176.2 458.12 176.55 459.54 177.25C460.95 177.95 462.05 178.98 462.82 180.35C463.59 181.72 463.98 183.41 463.98 185.42H463.97ZM460.76 185.51C460.76 183.97 460.52 182.7 460.03 181.71C459.54 180.72 458.83 179.98 457.9 179.49C456.96 179.01 455.81 178.76 454.44 178.76H451.81V192.41H453.99C456.26 192.41 457.96 191.83 459.08 190.67C460.2 189.51 460.76 187.79 460.76 185.5V185.51Z" fill="#291B89"/>
<path d="M493.38 178.55C492.48 178.55 491.68 178.71 490.97 179.04C490.26 179.37 489.67 179.83 489.18 180.45C488.69 181.06 488.32 181.8 488.06 182.67C487.8 183.54 487.68 184.52 487.68 185.61C487.68 187.07 487.89 188.32 488.3 189.37C488.71 190.42 489.34 191.23 490.18 191.79C491.02 192.35 492.08 192.63 493.37 192.63C494.17 192.63 494.94 192.55 495.7 192.4C496.46 192.25 497.23 192.04 498.04 191.77V194.39C497.28 194.69 496.51 194.91 495.73 195.05C494.95 195.19 494.05 195.26 493.03 195.26C491.11 195.26 489.52 194.86 488.26 194.06C487 193.26 486.05 192.14 485.43 190.69C484.81 189.24 484.5 187.55 484.5 185.6C484.5 184.18 484.7 182.88 485.09 181.69C485.48 180.5 486.06 179.49 486.81 178.62C487.56 177.75 488.5 177.1 489.6 176.63C490.71 176.16 491.98 175.93 493.41 175.93C494.35 175.93 495.28 176.04 496.19 176.24C497.1 176.45 497.95 176.75 498.73 177.13L497.65 179.67C497 179.36 496.32 179.1 495.61 178.87C494.9 178.64 494.16 178.54 493.4 178.54L493.38 178.55Z" fill="#291B89"/>
<path d="M524 185.57C524 187.02 523.82 188.34 523.46 189.52C523.09 190.71 522.55 191.73 521.82 192.58C521.09 193.43 520.18 194.09 519.08 194.55C517.98 195.01 516.7 195.24 515.22 195.24C513.74 195.24 512.42 195.01 511.32 194.55C510.22 194.09 509.31 193.43 508.58 192.57C507.86 191.71 507.31 190.69 506.96 189.5C506.6 188.31 506.42 186.99 506.42 185.54C506.42 183.6 506.74 181.91 507.38 180.47C508.02 179.03 508.99 177.9 510.3 177.1C511.61 176.3 513.26 175.9 515.25 175.9C517.24 175.9 518.83 176.3 520.12 177.1C521.41 177.9 522.38 179.02 523.03 180.46C523.68 181.9 524 183.61 524 185.57ZM509.66 185.57C509.66 187.02 509.86 188.27 510.25 189.33C510.64 190.39 511.25 191.2 512.07 191.77C512.89 192.34 513.94 192.62 515.23 192.62C516.52 192.62 517.58 192.34 518.39 191.77C519.2 191.2 519.8 190.39 520.19 189.33C520.58 188.27 520.77 187.02 520.77 185.57C520.77 183.37 520.33 181.64 519.45 180.4C518.57 179.15 517.17 178.53 515.25 178.53C513.96 178.53 512.91 178.81 512.08 179.38C511.25 179.95 510.64 180.75 510.25 181.8C509.86 182.85 509.66 184.11 509.66 185.57Z" fill="#291B89"/>
<path d="M548.98 194.99H545.19L535.99 179.99H535.87C535.9 180.5 535.94 181.03 535.97 181.6C536 182.17 536.03 182.75 536.05 183.35C536.07 183.95 536.09 184.56 536.11 185.17V194.99H533.31V176.2H537.08L546.27 191.1H546.36C546.34 190.66 546.32 190.16 546.3 189.6C546.28 189.04 546.25 188.45 546.23 187.85C546.21 187.25 546.19 186.66 546.19 186.1V176.22H549V195.01L548.98 194.99Z" fill="#291B89"/>
<path d="M570.03 189.88C570.03 190.99 569.76 191.95 569.21 192.76C568.67 193.57 567.89 194.18 566.87 194.61C565.85 195.04 564.65 195.25 563.24 195.25C562.55 195.25 561.9 195.21 561.27 195.13C560.64 195.05 560.06 194.94 559.5 194.79C558.95 194.64 558.44 194.46 557.99 194.24V191.33C558.75 191.66 559.6 191.97 560.55 192.24C561.49 192.51 562.45 192.65 563.43 192.65C564.23 192.65 564.89 192.54 565.42 192.33C565.95 192.12 566.34 191.82 566.6 191.43C566.86 191.04 566.98 190.58 566.98 190.06C566.98 189.5 566.83 189.03 566.53 188.65C566.23 188.26 565.78 187.91 565.17 187.59C564.56 187.27 563.81 186.92 562.9 186.56C562.28 186.31 561.69 186.03 561.13 185.71C560.57 185.39 560.07 185.02 559.63 184.59C559.19 184.16 558.85 183.65 558.59 183.07C558.34 182.48 558.21 181.79 558.21 180.99C558.21 179.93 558.46 179.02 558.97 178.27C559.48 177.52 560.2 176.94 561.13 176.54C562.06 176.14 563.15 175.94 564.39 175.94C565.38 175.94 566.3 176.04 567.17 176.25C568.04 176.46 568.89 176.75 569.73 177.12L568.75 179.6C567.98 179.28 567.23 179.03 566.51 178.84C565.79 178.65 565.05 178.56 564.29 178.56C563.64 178.56 563.09 178.66 562.63 178.85C562.18 179.05 561.83 179.32 561.6 179.68C561.37 180.04 561.25 180.46 561.25 180.95C561.25 181.5 561.38 181.96 561.66 182.33C561.93 182.7 562.35 183.04 562.92 183.35C563.49 183.66 564.22 184 565.12 184.38C566.16 184.81 567.04 185.26 567.76 185.73C568.48 186.2 569.04 186.77 569.43 187.42C569.82 188.07 570.01 188.9 570.01 189.88H570.03Z" fill="#291B89"/>
<path d="M586.92 178.55C586.02 178.55 585.22 178.71 584.51 179.04C583.8 179.37 583.21 179.83 582.72 180.45C582.23 181.07 581.86 181.8 581.6 182.67C581.34 183.54 581.21 184.52 581.21 185.61C581.21 187.07 581.42 188.32 581.83 189.37C582.24 190.42 582.87 191.23 583.71 191.79C584.55 192.35 585.61 192.63 586.9 192.63C587.7 192.63 588.47 192.55 589.23 192.4C589.99 192.25 590.76 192.04 591.57 191.77V194.39C590.81 194.69 590.04 194.91 589.26 195.05C588.48 195.19 587.58 195.26 586.56 195.26C584.64 195.26 583.05 194.86 581.79 194.06C580.53 193.26 579.58 192.14 578.96 190.69C578.34 189.24 578.03 187.55 578.03 185.6C578.03 184.18 578.23 182.88 578.62 181.69C579.01 180.5 579.59 179.49 580.34 178.62C581.09 177.75 582.03 177.1 583.14 176.63C584.25 176.16 585.52 175.93 586.95 175.93C587.89 175.93 588.82 176.04 589.73 176.24C590.64 176.45 591.49 176.75 592.27 177.13L591.19 179.67C590.54 179.36 589.86 179.1 589.15 178.87C588.44 178.65 587.7 178.54 586.94 178.54L586.92 178.55Z" fill="#291B89"/>
<path d="M600.86 194.99V176.2H603.94V194.99H600.86Z" fill="#291B89"/>
<path d="M630.84 185.57C630.84 187.02 630.66 188.34 630.29 189.52C629.93 190.71 629.38 191.73 628.65 192.58C627.92 193.43 627.01 194.09 625.91 194.55C624.81 195.01 623.53 195.24 622.05 195.24C620.57 195.24 619.25 195.01 618.15 194.55C617.05 194.09 616.14 193.43 615.41 192.57C614.69 191.71 614.14 190.69 613.78 189.5C613.42 188.31 613.24 186.99 613.24 185.54C613.24 183.6 613.56 181.91 614.2 180.47C614.84 179.03 615.81 177.9 617.12 177.1C618.43 176.3 620.08 175.9 622.08 175.9C624.08 175.9 625.66 176.3 626.95 177.1C628.24 177.9 629.21 179.02 629.86 180.46C630.51 181.9 630.83 183.61 630.83 185.57H630.84ZM616.5 185.57C616.5 187.02 616.7 188.27 617.09 189.33C617.48 190.39 618.09 191.2 618.91 191.77C619.73 192.34 620.78 192.62 622.07 192.62C623.36 192.62 624.42 192.34 625.23 191.77C626.04 191.2 626.64 190.39 627.03 189.33C627.42 188.27 627.61 187.02 627.61 185.57C627.61 183.37 627.17 181.64 626.29 180.4C625.41 179.15 624.01 178.53 622.09 178.53C620.8 178.53 619.75 178.81 618.92 179.38C618.09 179.95 617.48 180.75 617.09 181.8C616.7 182.85 616.5 184.11 616.5 185.57Z" fill="#291B89"/>
<path d="M654.89 176.2V188.36C654.89 189.67 654.61 190.85 654.06 191.88C653.51 192.92 652.67 193.74 651.56 194.34C650.45 194.94 649.05 195.25 647.36 195.25C644.95 195.25 643.12 194.62 641.87 193.35C640.62 192.08 639.99 190.4 639.99 188.31V176.2H643.07V188.04C643.07 189.61 643.44 190.76 644.17 191.51C644.91 192.26 646.01 192.63 647.47 192.63C648.48 192.63 649.3 192.45 649.94 192.1C650.58 191.74 651.05 191.22 651.35 190.53C651.65 189.84 651.81 189.01 651.81 188.03V176.21H654.88L654.89 176.2Z" fill="#291B89"/>
<path d="M675.8 189.88C675.8 190.99 675.53 191.95 674.98 192.76C674.43 193.57 673.66 194.18 672.64 194.61C671.62 195.04 670.41 195.25 669.01 195.25C668.32 195.25 667.67 195.21 667.04 195.13C666.41 195.05 665.83 194.94 665.27 194.79C664.72 194.64 664.21 194.46 663.76 194.24V191.33C664.52 191.66 665.37 191.97 666.32 192.24C667.26 192.51 668.22 192.65 669.2 192.65C670 192.65 670.66 192.54 671.19 192.33C671.72 192.12 672.11 191.82 672.37 191.43C672.63 191.04 672.75 190.58 672.75 190.06C672.75 189.5 672.6 189.03 672.3 188.65C672 188.27 671.55 187.91 670.94 187.59C670.34 187.27 669.58 186.92 668.67 186.56C668.05 186.31 667.46 186.03 666.9 185.71C666.34 185.39 665.84 185.02 665.4 184.59C664.96 184.16 664.62 183.65 664.36 183.07C664.11 182.48 663.98 181.79 663.98 180.99C663.98 179.93 664.24 179.02 664.75 178.27C665.26 177.52 665.98 176.94 666.91 176.54C667.84 176.14 668.93 175.94 670.17 175.94C671.16 175.94 672.08 176.04 672.95 176.25C673.82 176.46 674.67 176.75 675.51 177.12L674.53 179.6C673.76 179.28 673.01 179.03 672.29 178.84C671.57 178.65 670.83 178.56 670.07 178.56C669.42 178.56 668.87 178.66 668.41 178.85C667.96 179.05 667.61 179.32 667.38 179.68C667.14 180.04 667.03 180.46 667.03 180.95C667.03 181.5 667.16 181.96 667.43 182.33C667.7 182.7 668.12 183.04 668.69 183.35C669.26 183.66 669.99 184 670.89 184.38C671.93 184.81 672.81 185.26 673.53 185.73C674.25 186.2 674.81 186.77 675.2 187.42C675.58 188.08 675.78 188.9 675.78 189.88H675.8Z" fill="#291B89"/>
<path d="M298.77 226.58V207.79H301.85V226.58H298.77Z" fill="#291B89"/>
<path d="M327.75 226.58H323.96L314.76 211.58H314.64C314.67 212.09 314.71 212.62 314.74 213.19C314.77 213.76 314.79 214.34 314.82 214.94C314.85 215.54 314.86 216.15 314.88 216.76V226.58H312.08V207.79H315.85L325.04 222.69H325.13C325.11 222.25 325.09 221.75 325.07 221.19C325.04 220.62 325.02 220.04 325 219.44C324.98 218.84 324.96 218.25 324.96 217.69V207.81H327.77V226.6L327.75 226.58Z" fill="#291B89"/>
<path d="M353.2 217C353.2 219.12 352.81 220.88 352.02 222.3C351.23 223.72 350.09 224.79 348.59 225.5C347.09 226.22 345.28 226.57 343.17 226.57H337.95V207.78H343.73C345.68 207.78 347.35 208.13 348.77 208.83C350.18 209.53 351.28 210.56 352.05 211.93C352.82 213.3 353.21 214.99 353.21 217H353.2ZM349.99 217.09C349.99 215.55 349.75 214.28 349.26 213.29C348.77 212.3 348.06 211.56 347.13 211.07C346.19 210.59 345.04 210.34 343.67 210.34H341.04V223.99H343.22C345.49 223.99 347.19 223.41 348.31 222.25C349.43 221.09 349.99 219.37 349.99 217.08V217.09Z" fill="#291B89"/>
<path d="M362.5 226.58V207.79H365.58V226.58H362.5Z" fill="#291B89"/>
<path d="M389.73 207.79L383.16 226.58H379.9L373.33 207.79H376.49L380.45 219.56C380.57 219.9 380.7 220.32 380.84 220.81C380.98 221.3 381.11 221.79 381.24 222.29C381.36 222.79 381.46 223.23 381.53 223.61C381.6 223.22 381.7 222.78 381.82 222.29C381.94 221.79 382.08 221.3 382.21 220.81C382.34 220.32 382.48 219.9 382.59 219.55L386.56 207.79H389.72H389.73Z" fill="#291B89"/>
<path d="M397.46 226.58V207.79H400.54V226.58H397.46Z" fill="#291B89"/>
<path d="M426.02 217C426.02 219.12 425.63 220.88 424.84 222.3C424.05 223.72 422.91 224.79 421.41 225.5C419.91 226.22 418.1 226.57 415.99 226.57H410.77V207.78H416.55C418.5 207.78 420.17 208.13 421.59 208.83C423.01 209.53 424.1 210.56 424.87 211.93C425.64 213.3 426.03 214.99 426.03 217H426.02ZM422.8 217.09C422.8 215.55 422.56 214.28 422.07 213.29C421.59 212.3 420.87 211.56 419.94 211.07C419.01 210.58 417.85 210.34 416.48 210.34H413.85V223.99H416.04C418.31 223.99 420.01 223.41 421.13 222.25C422.25 221.09 422.81 219.37 422.81 217.08L422.8 217.09Z" fill="#291B89"/>
<path d="M450.07 207.79V219.95C450.07 221.26 449.79 222.44 449.24 223.47C448.69 224.51 447.85 225.33 446.74 225.93C445.63 226.53 444.23 226.84 442.54 226.84C440.13 226.84 438.3 226.21 437.05 224.94C435.8 223.68 435.17 221.99 435.17 219.9V207.79H438.25V219.63C438.25 221.2 438.62 222.35 439.35 223.1C440.09 223.85 441.19 224.22 442.65 224.22C443.66 224.22 444.48 224.04 445.12 223.69C445.76 223.34 446.23 222.81 446.53 222.12C446.83 221.43 446.99 220.6 446.99 219.62V207.8H450.06L450.07 207.79Z" fill="#291B89"/>
<path d="M471.77 226.58L469.93 221.36H462.75L460.91 226.58H457.66L464.65 207.71H468.07L475.05 226.58H471.77ZM469.14 218.71L467.35 213.57C467.28 213.35 467.18 213.03 467.06 212.62C466.93 212.21 466.8 211.8 466.67 211.37C466.54 210.95 466.43 210.59 466.35 210.3C466.26 210.65 466.16 211.04 466.03 211.48C465.9 211.92 465.79 212.32 465.67 212.69C465.55 213.07 465.47 213.36 465.41 213.56L463.61 218.7H469.14V218.71Z" fill="#291B89"/>
<path d="M482.79 226.58V207.79H485.87V223.96H493.85V226.58H482.78H482.79Z" fill="#291B89"/>
<path d="M328.45 73.35C331.93 73.35 334.75 70.53 334.75 67.05C334.75 63.57 331.93 60.75 328.45 60.75C324.97 60.75 322.15 63.57 322.15 67.05C322.15 70.53 324.97 73.35 328.45 73.35Z" fill="url(#paint2_linear_1663_28997)"/>
<path d="M347.8 78.2003H346.02C345.85 78.2003 345.71 78.0603 345.71 77.8903V56.2403C345.71 56.0703 345.85 55.9303 346.02 55.9303H347.8C347.97 55.9303 348.11 56.0703 348.11 56.2403V58.4903C348.11 58.7703 348.46 58.9103 348.65 58.7003C349.48 57.8203 350.47 57.1103 351.6 56.5703C352.99 55.9103 354.47 55.5703 356.04 55.5703C357.9 55.5703 359.58 55.9803 361.06 56.8103C362.55 57.6403 363.7 58.7803 364.54 60.2503C365.38 61.7103 365.79 63.3703 365.79 65.2203V77.8903C365.79 78.0603 365.65 78.2003 365.48 78.2003H363.72C363.55 78.2003 363.41 78.0603 363.41 77.8903V65.7503C363.41 64.2103 363.1 62.8403 362.49 61.6403C361.87 60.4503 361.01 59.5203 359.89 58.8703C358.77 58.2203 357.49 57.8903 356.04 57.8903C354.5 57.8903 353.14 58.2803 351.94 59.0503C350.74 59.8203 349.8 60.8903 349.12 62.2603C348.44 63.6303 348.11 65.1903 348.11 66.9403V77.8903C348.11 78.0603 347.97 78.2003 347.8 78.2003Z" fill="#291B89"/>
<path d="M375.42 75.2103L375.4 75.1903C373.19 72.8603 372.09 70.1303 372.09 67.0203C372.09 65.4603 372.37 64.0003 372.93 62.6303C373.49 61.2603 374.31 60.0203 375.41 58.9003C376.52 57.8103 377.75 56.9803 379.13 56.4203C380.51 55.8503 381.97 55.5703 383.53 55.5703C385.48 55.5703 387.28 56.0303 388.93 56.9603C390.59 57.8803 391.94 59.1603 392.98 60.7703C394.02 62.3803 394.62 64.1803 394.77 66.1503C394.8 66.4703 394.81 66.9903 394.81 67.7203C394.81 67.8903 394.67 68.0403 394.5 68.0403H374.94C374.75 68.0403 374.6 68.2103 374.63 68.3903C374.82 69.7803 375.29 71.0503 376.06 72.1903C376.89 73.4203 377.96 74.4003 379.27 75.1003C380.58 75.8003 382.01 76.1603 383.53 76.1603C385.26 76.1603 386.84 75.7103 388.31 74.8103C389.71 73.9503 390.78 72.8003 391.51 71.3603C391.56 71.2503 391.67 71.1903 391.79 71.1903H393.78C394 71.1903 394.16 71.4203 394.07 71.6203C393.5 72.9203 392.74 74.0603 391.76 75.0603C390.68 76.1703 389.43 77.0203 388.01 77.6203C386.58 78.2203 385.1 78.5203 383.54 78.5203C380.46 78.5203 377.76 77.4203 375.44 75.2203V75.2303L375.42 75.2103ZM391.88 65.6903C392.07 65.6903 392.22 65.5203 392.19 65.3303C391.95 64.0003 391.46 62.7903 390.7 61.7103C389.88 60.5303 388.84 59.6103 387.58 58.9403C386.32 58.2703 384.96 57.9303 383.5 57.9303C382.04 57.9303 380.62 58.2703 379.33 58.9403C378.04 59.6103 376.97 60.5303 376.14 61.7103C375.38 62.7903 374.87 64.0003 374.64 65.3303C374.61 65.5203 374.76 65.6903 374.95 65.6903H391.88Z" fill="#291B89"/>
<path d="M405.78 77.9702C404.6 77.5502 403.62 76.9603 402.84 76.2003C402.06 75.4403 401.54 74.5603 401.27 73.5703C401.14 73.1103 401.08 72.6203 401.08 72.1003C401.08 72.0002 401.08 71.8702 401.1 71.7102C401.11 71.5502 401.25 71.4203 401.41 71.4203H402.91C403.09 71.4203 403.23 71.5803 403.22 71.7603C403.22 71.8203 403.22 71.8602 403.22 71.9002C403.22 72.7702 403.53 73.5502 404.14 74.2202C404.75 74.9002 405.56 75.4202 406.55 75.7802C407.55 76.1402 408.59 76.3302 409.7 76.3302C410.89 76.3302 411.96 76.1502 412.92 75.8002C413.88 75.4502 414.63 74.9603 415.18 74.3503C415.72 73.7402 416 73.0402 416.02 72.2702C415.99 71.2202 415.51 70.3702 414.57 69.7102C413.63 69.0602 412.08 68.5003 409.93 68.0403C408.67 67.7903 407.66 67.5702 406.87 67.3602C406.09 67.1502 405.34 66.9002 404.62 66.6202C403.43 66.1102 402.55 65.4702 401.97 64.6802C401.13 63.5602 400.9 62.1102 401.27 60.3402C401.27 60.3202 401.28 60.3002 401.29 60.2802C401.96 58.4802 403.29 57.1603 405.29 56.3203C406.6 55.7703 408.07 55.4902 409.7 55.4902C411.33 55.4902 412.86 55.7702 414.18 56.3302C415.5 56.8902 416.53 57.6602 417.27 58.6602C418.01 59.6602 418.38 60.7702 418.38 62.0202C418.38 62.1102 418.38 62.2303 418.36 62.3903C418.35 62.5503 418.21 62.6802 418.05 62.6802H416.2C416.22 62.5902 416.22 62.4402 416.22 62.2402C416.22 61.4402 415.94 60.7003 415.36 60.0103C414.79 59.3303 414 58.7802 413.01 58.3802C412.01 57.9802 410.91 57.7802 409.7 57.7802C408.49 57.7802 407.44 57.9602 406.48 58.3102C405.52 58.6602 404.77 59.1502 404.22 59.7702C403.67 60.3902 403.4 61.0902 403.4 61.8602C403.4 62.2502 403.48 62.6103 403.66 62.9503C403.83 63.2903 404.08 63.5703 404.4 63.7903C404.69 64.0003 405.2 64.2402 405.93 64.5202C406.55 64.7702 407.1 64.9602 407.59 65.0902C408.07 65.2202 408.92 65.4303 410.14 65.7003C412.1 66.1103 413.67 66.6102 414.86 67.1802C416.05 67.7502 416.92 68.4502 417.48 69.2702C418.25 70.4002 418.49 71.8502 418.2 73.6302C418.2 73.6502 418.19 73.6702 418.18 73.6902C417.53 75.5702 416.18 76.9302 414.13 77.7802C412.82 78.3302 411.34 78.6003 409.7 78.6003C408.27 78.6003 406.96 78.3902 405.77 77.9702H405.78Z" fill="#291B89"/>
<path d="M429.36 77.9702C428.18 77.5502 427.2 76.9603 426.42 76.2003C425.64 75.4403 425.12 74.5603 424.85 73.5703C424.72 73.1103 424.66 72.6203 424.66 72.1003C424.66 72.0002 424.66 71.8702 424.68 71.7102C424.69 71.5502 424.83 71.4203 424.99 71.4203H426.49C426.67 71.4203 426.81 71.5803 426.8 71.7603C426.8 71.8203 426.8 71.8602 426.8 71.9002C426.8 72.7702 427.11 73.5502 427.72 74.2202C428.33 74.9002 429.14 75.4202 430.13 75.7802C431.13 76.1402 432.17 76.3302 433.28 76.3302C434.47 76.3302 435.54 76.1502 436.5 75.8002C437.46 75.4502 438.21 74.9603 438.76 74.3503C439.3 73.7402 439.58 73.0402 439.6 72.2702C439.57 71.2202 439.09 70.3702 438.15 69.7102C437.21 69.0602 435.67 68.5003 433.51 68.0403C432.25 67.7903 431.24 67.5702 430.46 67.3602C429.68 67.1502 428.93 66.9002 428.21 66.6202C427.02 66.1102 426.14 65.4702 425.56 64.6802C424.72 63.5602 424.49 62.1102 424.86 60.3402C424.86 60.3202 424.87 60.3002 424.88 60.2802C425.54 58.4802 426.88 57.1603 428.88 56.3203C430.19 55.7703 431.66 55.4902 433.29 55.4902C434.92 55.4902 436.46 55.7702 437.77 56.3302C439.09 56.8902 440.12 57.6602 440.86 58.6602C441.6 59.6602 441.97 60.7702 441.97 62.0202C441.97 62.1102 441.97 62.2303 441.95 62.3903C441.94 62.5503 441.8 62.6802 441.64 62.6802H439.79C439.81 62.5902 439.81 62.4402 439.81 62.2402C439.81 61.4402 439.52 60.7003 438.95 60.0103C438.38 59.3303 437.59 58.7802 436.6 58.3802C435.6 57.9802 434.5 57.7802 433.29 57.7802C432.08 57.7802 431.03 57.9602 430.07 58.3102C429.11 58.6602 428.36 59.1502 427.81 59.7702C427.26 60.3902 426.99 61.0902 426.99 61.8602C426.99 62.2502 427.07 62.6103 427.25 62.9503C427.42 63.2903 427.67 63.5703 427.99 63.7903C428.28 64.0003 428.79 64.2402 429.52 64.5202C430.14 64.7702 430.69 64.9602 431.18 65.0902C431.66 65.2202 432.51 65.4303 433.73 65.7003C435.69 66.1103 437.26 66.6102 438.45 67.1802C439.64 67.7502 440.51 68.4502 441.07 69.2702C441.84 70.4002 442.08 71.8502 441.79 73.6302C441.79 73.6502 441.78 73.6702 441.77 73.6902C441.12 75.5702 439.77 76.9302 437.72 77.7802C436.41 78.3302 434.93 78.6003 433.29 78.6003C431.86 78.6003 430.55 78.3902 429.36 77.9702Z" fill="#291B89"/>
<path d="M320.38 75.2103L320.36 75.1903C318.15 72.8603 317.05 70.1303 317.05 67.0203C317.05 65.4603 317.33 64.0003 317.89 62.6303C318.45 61.2603 319.27 60.0203 320.37 58.9003C321.48 57.8103 322.71 56.9803 324.09 56.4203C325.47 55.8503 326.93 55.5703 328.49 55.5703C330.15 55.5703 331.71 55.9003 333.19 56.5503C334.67 57.2003 335.95 58.1303 337.03 59.3403C338.02 60.4303 338.77 61.6803 339.28 63.0903C339.36 63.2903 339.2 63.5003 338.98 63.5003H337.02C336.89 63.5003 336.78 63.4203 336.74 63.3103C336.29 62.2703 335.67 61.3503 334.87 60.5603C334.03 59.7203 333.06 59.0703 331.96 58.6103C330.86 58.1503 329.71 57.9303 328.49 57.9303C326.82 57.9303 325.3 58.3303 323.92 59.1303C322.54 59.9303 321.46 61.0303 320.67 62.4103C319.88 63.8003 319.48 65.3303 319.48 67.0203C319.48 68.7103 319.88 70.2403 320.67 71.6403C321.46 73.0303 322.55 74.1303 323.93 74.9503C325.31 75.7603 326.83 76.1603 328.49 76.1603C329.71 76.1603 330.86 75.9303 331.96 75.4803C333.06 75.0203 334.03 74.3703 334.87 73.5303C335.66 72.7403 336.29 71.8303 336.74 70.8003C336.79 70.6903 336.9 70.6103 337.02 70.6103H338.98C339.2 70.6103 339.35 70.8203 339.27 71.0203C338.76 72.4103 338.01 73.6503 337.02 74.7503C335.94 75.9503 334.66 76.8803 333.18 77.5403C331.7 78.1903 330.14 78.5203 328.48 78.5203C325.4 78.5203 322.7 77.4203 320.38 75.2203V75.2103Z" fill="#291B89"/>
<path d="M335.69 80.2003L334.12 80.9903C333.97 81.0703 333.9 81.2603 333.98 81.4103L340.84 95.0603C340.92 95.2103 341.11 95.2803 341.26 95.2003L342.83 94.4103C342.98 94.3303 343.05 94.1403 342.97 93.9903L336.11 80.3403C336.03 80.1803 335.84 80.1203 335.69 80.2003Z" fill="#291B89"/>
<path d="M325.18 82.3L323.48 97.48C323.46 97.65 323.58 97.81 323.75 97.83L325.49 98.02C325.66 98.04 325.82 97.92 325.84 97.75L327.54 82.57C327.56 82.4 327.44 82.24 327.27 82.22L325.53 82.03C325.36 82.01 325.2 82.13 325.18 82.3Z" fill="#291B89"/>
<path d="M317.31 78.2301L307.6 90.03C307.49 90.16 307.51 90.36 307.64 90.47L309 91.59C309.13 91.7 309.33 91.68 309.44 91.55L319.15 79.75C319.26 79.62 319.24 79.42 319.11 79.31L317.75 78.1901C317.62 78.0801 317.42 78.1001 317.31 78.2301Z" fill="#291B89"/>
<path d="M312.93 70.53L298.36 75.12C298.2 75.17 298.11 75.35 298.15 75.51L298.68 77.19C298.73 77.35 298.91 77.44 299.07 77.4L313.64 72.81C313.8 72.76 313.89 72.58 313.85 72.42L313.32 70.74C313.27 70.58 313.09 70.49 312.93 70.53Z" fill="#291B89"/>
<path d="M298.36 57.8198L297.89 59.5098C297.84 59.6798 297.94 59.8498 298.11 59.8898L312.83 63.9898C313 64.0398 313.17 63.9398 313.21 63.7698L313.68 62.0798C313.73 61.9098 313.63 61.7398 313.46 61.6998L298.74 57.5998C298.57 57.5498 298.4 57.6498 298.36 57.8198Z" fill="#291B89"/>
<path d="M308.19 43.08L306.87 44.24C306.74 44.35 306.73 44.55 306.84 44.68L316.94 56.15C317.05 56.28 317.25 56.29 317.38 56.18L318.7 55.02C318.83 54.91 318.84 54.71 318.73 54.58L308.63 43.11C308.52 42.98 308.32 42.97 308.19 43.08Z" fill="#291B89"/>
<path d="M324.46 36.0901L322.72 36.3401C322.55 36.3701 322.43 36.5201 322.46 36.6901L324.67 51.8101C324.7 51.9801 324.85 52.1001 325.02 52.0701L326.76 51.8201C326.93 51.7901 327.05 51.6401 327.02 51.4701L324.81 36.3501C324.78 36.1801 324.63 36.0601 324.46 36.0901Z" fill="#291B89"/>
<path d="M339.89 38.5401L333.49 52.4201C333.42 52.5801 333.49 52.76 333.64 52.83L335.24 53.5701C335.4 53.6401 335.58 53.5701 335.65 53.4201L342.05 39.5401C342.12 39.3801 342.05 39.2001 341.9 39.1301L340.3 38.3901C340.14 38.3201 339.96 38.3901 339.89 38.5401Z" fill="#291B89"/>
<defs>
<linearGradient id="paint0_linear_1663_28997" x1="70.9" y1="-381" x2="198.73" y2="-381" gradientUnits="userSpaceOnUse">
<stop offset="0.2" stop-color="#F7F1A3"/>
<stop offset="0.43" stop-color="#F8D34F"/>
<stop offset="0.47" stop-color="#F9CD3E"/>
<stop offset="0.61" stop-color="#F7E074"/>
<stop offset="0.71" stop-color="#F7EC96"/>
<stop offset="0.76" stop-color="#F7F1A3"/>
<stop offset="0.84" stop-color="#F7DA6C"/>
<stop offset="0.91" stop-color="#F8C841"/>
<stop offset="0.97" stop-color="#F8BE26"/>
<stop offset="1" stop-color="#F9BA1D"/>
</linearGradient>
<linearGradient id="paint1_linear_1663_28997" x1="0" y1="-381" x2="269.64" y2="-381" gradientUnits="userSpaceOnUse">
<stop stop-color="#F9BA1D"/>
<stop offset="0.03" stop-color="#F8BE26"/>
<stop offset="0.09" stop-color="#F8C841"/>
<stop offset="0.16" stop-color="#F7DA6C"/>
<stop offset="0.24" stop-color="#F7F1A3"/>
<stop offset="0.29" stop-color="#F7EC96"/>
<stop offset="0.39" stop-color="#F7E074"/>
<stop offset="0.53" stop-color="#F9CD3E"/>
<stop offset="0.57" stop-color="#F8D34F"/>
<stop offset="0.8" stop-color="#F7F1A3"/>
</linearGradient>
<linearGradient id="paint2_linear_1663_28997" x1="319.36" y1="59.3" x2="333.42" y2="71.2701" gradientUnits="userSpaceOnUse">
<stop offset="0.42" stop-color="#F8B814"/>
<stop offset="1" stop-color="#F28705"/>
</linearGradient>
</defs>
</svg>
