<svg width="39" height="39" viewBox="0 0 39 39" fill="none" xmlns="http://www.w3.org/2000/svg">
<rect width="39" height="39" fill="#1E1E1E"/>
<path d="M-117 -4C-117 -20.5685 -103.569 -34 -87 -34H128C144.569 -34 158 -20.5685 158 -4V45C158 61.5685 144.569 75 128 75H-87C-103.569 75 -117 61.5685 -117 45V-4Z" fill="white"/>
<path d="M-87 -34V-33H128V-34V-35H-87V-34ZM158 -4H157V45H158H159V-4H158ZM128 75V74H-87V75V76H128V75ZM-117 45H-116V-4H-117H-118V45H-117ZM-87 75V74C-103.016 74 -116 61.0163 -116 45H-117H-118C-118 62.1208 -104.121 76 -87 76V75ZM158 45H157C157 61.0163 144.016 74 128 74V75V76C145.121 76 159 62.1208 159 45H158ZM128 -34V-33C144.016 -33 157 -20.0163 157 -4H158H159C159 -21.1208 145.121 -35 128 -35V-34ZM-87 -34V-35C-104.121 -35 -118 -21.1208 -118 -4H-117H-116C-116 -20.0163 -103.016 -33 -87 -33V-34Z" fill="white" fill-opacity="0.1"/>
<g clip-path="url(#clip0_0_1)">
<rect width="39" height="39" rx="19.5" fill="white"/>
<path d="M19.3338 38.7105C29.9436 38.7105 38.5445 30.1096 38.5445 19.4998C38.5445 8.89 29.9436 0.289062 19.3338 0.289062C8.724 0.289062 0.123047 8.89 0.123047 19.4998C0.123047 30.1096 8.724 38.7105 19.3338 38.7105Z" fill="#19D189"/>
<path d="M28.5779 19.5C28.5779 24.6057 24.4383 28.7438 19.3326 28.7438C14.2269 28.7438 10.0889 24.6057 10.0889 19.5H28.5779Z" fill="url(#paint0_linear_0_1)"/>
<path d="M38.0284 13.9488C37.9199 13.5814 37.7999 13.2184 37.6711 12.8612C34.9491 5.36749 27.7562 0 19.334 0C10.9118 0 3.71895 5.36749 0.996874 12.8612C0.868147 13.2184 0.748102 13.5814 0.639624 13.9488C0.114591 15.7091 -0.166016 17.572 -0.166016 19.5C-0.166016 21.428 0.116037 23.2924 0.639624 25.0526C0.748102 25.42 0.868147 25.7816 0.996874 26.1374C3.71895 33.6311 10.9118 38.9986 19.334 38.9986C27.7562 38.9986 34.9491 33.6311 37.6711 26.1374C37.7999 25.7816 37.9199 25.42 38.0284 25.0526C38.552 23.2924 38.834 21.428 38.834 19.5C38.834 17.572 38.5534 15.7091 38.0284 13.9488ZM37.6783 14.86C38.0312 16.2558 38.2294 17.7123 38.2511 19.2107H35.8096H32.3383H28.5705C28.5387 18.1737 28.3377 17.18 27.9905 16.2558L37.6783 14.86ZM31.7569 19.7893C31.6021 26.5077 26.0886 31.9258 19.3326 31.9258C12.5765 31.9258 7.06441 26.5077 6.90965 19.7893H31.7554H31.7569ZM19.3326 32.5044C26.4068 32.5044 32.1807 26.8273 32.334 19.7893H35.2282C35.0734 28.4212 28.0021 35.3971 19.3326 35.3971C10.663 35.3971 3.59312 28.4212 3.43835 19.7893H6.33255C6.48731 26.8273 12.2598 32.5044 19.3326 32.5044ZM36.7396 12.0787C36.8958 12.4446 37.0419 12.8163 37.175 13.1938C37.311 13.5786 37.4354 13.9691 37.5467 14.3654L27.7924 15.7698C27.2182 14.4695 26.3547 13.3269 25.2815 12.4243L32.6305 6.05307C34.3618 7.76558 35.7677 9.80786 36.7396 12.0772V12.0787ZM32.2617 5.70016L24.8779 12.1018C23.906 11.3714 22.7836 10.8304 21.5686 10.5281L24.2936 1.2381C27.3165 2.05964 30.04 3.61593 32.2617 5.70016ZM19.334 0.578549C20.8729 0.578549 22.3685 0.765129 23.8018 1.1137L21.0725 10.4197C20.5099 10.3126 19.9285 10.2548 19.334 10.2548C18.7395 10.2548 18.1566 10.3126 17.594 10.4211L14.8589 1.1166C16.2952 0.766578 17.7922 0.578549 19.334 0.578549ZM14.3642 1.24099L17.0936 10.5281C15.8801 10.8304 14.7606 11.3714 13.79 12.0989L6.40197 5.70016C8.6236 3.61738 11.3428 2.06253 14.3642 1.23954V1.24099ZM1.49297 13.1938C1.62604 12.8163 1.77212 12.4446 1.92833 12.0787C2.90029 9.8093 4.30473 7.76847 6.03603 6.05596L13.3879 12.4229C12.3133 13.3269 11.4469 14.4724 10.8727 15.7756L1.11547 14.3842C1.22829 13.9821 1.35412 13.5858 1.49297 13.1938ZM0.985292 14.8687L10.6731 16.2587C10.3274 17.1815 10.1278 18.1737 10.0946 19.2093H2.85546H0.412534C0.435676 17.7137 0.632375 16.2601 0.983844 14.8673L0.985292 14.8687ZM37.175 25.8047C37.0419 26.1823 36.8958 26.5525 36.7396 26.9185C33.8498 33.6745 27.1357 38.42 19.334 38.42C11.5323 38.42 4.81818 33.6745 1.92833 26.9185C1.77212 26.5525 1.62604 26.1823 1.49297 25.8047C0.8233 23.9187 0.44725 21.8952 0.415429 19.7893H2.86125C3.01601 28.7409 10.3448 35.9756 19.3326 35.9756C28.3203 35.9756 35.6505 28.7409 35.8053 19.7893H38.2511C38.2193 21.8952 37.8432 23.9187 37.1735 25.8047H37.175Z" fill="url(#paint1_linear_0_1)"/>
<g filter="url(#filter0_d_0_1)">
<rect width="39" height="20" transform="translate(0 19)" fill="white"/>
<path d="M23.7141 32.157V30.0504C23.7141 29.0497 23.0295 28.2597 22.1341 27.9964V26.3638C22.1341 24.8891 20.9755 23.7305 19.5009 23.7305C18.0262 23.7305 16.8676 24.8891 16.8676 26.3638V27.9964C15.9723 28.2071 15.2876 29.0497 15.2876 30.0504V32.157C15.2876 33.3156 16.2356 34.2636 17.3942 34.2636H21.6075C22.7661 34.2636 23.7141 33.3156 23.7141 32.157ZM17.9209 26.3638C17.9209 25.4684 18.6055 24.7838 19.5009 24.7838C20.3962 24.7838 21.0808 25.4684 21.0808 26.3638V27.9437H17.9209V26.3638ZM16.3409 32.157V30.0504C16.3409 29.471 16.8149 28.997 17.3942 28.997H21.6075C22.1868 28.997 22.6608 29.471 22.6608 30.0504V32.157C22.6608 32.7363 22.1868 33.2103 21.6075 33.2103H17.3942C16.8149 33.2103 16.3409 32.7363 16.3409 32.157Z" fill="url(#paint2_linear_0_1)"/>
</g>
</g>
<rect x="0.5" y="0.5" width="38" height="38" rx="19" stroke="#ECEEF2"/>
<defs>
<filter id="filter0_d_0_1" x="-0.888781" y="18.3334" width="40.7776" height="21.7776" filterUnits="userSpaceOnUse" color-interpolation-filters="sRGB">
<feFlood flood-opacity="0" result="BackgroundImageFix"/>
<feColorMatrix in="SourceAlpha" type="matrix" values="0 0 0 0 0 0 0 0 0 0 0 0 0 0 0 0 0 0 127 0" result="hardAlpha"/>
<feOffset dy="0.222195"/>
<feGaussianBlur stdDeviation="0.44439"/>
<feComposite in2="hardAlpha" operator="out"/>
<feColorMatrix type="matrix" values="0 0 0 0 0 0 0 0 0 0 0 0 0 0 0 0 0 0 0.25 0"/>
<feBlend mode="normal" in2="BackgroundImageFix" result="effect1_dropShadow_0_1"/>
<feBlend mode="normal" in="SourceGraphic" in2="effect1_dropShadow_0_1" result="shape"/>
</filter>
<linearGradient id="paint0_linear_0_1" x1="10.0889" y1="-55.1401" x2="28.5779" y2="-55.1401" gradientUnits="userSpaceOnUse">
<stop offset="0.2" stop-color="#F7F1A3"/>
<stop offset="0.43" stop-color="#F8D34F"/>
<stop offset="0.47" stop-color="#F9CD3E"/>
<stop offset="0.61" stop-color="#F7E074"/>
<stop offset="0.71" stop-color="#F7EC96"/>
<stop offset="0.76" stop-color="#F7F1A3"/>
<stop offset="0.84" stop-color="#F7DA6C"/>
<stop offset="0.91" stop-color="#F8C841"/>
<stop offset="0.97" stop-color="#F8BE26"/>
<stop offset="1" stop-color="#F9BA1D"/>
</linearGradient>
<linearGradient id="paint1_linear_0_1" x1="-0.166016" y1="-55.1401" x2="38.834" y2="-55.1401" gradientUnits="userSpaceOnUse">
<stop stop-color="#F9BA1D"/>
<stop offset="0.03" stop-color="#F8BE26"/>
<stop offset="0.09" stop-color="#F8C841"/>
<stop offset="0.16" stop-color="#F7DA6C"/>
<stop offset="0.24" stop-color="#F7F1A3"/>
<stop offset="0.29" stop-color="#F7EC96"/>
<stop offset="0.39" stop-color="#F7E074"/>
<stop offset="0.53" stop-color="#F9CD3E"/>
<stop offset="0.57" stop-color="#F8D34F"/>
<stop offset="0.8" stop-color="#F7F1A3"/>
</linearGradient>
<linearGradient id="paint2_linear_0_1" x1="19.5009" y1="23.7305" x2="19.5009" y2="34.2636" gradientUnits="userSpaceOnUse">
<stop stop-color="#FFDE5B"/>
<stop offset="1" stop-color="#C78F04"/>
</linearGradient>
<clipPath id="clip0_0_1">
<rect width="39" height="39" rx="19.5" fill="white"/>
</clipPath>
</defs>
</svg>
