<svg width="270" height="270" viewBox="0 0 270 270" fill="none" xmlns="http://www.w3.org/2000/svg">
<path d="M134.82 267.64C208.175 267.64 267.64 208.174 267.64 134.82C267.64 61.4655 208.175 2 134.82 2C61.4656 2 2 61.4655 2 134.82C2 208.174 61.4656 267.64 134.82 267.64Z" fill="#19D189"/>
<path d="M198.73 134.82C198.73 170.12 170.11 198.73 134.81 198.73C99.5099 198.73 70.8999 170.12 70.8999 134.82H198.73Z" fill="url(#paint0_linear_2936_26226)"/>
<path d="M264.07 96.44C263.32 93.9 262.49 91.39 261.6 88.92C242.78 37.11 193.05 0 134.82 0C76.5901 0 26.86 37.11 8.04004 88.92C7.15004 91.39 6.32007 93.9 5.57007 96.44C1.94007 108.61 0 121.49 0 134.82C0 148.15 1.95007 161.04 5.57007 173.21C6.32007 175.75 7.15004 178.25 8.04004 180.71C26.86 232.52 76.5901 269.63 134.82 269.63C193.05 269.63 242.78 232.52 261.6 180.71C262.49 178.25 263.32 175.75 264.07 173.21C267.69 161.04 269.64 148.15 269.64 134.82C269.64 121.49 267.7 108.61 264.07 96.44ZM261.65 102.74C264.09 112.39 265.46 122.46 265.61 132.82H248.73H224.73H198.68C198.46 125.65 197.07 118.78 194.67 112.39L261.65 102.74ZM220.71 136.82C219.64 183.27 181.52 220.73 134.81 220.73C88.1001 220.73 49.99 183.27 48.92 136.82H220.7H220.71ZM134.81 224.73C183.72 224.73 223.64 185.48 224.7 136.82H244.71C243.64 196.5 194.75 244.73 134.81 244.73C74.8701 244.73 25.99 196.5 24.92 136.82H44.9301C46.0001 185.48 85.9101 224.73 134.81 224.73ZM255.16 83.51C256.24 86.04 257.25 88.61 258.17 91.22C259.11 93.88 259.97 96.58 260.74 99.32L193.3 109.03C189.33 100.04 183.36 92.14 175.94 85.9L226.75 41.85C238.72 53.69 248.44 67.81 255.16 83.5V83.51ZM224.2 39.41L173.15 83.67C166.43 78.62 158.67 74.88 150.27 72.79L169.11 8.56C190.01 14.24 208.84 25 224.2 39.41ZM134.82 4C145.46 4 155.8 5.28998 165.71 7.69998L146.84 72.04C142.95 71.3 138.93 70.9 134.82 70.9C130.71 70.9 126.68 71.3 122.79 72.05L103.88 7.72C113.81 5.3 124.16 4 134.82 4ZM100.46 8.57999L119.33 72.79C110.94 74.88 103.2 78.62 96.49 83.65L45.41 39.41C60.77 25.01 79.57 14.26 100.46 8.56998V8.57999ZM11.47 91.22C12.39 88.61 13.4 86.04 14.48 83.51C21.2 67.82 30.91 53.71 42.88 41.87L93.71 85.89C86.28 92.14 80.2901 100.06 76.3201 109.07L8.85999 99.45C9.63999 96.67 10.51 93.93 11.47 91.22ZM7.95996 102.8L74.9401 112.41C72.5501 118.79 71.1701 125.65 70.9401 132.81H20.89H4C4.16 122.47 5.51995 112.42 7.94995 102.79L7.95996 102.8ZM258.17 178.41C257.25 181.02 256.24 183.58 255.16 186.11C235.18 232.82 188.76 265.63 134.82 265.63C80.8801 265.63 34.46 232.82 14.48 186.11C13.4 183.58 12.39 181.02 11.47 178.41C6.83997 165.37 4.24002 151.38 4.02002 136.82H20.9301C22.0001 198.71 72.6701 248.73 134.81 248.73C196.95 248.73 247.63 198.71 248.7 136.82H265.61C265.39 151.38 262.79 165.37 258.16 178.41H258.17Z" fill="url(#paint1_linear_2936_26226)"/>
<defs>
<linearGradient id="paint0_linear_2936_26226" x1="70.8999" y1="-381.23" x2="198.73" y2="-381.23" gradientUnits="userSpaceOnUse">
<stop offset="0.2" stop-color="#F7F1A3"/>
<stop offset="0.43" stop-color="#F8D34F"/>
<stop offset="0.47" stop-color="#F9CD3E"/>
<stop offset="0.61" stop-color="#F7E074"/>
<stop offset="0.71" stop-color="#F7EC96"/>
<stop offset="0.76" stop-color="#F7F1A3"/>
<stop offset="0.84" stop-color="#F7DA6C"/>
<stop offset="0.91" stop-color="#F8C841"/>
<stop offset="0.97" stop-color="#F8BE26"/>
<stop offset="1" stop-color="#F9BA1D"/>
</linearGradient>
<linearGradient id="paint1_linear_2936_26226" x1="0" y1="-381.23" x2="269.64" y2="-381.23" gradientUnits="userSpaceOnUse">
<stop stop-color="#F9BA1D"/>
<stop offset="0.03" stop-color="#F8BE26"/>
<stop offset="0.09" stop-color="#F8C841"/>
<stop offset="0.16" stop-color="#F7DA6C"/>
<stop offset="0.24" stop-color="#F7F1A3"/>
<stop offset="0.29" stop-color="#F7EC96"/>
<stop offset="0.39" stop-color="#F7E074"/>
<stop offset="0.53" stop-color="#F9CD3E"/>
<stop offset="0.57" stop-color="#F8D34F"/>
<stop offset="0.8" stop-color="#F7F1A3"/>
</linearGradient>
</defs>
</svg>
