<svg width="31" height="31" viewBox="0 0 31 31" fill="none" xmlns="http://www.w3.org/2000/svg">
<g clip-path="url(#clip0_9_2217)">
<rect x="1.25" y="1.38525" width="28" height="28" rx="14" fill="#070126"/>
<path d="M19.75 15.3854C19.75 16.5788 19.2759 17.7234 18.432 18.5673C17.588 19.4112 16.4434 19.8854 15.25 19.8854C14.0565 19.8854 12.9119 19.4112 12.068 18.5673C11.2241 17.7234 10.75 16.5788 10.75 15.3854C10.751 15.1284 10.7755 14.8784 10.8235 14.6354H9.24998V20.6309C9.24998 21.0479 9.58747 21.3854 10.0045 21.3854H20.497C20.6968 21.385 20.8883 21.3053 21.0295 21.1638C21.1707 21.0224 21.25 20.8307 21.25 20.6309V14.6354H19.6765C19.7245 14.8784 19.749 15.1284 19.75 15.3854ZM15.25 18.3854C15.644 18.3853 16.0342 18.3075 16.3983 18.1566C16.7623 18.0058 17.093 17.7846 17.3716 17.5059C17.6502 17.2272 17.8711 16.8964 18.0218 16.5322C18.1726 16.1681 18.2501 15.7779 18.25 15.3839C18.2499 14.9898 18.1722 14.5996 18.0213 14.2356C17.8704 13.8715 17.6493 13.5408 17.3705 13.2622C17.0918 12.9836 16.761 12.7627 16.3969 12.612C16.0328 12.4613 15.6425 12.3838 15.2485 12.3839C14.4526 12.3841 13.6895 12.7004 13.1268 13.2633C12.5642 13.8262 12.2483 14.5895 12.2485 15.3854C12.2487 16.1812 12.565 16.9444 13.1279 17.507C13.6908 18.0696 14.4541 18.3856 15.25 18.3854ZM18.85 12.2354H20.6485C20.7077 12.2355 20.7664 12.2241 20.8211 12.2015C20.8759 12.179 20.9257 12.1459 20.9676 12.1041C21.0096 12.0623 21.0429 12.0126 21.0656 11.9579C21.0883 11.9032 21.1 11.8446 21.1 11.7854V9.98685C21.1002 9.9275 21.0886 9.8687 21.066 9.81384C21.0434 9.75897 21.0101 9.70912 20.9682 9.66715C20.9262 9.62519 20.8764 9.59194 20.8215 9.56932C20.7666 9.5467 20.7078 9.53515 20.6485 9.53535H18.85C18.7906 9.53515 18.7318 9.5467 18.677 9.56932C18.6221 9.59194 18.5722 9.62519 18.5303 9.66715C18.4883 9.70912 18.4551 9.75897 18.4324 9.81384C18.4098 9.8687 18.3983 9.9275 18.3985 9.98685V11.7854C18.4 12.0329 18.6025 12.2354 18.85 12.2354ZM15.25 0.985352C11.4309 0.985352 7.76816 2.50249 5.06764 5.20301C2.36711 7.90354 0.849976 11.5662 0.849976 15.3854C0.849976 19.2045 2.36711 22.8672 5.06764 25.5677C7.76816 28.2682 11.4309 29.7854 15.25 29.7854C17.141 29.7854 19.0135 29.4129 20.7606 28.6892C22.5077 27.9655 24.0951 26.9049 25.4323 25.5677C26.7695 24.2305 27.8302 22.6431 28.5538 20.896C29.2775 19.1489 29.65 17.2764 29.65 15.3854C29.65 13.4943 29.2775 11.6218 28.5538 9.87471C27.8302 8.12762 26.7695 6.54018 25.4323 5.20301C24.0951 3.86585 22.5077 2.80515 20.7606 2.08149C19.0135 1.35782 17.141 0.985352 15.25 0.985352ZM22.75 21.2189C22.75 22.1354 22 22.8854 21.0835 22.8854H9.41648C8.49998 22.8854 7.74998 22.1354 7.74998 21.2189V9.55185C7.74998 8.63535 8.49998 7.88535 9.41648 7.88535H21.0835C22 7.88535 22.75 8.63535 22.75 9.55185V21.2189Z" fill="#F6F5FA"/>
</g>
<defs>
<clipPath id="clip0_9_2217">
<rect width="30" height="30" fill="white" transform="translate(0.25 0.385254)"/>
</clipPath>
</defs>
</svg>
