<svg width="31" height="31" viewBox="0 0 31 31" fill="none" xmlns="http://www.w3.org/2000/svg">
<g clip-path="url(#clip0_9_2217)">
<rect x="1.25" y="1.38525" width="28" height="28" rx="14" fill="#070126"/>
<path d="M19.7501 15.3854C19.7501 16.5788 19.276 17.7234 18.4321 18.5673C17.5882 19.4112 16.4436 19.8854 15.2501 19.8854C14.0566 19.8854 12.912 19.4112 12.0681 18.5673C11.2242 17.7234 10.7501 16.5788 10.7501 15.3854C10.7511 15.1284 10.7756 14.8784 10.8236 14.6354H9.2501V20.6309C9.2501 21.0479 9.5876 21.3854 10.0046 21.3854H20.4971C20.6969 21.385 20.8885 21.3053 21.0296 21.1638C21.1708 21.0224 21.2501 20.8307 21.2501 20.6309V14.6354H19.6766C19.7246 14.8784 19.7491 15.1284 19.7501 15.3854ZM15.2501 18.3854C15.6442 18.3853 16.0343 18.3075 16.3984 18.1566C16.7624 18.0058 17.0932 17.7846 17.3717 17.5059C17.6503 17.2272 17.8713 16.8964 18.022 16.5322C18.1727 16.1681 18.2502 15.7779 18.2501 15.3839C18.25 14.9898 18.1723 14.5996 18.0214 14.2356C17.8705 13.8715 17.6494 13.5408 17.3707 13.2622C17.092 12.9836 16.7611 12.7627 16.397 12.612C16.0329 12.4613 15.6427 12.3838 15.2486 12.3839C14.4527 12.3841 13.6896 12.7004 13.127 13.2633C12.5644 13.8262 12.2484 14.5895 12.2486 15.3854C12.2488 16.1812 12.5651 16.9444 13.128 17.507C13.6909 18.0696 14.4543 18.3856 15.2501 18.3854ZM18.8501 12.2354H20.6486C20.7078 12.2355 20.7665 12.2241 20.8213 12.2015C20.876 12.179 20.9258 12.1459 20.9678 12.1041C21.0097 12.0623 21.043 12.0126 21.0657 11.9579C21.0884 11.9032 21.1001 11.8446 21.1001 11.7854V9.98685C21.1003 9.9275 21.0888 9.8687 21.0661 9.81384C21.0435 9.75897 21.0103 9.70912 20.9683 9.66715C20.9263 9.62519 20.8765 9.59194 20.8216 9.56932C20.7667 9.5467 20.7079 9.53515 20.6486 9.53535H18.8501C18.7908 9.53515 18.732 9.5467 18.6771 9.56932C18.6222 9.59194 18.5724 9.62519 18.5304 9.66715C18.4884 9.70912 18.4552 9.75897 18.4326 9.81384C18.4099 9.8687 18.3984 9.9275 18.3986 9.98685V11.7854C18.4001 12.0329 18.6026 12.2354 18.8501 12.2354ZM15.2501 0.985352C11.431 0.985352 7.76828 2.50249 5.06776 5.20301C2.36724 7.90354 0.850098 11.5662 0.850098 15.3854C0.850098 19.2045 2.36724 22.8672 5.06776 25.5677C7.76828 28.2682 11.431 29.7854 15.2501 29.7854C17.1411 29.7854 19.0137 29.4129 20.7607 28.6892C22.5078 27.9655 24.0953 26.9049 25.4324 25.5677C26.7696 24.2305 27.8303 22.6431 28.554 20.896C29.2776 19.1489 29.6501 17.2764 29.6501 15.3854C29.6501 13.4943 29.2776 11.6218 28.554 9.87471C27.8303 8.12762 26.7696 6.54018 25.4324 5.20301C24.0953 3.86585 22.5078 2.80515 20.7607 2.08149C19.0137 1.35782 17.1411 0.985352 15.2501 0.985352ZM22.7501 21.2189C22.7501 22.1354 22.0001 22.8854 21.0836 22.8854H9.4166C8.5001 22.8854 7.7501 22.1354 7.7501 21.2189V9.55185C7.7501 8.63535 8.5001 7.88535 9.4166 7.88535H21.0836C22.0001 7.88535 22.7501 8.63535 22.7501 9.55185V21.2189Z" fill="#F6F5FA"/>
</g>
<defs>
<clipPath id="clip0_9_2217">
<rect width="30" height="30" fill="white" transform="translate(0.25 0.385254)"/>
</clipPath>
</defs>
</svg>
