<svg width="60" height="60" viewBox="0 0 60 60" fill="none" xmlns="http://www.w3.org/2000/svg">
<rect x="0.35" y="0.35" width="59.3" height="59.3" rx="9.65" fill="white"/>
<rect x="0.35" y="0.35" width="59.3" height="59.3" rx="9.65" stroke="#848484" stroke-width="0.7"/>
<path d="M37.5652 20.735C37.2289 20.735 36.9003 20.8347 36.6207 21.0215C36.3411 21.2083 36.1232 21.4738 35.9946 21.7844C35.8659 22.0951 35.8322 22.4369 35.8978 22.7666C35.9634 23.0964 36.1253 23.3993 36.3631 23.6371C36.6008 23.8748 36.9037 24.0367 37.2335 24.1023C37.5633 24.1679 37.9051 24.1342 38.2157 24.0056C38.5264 23.8769 38.7919 23.659 38.9787 23.3794C39.1655 23.0999 39.2652 22.7712 39.2652 22.435C39.2652 21.9841 39.0861 21.5517 38.7672 21.2329C38.4484 20.9141 38.016 20.735 37.5652 20.735ZM44.0818 24.1633C44.054 22.9879 43.8339 21.825 43.4302 20.7208C43.0716 19.7753 42.5107 18.9195 41.7868 18.2133C41.0853 17.4872 40.2279 16.9301 39.2793 16.5841C38.1781 16.1679 37.0139 15.9427 35.8368 15.9183C34.3352 15.8333 33.8535 15.8333 30.0002 15.8333C26.1468 15.8333 25.6652 15.8333 24.1635 15.9183C22.9865 15.9427 21.8222 16.1679 20.721 16.5841C19.7746 16.9344 18.9181 17.4909 18.2135 18.2133C17.4873 18.9148 16.9302 19.7723 16.5843 20.7208C16.1681 21.822 15.9429 22.9863 15.9185 24.1633C15.8335 25.665 15.8335 26.1466 15.8335 30C15.8335 33.8533 15.8335 34.335 15.9185 35.8366C15.9429 37.0137 16.1681 38.1779 16.5843 39.2791C16.9302 40.2277 17.4873 41.0851 18.2135 41.7866C18.9181 42.509 19.7746 43.0655 20.721 43.4158C21.8222 43.8321 22.9865 44.0573 24.1635 44.0816C25.6652 44.1666 26.1468 44.1666 30.0002 44.1666C33.8535 44.1666 34.3352 44.1666 35.8368 44.0816C37.0139 44.0573 38.1781 43.8321 39.2793 43.4158C40.2279 43.0699 41.0853 42.5128 41.7868 41.7866C42.5125 41.082 43.0736 40.2258 43.4302 39.2791C43.8339 38.1749 44.054 37.012 44.0818 35.8366C44.0818 34.335 44.1668 33.8533 44.1668 30C44.1668 26.1466 44.1668 25.665 44.0818 24.1633ZM41.5318 35.6666C41.5218 36.5659 41.3589 37.457 41.0502 38.3016C40.824 38.9182 40.4607 39.4752 39.9877 39.9308C39.5279 40.3987 38.972 40.7612 38.3585 40.9933C37.5138 41.3021 36.6228 41.4649 35.7235 41.475C34.3068 41.5458 33.7827 41.56 30.0568 41.56C26.331 41.56 25.8068 41.56 24.3902 41.475C23.4564 41.4933 22.5265 41.3495 21.6418 41.05C21.0556 40.8054 20.5254 40.4438 20.0835 39.9875C19.6133 39.5324 19.2545 38.9748 19.0352 38.3583C18.6881 37.5018 18.4963 36.5904 18.4685 35.6666C18.4685 34.25 18.3835 33.7258 18.3835 30C18.3835 26.2741 18.3835 25.75 18.4685 24.3333C18.4737 23.4139 18.6415 22.5026 18.9643 21.6416C19.2137 21.0437 19.5965 20.5107 20.0835 20.0833C20.5126 19.5948 21.0449 19.2077 21.6418 18.95C22.5051 18.6376 23.4154 18.4747 24.3335 18.4683C25.7502 18.4683 26.2743 18.3833 30.0002 18.3833C33.726 18.3833 34.2502 18.3833 35.6668 18.4683C36.5661 18.4784 37.4571 18.6412 38.3018 18.95C38.9456 19.1889 39.5234 19.5773 39.9877 20.0833C40.4505 20.5197 40.813 21.0514 41.0502 21.6416C41.3653 22.5042 41.5283 23.415 41.5318 24.3333C41.6027 25.75 41.6168 26.2741 41.6168 30C41.6168 33.7258 41.6027 34.25 41.5318 35.6666ZM30.0002 22.7325C28.5634 22.7353 27.1597 23.1639 25.9664 23.9642C24.7732 24.7644 23.8439 25.9004 23.296 27.2286C22.7481 28.5568 22.6062 30.0176 22.8882 31.4265C23.1702 32.8353 23.8635 34.1289 24.8804 35.1439C25.8974 36.1588 27.1923 36.8496 28.6017 37.1289C30.0111 37.4081 31.4716 37.2634 32.7987 36.7129C34.1259 36.1624 35.2601 35.2309 36.058 34.0361C36.856 32.8413 37.2818 31.4368 37.2818 30C37.2837 29.0439 37.0965 28.0968 36.7311 27.2133C36.3656 26.3298 35.8291 25.5273 35.1524 24.8519C34.4757 24.1765 33.6721 23.6415 32.7879 23.2778C31.9037 22.9141 30.9563 22.7287 30.0002 22.7325ZM30.0002 34.7175C29.0671 34.7175 28.155 34.4408 27.3793 33.9224C26.6035 33.4041 25.9988 32.6673 25.6418 31.8053C25.2847 30.9433 25.1913 29.9947 25.3733 29.0796C25.5553 28.1645 26.0046 27.324 26.6644 26.6642C27.3241 26.0044 28.1647 25.5552 29.0798 25.3731C29.9949 25.1911 30.9435 25.2845 31.8055 25.6416C32.6675 25.9986 33.4043 26.6033 33.9226 27.3791C34.441 28.1549 34.7177 29.0669 34.7177 30C34.7177 30.6195 34.5956 31.2329 34.3586 31.8053C34.1215 32.3776 33.774 32.8977 33.3359 33.3358C32.8979 33.7738 32.3778 34.1213 31.8055 34.3584C31.2331 34.5955 30.6197 34.7175 30.0002 34.7175Z" fill="#848484"/>
</svg>
