<svg width="20" height="20" viewBox="0 0 20 20" fill="none" xmlns="http://www.w3.org/2000/svg">
<path fill-rule="evenodd" clip-rule="evenodd" d="M6.41797 15.3542C6.41797 15.1719 6.4904 14.997 6.61933 14.8681C6.74826 14.7391 6.92313 14.6667 7.10547 14.6667H12.6055C12.7878 14.6667 12.9627 14.7391 13.0916 14.8681C13.2205 14.997 13.293 15.1719 13.293 15.3542C13.293 15.5365 13.2205 15.7114 13.0916 15.8403C12.9627 15.9693 12.7878 16.0417 12.6055 16.0417H7.10547C6.92313 16.0417 6.74826 15.9693 6.61933 15.8403C6.4904 15.7114 6.41797 15.5365 6.41797 15.3542Z" fill="white"/>
<path fill-rule="evenodd" clip-rule="evenodd" d="M6.83032 0H12.8803C13.082 0 13.2369 2.90262e-08 13.3717 0.0146667C13.9697 0.0787333 14.5252 0.354541 14.9377 0.792283C15.3502 1.23003 15.5926 1.80085 15.6212 2.40167C16.1589 2.56409 16.6311 2.89325 16.9695 3.34159C17.308 3.78993 17.4951 4.33425 17.504 4.89592C18.0549 5.06092 18.5307 5.32217 18.9193 5.742C19.517 6.38825 19.7022 7.183 19.7095 8.1125C19.7159 9.00625 19.5573 10.1356 19.3593 11.5372L18.956 14.3917C18.802 15.488 18.6764 16.379 18.4812 17.0766C18.2767 17.8072 17.9752 18.4076 17.4178 18.8696C16.8642 19.3279 16.2078 19.525 15.4323 19.6185C14.6816 19.7083 13.7374 19.7083 12.5632 19.7083H7.14749C5.97232 19.7083 5.02816 19.7083 4.27832 19.6185C3.50191 19.525 2.84558 19.3279 2.29191 18.8696C1.73458 18.4076 1.43299 17.8062 1.22858 17.0766C1.03333 16.379 0.907742 15.488 0.752825 14.3907L0.350409 11.5372C0.153325 10.1347 -0.00709151 9.00625 0.000241824 8.1125C0.00757516 7.183 0.192742 6.38825 0.790409 5.742C1.17908 5.32217 1.65391 5.06183 2.20483 4.89592C2.21393 4.33429 2.40132 3.79009 2.73992 3.34192C3.07852 2.89375 3.55081 2.5648 4.08857 2.40258C4.11687 1.8016 4.35919 1.23056 4.77173 0.79263C5.18428 0.354699 5.73985 0.0787598 6.33807 0.0146667C6.47282 2.90262e-08 6.62774 0 6.82849 0M3.61099 4.65483C4.45983 4.58333 5.49932 4.58333 6.75241 4.58333H12.9564C14.2086 4.58333 15.2481 4.58333 16.0978 4.65483C16.0348 4.37387 15.8778 4.12282 15.6528 3.94315C15.4278 3.76348 15.1483 3.66595 14.8603 3.66667H4.84941C4.23616 3.66667 3.73841 4.0975 3.61283 4.65483M13.2259 1.38233C13.7301 1.4355 14.1288 1.81133 14.2269 2.29167H5.48466C5.53329 2.05334 5.65651 1.83667 5.83647 1.67303C6.01643 1.50938 6.24379 1.40725 6.48566 1.38142C6.53699 1.37592 6.61032 1.375 6.86791 1.375H12.8427C13.0994 1.375 13.1727 1.37592 13.225 1.38142M1.80058 6.67517C2.07833 6.37542 2.49541 6.1765 3.30666 6.06833C4.13258 5.95833 5.23899 5.95742 6.80466 5.95742H12.906C14.4717 5.95742 15.5781 5.95925 16.404 6.06833C17.2152 6.1765 17.6323 6.37542 17.9101 6.67517C18.1814 6.9685 18.329 7.36725 18.3345 8.12258C18.34 8.90175 18.197 9.92842 17.9898 11.4006L17.6021 14.1506C17.4389 15.3065 17.3252 16.1058 17.1575 16.7053C16.9952 17.2828 16.8055 17.5899 16.5406 17.809C16.272 18.0327 15.9108 18.1757 15.2682 18.2527C14.6092 18.3315 13.7484 18.3324 12.5182 18.3324H7.19241C5.96224 18.3324 5.10149 18.3315 4.44241 18.2527C3.80074 18.1747 3.43866 18.0327 3.17007 17.8099C2.90516 17.5899 2.71541 17.2819 2.55316 16.7053C2.38541 16.1058 2.27174 15.3065 2.10858 14.1506L1.72083 11.4006C1.51366 9.92933 1.37066 8.90175 1.37616 8.12258C1.38166 7.36725 1.52924 6.96758 1.80058 6.67517Z" fill="white"/>
</svg>
