<svg width="34" height="35" viewBox="0 0 34 35" fill="none" xmlns="http://www.w3.org/2000/svg">
<rect x="0.5" y="0.804688" width="33" height="33" rx="16.5" fill="#7077FE"/>
<rect x="0.5" y="0.804688" width="33" height="33" rx="16.5" stroke="white"/>
<path d="M13.25 16.5547L16.25 9.80469C16.8467 9.80469 17.419 10.0417 17.841 10.4637C18.2629 10.8857 18.5 11.458 18.5 12.0547V15.0547H22.745C22.9624 15.0522 23.1778 15.0971 23.3762 15.1861C23.5746 15.2751 23.7512 15.4062 23.8939 15.5703C24.0366 15.7344 24.1419 15.9276 24.2025 16.1364C24.2631 16.3452 24.2776 16.5647 24.245 16.7797L23.21 23.5297C23.1558 23.8874 22.9741 24.2134 22.6984 24.4477C22.4228 24.682 22.0717 24.8088 21.71 24.8047H13.25M13.25 16.5547V24.8047M13.25 16.5547H11C10.6022 16.5547 10.2206 16.7127 9.93934 16.994C9.65804 17.2753 9.5 17.6569 9.5 18.0547V23.3047C9.5 23.7025 9.65804 24.084 9.93934 24.3653C10.2206 24.6467 10.6022 24.8047 11 24.8047H13.25" stroke="white" stroke-width="1.5" stroke-linecap="round" stroke-linejoin="round"/>
</svg>
