<svg width="20" height="20" viewBox="0 0 20 20" fill="none" xmlns="http://www.w3.org/2000/svg">
<path d="M12.3059 10.9998C11.8002 11.474 11.1298 11.7329 10.4367 11.7218C9.74348 11.7106 9.08181 11.4303 8.5916 10.9401C8.10138 10.4499 7.82106 9.78822 7.80992 9.09504C7.79877 8.40186 8.05769 7.73152 8.5319 7.2258L10.8909 4.8658C11.3672 4.39007 12.0057 4.11183 12.6784 4.08679C13.3512 4.06176 14.0085 4.29178 14.5189 4.7308M14.1939 1.5638C14.4402 1.3091 14.7347 1.10598 15.0602 0.966272C15.3858 0.826568 15.7359 0.75308 16.0902 0.750095C16.4445 0.747109 16.7958 0.814686 17.1237 0.948884C17.4516 1.08308 17.7495 1.28122 18 1.53173C18.2505 1.78225 18.4486 2.08013 18.5828 2.40802C18.717 2.7359 18.7846 3.08722 18.7816 3.44149C18.7786 3.79576 18.7051 4.14589 18.5654 4.47147C18.4257 4.79704 18.2226 5.09155 17.9679 5.3378L15.6089 7.6978C15.1326 8.17354 14.4941 8.45178 13.8214 8.47682C13.1486 8.50185 12.4913 8.27182 11.9809 7.8328" stroke="#242424" stroke-width="1.5" stroke-linecap="round" stroke-linejoin="round"/>
<path d="M8.25 0.781799C4.963 0.781799 3.319 0.781799 2.213 1.6898C2.0103 1.85584 1.82441 2.0414 1.658 2.2438C0.75 3.3518 0.75 4.9938 0.75 8.2818V10.7818C0.75 14.5528 0.75 16.4388 1.922 17.6098C3.094 18.7808 4.979 18.7818 8.75 18.7818H11.25C14.537 18.7818 16.181 18.7818 17.288 17.8738C17.4907 17.7071 17.6753 17.5225 17.842 17.3198C18.75 16.2118 18.75 14.5698 18.75 11.2818" stroke="#242424" stroke-width="1.5" stroke-linecap="round" stroke-linejoin="round"/>
</svg>
