<svg width="25" height="25" viewBox="0 0 25 25" fill="none" xmlns="http://www.w3.org/2000/svg">
<rect width="24.381" height="24.381" rx="12.1905" fill="#7077FE" fill-opacity="0.1"/>
<g clip-path="url(#clip0_2972_33039)">
<path d="M15.5236 16.1908C15.5236 15.3067 15.1724 14.4589 14.5473 13.8337C13.9222 13.2086 13.0743 12.8574 12.1903 12.8574C11.3062 12.8574 10.4584 13.2086 9.83324 13.8337C9.20812 14.4589 8.85693 15.3067 8.85693 16.1908" stroke="#7077FE" stroke-linecap="round" stroke-linejoin="round"/>
<path d="M12.1904 10.1921V5.52539" stroke="#7077FE" stroke-linecap="round" stroke-linejoin="round"/>
<path d="M7.00342 11.0039L7.95008 11.9506" stroke="#7077FE" stroke-linecap="round" stroke-linejoin="round"/>
<path d="M4.85693 16.1914H6.19027" stroke="#7077FE" stroke-linecap="round" stroke-linejoin="round"/>
<path d="M18.1899 16.1914H19.5233" stroke="#7077FE" stroke-linecap="round" stroke-linejoin="round"/>
<path d="M16.4302 11.9506L17.3768 11.0039" stroke="#7077FE" stroke-linecap="round" stroke-linejoin="round"/>
<path d="M19.5236 18.8574H4.85693" stroke="#7077FE" stroke-linecap="round" stroke-linejoin="round"/>
<path d="M14.8573 7.52539L12.1906 10.1921L9.52393 7.52539" stroke="#7077FE" stroke-linecap="round" stroke-linejoin="round"/>
</g>
<defs>
<clipPath id="clip0_2972_33039">
<rect width="16" height="16" fill="white" transform="translate(4.19043 4.19141)"/>
</clipPath>
</defs>
</svg>
