<svg width="25" height="25" viewBox="0 0 25 25" fill="none" xmlns="http://www.w3.org/2000/svg">
<rect width="24.381" height="24.381" rx="12.1905" fill="#7077FE" fill-opacity="0.1"/>
<g clip-path="url(#clip0_2972_33033)">
<path d="M14.3496 11.582C14.5475 11.6602 14.7402 11.7461 14.9277 11.8398C15.1152 11.9336 15.2975 12.0404 15.4746 12.1602C15.36 12.2852 15.2559 12.4154 15.1621 12.5508C15.0684 12.6862 14.9824 12.832 14.9043 12.9883C14.5033 12.7279 14.0762 12.5299 13.623 12.3945C13.1699 12.2591 12.7038 12.1914 12.2246 12.1914C11.7663 12.1914 11.3236 12.2513 10.8965 12.3711C10.4694 12.4909 10.071 12.6576 9.70117 12.8711C9.33138 13.0846 8.99544 13.3451 8.69336 13.6523C8.39128 13.9596 8.13086 14.2982 7.91211 14.668C7.69336 15.0378 7.52409 15.4362 7.4043 15.8633C7.28451 16.2904 7.22461 16.7331 7.22461 17.1914H6.22461C6.22461 16.5664 6.31576 15.9648 6.49805 15.3867C6.68034 14.8086 6.94336 14.2747 7.28711 13.7852C7.63086 13.2956 8.03711 12.8607 8.50586 12.4805C8.97461 12.1003 9.50586 11.8008 10.0996 11.582C9.51107 11.1966 9.05273 10.7122 8.72461 10.1289C8.39648 9.54557 8.22982 8.89974 8.22461 8.19141C8.22461 7.63932 8.32878 7.12109 8.53711 6.63672C8.74544 6.15234 9.0293 5.72786 9.38867 5.36328C9.74805 4.9987 10.1725 4.71224 10.6621 4.50391C11.1517 4.29557 11.6725 4.19141 12.2246 4.19141C12.7767 4.19141 13.2949 4.29557 13.7793 4.50391C14.2637 4.71224 14.6882 4.99609 15.0527 5.35547C15.4173 5.71484 15.7038 6.13932 15.9121 6.62891C16.1204 7.11849 16.2246 7.63932 16.2246 8.19141C16.2246 8.53516 16.1829 8.87109 16.0996 9.19922C16.0163 9.52734 15.8913 9.83724 15.7246 10.1289C15.5579 10.4206 15.3626 10.6888 15.1387 10.9336C14.9147 11.1784 14.6517 11.3945 14.3496 11.582ZM9.22461 8.19141C9.22461 8.60807 9.30273 8.99609 9.45898 9.35547C9.61523 9.71484 9.82878 10.0326 10.0996 10.3086C10.3704 10.5846 10.6882 10.8008 11.0527 10.957C11.4173 11.1133 11.8079 11.1914 12.2246 11.1914C12.6361 11.1914 13.0241 11.1133 13.3887 10.957C13.7533 10.8008 14.071 10.5872 14.3418 10.3164C14.6126 10.0456 14.8288 9.72786 14.9902 9.36328C15.1517 8.9987 15.2298 8.60807 15.2246 8.19141C15.2246 7.77995 15.1465 7.39193 14.9902 7.02734C14.834 6.66276 14.6204 6.34505 14.3496 6.07422C14.0788 5.80339 13.7585 5.58724 13.3887 5.42578C13.0189 5.26432 12.6309 5.1862 12.2246 5.19141C11.8079 5.19141 11.4199 5.26953 11.0605 5.42578C10.7012 5.58203 10.3835 5.79557 10.1074 6.06641C9.83138 6.33724 9.61523 6.65755 9.45898 7.02734C9.30273 7.39714 9.22461 7.78516 9.22461 8.19141ZM20.7246 14.6914C20.7246 14.9622 20.6829 15.2253 20.5996 15.4805C20.5163 15.7357 20.3913 15.9727 20.2246 16.1914V20.1914L18.2246 19.1914L16.2246 20.1914V16.1914C16.0632 15.9727 15.9408 15.7357 15.8574 15.4805C15.7741 15.2253 15.7298 14.9622 15.7246 14.6914C15.7246 14.3477 15.7897 14.0247 15.9199 13.7227C16.0501 13.4206 16.2272 13.1576 16.4512 12.9336C16.6751 12.7096 16.9408 12.5299 17.248 12.3945C17.5553 12.2591 17.8809 12.1914 18.2246 12.1914C18.5684 12.1914 18.8913 12.2565 19.1934 12.3867C19.4954 12.5169 19.7585 12.6966 19.9824 12.9258C20.2064 13.1549 20.3861 13.4206 20.5215 13.7227C20.6569 14.0247 20.7246 14.3477 20.7246 14.6914ZM18.2246 13.1914C18.0163 13.1914 17.821 13.2305 17.6387 13.3086C17.4564 13.3867 17.2975 13.4935 17.1621 13.6289C17.0267 13.7643 16.9199 13.9232 16.8418 14.1055C16.7637 14.2878 16.7246 14.4831 16.7246 14.6914C16.7246 14.8997 16.7637 15.0951 16.8418 15.2773C16.9199 15.4596 17.0267 15.6185 17.1621 15.7539C17.2975 15.8893 17.4564 15.9961 17.6387 16.0742C17.821 16.1523 18.0163 16.1914 18.2246 16.1914C18.4329 16.1914 18.6283 16.1523 18.8105 16.0742C18.9928 15.9961 19.1517 15.8893 19.2871 15.7539C19.4225 15.6185 19.5293 15.4596 19.6074 15.2773C19.6855 15.0951 19.7246 14.8997 19.7246 14.6914C19.7246 14.4831 19.6855 14.2878 19.6074 14.1055C19.5293 13.9232 19.4225 13.7643 19.2871 13.6289C19.1517 13.4935 18.9928 13.3867 18.8105 13.3086C18.6283 13.2305 18.4329 13.1914 18.2246 13.1914ZM19.2246 18.5742V16.9805C18.9121 17.1211 18.5788 17.1914 18.2246 17.1914C17.8704 17.1914 17.5371 17.1211 17.2246 16.9805V18.5742C17.3913 18.4909 17.5579 18.4102 17.7246 18.332C17.8913 18.2539 18.0579 18.168 18.2246 18.0742C18.3913 18.1628 18.5579 18.2461 18.7246 18.3242C18.8913 18.4023 19.0579 18.4857 19.2246 18.5742Z" fill="#7077FE"/>
</g>
<defs>
<clipPath id="clip0_2972_33033">
<rect width="16" height="16" fill="white" transform="translate(5.22461 4.19141)"/>
</clipPath>
</defs>
</svg>
