<svg width="9" height="11" viewBox="0 0 9 11" fill="none" xmlns="http://www.w3.org/2000/svg">
<path d="M8.89429 8.57733V6.4707C8.89429 5.47005 8.20963 4.68007 7.31432 4.41674V2.7841C7.31432 1.30946 6.15567 0.150818 4.68103 0.150818C3.20639 0.150818 2.04774 1.30946 2.04774 2.7841V4.41674C1.15243 4.6274 0.467773 5.47005 0.467773 6.4707V8.57733C0.467773 9.73598 1.41576 10.684 2.5744 10.684H6.78766C7.9463 10.684 8.89429 9.73598 8.89429 8.57733ZM3.10106 2.7841C3.10106 1.88879 3.78571 1.20413 4.68103 1.20413C5.57635 1.20413 6.261 1.88879 6.261 2.7841V4.36407H3.10106V2.7841ZM1.52109 8.57733V6.4707C1.52109 5.89138 1.99508 5.41739 2.5744 5.41739H6.78766C7.36698 5.41739 7.84097 5.89138 7.84097 6.4707V8.57733C7.84097 9.15665 7.36698 9.63064 6.78766 9.63064H2.5744C1.99508 9.63064 1.52109 9.15665 1.52109 8.57733Z" fill="white"/>
</svg>
