<svg width="32" height="32" viewBox="0 0 32 32" fill="none" xmlns="http://www.w3.org/2000/svg">
<rect width="32" height="32" rx="16" fill="#FF708A"/>
<g clip-path="url(#clip0_3_3093)">
<path d="M21.2628 20.8833L20.9043 12.7873C20.898 12.1896 20.4072 11.7048 19.8049 11.7048H17.9826C17.8347 10.7509 17.0014 10 15.9987 10C14.9958 10 14.1623 10.7509 14.0143 11.7048H12.1946C11.5924 11.7048 11.1018 12.1896 11.0955 12.7873L10.7372 20.883C10.7369 20.8899 10.7368 20.8968 10.7368 20.9037C10.7368 21.5082 11.2299 22 11.8362 22H20.1639C20.7701 22 21.2632 21.5083 21.2632 20.9039C21.2632 20.897 21.2631 20.8902 21.2628 20.8833ZM15.9987 10.9337C16.4845 10.9337 16.8957 11.2596 17.0277 11.7048H14.9693C15.1013 11.2596 15.5127 10.9337 15.9987 10.9337ZM20.1639 21.0673H11.8362C11.7456 21.0673 11.6742 20.9991 11.6706 20.9114L12.0287 12.8205C12.029 12.8136 12.0291 12.8055 12.0291 12.7987C12.0291 12.709 12.1018 12.6375 12.1946 12.6375H13.9871V14.3437C13.9871 14.6015 14.1956 14.8105 14.4535 14.8105C14.7113 14.8105 14.9198 14.6015 14.9198 14.3437V12.6375H17.0679V14.3437C17.0679 14.6015 17.2764 14.8105 17.5343 14.8105C17.7921 14.8105 18.0006 14.6015 18.0006 14.3437V12.6375H19.8049C19.8978 12.6375 19.9706 12.7089 19.9706 12.7986C19.9706 12.8054 19.9708 12.8128 19.9711 12.8197L20.3294 20.9112C20.3258 20.9989 20.2544 21.0673 20.1639 21.0673Z" fill="white"/>
</g>
<defs>
<clipPath id="clip0_3_3093">
<rect width="10.5265" height="12" fill="white" transform="translate(10.7368 10)"/>
</clipPath>
</defs>
</svg>
