<svg width="24" height="24" viewBox="0 0 24 24" fill="none" xmlns="http://www.w3.org/2000/svg">
<path d="M12 3.875C14.2919 3.875 16.1125 4.50612 17.3604 5.7041C18.609 6.9028 19.2676 8.65349 19.2676 10.8574V11.1367C19.3131 12.1283 19.0786 13.1131 18.5908 13.9775C18.3325 14.4369 17.9556 14.8182 17.5 15.083C17.0445 15.3477 16.5268 15.4853 16 15.4824H15.999C15.4079 15.4822 14.7601 15.3126 14.2578 14.8945C13.7516 14.473 13.4053 13.8098 13.4053 12.8525V12.8174L13.5713 9.51562C13.4656 9.49616 13.3574 9.47641 13.2461 9.45996H13.2451C12.8634 9.40128 12.478 9.36871 12.0918 9.36426H11.832C11.5789 9.37772 11.3291 9.43247 11.0928 9.52734C10.7789 9.65335 10.4967 9.84684 10.2656 10.0938L10.0898 10.3154C9.70775 10.85 9.51707 11.5015 9.55371 12.1631V12.1777C9.51407 12.7695 9.67952 13.357 10.0225 13.8408C10.1608 14.0013 10.3345 14.1277 10.5303 14.209C10.7275 14.2908 10.9414 14.3248 11.1543 14.3086L11.168 14.3076L11.1641 14.4277L11.168 14.3086C11.4818 14.3202 11.792 14.2371 12.0586 14.0713C12.135 14.021 12.2207 13.987 12.3105 13.9697C12.4003 13.9525 12.4925 13.9523 12.582 13.9707C12.6716 13.9892 12.7573 14.0258 12.833 14.0771C12.9086 14.1285 12.9732 14.1942 13.0234 14.2705C13.0737 14.3469 13.1087 14.4326 13.126 14.5225C13.1431 14.6122 13.1425 14.7045 13.124 14.7939C13.1056 14.8834 13.0697 14.9683 13.0186 15.0439C12.9673 15.1196 12.9015 15.1851 12.8252 15.2354L12.8232 15.2363C12.3305 15.5528 11.7543 15.7134 11.1689 15.6992C10.7486 15.7184 10.3296 15.6408 9.94434 15.4717C9.55878 15.3024 9.21677 15.0464 8.94629 14.7236V14.7227C8.42148 14.0881 8.16213 13.2265 8.16113 12.1758L8.15625 11.9678C8.15996 10.9302 8.54471 9.9269 9.24121 9.15137L9.24316 9.14941C9.60715 8.76039 10.0505 8.45412 10.543 8.25098C11.0356 8.04782 11.5661 7.95232 12.0986 7.97168H12.0977C12.5495 7.9764 13.0005 8.01296 13.4473 8.08105H13.4482C13.6212 8.1059 13.7936 8.13559 13.9648 8.16992L14.4756 8.28711L14.9248 8.40527L15.0225 8.43164L15.0176 8.5332L14.7979 12.8652C14.8008 13.4188 14.9958 13.7154 15.2266 13.8789C15.465 14.0477 15.7644 14.0908 16 14.0908L16.2051 14.0771C16.4083 14.051 16.6057 13.9855 16.7852 13.8838C17.0242 13.7482 17.2235 13.5524 17.3643 13.3164C17.7416 12.6594 17.9193 11.9068 17.875 11.1504V10.8574C17.875 9.0386 17.3493 7.64607 16.3643 6.70801C15.3782 5.7693 13.9136 5.26758 12 5.26758C10.8988 5.26754 9.81435 5.53812 8.8418 6.05469C7.86938 6.5712 7.0384 7.31818 6.42188 8.23047C5.80531 9.14291 5.42213 10.193 5.30566 11.2881C5.18921 12.3831 5.34305 13.49 5.75391 14.5117C6.16476 15.5334 6.81999 16.4389 7.66211 17.1484C8.50422 17.8579 9.50746 18.3505 10.584 18.582C11.6605 18.8136 12.7775 18.7771 13.8369 18.4766C14.8963 18.176 15.8655 17.6198 16.6602 16.8574C16.7261 16.7941 16.8045 16.7452 16.8896 16.7119C16.9749 16.6787 17.0658 16.6622 17.1572 16.6641C17.2487 16.666 17.3391 16.6859 17.4229 16.7227C17.5065 16.7594 17.5822 16.812 17.6455 16.8779C17.7088 16.9439 17.7587 17.0222 17.792 17.1074C17.8252 17.1926 17.8408 17.2836 17.8389 17.375C17.837 17.4664 17.817 17.5569 17.7803 17.6406C17.7435 17.7242 17.6909 17.8001 17.625 17.8633C16.1143 19.3181 14.0973 20.129 12 20.125C9.84512 20.125 7.77861 19.2688 6.25488 17.7451C4.73115 16.2214 3.875 14.1549 3.875 12C3.875 9.84512 4.73115 7.77861 6.25488 6.25488C7.77861 4.73115 9.84512 3.875 12 3.875Z" fill="#7077FE" stroke="#7077FE" stroke-width="0.25"/>
</svg>
