<svg width="28" height="18" viewBox="0 0 28 18" fill="none" xmlns="http://www.w3.org/2000/svg">
<path d="M13.9999 5.75688C17.1296 5.75688 19.6666 8.29393 19.6666 11.4235C19.6666 14.5532 17.1296 17.0902 13.9999 17.0902C10.8703 17.0902 8.33328 14.5532 8.33328 11.4235C8.33328 8.29393 10.8703 5.75688 13.9999 5.75688ZM13.9999 7.88188C12.0439 7.88188 10.4583 9.46753 10.4583 11.4235C10.4583 13.3796 12.0439 14.9652 13.9999 14.9652C15.9559 14.9652 17.5416 13.3796 17.5416 11.4235C17.5416 9.46753 15.9559 7.88188 13.9999 7.88188ZM13.9999 0.791992C20.5357 0.791992 26.1777 5.2545 27.7432 11.5082C27.8857 12.0774 27.5397 12.6544 26.9705 12.7969C26.4013 12.9394 25.8243 12.5935 25.6818 12.0242C24.3517 6.71077 19.5552 2.91699 13.9999 2.91699C8.44226 2.91699 3.64425 6.71403 2.31649 12.0306C2.17431 12.5999 1.59753 12.9462 1.02821 12.804C0.458894 12.6618 0.112631 12.0851 0.254812 11.5157C1.81752 5.25834 7.46129 0.791992 13.9999 0.791992Z" fill="#6340FF"/>
</svg>
