<svg width="34" height="34" viewBox="0 0 34 34" fill="none" xmlns="http://www.w3.org/2000/svg">
<g clip-path="url(#clip0_1932_26092)">
<path d="M16.9999 6.35975C18.6804 6.35975 20.0426 4.9975 20.0426 3.31708C20.0426 1.63666 18.6804 0.274414 16.9999 0.274414C15.3195 0.274414 13.9573 1.63666 13.9573 3.31708C13.9573 4.9975 15.3195 6.35975 16.9999 6.35975Z" fill="#9747FF"/>
<path d="M16.9999 8.09863C14.1192 8.09863 11.7839 10.4339 11.7839 13.3146H22.216C22.216 10.4339 19.8807 8.09863 16.9999 8.09863Z" fill="#9747FF"/>
<path d="M5.21601 26.7709C6.89643 26.7709 8.25868 25.4086 8.25868 23.7282C8.25868 22.0478 6.89643 20.6855 5.21601 20.6855C3.53559 20.6855 2.17334 22.0478 2.17334 23.7282C2.17334 25.4086 3.53559 26.7709 5.21601 26.7709Z" fill="#6340FF"/>
<path d="M5.21601 28.5098C2.33531 28.5098 0 30.8451 0 33.7258H10.4321C10.4321 30.8451 8.09678 28.5098 5.21601 28.5098Z" fill="#6340FF"/>
<path d="M28.7839 26.7709C30.4643 26.7709 31.8265 25.4086 31.8265 23.7282C31.8265 22.0478 30.4643 20.6855 28.7839 20.6855C27.1035 20.6855 25.7412 22.0478 25.7412 23.7282C25.7412 25.4086 27.1035 26.7709 28.7839 26.7709Z" fill="#6340FF"/>
<path d="M28.784 28.5098C25.9033 28.5098 23.568 30.8451 23.568 33.7258H34C34 30.8451 31.6647 28.5098 28.784 28.5098Z" fill="#6340FF"/>
<path d="M22.4036 25.1146L17.8694 22.4967V17.2609C17.8694 16.7808 17.4802 16.3916 17.0001 16.3916C16.5201 16.3916 16.1308 16.7808 16.1308 17.2609V22.4967L11.5966 25.1146C11.1807 25.3546 11.0383 25.8863 11.2784 26.3021C11.5185 26.718 12.0503 26.8604 12.4659 26.6203L17.0002 24.0024L21.5344 26.6203C21.6713 26.6993 21.8207 26.7369 21.9682 26.7369C22.2686 26.7369 22.561 26.581 22.7219 26.3021C22.9619 25.8864 22.8194 25.3546 22.4036 25.1146Z" fill="#9747FF"/>
</g>
<defs>
<clipPath id="clip0_1932_26092">
<rect width="34" height="34" fill="white"/>
</clipPath>
</defs>
</svg>
