<svg width="34" height="34" viewBox="0 0 34 34" fill="none" xmlns="http://www.w3.org/2000/svg">
<g clip-path="url(#clip0_1932_26108)">
<path d="M21.25 8.5V10.625H28.2475L19.125 19.7475L14.5637 15.1863C14.4651 15.0876 14.348 15.0093 14.2191 14.9559C14.0902 14.9025 13.952 14.875 13.8125 14.875C13.673 14.875 13.5348 14.9025 13.4059 14.9559C13.277 15.0093 13.1599 15.0876 13.0613 15.1863L2.125 26.1225L3.62748 27.625L13.8125 17.44L18.3738 22.0012C18.4724 22.0999 18.5895 22.1782 18.7184 22.2316C18.8473 22.285 18.9855 22.3125 19.125 22.3125C19.2645 22.3125 19.4027 22.285 19.5316 22.2316C19.6605 22.1782 19.7776 22.0999 19.8762 22.0012L29.75 12.1275V19.125H31.875V8.5H21.25Z" fill="#6340FF"/>
</g>
<defs>
<clipPath id="clip0_1932_26108">
<rect width="34" height="34" fill="white"/>
</clipPath>
</defs>
</svg>
