<svg width="32" height="32" viewBox="0 0 32 32" fill="none" xmlns="http://www.w3.org/2000/svg">
<rect width="32" height="32" rx="16" fill="#F07EFF" fill-opacity="0.2"/>
<path d="M18.9631 10H13.0365C12.8065 10 12.5925 10.1187 12.4705 10.3133L10.1665 14H21.8331L19.5291 10.3133C19.469 10.2175 19.3855 10.1385 19.2865 10.0837C19.1876 10.0289 19.0763 10.0001 18.9631 10ZM15.5065 22.124C15.5689 22.1927 15.6451 22.2477 15.7301 22.2853C15.815 22.3228 15.9069 22.3423 15.9998 22.3423C16.0927 22.3423 16.1846 22.3228 16.2695 22.2853C16.3545 22.2477 16.4306 22.1927 16.4931 22.124L22.6665 15.3333H9.33313L15.5065 22.124Z" fill="#F07EFF"/>
</svg>
