<svg width="34" height="34" viewBox="0 0 34 34" fill="none" xmlns="http://www.w3.org/2000/svg">
<path d="M18.0625 17.7197L30.1041 12.903V20.9114C29.2427 20.3609 28.2225 20.1128 27.2045 20.2062C26.1864 20.2996 25.2284 20.7291 24.4814 21.4271C23.7345 22.1251 23.2411 23.0519 23.079 24.0613C22.917 25.0707 23.0955 26.1053 23.5864 27.002C24.0773 27.8988 24.8527 28.6066 25.7904 29.014C26.728 29.4213 27.7746 29.505 28.7651 29.2519C29.7556 28.9987 30.6336 28.4231 31.2608 27.6158C31.888 26.8085 32.2287 25.8154 32.2291 24.7931V11.2554C32.2291 9.63616 32.2291 8.27899 32.1158 7.19666C32.0999 7.04755 32.081 6.89877 32.0591 6.75041C31.9486 6.01091 31.756 5.32241 31.3805 4.74583C31.1512 4.39197 30.8524 4.08834 30.5022 3.85333L30.4923 3.84624C29.4893 3.18041 28.3631 3.22716 27.2028 3.52324C26.0808 3.80941 24.6896 4.39166 22.984 5.10566L20.0175 6.34666C19.217 6.68099 18.5399 6.96574 18.0086 7.25899C17.442 7.57066 16.956 7.93899 16.5905 8.48866C16.225 9.03833 16.072 9.62908 16.0026 10.2722C15.9375 10.8757 15.9375 11.611 15.9375 12.478V23.7433C15.076 23.1928 14.0558 22.9447 13.0378 23.0381C12.0197 23.1315 11.0617 23.561 10.3148 24.259C9.56781 24.957 9.07441 25.8838 8.91235 26.8932C8.75029 27.9026 8.92879 28.9372 9.41971 29.8339C9.91062 30.7307 10.686 31.4385 11.6237 31.8459C12.5613 32.2532 13.6079 32.3369 14.5984 32.0838C15.5889 31.8306 16.4669 31.255 17.0941 30.4477C17.7214 29.6404 18.062 28.6473 18.0625 27.625V17.7197Z" fill="#7077FE"/>
<path opacity="0.5" d="M10.9792 2.83331C10.9792 2.55152 10.8673 2.28127 10.668 2.08201C10.4688 1.88275 10.1985 1.77081 9.91671 1.77081C9.63492 1.77081 9.36467 1.88275 9.16541 2.08201C8.96615 2.28127 8.85421 2.55152 8.85421 2.83331V10.9933C7.99275 10.4428 6.97258 10.1947 5.95453 10.2881C4.93648 10.3815 3.97846 10.811 3.23151 11.509C2.48456 12.207 1.99116 13.1338 1.8291 14.1432C1.66704 15.1526 1.84554 16.1872 2.33645 17.0839C2.82737 17.9807 3.60278 18.6885 4.54044 19.0959C5.47809 19.5032 6.52466 19.5869 7.51515 19.3338C8.50563 19.0806 9.38369 18.505 10.0109 17.6977C10.6381 16.8904 10.9788 15.8973 10.9792 14.875V7.0904C11.9695 7.8044 13.1467 8.14581 14.1667 8.14581C14.4485 8.14581 14.7188 8.03387 14.918 7.83462C15.1173 7.63536 15.2292 7.36511 15.2292 7.08331C15.2292 6.80152 15.1173 6.53127 14.918 6.33201C14.7188 6.13276 14.4485 6.02081 14.1667 6.02081C13.3965 6.00234 12.6546 5.72711 12.0587 5.23881C11.4439 4.73306 10.9792 3.96381 10.9792 2.83331Z" fill="#7077FE"/>
</svg>
