<svg width="30" height="27" viewBox="0 0 30 27" fill="none" xmlns="http://www.w3.org/2000/svg">
<path d="M19.5535 17.8574C20.7271 17.8574 21.6785 18.8088 21.6785 19.9824V22.4134L21.6689 22.5451C21.2915 25.1269 18.9725 26.3684 15.081 26.3684C11.2036 26.3684 8.84748 25.1411 8.33889 22.589L8.32132 22.411V19.9824C8.32132 18.8088 9.27272 17.8574 10.4463 17.8574H19.5535ZM20.1532 10.5716L27.4463 10.5717C28.6199 10.5717 29.5713 11.5231 29.5713 12.6967V15.1277L29.5618 15.2594C29.1844 17.8412 26.8653 19.0827 22.9739 19.0827L22.7696 19.0807C22.3949 17.7415 21.2062 16.7422 19.7706 16.6501L19.5535 16.6431L18.4336 16.644C19.6722 15.6423 20.4642 14.1102 20.4642 12.3931C20.4642 11.7544 20.3546 11.1413 20.1532 10.5716ZM2.55347 10.5717L9.84657 10.5716C9.64519 11.1413 9.53561 11.7544 9.53561 12.3931C9.53561 14.0092 10.2372 15.4614 11.3523 16.4618L11.5662 16.644L10.4463 16.6431C8.91365 16.6431 7.62214 17.6757 7.22952 19.0832L7.18814 19.0827C3.31071 19.0827 0.954618 17.8554 0.446029 15.3033L0.428467 15.1253V12.6967C0.428467 11.5231 1.37986 10.5717 2.55347 10.5717ZM14.9999 8.14314C17.3471 8.14314 19.2499 10.0459 19.2499 12.3931C19.2499 14.7403 17.3471 16.6431 14.9999 16.6431C12.6527 16.6431 10.7499 14.7403 10.7499 12.3931C10.7499 10.0459 12.6527 8.14314 14.9999 8.14314ZM22.8928 0.857422C25.24 0.857422 27.1428 2.76021 27.1428 5.10742C27.1428 7.45463 25.24 9.35742 22.8928 9.35742C20.5455 9.35742 18.6428 7.45463 18.6428 5.10742C18.6428 2.76021 20.5455 0.857422 22.8928 0.857422ZM7.10704 0.857422C9.45425 0.857422 11.357 2.76021 11.357 5.10742C11.357 7.45463 9.45425 9.35742 7.10704 9.35742C4.75983 9.35742 2.85704 7.45463 2.85704 5.10742C2.85704 2.76021 4.75983 0.857422 7.10704 0.857422Z" fill="#6340FF"/>
</svg>
