<svg width="34" height="34" viewBox="0 0 34 34" fill="none" xmlns="http://www.w3.org/2000/svg">
<path fill-rule="evenodd" clip-rule="evenodd" d="M18.4166 4.25V26.9167H26.9166V12.75H21.2499V9.91667H29.7499L29.7499 26.9166L31.1666 26.9167V29.75H18.4166H4.24992L4.2499 29.7499L2.83325 29.75V26.9167L4.2499 26.9166L4.24992 4.25H18.4166ZM15.5833 7.08333H7.08325V26.9167H9.91658V22.6667H12.7499V26.9167H15.5833V7.08333ZM24.0833 21.25V24.0833H21.2499V21.25H24.0833ZM12.7499 15.5833V18.4167H9.91658V15.5833H12.7499ZM24.0833 15.5833V18.4167H21.2499V15.5833H24.0833ZM12.7499 9.91667V12.75H9.91658V9.91667H12.7499Z" fill="#6340FF"/>
</svg>
