<svg width="34" height="34" viewBox="0 0 34 34" fill="none" xmlns="http://www.w3.org/2000/svg">
<path d="M21.6834 11.4045C20.645 11.2317 17.9686 11.2432 16.1925 11.889C14.416 12.5348 11.1857 14.5535 10.2168 14.8771C9.24784 15.1998 9.1669 16.4922 11.347 16.7341C13.5275 16.9767 15.4654 15.6033 15.9498 15.3615C16.4343 15.1189 21.118 15.846 21.118 15.846L22.5915 16.2092L25.9889 20.8014C26.5851 20.2836 27.7641 19.1845 28.0627 18.3492C28.1716 18.045 28.3335 17.7654 28.511 17.517L23.6972 10.8779C23.0831 11.226 22.342 11.5144 21.6834 11.4045Z" fill="#6340FF"/>
<path d="M21.6835 16.8756L20.9695 16.8035C20.0327 16.6584 17.3836 16.2812 16.3892 16.2812C16.3452 16.2812 16.3105 16.2817 16.2845 16.283C16.2445 16.3058 16.1983 16.3322 16.153 16.3586C15.4474 16.7697 13.794 17.732 11.8685 17.732C11.6574 17.732 11.446 17.7201 11.2403 17.6972C10.9282 17.6625 10.6538 17.6088 10.4111 17.5412C10.641 17.6418 10.8529 17.7861 11.0341 17.9712C11.319 18.2622 11.4952 18.6191 11.5651 18.9924C11.7309 18.948 11.9028 18.9234 12.0786 18.9234C12.6175 18.9234 13.1218 19.1353 13.4981 19.5203C13.8692 19.8993 14.0701 20.4005 14.0643 20.9307C14.0643 20.9359 14.0635 20.9412 14.0635 20.9465C14.6002 20.9482 15.1023 21.1602 15.4777 21.5435C15.8487 21.9225 16.0497 22.4236 16.044 22.9538C16.0422 23.1367 16.0141 23.3151 15.9644 23.4867C16.3451 23.5662 16.6938 23.7557 16.9725 24.0406C17.7383 24.8236 17.7247 26.083 16.9421 26.8489L16.5505 27.2322C16.5522 27.2322 16.554 27.2322 16.5557 27.2322C17.2143 27.1848 17.7686 26.7786 17.9238 26.1666C18.192 26.378 18.5296 26.505 18.8976 26.505C19.7672 26.505 20.4723 25.8003 20.4723 24.9303C20.4723 24.8389 20.463 24.7501 20.4476 24.663C20.7246 24.9044 21.0855 25.0516 21.4817 25.0516C22.3512 25.0516 23.0564 24.3464 23.0564 23.4769C23.2428 23.5547 23.4472 23.5982 23.6618 23.5982C24.5318 23.5982 25.2365 22.8931 25.2365 22.0235C25.2365 21.3632 24.9138 20.9333 24.1462 20.0452L21.6835 16.8756Z" fill="#6340FF"/>
<path d="M10.3416 18.6485C9.94865 18.2471 9.30504 18.2401 8.90368 18.6327L7.45072 20.0548C7.04936 20.4474 7.04232 21.091 7.43491 21.4924C7.8279 21.8937 8.47151 21.9008 8.87287 21.5077L10.3262 20.086C10.7271 19.6934 10.7342 19.0498 10.3416 18.6485Z" fill="#6340FF"/>
<path d="M12.8054 20.1977C12.4128 19.7958 11.7692 19.7888 11.3678 20.1818L9.43039 22.0774C9.02856 22.4704 9.02199 23.114 9.41452 23.515C9.80711 23.9168 10.4512 23.9238 10.8525 23.5308L12.7899 21.6352C13.1913 21.2426 13.1983 20.599 12.8054 20.1977Z" fill="#6340FF"/>
<path d="M14.7849 22.2209C14.3923 21.8196 13.7487 21.812 13.3473 22.2051L11.4099 24.1012C11.0086 24.4937 11.0015 25.1373 11.3941 25.5392C11.7867 25.9401 12.4303 25.9472 12.8322 25.5541L14.7696 23.6585C15.1709 23.2654 15.178 22.6218 14.7849 22.2209Z" fill="#6340FF"/>
<path d="M16.28 24.718C15.8874 24.3166 15.2438 24.3092 14.8424 24.7022L13.7122 25.8083C13.3108 26.2008 13.3038 26.8444 13.6964 27.2458C14.0894 27.6472 14.733 27.6538 15.1343 27.2616L16.2646 26.1556C16.666 25.763 16.6726 25.1194 16.28 24.718Z" fill="#6340FF"/>
<path d="M33.9074 15.6046L27.4134 6.64863C27.2564 6.43148 26.9535 6.3836 26.7368 6.54052L23.8604 8.62647C23.6436 8.78339 23.5953 9.08634 23.7527 9.30302L30.2467 18.2594C30.4036 18.4762 30.7065 18.5245 30.9232 18.3671L33.8001 16.2816C34.0164 16.1241 34.0648 15.8213 33.9074 15.6046ZM31.6979 16.4091C31.337 16.6711 30.8318 16.5902 30.5699 16.2293C30.3083 15.8683 30.3887 15.3637 30.7501 15.1017C31.111 14.8396 31.6157 14.9205 31.8777 15.281C32.1392 15.6424 32.0588 16.1475 31.6979 16.4091Z" fill="#6340FF"/>
<path d="M9.6145 17.3741C9.7675 17.3741 9.91698 17.3935 10.062 17.4264C8.84119 16.9582 8.63899 16.1019 8.60731 15.7998C8.52112 14.9865 9.04473 14.2458 9.91034 13.9574C10.2585 13.8413 11.1711 13.3437 12.0539 12.8628C13.0009 12.3462 14.0401 11.7795 14.944 11.3627C13.7984 11.27 12.7248 11.3091 12.1515 11.4045C11.5343 11.5073 10.845 11.2608 10.2554 10.9434L5.40381 17.6339C5.5493 17.8524 5.67986 18.0916 5.7717 18.3492C5.90757 18.729 6.22585 19.1633 6.5885 19.573C6.64521 19.5001 6.70544 19.4288 6.77317 19.3625L8.22607 17.9403C8.59941 17.5754 9.09268 17.3741 9.6145 17.3741Z" fill="#6340FF"/>
<path d="M10.1399 8.62608L7.26299 6.54052C7.0467 6.3836 6.74382 6.43148 6.58644 6.64863L0.0923727 15.6046C-0.0650101 15.8213 -0.0162015 16.1242 0.200084 16.2817L3.07654 18.3672C3.29329 18.5246 3.59617 18.4762 3.75315 18.259L10.2472 9.30309C10.4045 9.0864 10.3562 8.78346 10.1399 8.62608ZM8.21744 9.62668C7.95587 9.98714 7.45072 10.068 7.0898 9.80605C6.72842 9.54441 6.64793 9.03932 6.90997 8.6784C7.17154 8.31749 7.6767 8.2366 8.03761 8.49858C8.399 8.76061 8.47902 9.2653 8.21744 9.62668Z" fill="#6340FF"/>
</svg>
