<svg width="32" height="32" viewBox="0 0 32 32" fill="none" xmlns="http://www.w3.org/2000/svg">
<rect width="32" height="32" rx="16" fill="#FFCC00" fill-opacity="0.2"/>
<path d="M16 8C11.5885 8 8 11.589 8 16.0003C8 20.4115 11.5885 24 16 24C20.4113 24 24 20.4115 24 16.0003C24 11.589 20.4113 8 16 8ZM16 22.7381C12.2845 22.7381 9.26186 19.7155 9.26186 16.0002C9.26186 12.2845 12.2845 9.26186 16 9.26186C19.7155 9.26186 22.7381 12.2845 22.7381 16.0002C22.7381 19.7155 19.7155 22.7381 16 22.7381Z" fill="#FFCC00"/>
<path d="M14.7351 14.4323C14.7351 13.9262 15.4754 13.8398 16.1175 13.8398C16.7227 13.8398 17.5496 14.1234 18.2411 14.4819L18.3766 13.0869C18.0308 12.8892 17.2286 12.6546 16.4138 12.6055L16.6112 11.1858H15.2903L15.4881 12.6055C13.7846 12.7658 13.229 13.7533 13.229 14.5804C13.229 16.6666 17.1171 16.2226 17.1171 17.5059C17.1171 17.9878 16.6608 18.1602 15.8582 18.1602C14.7721 18.1602 13.9571 17.7779 13.5377 17.3826L13.3276 18.9505C13.723 19.1851 14.5249 19.3949 15.4881 19.4445L15.2903 20.8147H16.6112L16.4138 19.4319C18.4135 19.2589 18.7715 18.1972 18.7715 17.4938C18.7715 15.0127 14.7351 15.6296 14.7351 14.4323Z" fill="#FFCC00"/>
</svg>
