<svg width="24" height="24" viewBox="0 0 24 24" fill="none" xmlns="http://www.w3.org/2000/svg">
<path d="M15.556 20.0001V18.2223C15.556 17.2793 15.1814 16.3749 14.5146 15.7081C13.8478 15.0414 12.9434 14.6667 12.0004 14.6667H5.77821C4.83522 14.6667 3.93085 15.0414 3.26405 15.7081C2.59726 16.3749 2.22266 17.2793 2.22266 18.2223V20.0001" stroke="#7077FE" stroke-width="1.77778" stroke-linecap="round" stroke-linejoin="round"/>
<path d="M8.88954 11.1111C10.8532 11.1111 12.4451 9.51923 12.4451 7.55556C12.4451 5.59188 10.8532 4 8.88954 4C6.92586 4 5.33398 5.59188 5.33398 7.55556C5.33398 9.51923 6.92586 11.1111 8.88954 11.1111Z" stroke="#7077FE" stroke-width="1.77778" stroke-linecap="round" stroke-linejoin="round"/>
<path d="M19.1113 8.44434V13.7777" stroke="#7077FE" stroke-width="1.77778" stroke-linecap="round" stroke-linejoin="round"/>
<path d="M21.7767 11.1111H16.4434" stroke="#7077FE" stroke-width="1.77778" stroke-linecap="round" stroke-linejoin="round"/>
</svg>
