<svg width="50" height="50" viewBox="0 0 50 50" fill="none" xmlns="http://www.w3.org/2000/svg">
<rect x="0.5" y="0.5" width="49" height="49" rx="9.48" stroke="white"/>
<path fill-rule="evenodd" clip-rule="evenodd" d="M18.6689 17.76C18.696 17.5329 18.7756 17.3153 18.9014 17.1244C19.0273 16.9335 19.196 16.7746 19.394 16.6604C19.5921 16.5461 19.8141 16.4796 20.0423 16.4662C20.2706 16.4527 20.4989 16.4927 20.7089 16.583C21.7709 17.037 24.1509 18.116 27.1709 19.859C30.1919 21.603 32.3169 23.126 33.2399 23.817C34.0279 24.408 34.0299 25.58 33.2409 26.173C32.3269 26.86 30.2279 28.363 27.1709 30.129C24.1109 31.895 21.7589 32.961 20.7069 33.409C19.8009 33.796 18.7869 33.209 18.6689 32.232C18.5309 31.09 18.2729 28.497 18.2729 24.995C18.2729 21.495 18.5299 18.903 18.6689 17.76Z" fill="white"/>
</svg>
