<svg width="40" height="40" viewBox="0 0 40 40" fill="none" xmlns="http://www.w3.org/2000/svg">
<path d="M18.0616 17.5767C18.0616 16.9067 17.5416 16.3633 16.9 16.3633H14.3C14.84 13.5967 17.185 11.515 20 11.515C22.8116 11.515 25.1583 13.5983 25.6966 16.365H21.55C20.9083 16.365 20.3883 16.9067 20.3883 17.575C20.3883 18.245 20.9083 18.7883 21.55 18.7883H25.815V21.2117H21.55C20.9083 21.2117 20.3883 21.755 20.3883 22.425C20.3883 23.095 20.9083 23.6367 21.55 23.6367H25.6983C25.235 26.0117 23.4416 27.8817 21.1633 28.3633V32.1217C21.1633 32.79 20.6416 33.3333 20 33.3333C19.3583 33.3333 18.8366 32.79 18.8366 32.1217V28.3633C16.56 27.8817 14.765 26.0117 14.3033 23.6367H16.9C17.5416 23.6367 18.0616 23.0933 18.0616 22.425C18.0616 21.755 17.5416 21.2117 16.9 21.2117H14.1866V18.7883H16.9C17.5416 18.7883 18.0616 18.245 18.0616 17.5767Z" fill="#7077FE"/>
<path opacity="0.5" d="M20 6.66669C14.45 6.66669 9.91004 11.1684 9.55671 16.86C8.95508 16.5334 8.28126 16.3627 7.59671 16.3634C5.24171 16.3634 3.33337 18.3534 3.33337 20.8084V24.0417C3.33337 26.495 5.24171 28.485 7.59671 28.485C7.67671 28.485 7.75615 28.4828 7.83504 28.4784V28.485C10.0584 28.485 11.86 26.6067 11.86 24.2884V17.575C11.86 12.89 15.505 9.09169 20 9.09169C24.495 9.09169 28.14 12.89 28.14 17.575V24.2884C28.14 26.605 29.94 28.485 32.165 28.485V28.4784C32.2428 28.4828 32.3223 28.485 32.4034 28.485C34.7584 28.485 36.6667 26.495 36.6667 24.04V20.8067C36.6667 18.3534 34.7584 16.3634 32.4034 16.3634C31.6967 16.3634 31.03 16.5434 30.4434 16.86C30.09 11.1684 25.5484 6.66669 20 6.66669Z" fill="#7077FE"/>
</svg>
