<svg width="22" height="22" viewBox="0 0 22 22" fill="none" xmlns="http://www.w3.org/2000/svg">
<path d="M3.47787 14.8872C1.93287 13.3412 1.15987 12.5692 0.872866 11.5662C0.584866 10.5632 0.830866 9.49825 1.32287 7.36925L1.60587 6.14125C2.01887 4.34925 2.22587 3.45325 2.83887 2.83925C3.45187 2.22525 4.34887 2.01925 6.14087 1.60625L7.36887 1.32225C9.49887 0.831245 10.5629 0.585245 11.5659 0.872245C12.5689 1.16025 13.3409 1.93325 14.8859 3.47825L16.7159 5.30825C19.4069 7.99825 20.7499 9.34225 20.7499 11.0122C20.7499 12.6832 19.4059 14.0272 16.7169 16.7162C14.0269 19.4062 12.6829 20.7502 11.0119 20.7502C9.34187 20.7502 7.99687 19.4062 5.30787 16.7172L3.47787 14.8872Z" stroke="#B5BBC2" stroke-width="1.5"/>
<path d="M14.1399 14.1405C14.7249 13.5535 14.8039 12.6835 14.3159 12.1945C13.8279 11.7055 12.9569 11.7855 12.3709 12.3715C11.7859 12.9575 10.9149 13.0365 10.4269 12.5485C9.93889 12.0605 10.0179 11.1895 10.6039 10.6045M10.6039 10.6045L10.2499 10.2505M10.6039 10.6045C10.9349 10.2725 11.3569 10.1045 11.7499 10.1075M14.4929 14.4935L14.1389 14.1395C13.7389 14.5405 13.2039 14.7045 12.7499 14.6105" stroke="#B5BBC2" stroke-width="1.5" stroke-linecap="round"/>
<path d="M8.77096 9.04361C9.55201 8.26256 9.55201 6.99623 8.77096 6.21518C7.98991 5.43413 6.72358 5.43413 5.94253 6.21518C5.16149 6.99623 5.16148 8.26256 5.94253 9.04361C6.72358 9.82466 7.98991 9.82466 8.77096 9.04361Z" stroke="#B5BBC2" stroke-width="1.5"/>
</svg>
