<svg width="16" height="16" viewBox="0 0 16 16" fill="none" xmlns="http://www.w3.org/2000/svg">
<path d="M13.2666 7.33081C12.8666 7.33081 12.6 7.59748 12.6 7.99748C12.6 10.5975 10.5333 12.6641 7.9333 12.6641C7.79997 12.6641 7.59997 12.6641 7.46663 12.6641C7.3333 12.6641 7.26663 12.6641 7.1333 12.5975C6.99997 12.5975 6.9333 12.5308 6.79997 12.5308C6.7333 12.5308 6.66663 12.4641 6.59997 12.4641C6.1333 12.3308 5.66663 12.0641 5.26663 11.7975C5.19997 11.7308 5.1333 11.7308 5.1333 11.6641C5.06663 11.5975 4.99997 11.5308 4.9333 11.5308C4.79997 11.4641 4.66663 11.3308 4.59997 11.2641C4.5333 11.1975 4.5333 11.1975 4.46663 11.1308L5.66663 10.9308C5.99997 10.8641 6.26663 10.5308 6.19997 10.1308C6.1333 9.79748 5.79997 9.53081 5.39997 9.59748L3.19997 9.99748L2.66663 10.1308C2.46663 10.1308 2.3333 10.2641 2.26663 10.3975C2.19997 10.5308 2.1333 10.7308 2.1333 10.8641L2.66663 13.6641C2.7333 13.9975 2.99997 14.1975 3.3333 14.1975C3.39997 14.1975 3.39997 14.1975 3.46663 14.1975C3.79997 14.1308 4.06663 13.7975 3.99997 13.3975L3.79997 12.2641C3.9333 12.3975 4.1333 12.5308 4.26663 12.6641C4.26663 12.6641 4.26663 12.6641 4.3333 12.6641C4.39997 12.7308 4.46663 12.7975 4.5333 12.7975C4.66663 12.9308 4.79997 12.9975 4.99997 13.0641C5.1333 13.3308 5.3333 13.3975 5.5333 13.5308H5.59997C5.66663 13.5975 5.79997 13.5975 5.9333 13.6641C6.19997 13.7308 6.46663 13.7975 6.66663 13.8641C6.79997 13.8641 6.9333 13.9308 7.06663 13.9308H7.1333C7.19997 13.9308 7.3333 13.9308 7.39997 13.9308C7.5333 13.9308 7.7333 13.9308 7.86663 13.9308C11.2 13.9308 13.8666 11.2641 13.8666 7.93081C13.9333 7.59748 13.6 7.33081 13.2666 7.33081Z" fill="white"/>
<path d="M2.66685 8.66626C3.06685 8.66626 3.33352 8.39959 3.33352 7.99959C3.33352 5.39959 5.40018 3.33292 8.00018 3.33292C8.13352 3.33292 8.33352 3.33292 8.46685 3.33292C8.60018 3.33292 8.66685 3.33292 8.80018 3.39959C8.93352 3.39959 9.00018 3.46626 9.13352 3.46626C9.20018 3.46626 9.26685 3.53292 9.33352 3.53292C9.80018 3.66626 10.2668 3.86626 10.6669 4.19959C10.7335 4.26626 10.8002 4.26626 10.8668 4.33292C10.9335 4.39959 11.0002 4.39959 11.0668 4.46626C11.1335 4.53292 11.2002 4.66626 11.3335 4.73292C11.4002 4.79959 11.4002 4.79959 11.4669 4.86626L10.2668 5.06626C9.93352 5.13292 9.66685 5.46626 9.73352 5.86626C9.80018 6.19959 10.0668 6.39959 10.4002 6.39959C10.4669 6.39959 10.4669 6.39959 10.5335 6.39959L13.3335 5.86626C13.6668 5.79959 13.9335 5.46626 13.8668 5.06626L13.3335 2.33292C13.2668 1.99959 12.9335 1.73292 12.5335 1.79959C12.2002 1.86626 11.9335 2.19959 12.0002 2.59959L12.2002 3.73292C12.0668 3.59959 11.8668 3.39959 11.7335 3.33292C11.7335 3.33292 11.7335 3.33292 11.6669 3.33292C11.6002 3.26626 11.5335 3.19959 11.4669 3.19959C11.3335 3.06626 11.2002 2.99959 11.0002 2.86626C10.8002 2.73292 10.6002 2.66626 10.4002 2.53292H10.3335C10.2668 2.46626 10.1335 2.46626 10.0002 2.39959C9.73352 2.33292 9.46685 2.26626 9.26685 2.19959C9.13352 2.19959 9.00018 2.13292 8.86685 2.13292H8.80018C8.73352 2.13292 8.60018 2.13292 8.53352 2.13292C8.40018 2.13292 8.20018 2.13292 8.06685 2.13292C4.73352 2.13292 2.06685 4.79959 2.06685 8.13292C2.00018 8.39959 2.26685 8.66626 2.66685 8.66626Z" fill="white"/>
</svg>
