<svg width="13" height="13" viewBox="0 0 13 13" fill="none" xmlns="http://www.w3.org/2000/svg">
<g clip-path="url(#clip0_1_2187)">
<path d="M0.819784 11.7407C0.781222 11.7461 0.742097 11.7461 0.703534 11.7407C0.625217 11.7153 0.557445 11.6648 0.510681 11.597C0.463917 11.5292 0.44076 11.448 0.444784 11.3657V10.9907C0.444933 9.29616 1.04904 7.65712 2.14867 6.3678C3.24831 5.07848 4.77148 4.22329 6.44479 3.95572V2.36572C6.44479 2.29608 6.46418 2.22781 6.50079 2.16857C6.5374 2.10933 6.58979 2.06146 6.65208 2.03031C6.71437 1.99917 6.7841 1.98598 6.85346 1.99224C6.92282 1.99849 6.98907 2.02394 7.04479 2.06572L11.5448 5.44072C11.5914 5.47565 11.6292 5.52095 11.6552 5.57302C11.6812 5.62509 11.6948 5.68251 11.6948 5.74072C11.6948 5.79894 11.6812 5.85636 11.6552 5.90843C11.6292 5.9605 11.5914 6.00579 11.5448 6.04072L7.04479 9.41572C6.98907 9.45751 6.92282 9.48295 6.85346 9.48921C6.7841 9.49546 6.71437 9.48228 6.65208 9.45113C6.58979 9.41999 6.5374 9.37211 6.50079 9.31287C6.46418 9.25363 6.44479 9.18536 6.44479 9.11572V7.70947C4.6289 8.00584 3.0028 9.00548 1.91853 10.492L1.12353 11.587C1.08862 11.6347 1.0429 11.6736 0.990112 11.7003C0.93732 11.727 0.878954 11.7409 0.819784 11.7407ZM7.19479 3.11572V4.28572C7.19535 4.37843 7.16155 4.46806 7.09992 4.53731C7.03828 4.60656 6.95318 4.65053 6.86104 4.66072C5.44703 4.81499 4.12523 5.43771 3.10595 6.42981C2.08667 7.42192 1.42845 8.7264 1.23603 10.1357L1.29603 10.057C1.93776 9.17583 2.75803 8.43987 3.70335 7.89711C4.64867 7.35434 5.69779 7.01696 6.78228 6.90697C6.83456 6.90211 6.88727 6.90827 6.93701 6.92507C6.98675 6.94186 7.03241 6.96891 7.07103 7.00447C7.10988 7.03953 7.14096 7.08234 7.16227 7.13013C7.18359 7.17792 7.19466 7.22964 7.19479 7.28197V8.36572L10.6935 5.74072L7.19479 3.11572Z" fill="black"/>
</g>
<defs>
<clipPath id="clip0_1_2187">
<rect width="12" height="12" fill="white" transform="translate(0.0698242 0.865601)"/>
</clipPath>
</defs>
</svg>
