<svg width="28" height="28" viewBox="0 0 28 28" fill="none" xmlns="http://www.w3.org/2000/svg">
<rect width="27.4286" height="27.6129" rx="13.7143" fill="#7077FE" fill-opacity="0.1"/>
<path d="M10.9032 13.2258L13.2258 8C13.6878 8 14.1308 8.18352 14.4575 8.5102C14.7842 8.83687 14.9677 9.27994 14.9677 9.74193V12.0645H18.2542C18.4225 12.0626 18.5892 12.0973 18.7428 12.1662C18.8964 12.2352 19.0332 12.3367 19.1436 12.4637C19.2541 12.5907 19.3356 12.7403 19.3826 12.9019C19.4295 13.0636 19.4407 13.2335 19.4154 13.4L18.6142 18.6258C18.5722 18.9027 18.4315 19.1551 18.2181 19.3365C18.0047 19.5179 17.7329 19.616 17.4529 19.6129H10.9032M10.9032 13.2258V19.6129M10.9032 13.2258H9.16129C8.85329 13.2258 8.55792 13.3481 8.34013 13.5659C8.12235 13.7837 8 14.0791 8 14.3871V18.4516C8 18.7596 8.12235 19.055 8.34013 19.2727C8.55792 19.4905 8.85329 19.6129 9.16129 19.6129H10.9032" stroke="#7077FE" stroke-width="1.16129" stroke-linecap="round" stroke-linejoin="round"/>
</svg>
