<svg width="32" height="32" viewBox="0 0 32 32" fill="none" xmlns="http://www.w3.org/2000/svg">
<rect width="32" height="32" rx="16" fill="#7077FE"/>
<mask id="path-2-inside-1_1155_10983" fill="white">
<path d="M16 8.96296C17.3918 8.96296 18.7523 9.37568 19.9096 10.1489C21.0668 10.9222 21.9688 12.0212 22.5014 13.307C23.034 14.5929 23.1733 16.0078 22.9018 17.3729C22.6303 18.7379 21.9601 19.9918 20.9759 20.9759C19.9918 21.9601 18.7379 22.6303 17.3729 22.9018C16.0078 23.1733 14.5929 23.034 13.307 22.5014C12.0212 21.9688 10.9222 21.0668 10.1489 19.9096C9.37568 18.7523 8.96297 17.3918 8.96297 16C8.96493 14.1343 9.70696 12.3455 11.0262 11.0262C12.3455 9.70695 14.1343 8.96492 16 8.96296ZM16 8C14.4178 8 12.871 8.46919 11.5554 9.34824C10.2398 10.2273 9.21447 11.4767 8.60897 12.9385C8.00347 14.4003 7.84504 16.0089 8.15372 17.5607C8.4624 19.1126 9.22433 20.538 10.3431 21.6569C11.462 22.7757 12.8874 23.5376 14.4393 23.8463C15.9911 24.155 17.5997 23.9965 19.0615 23.391C20.5233 22.7855 21.7727 21.7602 22.6518 20.4446C23.5308 19.129 24 17.5822 24 16C24 13.8783 23.1571 11.8434 21.6569 10.3431C20.1566 8.84285 18.1217 8 16 8Z"/>
</mask>
<path d="M16 8.96296C17.3918 8.96296 18.7523 9.37568 19.9096 10.1489C21.0668 10.9222 21.9688 12.0212 22.5014 13.307C23.034 14.5929 23.1733 16.0078 22.9018 17.3729C22.6303 18.7379 21.9601 19.9918 20.9759 20.9759C19.9918 21.9601 18.7379 22.6303 17.3729 22.9018C16.0078 23.1733 14.5929 23.034 13.307 22.5014C12.0212 21.9688 10.9222 21.0668 10.1489 19.9096C9.37568 18.7523 8.96297 17.3918 8.96297 16C8.96493 14.1343 9.70696 12.3455 11.0262 11.0262C12.3455 9.70695 14.1343 8.96492 16 8.96296ZM16 8C14.4178 8 12.871 8.46919 11.5554 9.34824C10.2398 10.2273 9.21447 11.4767 8.60897 12.9385C8.00347 14.4003 7.84504 16.0089 8.15372 17.5607C8.4624 19.1126 9.22433 20.538 10.3431 21.6569C11.462 22.7757 12.8874 23.5376 14.4393 23.8463C15.9911 24.155 17.5997 23.9965 19.0615 23.391C20.5233 22.7855 21.7727 21.7602 22.6518 20.4446C23.5308 19.129 24 17.5822 24 16C24 13.8783 23.1571 11.8434 21.6569 10.3431C20.1566 8.84285 18.1217 8 16 8Z" fill="white"/>
<path d="M16 8.96296V7.96296L15.999 7.96296L16 8.96296ZM8.96297 16L7.96297 15.9989V16H8.96297ZM16 8V7V8ZM24 16H25H24ZM16 8.96296V9.96296C17.194 9.96296 18.3612 10.317 19.354 10.9804L19.9096 10.1489L20.4651 9.31745C19.1435 8.43433 17.5896 7.96296 16 7.96296V8.96296ZM19.9096 10.1489L19.354 10.9804C20.3468 11.6437 21.1206 12.5866 21.5775 13.6897L22.5014 13.307L23.4253 12.9244C22.817 11.4558 21.7868 10.2006 20.4651 9.31745L19.9096 10.1489ZM22.5014 13.307L21.5775 13.6897C22.0344 14.7928 22.154 16.0067 21.921 17.1778L22.9018 17.3729L23.8826 17.5679C24.1927 16.0089 24.0336 14.3929 23.4253 12.9244L22.5014 13.307ZM22.9018 17.3729L21.921 17.1778C21.6881 18.3488 21.1131 19.4245 20.2688 20.2688L20.9759 20.9759L21.683 21.683C22.807 20.559 23.5725 19.127 23.8826 17.5679L22.9018 17.3729ZM20.9759 20.9759L20.2688 20.2688C19.4245 21.1131 18.3488 21.6881 17.1778 21.921L17.3729 22.9018L17.568 23.8826C19.127 23.5725 20.559 22.807 21.683 21.683L20.9759 20.9759ZM17.3729 22.9018L17.1778 21.921C16.0067 22.154 14.7929 22.0344 13.6897 21.5775L13.307 22.5014L12.9244 23.4253C14.3929 24.0336 16.0089 24.1927 17.568 23.8826L17.3729 22.9018ZM13.307 22.5014L13.6897 21.5775C12.5866 21.1206 11.6437 20.3468 10.9804 19.354L10.1489 19.9096L9.31745 20.4651C10.2006 21.7868 11.4558 22.8169 12.9244 23.4253L13.307 22.5014ZM10.1489 19.9096L10.9804 19.354C10.317 18.3612 9.96297 17.194 9.96297 16H8.96297H7.96297C7.96297 17.5896 8.43433 19.1435 9.31745 20.4651L10.1489 19.9096ZM8.96297 16L9.96297 16.001C9.96465 14.4002 10.6013 12.8653 11.7333 11.7333L11.0262 11.0262L10.3191 10.3191C8.81257 11.8257 7.96521 13.8684 7.96297 15.9989L8.96297 16ZM11.0262 11.0262L11.7333 11.7333C12.8653 10.6013 14.4002 9.96464 16.0011 9.96296L16 8.96296L15.999 7.96296C13.8684 7.9652 11.8257 8.81257 10.3191 10.3191L11.0262 11.0262ZM16 8V7C14.22 7 12.4799 7.52784 10.9999 8.51677L11.5554 9.34824L12.111 10.1797C13.2622 9.41054 14.6155 9 16 9V8ZM11.5554 9.34824L10.9999 8.51677C9.51983 9.50571 8.36628 10.9113 7.68509 12.5558L8.60897 12.9385L9.53285 13.3212C10.0627 12.0421 10.9599 10.9489 12.111 10.1797L11.5554 9.34824ZM8.60897 12.9385L7.68509 12.5558C7.0039 14.2004 6.82567 16.01 7.17294 17.7558L8.15372 17.5607L9.13451 17.3656C8.86441 16.0078 9.00303 14.6003 9.53285 13.3212L8.60897 12.9385ZM8.15372 17.5607L7.17294 17.7558C7.5202 19.5016 8.37737 21.1053 9.63604 22.364L10.3431 21.6569L11.0503 20.9497C10.0713 19.9708 9.4046 18.7235 9.13451 17.3656L8.15372 17.5607ZM10.3431 21.6569L9.63604 22.364C10.8947 23.6226 12.4984 24.4798 14.2442 24.8271L14.4393 23.8463L14.6344 22.8655C13.2765 22.5954 12.0292 21.9287 11.0503 20.9497L10.3431 21.6569ZM14.4393 23.8463L14.2442 24.8271C15.99 25.1743 17.7996 24.9961 19.4442 24.3149L19.0615 23.391L18.6788 22.4672C17.3997 22.997 15.9922 23.1356 14.6344 22.8655L14.4393 23.8463ZM19.0615 23.391L19.4442 24.3149C21.0887 23.6337 22.4943 22.4802 23.4832 21.0001L22.6518 20.4446L21.8203 19.889C21.0511 21.0401 19.9579 21.9373 18.6788 22.4672L19.0615 23.391ZM22.6518 20.4446L23.4832 21.0001C24.4722 19.5201 25 17.78 25 16H24H23C23 17.3845 22.5895 18.7378 21.8203 19.889L22.6518 20.4446ZM24 16H25C25 13.6131 24.0518 11.3239 22.364 9.63604L21.6569 10.3431L20.9497 11.0503C22.2625 12.363 23 14.1435 23 16H24ZM21.6569 10.3431L22.364 9.63604C20.6761 7.94821 18.3869 7 16 7V8V9C17.8565 9 19.637 9.7375 20.9497 11.0503L21.6569 10.3431Z" fill="white" mask="url(#path-2-inside-1_1155_10983)"/>
<mask id="path-4-inside-2_1155_10983" fill="white">
<path d="M16.1602 8.96296C16.4699 8.96296 17.0165 9.50519 17.4832 10.6948C18.0328 12.0963 18.3351 13.9807 18.3351 16C18.3351 18.0193 18.0388 19.9037 17.4832 21.3052C17.0165 22.4904 16.4713 23.037 16.1602 23.037C15.8491 23.037 15.3039 22.4948 14.8373 21.3052C14.2891 19.9037 13.9854 18.0193 13.9854 16C13.9854 13.9807 14.2817 12.0963 14.8373 10.6948C15.3054 9.5037 15.8521 8.96296 16.1602 8.96296ZM16.1602 8C14.4269 8 13.0225 11.5822 13.0225 16C13.0225 20.4178 14.4269 24 16.1602 24C17.8936 24 19.298 20.4178 19.298 16C19.298 11.5822 17.8936 8 16.1602 8Z"/>
</mask>
<path d="M16.1602 8.96296C16.4699 8.96296 17.0165 9.50519 17.4832 10.6948C18.0328 12.0963 18.3351 13.9807 18.3351 16C18.3351 18.0193 18.0388 19.9037 17.4832 21.3052C17.0165 22.4904 16.4713 23.037 16.1602 23.037C15.8491 23.037 15.3039 22.4948 14.8373 21.3052C14.2891 19.9037 13.9854 18.0193 13.9854 16C13.9854 13.9807 14.2817 12.0963 14.8373 10.6948C15.3054 9.5037 15.8521 8.96296 16.1602 8.96296ZM16.1602 8C14.4269 8 13.0225 11.5822 13.0225 16C13.0225 20.4178 14.4269 24 16.1602 24C17.8936 24 19.298 20.4178 19.298 16C19.298 11.5822 17.8936 8 16.1602 8Z" fill="white"/>
<path d="M17.4832 10.6948L18.4142 10.3297L18.4141 10.3296L17.4832 10.6948ZM17.4832 21.3052L16.5536 20.9367L16.5527 20.9388L17.4832 21.3052ZM14.8373 21.3052L13.906 21.6694L13.9063 21.6704L14.8373 21.3052ZM14.8373 10.6948L15.7669 11.0633L15.768 11.0606L14.8373 10.6948ZM16.1602 8.96296V9.96296C16.0543 9.96296 15.9763 9.94021 15.9341 9.9243C15.8914 9.9082 15.8699 9.8934 15.8696 9.89318C15.8685 9.89239 15.8798 9.90009 15.9024 9.92163C15.9247 9.9428 15.9544 9.97408 15.9904 10.0178C16.1399 10.1997 16.3457 10.5333 16.5523 11.06L17.4832 10.6948L18.4141 10.3296C18.1541 9.66666 17.8532 9.1344 17.5353 8.74771C17.3769 8.55507 17.1966 8.37696 16.9943 8.23936C16.8049 8.11058 16.5158 7.96296 16.1602 7.96296V8.96296ZM17.4832 10.6948L16.5522 11.0599C17.0435 12.3126 17.3351 14.0653 17.3351 16H18.3351H19.3351C19.3351 13.8961 19.0221 11.8799 18.4142 10.3297L17.4832 10.6948ZM18.3351 16H17.3351C17.3351 17.9375 17.0487 19.6877 16.5536 20.9367L17.4832 21.3052L18.4128 21.6737C19.0288 20.1197 19.3351 18.101 19.3351 16H18.3351ZM17.4832 21.3052L16.5527 20.9388C16.3459 21.4641 16.1401 21.7985 15.9901 21.9815C15.954 22.0256 15.9241 22.0571 15.9017 22.0785C15.879 22.1002 15.8675 22.1081 15.8686 22.1073C15.8688 22.1072 15.8903 22.0922 15.9332 22.076C15.9756 22.06 16.0539 22.037 16.1602 22.037V23.037V24.037C16.5174 24.037 16.8073 23.8882 16.9966 23.7589C17.1988 23.6207 17.3788 23.4422 17.5367 23.2496C17.8537 22.8629 18.1538 22.3315 18.4137 21.6716L17.4832 21.3052ZM16.1602 23.037V22.037C16.2654 22.037 16.343 22.0595 16.3853 22.0754C16.428 22.0915 16.4495 22.1063 16.45 22.1066C16.4513 22.1075 16.44 22.0999 16.4175 22.0785C16.3953 22.0574 16.3657 22.0262 16.3298 21.9824C16.1805 21.8007 15.975 21.4671 15.7682 20.94L14.8373 21.3052L13.9063 21.6704C14.1662 22.3329 14.4666 22.8652 14.7844 23.252C14.9427 23.4447 15.1231 23.623 15.3258 23.7608C15.516 23.89 15.805 24.037 16.1602 24.037V23.037ZM14.8373 21.3052L15.7686 20.9409C15.2782 19.6873 14.9854 17.934 14.9854 16H13.9854H12.9854C12.9854 18.1046 13.3 20.1201 13.906 21.6694L14.8373 21.3052ZM13.9854 16H14.9854C14.9854 14.0625 15.2718 12.3123 15.7669 11.0633L14.8373 10.6948L13.9077 10.3263C13.2916 11.8803 12.9854 13.899 12.9854 16H13.9854ZM14.8373 10.6948L15.768 11.0606C15.9753 10.5331 16.1815 10.1993 16.331 10.0175C16.367 9.97377 16.3967 9.9425 16.419 9.92134C16.4416 9.89982 16.4529 9.89213 16.4518 9.89294C16.4514 9.89316 16.4299 9.908 16.3871 9.92414C16.3449 9.94007 16.2666 9.96296 16.1602 9.96296V8.96296V7.96296C15.8047 7.96296 15.5158 8.11074 15.327 8.23919C15.125 8.37658 14.9448 8.55443 14.7865 8.7469C14.4686 9.13328 14.1674 9.6654 13.9066 10.329L14.8373 10.6948ZM16.1602 8V7C15.3558 7 14.6961 7.41962 14.2054 7.94881C13.7159 8.47673 13.3211 9.18588 13.0104 9.97823C12.3865 11.5691 12.0225 13.6985 12.0225 16H13.0225H14.0225C14.0225 13.8837 14.3606 12.0132 14.8723 10.7084C15.1294 10.053 15.4107 9.59049 15.672 9.30869C15.9321 9.02816 16.098 9 16.1602 9V8ZM13.0225 16H12.0225C12.0225 18.3015 12.3865 20.4309 13.0104 22.0218C13.3211 22.8141 13.7159 23.5233 14.2054 24.0512C14.6961 24.5804 15.3558 25 16.1602 25V24V23C16.098 23 15.9321 22.9718 15.672 22.6913C15.4107 22.4095 15.1294 21.947 14.8723 21.2916C14.3606 19.9868 14.0225 18.1163 14.0225 16H13.0225ZM16.1602 24V25C16.9646 25 17.6243 24.5804 18.115 24.0512C18.6046 23.5233 18.9994 22.8141 19.3101 22.0218C19.934 20.4309 20.298 18.3015 20.298 16H19.298H18.298C18.298 18.1163 17.9598 19.9868 17.4482 21.2916C17.1911 21.947 16.9098 22.4095 16.6485 22.6913C16.3884 22.9718 16.2225 23 16.1602 23V24ZM19.298 16H20.298C20.298 13.6985 19.934 11.5691 19.3101 9.97823C18.9994 9.18588 18.6046 8.47673 18.115 7.94881C17.6243 7.41962 16.9646 7 16.1602 7V8V9C16.2225 9 16.3884 9.02816 16.6485 9.30869C16.9098 9.59049 17.1911 10.053 17.4482 10.7084C17.9598 12.0132 18.298 13.8837 18.298 16H19.298Z" fill="white" mask="url(#path-4-inside-2_1155_10983)"/>
<path d="M9.13477 18.499H23.1851" stroke="white" stroke-miterlimit="10"/>
<path d="M9.13477 13.499H23.1851" stroke="white" stroke-miterlimit="10"/>
</svg>
