<svg width="20" height="20" viewBox="0 0 20 20" fill="none" xmlns="http://www.w3.org/2000/svg">
<path d="M4.6967 15.3039C1.76777 12.3749 1.76777 7.6262 4.6967 4.69727M15.3033 4.69727C18.2322 7.6262 18.2322 12.3749 15.3033 15.3039M7.05372 12.9468C5.42654 11.3197 5.42654 8.68147 7.05372 7.05429M12.9463 7.05429C14.5735 8.68147 14.5735 11.3197 12.9463 12.9468M10.8333 10.0006C10.8333 10.4608 10.4602 10.8339 10 10.8339C9.53976 10.8339 9.16667 10.4608 9.16667 10.0006C9.16667 9.54033 9.53976 9.16723 10 9.16723C10.4602 9.16723 10.8333 9.54033 10.8333 10.0006Z" stroke="#64748B" stroke-width="1.5" stroke-linecap="round" stroke-linejoin="round"/>
</svg>
