<svg width="34" height="34" viewBox="0 0 34 34" fill="none" xmlns="http://www.w3.org/2000/svg">
<g clip-path="url(#clip0_75_2539)">
<path d="M21.6667 9H12.3333C11.4496 9.00106 10.6024 9.35259 9.97748 9.97748C9.35259 10.6024 9.00106 11.4496 9 12.3333L9 21.6667C9.00106 22.5504 9.35259 23.3976 9.97748 24.0225C10.6024 24.6474 11.4496 24.9989 12.3333 25H21.6667C22.5504 24.9989 23.3976 24.6474 24.0225 24.0225C24.6474 23.3976 24.9989 22.5504 25 21.6667V12.3333C24.9989 11.4496 24.6474 10.6024 24.0225 9.97748C23.3976 9.35259 22.5504 9.00106 21.6667 9ZM23.6667 21.6667C23.6667 22.1971 23.456 22.7058 23.0809 23.0809C22.7058 23.456 22.1971 23.6667 21.6667 23.6667H12.3333C11.8029 23.6667 11.2942 23.456 10.9191 23.0809C10.544 22.7058 10.3333 22.1971 10.3333 21.6667V12.3333C10.3333 11.8029 10.544 11.2942 10.9191 10.9191C11.2942 10.544 11.8029 10.3333 12.3333 10.3333H21.6667C22.1971 10.3333 22.7058 10.544 23.0809 10.9191C23.456 11.2942 23.6667 11.8029 23.6667 12.3333V21.6667Z" fill="black"/>
<path d="M21.6667 19.6666H12.3334C12.1566 19.6666 11.987 19.7369 11.862 19.8619C11.737 19.9869 11.6667 20.1565 11.6667 20.3333C11.6667 20.5101 11.737 20.6797 11.862 20.8047C11.987 20.9297 12.1566 21 12.3334 21H21.6667C21.8436 21 22.0131 20.9297 22.1382 20.8047C22.2632 20.6797 22.3334 20.5101 22.3334 20.3333C22.3334 20.1565 22.2632 19.9869 22.1382 19.8619C22.0131 19.7369 21.8436 19.6666 21.6667 19.6666Z" fill="black"/>
<path d="M15.1119 17.42C15.35 17.5683 15.6223 17.6528 15.9025 17.6654C16.1827 17.678 16.4615 17.6183 16.7119 17.492L18.7586 16.4667C19.0315 16.3303 19.261 16.1206 19.4214 15.8611C19.5818 15.6015 19.6668 15.3025 19.6668 14.9974C19.6668 14.6923 19.5818 14.3932 19.4214 14.1337C19.261 13.8742 19.0315 13.6644 18.7586 13.528L16.7106 12.508C16.4602 12.3828 16.1819 12.3237 15.9023 12.3362C15.6226 12.3488 15.3508 12.4326 15.1126 12.5798C14.8744 12.7269 14.6778 12.9325 14.5414 13.177C14.405 13.4215 14.3334 13.6967 14.3333 13.9767V16.0234C14.3323 16.3034 14.4034 16.579 14.5398 16.8236C14.6762 17.0682 14.8732 17.2736 15.1119 17.42ZM15.6666 13.9767C15.6659 13.9239 15.6791 13.8719 15.7048 13.8258C15.7305 13.7797 15.7679 13.7411 15.8133 13.714C15.8622 13.6837 15.9184 13.6674 15.9759 13.6667C16.0242 13.6671 16.0716 13.6788 16.1146 13.7007L18.1619 14.7234C18.2133 14.7491 18.2565 14.7886 18.2867 14.8374C18.3169 14.8863 18.3329 14.9426 18.3329 15C18.3329 15.0575 18.3169 15.1138 18.2867 15.1627C18.2565 15.2115 18.2133 15.251 18.1619 15.2767L16.1139 16.2994C16.0668 16.3234 16.0143 16.3348 15.9615 16.3325C15.9087 16.3302 15.8574 16.3142 15.8126 16.286C15.7673 16.2589 15.7299 16.2204 15.7041 16.1743C15.6784 16.1282 15.6652 16.0762 15.6659 16.0234L15.6666 13.9767Z" fill="black"/>
</g>
<defs>
<clipPath id="clip0_75_2539">
<rect width="16" height="16" fill="white" transform="translate(9 9)"/>
</clipPath>
</defs>
</svg>
