<svg width="26" height="27" viewBox="0 0 26 27" fill="none" xmlns="http://www.w3.org/2000/svg">
<path d="M4.87502 24.2137V18.797M4.87502 7.96366V2.547M2.16669 5.25533H7.58335M2.16669 21.5053H7.58335M14.0834 3.63033L12.2046 8.51493C11.8991 9.30926 11.7464 9.70643 11.5088 10.0405C11.2983 10.3366 11.0396 10.5953 10.7435 10.8058C10.4095 11.0434 10.0123 11.1961 9.21795 11.5016L4.33335 13.3803L9.21795 15.259C10.0123 15.5645 10.4095 15.7173 10.7435 15.9549C11.0396 16.1654 11.2983 16.4241 11.5088 16.7201C11.7464 17.0542 11.8991 17.4514 12.2046 18.2457L14.0834 23.1303L15.9621 18.2457C16.2676 17.4514 16.4203 17.0542 16.6579 16.7201C16.8684 16.4241 17.1271 16.1654 17.4232 15.9549C17.7573 15.7173 18.1544 15.5645 18.9487 15.259L23.8334 13.3803L18.9487 11.5016C18.1544 11.1961 17.7573 11.0434 17.4232 10.8058C17.1271 10.5953 16.8684 10.3366 16.6579 10.0405C16.4203 9.70643 16.2676 9.30926 15.9621 8.51493L14.0834 3.63033Z" stroke="#64748B" stroke-linecap="round" stroke-linejoin="round"/>
</svg>
