<svg width="40" height="41" viewBox="0 0 40 41" fill="none" xmlns="http://www.w3.org/2000/svg">
<rect y="0.380371" width="40" height="40" rx="20" fill="#E9E9E9"/>
<path d="M20 10.9995C20.8285 10.9995 21.5 11.6711 21.5 12.4995V18.4995H27.5C28.3284 18.4995 29 19.1711 29 19.9995C29 20.828 28.3284 21.4995 27.5 21.4995H21.5V27.4995C21.5 28.328 20.8285 28.9995 20 28.9995C19.1715 28.9995 18.5 28.328 18.5 27.4995V21.4995H12.5C11.6716 21.4995 11 20.828 11 19.9995C11 19.1711 11.6716 18.4995 12.5 18.4995H18.5V12.4995C18.5 11.6711 19.1715 10.9995 20 10.9995Z" fill="white"/>
</svg>
