<svg width="40" height="41" viewBox="0 0 40 41" fill="none" xmlns="http://www.w3.org/2000/svg">
<path d="M20 3.71362C10.8 3.71362 3.33331 11.1803 3.33331 20.3803C3.33331 29.5803 10.8 37.047 20 37.047C29.2 37.047 36.6666 29.5803 36.6666 20.3803C36.6666 11.1803 29.2 3.71362 20 3.71362ZM20 10.3803C23.2166 10.3803 25.8333 12.997 25.8333 16.2136C25.8333 19.4303 23.2166 22.047 20 22.047C16.7833 22.047 14.1666 19.4303 14.1666 16.2136C14.1666 12.997 16.7833 10.3803 20 10.3803ZM20 33.7136C16.6166 33.7136 12.6166 32.347 9.76665 28.9136C12.6864 26.624 16.2896 25.3797 20 25.3797C23.7104 25.3797 27.3136 26.624 30.2333 28.9136C27.3833 32.347 23.3833 33.7136 20 33.7136Z" fill="#E9E9E9"/>
</svg>
