<svg width="40" height="41" viewBox="0 0 40 41" fill="none" xmlns="http://www.w3.org/2000/svg">
<path d="M19.38 27.3571L15.9683 23.7904L27.2867 13.8688L29.3033 16.0388L19.38 27.3571ZM34.1083 37.4354C37.675 33.8688 40 28.9071 40 23.3254C40 12.3188 31.0083 3.32544 20 3.32544C8.99167 3.32544 0 12.3188 0 23.3254C0 28.9088 2.17 33.8688 5.89167 37.4354L8.68167 34.6438C5.73667 31.6988 4.03167 27.8221 4.03167 23.3271C4.02882 21.2292 4.43988 19.1513 5.24131 17.2124C6.04274 15.2736 7.2188 13.5119 8.70212 12.0283C10.1854 10.5446 11.9469 9.3682 13.8856 8.56636C15.8242 7.76452 17.9021 7.35303 20 7.35544C22.0977 7.35303 24.1752 7.76441 26.1137 8.56604C28.0521 9.36767 29.8134 10.5438 31.2967 12.0271C32.78 13.5104 33.9561 15.2716 34.7577 17.2101C35.5594 19.1486 35.9707 21.2261 35.9683 23.3238C35.9683 27.6654 34.1083 31.6971 31.3183 34.6421L34.1083 37.4354Z" fill="#E9E9E9"/>
</svg>
