<svg width="20" height="21" viewBox="0 0 20 21" fill="none" xmlns="http://www.w3.org/2000/svg">
<path fill-rule="evenodd" clip-rule="evenodd" d="M6.66683 9.5861C8.50775 9.5861 10.0002 8.09372 10.0002 6.25277C10.0002 4.41182 8.50775 2.91943 6.66683 2.91943C4.82588 2.91943 3.3335 4.41182 3.3335 6.25277C3.3335 8.09372 4.82588 9.5861 6.66683 9.5861ZM6.66683 7.91943C7.5873 7.91943 8.3335 7.17324 8.3335 6.25277C8.3335 5.33229 7.5873 4.5861 6.66683 4.5861C5.74635 4.5861 5.00016 5.33229 5.00016 6.25277C5.00016 7.17324 5.74635 7.91943 6.66683 7.91943Z" fill="#F07EFF"/>
<path d="M9.1665 12.0861C9.62675 12.0861 9.99984 12.4592 9.99984 12.9194V17.9194H11.6665V12.9194C11.6665 11.5387 10.5473 10.4194 9.1665 10.4194H4.1665C2.7858 10.4194 1.6665 11.5387 1.6665 12.9194V17.9194H3.33317V12.9194C3.33317 12.4592 3.70627 12.0861 4.1665 12.0861H9.1665Z" fill="#F07EFF"/>
<path d="M18.3335 9.58609H13.3335V11.2528H18.3335V9.58609Z" fill="#F07EFF"/>
<path d="M13.3335 12.9194H18.3335V14.5861H13.3335V12.9194Z" fill="#F07EFF"/>
<path d="M18.3335 6.25276H13.3335V7.91943H18.3335V6.25276Z" fill="#F07EFF"/>
</svg>
