<svg width="22" height="22" viewBox="0 0 22 22" fill="none" xmlns="http://www.w3.org/2000/svg">
<path d="M11.75 13.75V5.75" stroke="#B5BBC2" stroke-width="1.5" stroke-linecap="round"/>
<path d="M9.75 15.75C10.8546 15.75 11.75 14.8546 11.75 13.75C11.75 12.6454 10.8546 11.75 9.75 11.75C8.64543 11.75 7.75 12.6454 7.75 13.75C7.75 14.8546 8.64543 15.75 9.75 15.75Z" stroke="#B5BBC2" stroke-width="1.5"/>
<path d="M14.75 8.75C13.9544 8.75 13.1913 8.43393 12.6287 7.87132C12.0661 7.30871 11.75 6.54565 11.75 5.75" stroke="#B5BBC2" stroke-width="1.5" stroke-linecap="round"/>
<path d="M16.75 20.75V13.75M16.75 13.75L19.25 16.25M16.75 13.75L14.25 16.25" stroke="#B5BBC2" stroke-width="1.5" stroke-linecap="round" stroke-linejoin="round"/>
<path d="M12.75 20.55C12.1033 20.682 11.4367 20.7487 10.75 20.75C5.227 20.75 0.75 16.273 0.75 10.75C0.75 8.929 1.237 7.22 2.088 5.75M20.55 12.75C20.682 12.1033 20.7487 11.4367 20.75 10.75C20.75 5.227 16.273 0.75 10.75 0.75C8.929 0.75 7.22 1.237 5.75 2.088" stroke="#B5BBC2" stroke-width="1.5" stroke-linecap="round"/>
</svg>
