<svg width="34" height="32" viewBox="0 0 34 32" fill="none" xmlns="http://www.w3.org/2000/svg">
<rect x="0.5" y="0.5" width="33" height="31" rx="15.5" fill="#F3F1FF"/>
<rect x="0.5" y="0.5" width="33" height="31" rx="15.5" stroke="#7077FE"/>
<path d="M16.5 19.577V10.927L14.17 13.257L13.462 12.539L17 9L20.539 12.539L19.831 13.258L17.5 10.927V19.577H16.5ZM11.616 23C11.1553 23 10.771 22.846 10.463 22.538C10.155 22.23 10.0007 21.8453 10 21.384V18.961H11V21.384C11 21.538 11.064 21.6793 11.192 21.808C11.32 21.9367 11.461 22.0007 11.615 22H22.385C22.5383 22 22.6793 21.936 22.808 21.808C22.9367 21.68 23.0007 21.5387 23 21.384V18.961H24V21.384C24 21.8447 23.846 22.229 23.538 22.537C23.23 22.845 22.8453 22.9993 22.384 23H11.616Z" fill="#7077FE"/>
</svg>
