<svg width="37" height="37" viewBox="0 0 37 37" fill="none" xmlns="http://www.w3.org/2000/svg">
<path d="M20.1667 10.0833C20.1667 15.6521 15.6521 20.1667 10.0833 20.1667C4.51458 20.1667 0 15.6521 0 10.0833C0 4.51458 4.51458 0 10.0833 0C15.6521 0 20.1667 4.51458 20.1667 10.0833ZM11 3.66667C11 3.42355 10.9034 3.19039 10.7315 3.01849C10.5596 2.84658 10.3264 2.75 10.0833 2.75C9.84022 2.75 9.60706 2.84658 9.43515 3.01849C9.26324 3.19039 9.16667 3.42355 9.16667 3.66667V9.16667H3.66667C3.42355 9.16667 3.19039 9.26324 3.01849 9.43515C2.84658 9.60706 2.75 9.84022 2.75 10.0833C2.75 10.3264 2.84658 10.5596 3.01849 10.7315C3.19039 10.9034 3.42355 11 3.66667 11H9.16667V16.5C9.16667 16.7431 9.26324 16.9763 9.43515 17.1482C9.60706 17.3201 9.84022 17.4167 10.0833 17.4167C10.3264 17.4167 10.5596 17.3201 10.7315 17.1482C10.9034 16.9763 11 16.7431 11 16.5V11H16.5C16.7431 11 16.9763 10.9034 17.1482 10.7315C17.3201 10.5596 17.4167 10.3264 17.4167 10.0833C17.4167 9.84022 17.3201 9.60706 17.1482 9.43515C16.9763 9.26324 16.7431 9.16667 16.5 9.16667H11V3.66667ZM30.9375 5.95833C31.8492 5.95833 32.7235 6.3205 33.3682 6.96515C34.0128 7.60981 34.375 8.48415 34.375 9.39583V30.9375C34.376 31.5235 34.2264 32.0998 33.9405 32.6113L22.4354 21.1072C22.1375 20.8092 21.7838 20.5729 21.3945 20.4116C21.0052 20.2503 20.588 20.1674 20.1667 20.1674C19.7453 20.1674 19.3281 20.2503 18.9388 20.4116C18.5495 20.5729 18.1958 20.8092 17.8979 21.1072L6.39283 32.6104C6.10712 32.0992 5.9575 31.5231 5.95833 30.9375V21.2667C5.15572 20.9699 4.3874 20.5876 3.66667 20.1263V30.9375C3.66667 32.457 4.27027 33.9142 5.3447 34.9886C6.41913 36.0631 7.87636 36.6667 9.39583 36.6667H30.9375C32.457 36.6667 33.9142 36.0631 34.9886 34.9886C36.0631 33.9142 36.6667 32.457 36.6667 30.9375V9.39583C36.6667 7.87636 36.0631 6.41913 34.9886 5.3447C33.9142 4.27027 32.457 3.66667 30.9375 3.66667H20.1263C20.5847 4.38167 20.9688 5.14983 21.2667 5.95833H30.9375ZM32.2172 34.1293C31.8105 34.2932 31.3759 34.3766 30.9375 34.375H9.39583C8.94392 34.375 8.51217 34.2879 8.11617 34.1293L19.5186 22.726C19.6905 22.5542 19.9236 22.4576 20.1667 22.4576C20.4097 22.4576 20.6429 22.5542 20.8148 22.726L32.2172 34.1293ZM22 14.2083C22 13.1143 22.4346 12.0651 23.2082 11.2915C23.9818 10.5179 25.031 10.0833 26.125 10.0833C27.219 10.0833 28.2682 10.5179 29.0418 11.2915C29.8154 12.0651 30.25 13.1143 30.25 14.2083C30.25 15.3024 29.8154 16.3516 29.0418 17.1251C28.2682 17.8987 27.219 18.3333 26.125 18.3333C25.031 18.3333 23.9818 17.8987 23.2082 17.1251C22.4346 16.3516 22 15.3024 22 14.2083ZM26.125 12.375C25.6388 12.375 25.1725 12.5682 24.8286 12.912C24.4848 13.2558 24.2917 13.7221 24.2917 14.2083C24.2917 14.6946 24.4848 15.1609 24.8286 15.5047C25.1725 15.8485 25.6388 16.0417 26.125 16.0417C26.6112 16.0417 27.0775 15.8485 27.4214 15.5047C27.7652 15.1609 27.9583 14.6946 27.9583 14.2083C27.9583 13.7221 27.7652 13.2558 27.4214 12.912C27.0775 12.5682 26.6112 12.375 26.125 12.375Z" fill="#7077FE"/>
</svg>
