<svg width="34" height="34" viewBox="0 0 34 34" fill="none" xmlns="http://www.w3.org/2000/svg">
<rect width="34" height="34" rx="4" fill="#FAFAFA"/>
<path d="M14.6485 12.7144H11.2857C10.149 12.7144 9.05897 13.1659 8.25525 13.9696C7.45153 14.7733 7 15.8634 7 17C7 18.1367 7.45153 19.2267 8.25525 20.0305C9.05897 20.8342 10.149 21.2857 11.2857 21.2857H15.5714C16.2572 21.2861 16.9331 21.1218 17.5422 20.8068C18.1514 20.4918 18.6761 20.0352 19.0722 19.4753C19.4683 18.9154 19.7243 18.2687 19.8186 17.5894C19.9129 16.9101 19.8428 16.2181 19.6142 15.5715H18.4285C18.3056 15.5715 18.1856 15.5858 18.0713 15.6158C18.3123 16.0508 18.4355 16.5411 18.4288 17.0383C18.4222 17.5356 18.2858 18.0224 18.0333 18.4508C17.7808 18.8792 17.4209 19.2343 16.9891 19.4809C16.5573 19.7276 16.0686 19.8573 15.5714 19.8572H11.2857C10.5279 19.8572 9.80121 19.5561 9.26539 19.0203C8.72958 18.4845 8.42856 17.7578 8.42856 17C8.42856 16.2423 8.72958 15.5156 9.26539 14.9797C9.80121 14.4439 10.5279 14.1429 11.2857 14.1429H13.4785C13.7899 13.6058 14.1842 13.1229 14.6485 12.7144Z" fill="black"/>
<path d="M18.4288 12.7144C17.743 12.714 17.0671 12.8782 16.4579 13.1933C15.8487 13.5083 15.3241 13.9649 14.928 14.5248C14.5319 15.0846 14.2759 15.7314 14.1816 16.4107C14.0873 17.09 14.1574 17.782 14.386 18.4286H15.9545C15.7038 17.9943 15.5718 17.5016 15.5718 17.0001C15.5717 16.4985 15.7038 16.0058 15.9545 15.5715C16.2053 15.1372 16.5659 14.7765 17.0003 14.5257C17.4346 14.275 17.9273 14.1429 18.4288 14.1429H22.7145C23.4722 14.1429 24.199 14.4439 24.7348 14.9797C25.2706 15.5156 25.5716 16.2423 25.5716 17C25.5716 17.7578 25.2706 18.4845 24.7348 19.0203C24.199 19.5561 23.4722 19.8572 22.7145 19.8572H20.5216C20.2108 20.3934 19.8152 20.8759 19.3502 21.2857H22.7145C23.2773 21.2857 23.8346 21.1749 24.3545 20.9595C24.8745 20.7441 25.347 20.4284 25.7449 20.0305C26.1429 19.6325 26.4586 19.1601 26.6739 18.6401C26.8893 18.1201 27.0002 17.5628 27.0002 17C27.0002 16.4372 26.8893 15.8799 26.6739 15.36C26.4586 14.84 26.1429 14.3676 25.7449 13.9696C25.347 13.5716 24.8745 13.256 24.3545 13.0406C23.8346 12.8252 23.2773 12.7144 22.7145 12.7144H18.4288Z" fill="black"/>
</svg>
