<svg width="34" height="35" viewBox="0 0 34 35" fill="none" xmlns="http://www.w3.org/2000/svg">
<path d="M24.1259 14.3552C24.3136 14.1538 24.4158 13.8874 24.4109 13.6121C24.4061 13.3369 24.2946 13.0742 24.0999 12.8796C23.9052 12.6849 23.6426 12.5734 23.3673 12.5685C23.0921 12.5637 22.8257 12.6658 22.6243 12.8535L14.8751 20.6027L11.3759 17.1035C11.1745 16.9158 10.9081 16.8137 10.6329 16.8185C10.3576 16.8234 10.095 16.9349 9.90031 17.1296C9.70564 17.3242 9.59413 17.5869 9.58928 17.8621C9.58442 18.1374 9.68659 18.4038 9.87427 18.6052L14.1243 22.8552C14.3235 23.0542 14.5935 23.1659 14.8751 23.1659C15.1567 23.1659 15.4267 23.0542 15.6259 22.8552L24.1259 14.3552Z" fill="#6340FF"/>
<path fill-rule="evenodd" clip-rule="evenodd" d="M20.026 2.20029C19.1486 1.55626 18.0885 1.20898 17 1.20898C15.9116 1.20898 14.8515 1.55626 13.974 2.20029L12.0261 3.63112C11.6377 3.91583 11.1862 4.10246 10.71 4.17512L8.32154 4.54203C7.24577 4.70698 6.25067 5.21082 5.48096 5.98027C4.71126 6.74971 4.20709 7.74465 4.04179 8.82037L3.67487 11.2103C3.60222 11.6864 3.41559 12.1379 3.13087 12.5264L1.70004 14.4743C1.05601 15.3518 0.70874 16.4118 0.70874 17.5003C0.70874 18.5887 1.05601 19.6488 1.70004 20.5263L3.13087 22.4742C3.41421 22.8624 3.60262 23.3143 3.67487 23.7903L4.04179 26.1788C4.20674 27.2546 4.71057 28.2497 5.48002 29.0194C6.24947 29.7891 7.2444 30.2932 8.32012 30.4585L10.71 30.8255C11.186 30.8977 11.638 31.0847 12.0261 31.3695L13.974 32.8003C14.8515 33.4443 15.9116 33.7916 17 33.7916C18.0885 33.7916 19.1486 33.4443 20.026 32.8003L21.974 31.3695C22.3624 31.0847 22.8139 30.8981 23.29 30.8255L25.6785 30.4585C26.7543 30.2936 27.7494 29.7898 28.5191 29.0203C29.2888 28.2509 29.793 27.2559 29.9583 26.1802L30.3252 23.7903C30.3979 23.3142 30.5845 22.8627 30.8692 22.4742L32.3 20.5263C32.9441 19.6488 33.2913 18.5887 33.2913 17.5003C33.2913 16.4118 32.9441 15.3518 32.3 14.4743L30.8692 12.5264C30.5845 12.1379 30.3979 11.6864 30.3252 11.2103L29.9583 8.82178C29.7933 7.74601 29.2895 6.75091 28.5201 5.98121C27.7506 5.2115 26.7557 4.70734 25.68 4.54203L23.29 4.17512C22.8139 4.10246 22.3624 3.91583 21.974 3.63112L20.026 2.20029ZM15.232 3.91303C15.7448 3.53691 16.3641 3.33412 17 3.33412C17.636 3.33412 18.2553 3.53691 18.768 3.91303L20.7174 5.34387C21.3817 5.8314 22.154 6.1512 22.9685 6.27603L25.357 6.64153C25.9857 6.73821 26.5672 7.03297 27.0169 7.48292C27.4666 7.93287 27.7611 8.51455 27.8574 9.14337L28.2257 11.5319C28.3499 12.3467 28.6692 13.1195 29.1565 13.7844L30.5873 15.7323C30.9634 16.245 31.1662 16.8644 31.1662 17.5003C31.1662 18.1362 30.9634 18.7555 30.5873 19.2683L29.1565 21.2176C28.6689 21.8819 28.3491 22.6542 28.2243 23.4687L27.8588 25.8572C27.7621 26.486 27.4674 27.0675 27.0174 27.5172C26.5675 27.9669 25.9858 28.2613 25.357 28.3576L22.9685 28.726C22.1536 28.8501 21.3808 29.1695 20.716 29.6567L18.768 31.0875C18.2553 31.4637 17.636 31.6665 17 31.6665C16.3641 31.6665 15.7448 31.4637 15.232 31.0875L13.2827 29.6567C12.6184 29.1692 11.8461 28.8494 11.0316 28.7245L8.64312 28.359C8.01411 28.2626 7.43227 27.968 6.9823 27.518C6.53232 27.0681 6.23769 26.4862 6.14129 25.8572L5.77579 23.4687C5.65118 22.6537 5.33137 21.8809 4.84362 21.2162L3.41279 19.2683C3.03667 18.7555 2.83387 18.1362 2.83387 17.5003C2.83387 16.8644 3.03667 16.245 3.41279 15.7323L4.84362 13.783C5.33116 13.1186 5.65096 12.3464 5.77579 11.5319L6.14129 9.14337C6.23769 8.51435 6.53232 7.93252 6.9823 7.48254C7.43227 7.03257 8.01411 6.73794 8.64312 6.64153L11.0316 6.27603C11.8466 6.15142 12.6194 5.83161 13.2841 5.34387L15.232 3.91303Z" fill="#6340FF"/>
</svg>
