<svg width="34" height="34" viewBox="0 0 34 34" fill="none" xmlns="http://www.w3.org/2000/svg">
<path d="M15.9375 2.87724C15.8218 2.84773 15.7028 2.83297 15.5834 2.83332H10.9792V8.85415H15.9375V2.87724ZM15.9375 10.9792H2.83337V19.8333C2.83242 20.4727 2.83431 21.063 2.83903 21.6041H15.9375V10.9792ZM15.9375 23.7291H10.9792V28.3333L12.2783 28.3347H15.9375V23.7291ZM8.8542 2.8659C6.57337 2.94382 5.18787 3.20449 4.21603 4.07857C3.15353 5.03482 2.90703 6.43874 2.85037 8.85415H8.8542V2.8659ZM8.8542 23.7291V28.3007C6.57337 28.2228 5.18787 27.9621 4.21603 27.0881C3.3802 26.3372 3.05012 25.3087 2.91978 23.7306L8.8542 23.7291Z" fill="#7077FE"/>
<path opacity="0.5" d="M18.0625 9.92519V5.66669H23.0208V11.6875H18.0625V9.92519ZM18.0625 22.6752V13.8125H31.1667V22.6667C31.1676 23.3061 31.1657 23.8964 31.161 24.4375H18.0625V22.6752ZM18.0625 31.1228C18.1782 31.1523 18.2972 31.167 18.4167 31.1667H23.0208V26.5625H18.0625V31.1228ZM25.1458 11.6875V5.69927C27.4267 5.77719 28.8122 6.03785 29.784 6.91194C30.8465 7.86819 31.093 9.2721 31.1497 11.6875H25.1458ZM31.0817 26.5625H25.1458V31.1341C27.4267 31.0562 28.8122 30.7955 29.784 29.9214C30.6198 29.1706 30.9499 28.1421 31.0802 26.5639" fill="#7077FE"/>
</svg>
