<svg width="65" height="65" viewBox="0 0 65 65" fill="none" xmlns="http://www.w3.org/2000/svg">
<path d="M52.8125 18.2812H12.1875C8.82201 18.2812 6.09375 21.0095 6.09375 24.375V48.75C6.09375 52.1155 8.82201 54.8438 12.1875 54.8438H52.8125C56.178 54.8438 58.9062 52.1155 58.9062 48.75V24.375C58.9062 21.0095 56.178 18.2812 52.8125 18.2812Z" stroke="white" stroke-width="4" stroke-linejoin="round"/>
<path d="M52.2235 18.2813V14.4727C52.2232 13.5385 52.0167 12.616 51.6188 11.7709C51.2209 10.9257 50.6414 10.1788 49.9216 9.58347C49.2018 8.98809 48.3595 8.55892 47.4548 8.32656C46.55 8.0942 45.6051 8.06439 44.6875 8.23926L11.2531 13.9458C9.80119 14.2225 8.49133 14.9972 7.54946 16.1363C6.60758 17.2754 6.09275 18.7075 6.09375 20.1855V26.4063" stroke="white" stroke-width="4" stroke-linejoin="round"/>
<path d="M46.7188 40.625C45.9153 40.625 45.1298 40.3867 44.4617 39.9403C43.7937 39.4939 43.273 38.8595 42.9655 38.1172C42.658 37.3748 42.5776 36.558 42.7343 35.7699C42.8911 34.9819 43.278 34.258 43.8461 33.6899C44.4143 33.1217 45.1381 32.7348 45.9262 32.5781C46.7142 32.4213 47.5311 32.5018 48.2734 32.8092C49.0157 33.1167 49.6502 33.6374 50.0966 34.3055C50.543 34.9736 50.7813 35.759 50.7813 36.5625C50.7813 37.6399 50.3532 38.6733 49.5914 39.4351C48.8295 40.197 47.7962 40.625 46.7188 40.625Z" fill="white"/>
</svg>
