<svg width="33" height="32" viewBox="0 0 33 32" fill="none" xmlns="http://www.w3.org/2000/svg">
<rect x="0.5" width="32" height="32" rx="16" fill="#FFA96E" fill-opacity="0.15"/>
<path d="M16.5005 17.875C15.3505 17.875 15.2505 17.3375 15.2505 17.25H14.0005C14.0005 17.825 14.413 18.8438 15.8755 19.075V19.75H17.1255V19.075C18.3755 18.8625 19.0005 18.0563 19.0005 17.25C19.0005 16.55 18.6755 15.375 16.5005 15.375C15.2505 15.375 15.2505 14.9813 15.2505 14.75C15.2505 14.5187 15.688 14.125 16.5005 14.125C17.313 14.125 17.3692 14.525 17.3755 14.75H18.6255C18.617 14.3242 18.4639 13.914 18.1913 13.5868C17.9186 13.2597 17.5428 13.0351 17.1255 12.95V12.25H15.8755V12.9313C14.6255 13.1375 14.0005 13.9438 14.0005 14.75C14.0005 15.45 14.3255 16.625 16.5005 16.625C17.7505 16.625 17.7505 17.05 17.7505 17.25C17.7505 17.45 17.363 17.875 16.5005 17.875Z" fill="#FFA96E"/>
<path d="M12.1255 9.75146H10.2505V11.0015H11.5005V21.6265C11.5005 21.7922 11.5663 21.9512 11.6835 22.0684C11.8008 22.1856 11.9597 22.2515 12.1255 22.2515H20.8755C21.0412 22.2515 21.2002 22.1856 21.3174 22.0684C21.4346 21.9512 21.5005 21.7922 21.5005 21.6265V11.0015H22.7505V9.75146H12.1255ZM20.2505 21.0015H12.7505V11.0015H20.2505V21.0015Z" fill="#FFA96E"/>
</svg>
