<svg width="60" height="60" viewBox="0 0 60 60" fill="none" xmlns="http://www.w3.org/2000/svg">
<rect x="0.35" y="0.35" width="59.3" height="59.3" rx="9.65" fill="white"/>
<rect x="0.35" y="0.35" width="59.3" height="59.3" rx="9.65" stroke="#848484" stroke-width="0.7"/>
<path fill-rule="evenodd" clip-rule="evenodd" d="M27.579 24.5355C27.4083 24.433 27.2135 24.3777 27.0144 24.3752C26.8153 24.3726 26.6191 24.4229 26.4458 24.521C26.2726 24.6191 26.1284 24.7614 26.0281 24.9334C25.9279 25.1054 25.875 25.3009 25.875 25.5V34.5C25.875 34.6991 25.9279 34.8946 26.0281 35.0666C26.1284 35.2386 26.2726 35.3809 26.4458 35.479C26.6191 35.5771 26.8153 35.6274 27.0144 35.6248C27.2135 35.6223 27.4083 35.567 27.579 35.4645L35.079 30.9645C35.2455 30.8645 35.3833 30.7231 35.479 30.5541C35.5746 30.3851 35.6249 30.1942 35.6249 30C35.6249 29.8058 35.5746 29.6149 35.479 29.4459C35.3833 29.2768 35.2455 29.1355 35.079 29.0355L27.579 24.5355ZM32.313 30L28.125 32.5125V27.4875L32.313 30Z" fill="#848484"/>
<path fill-rule="evenodd" clip-rule="evenodd" d="M37.5449 18.9615C32.5225 18.5687 27.4772 18.5687 22.4549 18.9615L19.0934 19.2255C18.1001 19.3029 17.1613 19.7105 16.4266 20.3833C15.6918 21.0561 15.2033 21.9554 15.0389 22.938C14.2585 27.6137 14.2585 32.3863 15.0389 37.062C15.2033 38.0446 15.6918 38.9439 16.4266 39.6167C17.1613 40.2895 18.1001 40.6971 19.0934 40.7745L22.4534 41.0385C27.4769 41.4315 32.5229 41.4315 37.5464 41.0385L40.9064 40.7745C41.8996 40.6971 42.8384 40.2895 43.5732 39.6167C44.3079 38.9439 44.7964 38.0446 44.9609 37.062C45.7409 32.3865 45.7409 27.6135 44.9609 22.938C44.7964 21.9554 44.3079 21.0561 43.5732 20.3833C42.8384 19.7105 41.8996 19.3029 40.9064 19.2255L37.5449 18.9615ZM22.6304 21.2055C27.5369 20.8216 32.4659 20.8216 37.3724 21.2055L40.7324 21.468C41.7464 21.5475 42.5759 22.308 42.7424 23.31C43.4842 27.7392 43.4842 32.2609 42.7424 36.69C42.6611 37.1774 42.4191 37.6236 42.0548 37.9574C41.6905 38.2912 41.225 38.4935 40.7324 38.532L37.3724 38.7945C32.4659 39.1784 27.5369 39.1784 22.6304 38.7945L19.2704 38.532C18.7778 38.4935 18.3122 38.2912 17.9479 37.9574C17.5837 37.6236 17.3416 37.1774 17.2604 36.69C16.5185 32.2609 16.5185 27.7392 17.2604 23.31C17.3416 22.8226 17.5837 22.3765 17.9479 22.0426C18.3122 21.7088 18.7778 21.5065 19.2704 21.468L22.6304 21.2055Z" fill="#848484"/>
</svg>
